G04 #@! TF.GenerationSoftware,KiCad,Pcbnew,5.0.1-33cea8e~68~ubuntu16.04.1*
G04 #@! TF.CreationDate,2019-02-08T00:52:31-05:00*
G04 #@! TF.ProjectId,SmallKat Jumbo Motherboard,536D616C6C4B6174204A756D626F204D,rev?*
G04 #@! TF.SameCoordinates,Original*
G04 #@! TF.FileFunction,Copper,L2,Inr,Signal*
G04 #@! TF.FilePolarity,Positive*
%FSLAX46Y46*%
G04 Gerber Fmt 4.6, Leading zero omitted, Abs format (unit mm)*
G04 Created by KiCad (PCBNEW 5.0.1-33cea8e~68~ubuntu16.04.1) date Fri 08 Feb 2019 12:52:31 AM EST*
%MOMM*%
%LPD*%
G01*
G04 APERTURE LIST*
G04 #@! TA.AperFunction,ViaPad*
%ADD10C,6.000000*%
G04 #@! TD*
G04 #@! TA.AperFunction,ViaPad*
%ADD11C,0.400000*%
G04 #@! TD*
G04 #@! TA.AperFunction,Conductor*
%ADD12C,0.254000*%
G04 #@! TD*
G04 APERTURE END LIST*
D10*
G04 #@! TO.N,GND*
G04 #@! TO.C,J8*
X4900000Y-29600000D03*
G04 #@! TO.N,+BATT*
X4900000Y-22100000D03*
G04 #@! TD*
D11*
G04 #@! TO.N,GND*
X51206400Y-25298400D03*
X51206400Y-24892000D03*
X51206400Y-24485600D03*
X54844600Y-18040000D03*
X62900000Y-4448100D03*
X62900000Y-4876800D03*
X62900000Y-5283200D03*
X62900000Y-5676900D03*
X56756300Y-25831800D03*
X56756300Y-25425400D03*
X56756300Y-25019000D03*
X54850800Y-27761700D03*
X54850800Y-28168600D03*
X54850800Y-28575000D03*
X59800000Y-59630800D03*
X59800000Y-59166760D03*
X59800000Y-58724800D03*
X70982440Y-15900000D03*
X70551040Y-15900000D03*
X70114160Y-15900000D03*
X69697600Y-15900000D03*
X69291200Y-15900000D03*
X5600000Y-3930080D03*
X5600000Y-4348480D03*
X5600000Y-4770120D03*
X5603240Y-5613400D03*
X5603240Y-5186680D03*
X23405400Y-4719320D03*
X23405400Y-4297680D03*
X23408640Y-5135880D03*
X23405400Y-3879280D03*
X41224200Y-4912360D03*
X41220960Y-4074160D03*
X41220960Y-4495800D03*
X41220960Y-3655760D03*
X70962520Y-41911840D03*
X70124320Y-41915080D03*
X71380920Y-41911840D03*
X70540880Y-41911840D03*
X49209960Y-59293760D03*
X49213200Y-59710320D03*
X49213200Y-60131960D03*
X49213200Y-60550360D03*
X30412120Y-60596080D03*
X30408880Y-59339480D03*
X30412120Y-59756040D03*
X30412120Y-60177680D03*
X11811000Y-59420760D03*
X11814240Y-59837320D03*
X11814240Y-60258960D03*
X11814240Y-60677360D03*
X4348480Y-47750160D03*
X3930080Y-47750160D03*
X4770120Y-47750160D03*
X5186680Y-47746920D03*
X71574920Y-30802840D03*
X71104760Y-30802840D03*
X70662800Y-30802840D03*
X70210680Y-30802840D03*
X69748400Y-30802840D03*
X69336920Y-30802840D03*
X26944320Y-28072080D03*
X46659800Y-16149320D03*
X44648120Y-16154400D03*
X42900600Y-16154400D03*
G04 #@! TO.N,+3V3*
X53327300Y-21628100D03*
X49784000Y-21615400D03*
X70923000Y-13900000D03*
X70510400Y-13900000D03*
X70098920Y-13900000D03*
X69677280Y-13900000D03*
X69255640Y-13900000D03*
X50342800Y-30632400D03*
X49829720Y-30149800D03*
X49489360Y-34584640D03*
X41163240Y-43129200D03*
X26558240Y-36840160D03*
X32369760Y-36306760D03*
X28453080Y-32034480D03*
X28889960Y-26177240D03*
X37810440Y-23586440D03*
X33276858Y-43416538D03*
X71984360Y-28802840D03*
X71501000Y-28802840D03*
X71079360Y-28802840D03*
X70596760Y-28802840D03*
X70129400Y-28802840D03*
G04 #@! TO.N,+BATT*
X3600000Y-5750000D03*
X3596640Y-4089400D03*
X3596640Y-4495800D03*
X3596640Y-4907280D03*
X3596640Y-5313680D03*
X21402040Y-4445000D03*
X21402040Y-4856480D03*
X21402040Y-5262880D03*
X21405400Y-5699200D03*
X21402040Y-4038600D03*
X39217600Y-3815080D03*
X39217600Y-5039360D03*
X39220960Y-5475680D03*
X39217600Y-4632960D03*
X39217600Y-4221480D03*
X70403720Y-39908480D03*
X69997320Y-39908480D03*
X69561000Y-39911840D03*
X70815200Y-39908480D03*
X71221600Y-39908480D03*
X51216560Y-59984640D03*
X51216560Y-59573160D03*
X51216560Y-59166760D03*
X51216560Y-60391040D03*
X51213200Y-58730440D03*
X32415480Y-59212480D03*
X32412120Y-58776160D03*
X32415480Y-60030360D03*
X32415480Y-59618880D03*
X32415480Y-60436760D03*
X13817600Y-59293760D03*
X13814240Y-58857440D03*
X13817600Y-60518040D03*
X13817600Y-59700160D03*
X13817600Y-60111640D03*
X4495800Y-49753520D03*
X4907280Y-49753520D03*
X5750000Y-49750160D03*
X5313680Y-49753520D03*
X4089400Y-49753520D03*
G04 #@! TO.N,SWCLK*
X41097200Y-27264360D03*
X48488600Y-29067760D03*
X51607720Y-29850080D03*
X60416440Y-28960790D03*
G04 #@! TO.N,SWDIO*
X58790840Y-29387800D03*
X50601880Y-28849320D03*
X48442880Y-28371800D03*
X39044880Y-24937720D03*
G04 #@! TO.N,SCK1*
X37002720Y-43093640D03*
X38633400Y-40584120D03*
G04 #@! TO.N,MISO1*
X36921440Y-44632880D03*
X41521062Y-42278618D03*
G04 #@! TO.N,MOSI1*
X36809680Y-44008040D03*
X41818560Y-41656000D03*
X44770040Y-54264560D03*
X44795440Y-52415440D03*
G04 #@! TO.N,SCK4*
X12740640Y-39253160D03*
X10439400Y-41589960D03*
G04 #@! TO.N,MISO4*
X29651960Y-33914080D03*
X22621240Y-35509200D03*
G04 #@! TO.N,MOSI4*
X21681440Y-35595560D03*
X29982160Y-34345880D03*
G04 #@! TO.N,SCK2*
X25323800Y-45008800D03*
X44754800Y-34254440D03*
X59349640Y-41422320D03*
X56479440Y-40670480D03*
G04 #@! TO.N,MISO2*
X34274256Y-38545220D03*
X28083211Y-44269218D03*
X58160920Y-39451280D03*
X55163720Y-39258240D03*
X51932840Y-39227760D03*
X49733200Y-40065960D03*
X43058080Y-40304720D03*
X40838120Y-38618160D03*
X36474400Y-37033200D03*
G04 #@! TO.N,MOSI2*
X27111096Y-43926470D03*
X33815083Y-38286565D03*
X58359040Y-40132000D03*
X55219600Y-39928800D03*
X51861720Y-39974520D03*
X50114200Y-40502840D03*
X42565320Y-40838120D03*
X40402318Y-38964756D03*
G04 #@! TO.N,TX*
X58587640Y-13944600D03*
X56062880Y-13934440D03*
X42865040Y-23296880D03*
X42260520Y-24282400D03*
G04 #@! TO.N,RX*
X58206640Y-14381480D03*
X55717440Y-14351000D03*
G04 #@! TO.N,MOSI3*
X10220960Y-11049000D03*
X10276840Y-9631680D03*
G04 #@! TO.N,MISO6*
X27792680Y-23058120D03*
X27259280Y-18740120D03*
X27299920Y-20614640D03*
G04 #@! TO.N,SCK6*
X27828240Y-20035520D03*
X27934920Y-22550120D03*
G04 #@! TO.N,MOSI6*
X28087320Y-23886160D03*
X27858720Y-18638520D03*
X32628840Y-19497040D03*
G04 #@! TO.N,+5V*
X56900000Y-4220400D03*
X56900000Y-4622800D03*
X56900000Y-5041900D03*
X56900000Y-5448300D03*
X54838600Y-21805900D03*
X52870100Y-17335500D03*
X65800000Y-59764960D03*
X65800000Y-59364880D03*
X65800000Y-58963560D03*
X56774080Y-21727160D03*
X56779160Y-19486880D03*
X56774080Y-20071080D03*
X56774080Y-20518120D03*
X56774080Y-20955000D03*
X65800000Y-59764960D03*
X61259720Y-41483280D03*
X61259720Y-30205680D03*
X61259720Y-40812720D03*
X61259720Y-40299640D03*
X61259720Y-31343600D03*
X61259720Y-30825440D03*
G04 #@! TO.N,CS2*
X25841960Y-44353480D03*
X34716720Y-38831520D03*
G04 #@! TO.N,CS3*
X24871680Y-16078200D03*
X33970278Y-19827558D03*
G04 #@! TO.N,CS1*
X40553640Y-42707560D03*
X41168638Y-44845715D03*
G04 #@! TO.N,CS6_TAIL*
X33147000Y-23296880D03*
X31638240Y-16799560D03*
G04 #@! TO.N,CS6_HEAD*
X32613600Y-20523200D03*
X30708600Y-23342600D03*
G04 #@! TO.N,IMU1_CS*
X32613600Y-44724320D03*
X34655760Y-42651680D03*
G04 #@! TO.N,LED1*
X44653200Y-20919440D03*
X46111160Y-23428960D03*
G04 #@! TO.N,LED2*
X45613320Y-23124160D03*
X43947080Y-21066760D03*
G04 #@! TO.N,LED3*
X43632120Y-21539200D03*
X44978320Y-22910800D03*
G04 #@! TO.N,IMU2_CS*
X64551560Y-47731680D03*
X62133480Y-46334680D03*
X46355000Y-41615360D03*
X45181520Y-39847520D03*
G04 #@! TO.N,MCU_GND*
X37900000Y-41450000D03*
X31750000Y-36100000D03*
X28950000Y-31675000D03*
X38350000Y-23900000D03*
X46050000Y-33275000D03*
X28361640Y-41153080D03*
X26344880Y-39916668D03*
X32437971Y-43051465D03*
X25946100Y-35158390D03*
X34981947Y-39286928D03*
X34076640Y-44632880D03*
G04 #@! TO.N,USB_FS_P*
X50679290Y-33089910D03*
X42489120Y-22341960D03*
G04 #@! TO.N,USB_FS_N*
X50219670Y-33549530D03*
X42455745Y-22964888D03*
G04 #@! TD*
D12*
G04 #@! TO.N,+BATT*
G36*
X74598000Y-64598000D02*
X402000Y-64598000D01*
X402000Y-59315933D01*
X11284000Y-59315933D01*
X11284000Y-59525587D01*
X11328472Y-59632951D01*
X11287240Y-59732493D01*
X11287240Y-59942147D01*
X11331144Y-60048140D01*
X11287240Y-60154133D01*
X11287240Y-60363787D01*
X11330473Y-60468160D01*
X11287240Y-60572533D01*
X11287240Y-60782187D01*
X11367471Y-60975882D01*
X11515718Y-61124129D01*
X11709413Y-61204360D01*
X11919067Y-61204360D01*
X12112762Y-61124129D01*
X12261009Y-60975882D01*
X12341240Y-60782187D01*
X12341240Y-60572533D01*
X12298007Y-60468160D01*
X12341240Y-60363787D01*
X12341240Y-60154133D01*
X12297336Y-60048140D01*
X12341240Y-59942147D01*
X12341240Y-59732493D01*
X12296768Y-59625129D01*
X12338000Y-59525587D01*
X12338000Y-59315933D01*
X12304333Y-59234653D01*
X29881880Y-59234653D01*
X29881880Y-59444307D01*
X29926352Y-59551671D01*
X29885120Y-59651213D01*
X29885120Y-59860867D01*
X29929024Y-59966860D01*
X29885120Y-60072853D01*
X29885120Y-60282507D01*
X29928353Y-60386880D01*
X29885120Y-60491253D01*
X29885120Y-60700907D01*
X29965351Y-60894602D01*
X30113598Y-61042849D01*
X30307293Y-61123080D01*
X30516947Y-61123080D01*
X30710642Y-61042849D01*
X30858889Y-60894602D01*
X30939120Y-60700907D01*
X30939120Y-60491253D01*
X30895887Y-60386880D01*
X30939120Y-60282507D01*
X30939120Y-60072853D01*
X30895216Y-59966860D01*
X30939120Y-59860867D01*
X30939120Y-59651213D01*
X30894648Y-59543849D01*
X30935880Y-59444307D01*
X30935880Y-59234653D01*
X30916943Y-59188933D01*
X48682960Y-59188933D01*
X48682960Y-59398587D01*
X48727432Y-59505951D01*
X48686200Y-59605493D01*
X48686200Y-59815147D01*
X48730104Y-59921140D01*
X48686200Y-60027133D01*
X48686200Y-60236787D01*
X48729433Y-60341160D01*
X48686200Y-60445533D01*
X48686200Y-60655187D01*
X48766431Y-60848882D01*
X48914678Y-60997129D01*
X49108373Y-61077360D01*
X49318027Y-61077360D01*
X49511722Y-60997129D01*
X49659969Y-60848882D01*
X49740200Y-60655187D01*
X49740200Y-60616696D01*
X70373000Y-60616696D01*
X70373000Y-61383304D01*
X70666368Y-62091558D01*
X71208442Y-62633632D01*
X71916696Y-62927000D01*
X72683304Y-62927000D01*
X73391558Y-62633632D01*
X73933632Y-62091558D01*
X74227000Y-61383304D01*
X74227000Y-60616696D01*
X73933632Y-59908442D01*
X73391558Y-59366368D01*
X72683304Y-59073000D01*
X71916696Y-59073000D01*
X71208442Y-59366368D01*
X70666368Y-59908442D01*
X70373000Y-60616696D01*
X49740200Y-60616696D01*
X49740200Y-60445533D01*
X49696967Y-60341160D01*
X49740200Y-60236787D01*
X49740200Y-60027133D01*
X49696296Y-59921140D01*
X49740200Y-59815147D01*
X49740200Y-59605493D01*
X49695728Y-59498129D01*
X49736960Y-59398587D01*
X49736960Y-59188933D01*
X49656729Y-58995238D01*
X49508482Y-58846991D01*
X49314787Y-58766760D01*
X49105133Y-58766760D01*
X48911438Y-58846991D01*
X48763191Y-58995238D01*
X48682960Y-59188933D01*
X30916943Y-59188933D01*
X30855649Y-59040958D01*
X30707402Y-58892711D01*
X30513707Y-58812480D01*
X30304053Y-58812480D01*
X30110358Y-58892711D01*
X29962111Y-59040958D01*
X29881880Y-59234653D01*
X12304333Y-59234653D01*
X12257769Y-59122238D01*
X12109522Y-58973991D01*
X11915827Y-58893760D01*
X11706173Y-58893760D01*
X11512478Y-58973991D01*
X11364231Y-59122238D01*
X11284000Y-59315933D01*
X402000Y-59315933D01*
X402000Y-58619973D01*
X59273000Y-58619973D01*
X59273000Y-58829627D01*
X59321112Y-58945780D01*
X59273000Y-59061933D01*
X59273000Y-59271587D01*
X59325685Y-59398780D01*
X59273000Y-59525973D01*
X59273000Y-59735627D01*
X59353231Y-59929322D01*
X59501478Y-60077569D01*
X59695173Y-60157800D01*
X59904827Y-60157800D01*
X60098522Y-60077569D01*
X60246769Y-59929322D01*
X60327000Y-59735627D01*
X60327000Y-59525973D01*
X60274315Y-59398780D01*
X60327000Y-59271587D01*
X60327000Y-59061933D01*
X60278888Y-58945780D01*
X60314943Y-58858733D01*
X65273000Y-58858733D01*
X65273000Y-59068387D01*
X65312695Y-59164220D01*
X65273000Y-59260053D01*
X65273000Y-59469707D01*
X65312438Y-59564920D01*
X65273000Y-59660133D01*
X65273000Y-59869787D01*
X65353231Y-60063482D01*
X65501478Y-60211729D01*
X65695173Y-60291960D01*
X65904827Y-60291960D01*
X66098522Y-60211729D01*
X66246769Y-60063482D01*
X66327000Y-59869787D01*
X66327000Y-59660133D01*
X66287562Y-59564920D01*
X66327000Y-59469707D01*
X66327000Y-59260053D01*
X66287305Y-59164220D01*
X66327000Y-59068387D01*
X66327000Y-58858733D01*
X66246769Y-58665038D01*
X66098522Y-58516791D01*
X65904827Y-58436560D01*
X65695173Y-58436560D01*
X65501478Y-58516791D01*
X65353231Y-58665038D01*
X65273000Y-58858733D01*
X60314943Y-58858733D01*
X60327000Y-58829627D01*
X60327000Y-58619973D01*
X60246769Y-58426278D01*
X60098522Y-58278031D01*
X59904827Y-58197800D01*
X59695173Y-58197800D01*
X59501478Y-58278031D01*
X59353231Y-58426278D01*
X59273000Y-58619973D01*
X402000Y-58619973D01*
X402000Y-54159733D01*
X44243040Y-54159733D01*
X44243040Y-54369387D01*
X44323271Y-54563082D01*
X44471518Y-54711329D01*
X44665213Y-54791560D01*
X44874867Y-54791560D01*
X45068562Y-54711329D01*
X45216809Y-54563082D01*
X45297040Y-54369387D01*
X45297040Y-54159733D01*
X45216809Y-53966038D01*
X45068562Y-53817791D01*
X44874867Y-53737560D01*
X44665213Y-53737560D01*
X44471518Y-53817791D01*
X44323271Y-53966038D01*
X44243040Y-54159733D01*
X402000Y-54159733D01*
X402000Y-52310613D01*
X44268440Y-52310613D01*
X44268440Y-52520267D01*
X44348671Y-52713962D01*
X44496918Y-52862209D01*
X44690613Y-52942440D01*
X44900267Y-52942440D01*
X45093962Y-52862209D01*
X45242209Y-52713962D01*
X45322440Y-52520267D01*
X45322440Y-52310613D01*
X45242209Y-52116918D01*
X45093962Y-51968671D01*
X44900267Y-51888440D01*
X44690613Y-51888440D01*
X44496918Y-51968671D01*
X44348671Y-52116918D01*
X44268440Y-52310613D01*
X402000Y-52310613D01*
X402000Y-47645333D01*
X3403080Y-47645333D01*
X3403080Y-47854987D01*
X3483311Y-48048682D01*
X3631558Y-48196929D01*
X3825253Y-48277160D01*
X4034907Y-48277160D01*
X4139280Y-48233927D01*
X4243653Y-48277160D01*
X4453307Y-48277160D01*
X4559300Y-48233256D01*
X4665293Y-48277160D01*
X4874947Y-48277160D01*
X4982311Y-48232688D01*
X5081853Y-48273920D01*
X5291507Y-48273920D01*
X5485202Y-48193689D01*
X5633449Y-48045442D01*
X5713680Y-47851747D01*
X5713680Y-47642093D01*
X5707368Y-47626853D01*
X64024560Y-47626853D01*
X64024560Y-47836507D01*
X64104791Y-48030202D01*
X64253038Y-48178449D01*
X64446733Y-48258680D01*
X64656387Y-48258680D01*
X64850082Y-48178449D01*
X64998329Y-48030202D01*
X65078560Y-47836507D01*
X65078560Y-47626853D01*
X64998329Y-47433158D01*
X64850082Y-47284911D01*
X64656387Y-47204680D01*
X64446733Y-47204680D01*
X64253038Y-47284911D01*
X64104791Y-47433158D01*
X64024560Y-47626853D01*
X5707368Y-47626853D01*
X5633449Y-47448398D01*
X5485202Y-47300151D01*
X5291507Y-47219920D01*
X5081853Y-47219920D01*
X4974489Y-47264392D01*
X4874947Y-47223160D01*
X4665293Y-47223160D01*
X4559300Y-47267064D01*
X4453307Y-47223160D01*
X4243653Y-47223160D01*
X4139280Y-47266393D01*
X4034907Y-47223160D01*
X3825253Y-47223160D01*
X3631558Y-47303391D01*
X3483311Y-47451638D01*
X3403080Y-47645333D01*
X402000Y-47645333D01*
X402000Y-46229853D01*
X61606480Y-46229853D01*
X61606480Y-46439507D01*
X61686711Y-46633202D01*
X61834958Y-46781449D01*
X62028653Y-46861680D01*
X62238307Y-46861680D01*
X62432002Y-46781449D01*
X62580249Y-46633202D01*
X62660480Y-46439507D01*
X62660480Y-46229853D01*
X62580249Y-46036158D01*
X62432002Y-45887911D01*
X62238307Y-45807680D01*
X62028653Y-45807680D01*
X61834958Y-45887911D01*
X61686711Y-46036158D01*
X61606480Y-46229853D01*
X402000Y-46229853D01*
X402000Y-41485133D01*
X9912400Y-41485133D01*
X9912400Y-41694787D01*
X9992631Y-41888482D01*
X10140878Y-42036729D01*
X10334573Y-42116960D01*
X10544227Y-42116960D01*
X10737922Y-42036729D01*
X10886169Y-41888482D01*
X10966400Y-41694787D01*
X10966400Y-41485133D01*
X10886169Y-41291438D01*
X10737922Y-41143191D01*
X10544227Y-41062960D01*
X10334573Y-41062960D01*
X10140878Y-41143191D01*
X9992631Y-41291438D01*
X9912400Y-41485133D01*
X402000Y-41485133D01*
X402000Y-39148333D01*
X12213640Y-39148333D01*
X12213640Y-39357987D01*
X12293871Y-39551682D01*
X12442118Y-39699929D01*
X12635813Y-39780160D01*
X12845467Y-39780160D01*
X13039162Y-39699929D01*
X13187409Y-39551682D01*
X13267640Y-39357987D01*
X13267640Y-39148333D01*
X13187409Y-38954638D01*
X13039162Y-38806391D01*
X12845467Y-38726160D01*
X12635813Y-38726160D01*
X12442118Y-38806391D01*
X12293871Y-38954638D01*
X12213640Y-39148333D01*
X402000Y-39148333D01*
X402000Y-35490733D01*
X21154440Y-35490733D01*
X21154440Y-35700387D01*
X21234671Y-35894082D01*
X21382918Y-36042329D01*
X21576613Y-36122560D01*
X21786267Y-36122560D01*
X21979962Y-36042329D01*
X22128209Y-35894082D01*
X22169226Y-35795059D01*
X22174471Y-35807722D01*
X22322718Y-35955969D01*
X22516413Y-36036200D01*
X22726067Y-36036200D01*
X22919762Y-35955969D01*
X23068009Y-35807722D01*
X23148240Y-35614027D01*
X23148240Y-35404373D01*
X23068009Y-35210678D01*
X22919762Y-35062431D01*
X22726067Y-34982200D01*
X22516413Y-34982200D01*
X22322718Y-35062431D01*
X22174471Y-35210678D01*
X22133454Y-35309701D01*
X22128209Y-35297038D01*
X21979962Y-35148791D01*
X21786267Y-35068560D01*
X21576613Y-35068560D01*
X21382918Y-35148791D01*
X21234671Y-35297038D01*
X21154440Y-35490733D01*
X402000Y-35490733D01*
X402000Y-28938219D01*
X1573000Y-28938219D01*
X1573000Y-30261781D01*
X2079505Y-31484594D01*
X3015406Y-32420495D01*
X4238219Y-32927000D01*
X5561781Y-32927000D01*
X6784594Y-32420495D01*
X7720495Y-31484594D01*
X8227000Y-30261781D01*
X8227000Y-28938219D01*
X7720495Y-27715406D01*
X6784594Y-26779505D01*
X5561781Y-26273000D01*
X4238219Y-26273000D01*
X3015406Y-26779505D01*
X2079505Y-27715406D01*
X1573000Y-28938219D01*
X402000Y-28938219D01*
X402000Y-19497888D01*
X23869040Y-19497888D01*
X23869040Y-45697888D01*
X23893931Y-45823025D01*
X23964816Y-45929112D01*
X24070903Y-45999997D01*
X24196040Y-46024888D01*
X50596040Y-46024888D01*
X50721177Y-45999997D01*
X50827264Y-45929112D01*
X50898149Y-45823025D01*
X50923040Y-45697888D01*
X50923040Y-41317493D01*
X58822640Y-41317493D01*
X58822640Y-41527147D01*
X58902871Y-41720842D01*
X59051118Y-41869089D01*
X59244813Y-41949320D01*
X59454467Y-41949320D01*
X59648162Y-41869089D01*
X59796409Y-41720842D01*
X59876640Y-41527147D01*
X59876640Y-41317493D01*
X59796409Y-41123798D01*
X59648162Y-40975551D01*
X59454467Y-40895320D01*
X59244813Y-40895320D01*
X59051118Y-40975551D01*
X58902871Y-41123798D01*
X58822640Y-41317493D01*
X50923040Y-41317493D01*
X50923040Y-40565653D01*
X55952440Y-40565653D01*
X55952440Y-40775307D01*
X56032671Y-40969002D01*
X56180918Y-41117249D01*
X56374613Y-41197480D01*
X56584267Y-41197480D01*
X56777962Y-41117249D01*
X56926209Y-40969002D01*
X57006440Y-40775307D01*
X57006440Y-40565653D01*
X56926209Y-40371958D01*
X56777962Y-40223711D01*
X56584267Y-40143480D01*
X56374613Y-40143480D01*
X56180918Y-40223711D01*
X56032671Y-40371958D01*
X55952440Y-40565653D01*
X50923040Y-40565653D01*
X50923040Y-39869693D01*
X51334720Y-39869693D01*
X51334720Y-40079347D01*
X51414951Y-40273042D01*
X51563198Y-40421289D01*
X51756893Y-40501520D01*
X51966547Y-40501520D01*
X52160242Y-40421289D01*
X52308489Y-40273042D01*
X52388720Y-40079347D01*
X52388720Y-39869693D01*
X52308489Y-39675998D01*
X52269191Y-39636700D01*
X52379609Y-39526282D01*
X52459840Y-39332587D01*
X52459840Y-39153413D01*
X54636720Y-39153413D01*
X54636720Y-39363067D01*
X54716951Y-39556762D01*
X54781649Y-39621460D01*
X54772831Y-39630278D01*
X54692600Y-39823973D01*
X54692600Y-40033627D01*
X54772831Y-40227322D01*
X54921078Y-40375569D01*
X55114773Y-40455800D01*
X55324427Y-40455800D01*
X55518122Y-40375569D01*
X55666369Y-40227322D01*
X55746600Y-40033627D01*
X55746600Y-39823973D01*
X55666369Y-39630278D01*
X55601671Y-39565580D01*
X55610489Y-39556762D01*
X55690720Y-39363067D01*
X55690720Y-39346453D01*
X57633920Y-39346453D01*
X57633920Y-39556107D01*
X57714151Y-39749802D01*
X57862398Y-39898049D01*
X57882138Y-39906226D01*
X57832040Y-40027173D01*
X57832040Y-40236827D01*
X57912271Y-40430522D01*
X58060518Y-40578769D01*
X58254213Y-40659000D01*
X58463867Y-40659000D01*
X58657562Y-40578769D01*
X58805809Y-40430522D01*
X58886040Y-40236827D01*
X58886040Y-40194813D01*
X60732720Y-40194813D01*
X60732720Y-40404467D01*
X60795562Y-40556180D01*
X60732720Y-40707893D01*
X60732720Y-40917547D01*
X60812951Y-41111242D01*
X60849709Y-41148000D01*
X60812951Y-41184758D01*
X60732720Y-41378453D01*
X60732720Y-41588107D01*
X60812951Y-41781802D01*
X60961198Y-41930049D01*
X61154893Y-42010280D01*
X61364547Y-42010280D01*
X61558242Y-41930049D01*
X61678038Y-41810253D01*
X69597320Y-41810253D01*
X69597320Y-42019907D01*
X69677551Y-42213602D01*
X69825798Y-42361849D01*
X70019493Y-42442080D01*
X70229147Y-42442080D01*
X70336511Y-42397608D01*
X70436053Y-42438840D01*
X70645707Y-42438840D01*
X70751700Y-42394936D01*
X70857693Y-42438840D01*
X71067347Y-42438840D01*
X71171720Y-42395607D01*
X71276093Y-42438840D01*
X71485747Y-42438840D01*
X71679442Y-42358609D01*
X71827689Y-42210362D01*
X71907920Y-42016667D01*
X71907920Y-41807013D01*
X71827689Y-41613318D01*
X71679442Y-41465071D01*
X71485747Y-41384840D01*
X71276093Y-41384840D01*
X71171720Y-41428073D01*
X71067347Y-41384840D01*
X70857693Y-41384840D01*
X70751700Y-41428744D01*
X70645707Y-41384840D01*
X70436053Y-41384840D01*
X70328689Y-41429312D01*
X70229147Y-41388080D01*
X70019493Y-41388080D01*
X69825798Y-41468311D01*
X69677551Y-41616558D01*
X69597320Y-41810253D01*
X61678038Y-41810253D01*
X61706489Y-41781802D01*
X61786720Y-41588107D01*
X61786720Y-41378453D01*
X61706489Y-41184758D01*
X61669731Y-41148000D01*
X61706489Y-41111242D01*
X61786720Y-40917547D01*
X61786720Y-40707893D01*
X61723878Y-40556180D01*
X61786720Y-40404467D01*
X61786720Y-40194813D01*
X61706489Y-40001118D01*
X61558242Y-39852871D01*
X61364547Y-39772640D01*
X61154893Y-39772640D01*
X60961198Y-39852871D01*
X60812951Y-40001118D01*
X60732720Y-40194813D01*
X58886040Y-40194813D01*
X58886040Y-40027173D01*
X58805809Y-39833478D01*
X58657562Y-39685231D01*
X58637822Y-39677054D01*
X58687920Y-39556107D01*
X58687920Y-39346453D01*
X58607689Y-39152758D01*
X58459442Y-39004511D01*
X58265747Y-38924280D01*
X58056093Y-38924280D01*
X57862398Y-39004511D01*
X57714151Y-39152758D01*
X57633920Y-39346453D01*
X55690720Y-39346453D01*
X55690720Y-39153413D01*
X55610489Y-38959718D01*
X55462242Y-38811471D01*
X55268547Y-38731240D01*
X55058893Y-38731240D01*
X54865198Y-38811471D01*
X54716951Y-38959718D01*
X54636720Y-39153413D01*
X52459840Y-39153413D01*
X52459840Y-39122933D01*
X52379609Y-38929238D01*
X52231362Y-38780991D01*
X52037667Y-38700760D01*
X51828013Y-38700760D01*
X51634318Y-38780991D01*
X51486071Y-38929238D01*
X51405840Y-39122933D01*
X51405840Y-39332587D01*
X51486071Y-39526282D01*
X51525369Y-39565580D01*
X51414951Y-39675998D01*
X51334720Y-39869693D01*
X50923040Y-39869693D01*
X50923040Y-33559366D01*
X50977812Y-33536679D01*
X51126059Y-33388432D01*
X51206290Y-33194737D01*
X51206290Y-32985083D01*
X51126059Y-32791388D01*
X50977812Y-32643141D01*
X50923040Y-32620454D01*
X50923040Y-29745253D01*
X51080720Y-29745253D01*
X51080720Y-29954907D01*
X51160951Y-30148602D01*
X51309198Y-30296849D01*
X51502893Y-30377080D01*
X51712547Y-30377080D01*
X51906242Y-30296849D01*
X52054489Y-30148602D01*
X52074267Y-30100853D01*
X60732720Y-30100853D01*
X60732720Y-30310507D01*
X60812951Y-30504202D01*
X60824309Y-30515560D01*
X60812951Y-30526918D01*
X60732720Y-30720613D01*
X60732720Y-30930267D01*
X60796614Y-31084520D01*
X60732720Y-31238773D01*
X60732720Y-31448427D01*
X60812951Y-31642122D01*
X60961198Y-31790369D01*
X61154893Y-31870600D01*
X61364547Y-31870600D01*
X61558242Y-31790369D01*
X61706489Y-31642122D01*
X61786720Y-31448427D01*
X61786720Y-31238773D01*
X61722826Y-31084520D01*
X61786720Y-30930267D01*
X61786720Y-30720613D01*
X61777359Y-30698013D01*
X68809920Y-30698013D01*
X68809920Y-30907667D01*
X68890151Y-31101362D01*
X69038398Y-31249609D01*
X69232093Y-31329840D01*
X69441747Y-31329840D01*
X69542660Y-31288041D01*
X69643573Y-31329840D01*
X69853227Y-31329840D01*
X69979540Y-31277520D01*
X70105853Y-31329840D01*
X70315507Y-31329840D01*
X70436740Y-31279624D01*
X70557973Y-31329840D01*
X70767627Y-31329840D01*
X70883780Y-31281728D01*
X70999933Y-31329840D01*
X71209587Y-31329840D01*
X71339840Y-31275888D01*
X71470093Y-31329840D01*
X71679747Y-31329840D01*
X71873442Y-31249609D01*
X72021689Y-31101362D01*
X72101920Y-30907667D01*
X72101920Y-30698013D01*
X72021689Y-30504318D01*
X71873442Y-30356071D01*
X71679747Y-30275840D01*
X71470093Y-30275840D01*
X71339840Y-30329792D01*
X71209587Y-30275840D01*
X70999933Y-30275840D01*
X70883780Y-30323952D01*
X70767627Y-30275840D01*
X70557973Y-30275840D01*
X70436740Y-30326056D01*
X70315507Y-30275840D01*
X70105853Y-30275840D01*
X69979540Y-30328160D01*
X69853227Y-30275840D01*
X69643573Y-30275840D01*
X69542660Y-30317639D01*
X69441747Y-30275840D01*
X69232093Y-30275840D01*
X69038398Y-30356071D01*
X68890151Y-30504318D01*
X68809920Y-30698013D01*
X61777359Y-30698013D01*
X61706489Y-30526918D01*
X61695131Y-30515560D01*
X61706489Y-30504202D01*
X61786720Y-30310507D01*
X61786720Y-30100853D01*
X61706489Y-29907158D01*
X61558242Y-29758911D01*
X61364547Y-29678680D01*
X61154893Y-29678680D01*
X60961198Y-29758911D01*
X60812951Y-29907158D01*
X60732720Y-30100853D01*
X52074267Y-30100853D01*
X52134720Y-29954907D01*
X52134720Y-29745253D01*
X52054489Y-29551558D01*
X51906242Y-29403311D01*
X51712547Y-29323080D01*
X51502893Y-29323080D01*
X51309198Y-29403311D01*
X51160951Y-29551558D01*
X51080720Y-29745253D01*
X50923040Y-29745253D01*
X50923040Y-29282973D01*
X58263840Y-29282973D01*
X58263840Y-29492627D01*
X58344071Y-29686322D01*
X58492318Y-29834569D01*
X58686013Y-29914800D01*
X58895667Y-29914800D01*
X59089362Y-29834569D01*
X59237609Y-29686322D01*
X59317840Y-29492627D01*
X59317840Y-29282973D01*
X59237609Y-29089278D01*
X59089362Y-28941031D01*
X58895667Y-28860800D01*
X58686013Y-28860800D01*
X58492318Y-28941031D01*
X58344071Y-29089278D01*
X58263840Y-29282973D01*
X50923040Y-29282973D01*
X50923040Y-29273451D01*
X51048649Y-29147842D01*
X51128880Y-28954147D01*
X51128880Y-28744493D01*
X51048649Y-28550798D01*
X50923040Y-28425189D01*
X50923040Y-27656873D01*
X54323800Y-27656873D01*
X54323800Y-27866527D01*
X54364651Y-27965150D01*
X54323800Y-28063773D01*
X54323800Y-28273427D01*
X54364547Y-28371800D01*
X54323800Y-28470173D01*
X54323800Y-28679827D01*
X54404031Y-28873522D01*
X54552278Y-29021769D01*
X54745973Y-29102000D01*
X54955627Y-29102000D01*
X55149322Y-29021769D01*
X55297569Y-28873522D01*
X55304842Y-28855963D01*
X59889440Y-28855963D01*
X59889440Y-29065617D01*
X59969671Y-29259312D01*
X60117918Y-29407559D01*
X60311613Y-29487790D01*
X60521267Y-29487790D01*
X60714962Y-29407559D01*
X60863209Y-29259312D01*
X60943440Y-29065617D01*
X60943440Y-28855963D01*
X60878016Y-28698013D01*
X69602400Y-28698013D01*
X69602400Y-28907667D01*
X69682631Y-29101362D01*
X69830878Y-29249609D01*
X70024573Y-29329840D01*
X70234227Y-29329840D01*
X70363080Y-29276467D01*
X70491933Y-29329840D01*
X70701587Y-29329840D01*
X70838060Y-29273311D01*
X70974533Y-29329840D01*
X71184187Y-29329840D01*
X71290180Y-29285936D01*
X71396173Y-29329840D01*
X71605827Y-29329840D01*
X71742680Y-29273154D01*
X71879533Y-29329840D01*
X72089187Y-29329840D01*
X72282882Y-29249609D01*
X72431129Y-29101362D01*
X72511360Y-28907667D01*
X72511360Y-28698013D01*
X72431129Y-28504318D01*
X72282882Y-28356071D01*
X72089187Y-28275840D01*
X71879533Y-28275840D01*
X71742680Y-28332526D01*
X71605827Y-28275840D01*
X71396173Y-28275840D01*
X71290180Y-28319744D01*
X71184187Y-28275840D01*
X70974533Y-28275840D01*
X70838060Y-28332369D01*
X70701587Y-28275840D01*
X70491933Y-28275840D01*
X70363080Y-28329213D01*
X70234227Y-28275840D01*
X70024573Y-28275840D01*
X69830878Y-28356071D01*
X69682631Y-28504318D01*
X69602400Y-28698013D01*
X60878016Y-28698013D01*
X60863209Y-28662268D01*
X60714962Y-28514021D01*
X60521267Y-28433790D01*
X60311613Y-28433790D01*
X60117918Y-28514021D01*
X59969671Y-28662268D01*
X59889440Y-28855963D01*
X55304842Y-28855963D01*
X55377800Y-28679827D01*
X55377800Y-28470173D01*
X55337053Y-28371800D01*
X55377800Y-28273427D01*
X55377800Y-28063773D01*
X55336949Y-27965150D01*
X55377800Y-27866527D01*
X55377800Y-27656873D01*
X55297569Y-27463178D01*
X55149322Y-27314931D01*
X54955627Y-27234700D01*
X54745973Y-27234700D01*
X54552278Y-27314931D01*
X54404031Y-27463178D01*
X54323800Y-27656873D01*
X50923040Y-27656873D01*
X50923040Y-25751449D01*
X51101573Y-25825400D01*
X51311227Y-25825400D01*
X51504922Y-25745169D01*
X51653169Y-25596922D01*
X51733400Y-25403227D01*
X51733400Y-25193573D01*
X51692653Y-25095200D01*
X51733400Y-24996827D01*
X51733400Y-24914173D01*
X56229300Y-24914173D01*
X56229300Y-25123827D01*
X56270047Y-25222200D01*
X56229300Y-25320573D01*
X56229300Y-25530227D01*
X56270047Y-25628600D01*
X56229300Y-25726973D01*
X56229300Y-25936627D01*
X56309531Y-26130322D01*
X56457778Y-26278569D01*
X56651473Y-26358800D01*
X56861127Y-26358800D01*
X57054822Y-26278569D01*
X57203069Y-26130322D01*
X57283300Y-25936627D01*
X57283300Y-25726973D01*
X57242553Y-25628600D01*
X57283300Y-25530227D01*
X57283300Y-25320573D01*
X57242553Y-25222200D01*
X57283300Y-25123827D01*
X57283300Y-24914173D01*
X57203069Y-24720478D01*
X57054822Y-24572231D01*
X56861127Y-24492000D01*
X56651473Y-24492000D01*
X56457778Y-24572231D01*
X56309531Y-24720478D01*
X56229300Y-24914173D01*
X51733400Y-24914173D01*
X51733400Y-24787173D01*
X51692653Y-24688800D01*
X51733400Y-24590427D01*
X51733400Y-24380773D01*
X51653169Y-24187078D01*
X51504922Y-24038831D01*
X51311227Y-23958600D01*
X51101573Y-23958600D01*
X50923040Y-24032551D01*
X50923040Y-21523273D01*
X52800300Y-21523273D01*
X52800300Y-21732927D01*
X52880531Y-21926622D01*
X53028778Y-22074869D01*
X53222473Y-22155100D01*
X53432127Y-22155100D01*
X53625822Y-22074869D01*
X53774069Y-21926622D01*
X53854300Y-21732927D01*
X53854300Y-21701073D01*
X54311600Y-21701073D01*
X54311600Y-21910727D01*
X54391831Y-22104422D01*
X54540078Y-22252669D01*
X54733773Y-22332900D01*
X54943427Y-22332900D01*
X55137122Y-22252669D01*
X55285369Y-22104422D01*
X55365600Y-21910727D01*
X55365600Y-21701073D01*
X55285369Y-21507378D01*
X55137122Y-21359131D01*
X54943427Y-21278900D01*
X54733773Y-21278900D01*
X54540078Y-21359131D01*
X54391831Y-21507378D01*
X54311600Y-21701073D01*
X53854300Y-21701073D01*
X53854300Y-21523273D01*
X53774069Y-21329578D01*
X53625822Y-21181331D01*
X53432127Y-21101100D01*
X53222473Y-21101100D01*
X53028778Y-21181331D01*
X52880531Y-21329578D01*
X52800300Y-21523273D01*
X50923040Y-21523273D01*
X50923040Y-19966253D01*
X56247080Y-19966253D01*
X56247080Y-20175907D01*
X56296244Y-20294600D01*
X56247080Y-20413293D01*
X56247080Y-20622947D01*
X56294140Y-20736560D01*
X56247080Y-20850173D01*
X56247080Y-21059827D01*
X56327311Y-21253522D01*
X56414869Y-21341080D01*
X56327311Y-21428638D01*
X56247080Y-21622333D01*
X56247080Y-21831987D01*
X56327311Y-22025682D01*
X56475558Y-22173929D01*
X56669253Y-22254160D01*
X56878907Y-22254160D01*
X57072602Y-22173929D01*
X57220849Y-22025682D01*
X57301080Y-21831987D01*
X57301080Y-21622333D01*
X57220849Y-21428638D01*
X57133291Y-21341080D01*
X57220849Y-21253522D01*
X57301080Y-21059827D01*
X57301080Y-20850173D01*
X57254020Y-20736560D01*
X57301080Y-20622947D01*
X57301080Y-20413293D01*
X57251916Y-20294600D01*
X57301080Y-20175907D01*
X57301080Y-19966253D01*
X57226049Y-19785112D01*
X57306160Y-19591707D01*
X57306160Y-19382053D01*
X57225929Y-19188358D01*
X57077682Y-19040111D01*
X56883987Y-18959880D01*
X56674333Y-18959880D01*
X56480638Y-19040111D01*
X56332391Y-19188358D01*
X56252160Y-19382053D01*
X56252160Y-19591707D01*
X56327191Y-19772848D01*
X56247080Y-19966253D01*
X50923040Y-19966253D01*
X50923040Y-19497888D01*
X50898149Y-19372751D01*
X50827264Y-19266664D01*
X50721177Y-19195779D01*
X50596040Y-19170888D01*
X33047979Y-19170888D01*
X32927362Y-19050271D01*
X32733667Y-18970040D01*
X32524013Y-18970040D01*
X32330318Y-19050271D01*
X32209701Y-19170888D01*
X27573803Y-19170888D01*
X27630346Y-19114345D01*
X27753893Y-19165520D01*
X27963547Y-19165520D01*
X28157242Y-19085289D01*
X28305489Y-18937042D01*
X28385720Y-18743347D01*
X28385720Y-18533693D01*
X28305489Y-18339998D01*
X28157242Y-18191751D01*
X27963547Y-18111520D01*
X27753893Y-18111520D01*
X27560198Y-18191751D01*
X27487654Y-18264295D01*
X27364107Y-18213120D01*
X27154453Y-18213120D01*
X26960758Y-18293351D01*
X26812511Y-18441598D01*
X26732280Y-18635293D01*
X26732280Y-18844947D01*
X26812511Y-19038642D01*
X26944757Y-19170888D01*
X24196040Y-19170888D01*
X24070903Y-19195779D01*
X23964816Y-19266664D01*
X23893931Y-19372751D01*
X23869040Y-19497888D01*
X402000Y-19497888D01*
X402000Y-17935173D01*
X54317600Y-17935173D01*
X54317600Y-18144827D01*
X54397831Y-18338522D01*
X54546078Y-18486769D01*
X54739773Y-18567000D01*
X54949427Y-18567000D01*
X55143122Y-18486769D01*
X55291369Y-18338522D01*
X55371600Y-18144827D01*
X55371600Y-17935173D01*
X55291369Y-17741478D01*
X55143122Y-17593231D01*
X54949427Y-17513000D01*
X54739773Y-17513000D01*
X54546078Y-17593231D01*
X54397831Y-17741478D01*
X54317600Y-17935173D01*
X402000Y-17935173D01*
X402000Y-16694733D01*
X31111240Y-16694733D01*
X31111240Y-16904387D01*
X31191471Y-17098082D01*
X31339718Y-17246329D01*
X31533413Y-17326560D01*
X31743067Y-17326560D01*
X31936762Y-17246329D01*
X31952418Y-17230673D01*
X52343100Y-17230673D01*
X52343100Y-17440327D01*
X52423331Y-17634022D01*
X52571578Y-17782269D01*
X52765273Y-17862500D01*
X52974927Y-17862500D01*
X53168622Y-17782269D01*
X53316869Y-17634022D01*
X53397100Y-17440327D01*
X53397100Y-17230673D01*
X53316869Y-17036978D01*
X53168622Y-16888731D01*
X52974927Y-16808500D01*
X52765273Y-16808500D01*
X52571578Y-16888731D01*
X52423331Y-17036978D01*
X52343100Y-17230673D01*
X31952418Y-17230673D01*
X32085009Y-17098082D01*
X32165240Y-16904387D01*
X32165240Y-16694733D01*
X32085009Y-16501038D01*
X31936762Y-16352791D01*
X31743067Y-16272560D01*
X31533413Y-16272560D01*
X31339718Y-16352791D01*
X31191471Y-16501038D01*
X31111240Y-16694733D01*
X402000Y-16694733D01*
X402000Y-15973373D01*
X24344680Y-15973373D01*
X24344680Y-16183027D01*
X24424911Y-16376722D01*
X24573158Y-16524969D01*
X24766853Y-16605200D01*
X24976507Y-16605200D01*
X25170202Y-16524969D01*
X25318449Y-16376722D01*
X25398680Y-16183027D01*
X25398680Y-16049573D01*
X42373600Y-16049573D01*
X42373600Y-16259227D01*
X42453831Y-16452922D01*
X42602078Y-16601169D01*
X42795773Y-16681400D01*
X43005427Y-16681400D01*
X43199122Y-16601169D01*
X43347369Y-16452922D01*
X43427600Y-16259227D01*
X43427600Y-16049573D01*
X44121120Y-16049573D01*
X44121120Y-16259227D01*
X44201351Y-16452922D01*
X44349598Y-16601169D01*
X44543293Y-16681400D01*
X44752947Y-16681400D01*
X44946642Y-16601169D01*
X45094889Y-16452922D01*
X45175120Y-16259227D01*
X45175120Y-16049573D01*
X45173016Y-16044493D01*
X46132800Y-16044493D01*
X46132800Y-16254147D01*
X46213031Y-16447842D01*
X46361278Y-16596089D01*
X46554973Y-16676320D01*
X46764627Y-16676320D01*
X46958322Y-16596089D01*
X47106569Y-16447842D01*
X47186800Y-16254147D01*
X47186800Y-16044493D01*
X47106569Y-15850798D01*
X47050944Y-15795173D01*
X68764200Y-15795173D01*
X68764200Y-16004827D01*
X68844431Y-16198522D01*
X68992678Y-16346769D01*
X69186373Y-16427000D01*
X69396027Y-16427000D01*
X69494400Y-16386253D01*
X69592773Y-16427000D01*
X69802427Y-16427000D01*
X69905880Y-16384148D01*
X70009333Y-16427000D01*
X70218987Y-16427000D01*
X70332600Y-16379940D01*
X70446213Y-16427000D01*
X70655867Y-16427000D01*
X70766740Y-16381075D01*
X70877613Y-16427000D01*
X71087267Y-16427000D01*
X71280962Y-16346769D01*
X71429209Y-16198522D01*
X71509440Y-16004827D01*
X71509440Y-15795173D01*
X71429209Y-15601478D01*
X71280962Y-15453231D01*
X71087267Y-15373000D01*
X70877613Y-15373000D01*
X70766740Y-15418925D01*
X70655867Y-15373000D01*
X70446213Y-15373000D01*
X70332600Y-15420060D01*
X70218987Y-15373000D01*
X70009333Y-15373000D01*
X69905880Y-15415852D01*
X69802427Y-15373000D01*
X69592773Y-15373000D01*
X69494400Y-15413747D01*
X69396027Y-15373000D01*
X69186373Y-15373000D01*
X68992678Y-15453231D01*
X68844431Y-15601478D01*
X68764200Y-15795173D01*
X47050944Y-15795173D01*
X46958322Y-15702551D01*
X46764627Y-15622320D01*
X46554973Y-15622320D01*
X46361278Y-15702551D01*
X46213031Y-15850798D01*
X46132800Y-16044493D01*
X45173016Y-16044493D01*
X45094889Y-15855878D01*
X44946642Y-15707631D01*
X44752947Y-15627400D01*
X44543293Y-15627400D01*
X44349598Y-15707631D01*
X44201351Y-15855878D01*
X44121120Y-16049573D01*
X43427600Y-16049573D01*
X43347369Y-15855878D01*
X43199122Y-15707631D01*
X43005427Y-15627400D01*
X42795773Y-15627400D01*
X42602078Y-15707631D01*
X42453831Y-15855878D01*
X42373600Y-16049573D01*
X25398680Y-16049573D01*
X25398680Y-15973373D01*
X25318449Y-15779678D01*
X25170202Y-15631431D01*
X24976507Y-15551200D01*
X24766853Y-15551200D01*
X24573158Y-15631431D01*
X24424911Y-15779678D01*
X24344680Y-15973373D01*
X402000Y-15973373D01*
X402000Y-12941696D01*
X3423000Y-12941696D01*
X3423000Y-13708304D01*
X3716368Y-14416558D01*
X4258442Y-14958632D01*
X4966696Y-15252000D01*
X5733304Y-15252000D01*
X6441558Y-14958632D01*
X6983632Y-14416558D01*
X7054207Y-14246173D01*
X55190440Y-14246173D01*
X55190440Y-14455827D01*
X55270671Y-14649522D01*
X55418918Y-14797769D01*
X55612613Y-14878000D01*
X55822267Y-14878000D01*
X56015962Y-14797769D01*
X56164209Y-14649522D01*
X56244440Y-14455827D01*
X56244440Y-14429656D01*
X56361402Y-14381209D01*
X56465958Y-14276653D01*
X57679640Y-14276653D01*
X57679640Y-14486307D01*
X57759871Y-14680002D01*
X57908118Y-14828249D01*
X58101813Y-14908480D01*
X58311467Y-14908480D01*
X58505162Y-14828249D01*
X58653409Y-14680002D01*
X58733640Y-14486307D01*
X58733640Y-14454546D01*
X58886162Y-14391369D01*
X59034409Y-14243122D01*
X59114640Y-14049427D01*
X59114640Y-13839773D01*
X59096167Y-13795173D01*
X68728640Y-13795173D01*
X68728640Y-14004827D01*
X68808871Y-14198522D01*
X68957118Y-14346769D01*
X69150813Y-14427000D01*
X69360467Y-14427000D01*
X69466460Y-14383096D01*
X69572453Y-14427000D01*
X69782107Y-14427000D01*
X69888100Y-14383096D01*
X69994093Y-14427000D01*
X70203747Y-14427000D01*
X70304660Y-14385201D01*
X70405573Y-14427000D01*
X70615227Y-14427000D01*
X70716700Y-14384969D01*
X70818173Y-14427000D01*
X71027827Y-14427000D01*
X71221522Y-14346769D01*
X71369769Y-14198522D01*
X71450000Y-14004827D01*
X71450000Y-13795173D01*
X71369769Y-13601478D01*
X71221522Y-13453231D01*
X71027827Y-13373000D01*
X70818173Y-13373000D01*
X70716700Y-13415031D01*
X70615227Y-13373000D01*
X70405573Y-13373000D01*
X70304660Y-13414799D01*
X70203747Y-13373000D01*
X69994093Y-13373000D01*
X69888100Y-13416904D01*
X69782107Y-13373000D01*
X69572453Y-13373000D01*
X69466460Y-13416904D01*
X69360467Y-13373000D01*
X69150813Y-13373000D01*
X68957118Y-13453231D01*
X68808871Y-13601478D01*
X68728640Y-13795173D01*
X59096167Y-13795173D01*
X59034409Y-13646078D01*
X58886162Y-13497831D01*
X58692467Y-13417600D01*
X58482813Y-13417600D01*
X58289118Y-13497831D01*
X58140871Y-13646078D01*
X58060640Y-13839773D01*
X58060640Y-13871534D01*
X57908118Y-13934711D01*
X57759871Y-14082958D01*
X57679640Y-14276653D01*
X56465958Y-14276653D01*
X56509649Y-14232962D01*
X56589880Y-14039267D01*
X56589880Y-13829613D01*
X56509649Y-13635918D01*
X56361402Y-13487671D01*
X56167707Y-13407440D01*
X55958053Y-13407440D01*
X55764358Y-13487671D01*
X55616111Y-13635918D01*
X55535880Y-13829613D01*
X55535880Y-13855784D01*
X55418918Y-13904231D01*
X55270671Y-14052478D01*
X55190440Y-14246173D01*
X7054207Y-14246173D01*
X7277000Y-13708304D01*
X7277000Y-12941696D01*
X6983632Y-12233442D01*
X6441558Y-11691368D01*
X5733304Y-11398000D01*
X4966696Y-11398000D01*
X4258442Y-11691368D01*
X3716368Y-12233442D01*
X3423000Y-12941696D01*
X402000Y-12941696D01*
X402000Y-10944173D01*
X9693960Y-10944173D01*
X9693960Y-11153827D01*
X9774191Y-11347522D01*
X9922438Y-11495769D01*
X10116133Y-11576000D01*
X10325787Y-11576000D01*
X10519482Y-11495769D01*
X10667729Y-11347522D01*
X10747960Y-11153827D01*
X10747960Y-10944173D01*
X10667729Y-10750478D01*
X10519482Y-10602231D01*
X10325787Y-10522000D01*
X10116133Y-10522000D01*
X9922438Y-10602231D01*
X9774191Y-10750478D01*
X9693960Y-10944173D01*
X402000Y-10944173D01*
X402000Y-9526853D01*
X9749840Y-9526853D01*
X9749840Y-9736507D01*
X9830071Y-9930202D01*
X9978318Y-10078449D01*
X10172013Y-10158680D01*
X10381667Y-10158680D01*
X10575362Y-10078449D01*
X10723609Y-9930202D01*
X10803840Y-9736507D01*
X10803840Y-9526853D01*
X10723609Y-9333158D01*
X10575362Y-9184911D01*
X10381667Y-9104680D01*
X10172013Y-9104680D01*
X9978318Y-9184911D01*
X9830071Y-9333158D01*
X9749840Y-9526853D01*
X402000Y-9526853D01*
X402000Y-3825253D01*
X5073000Y-3825253D01*
X5073000Y-4034907D01*
X5116233Y-4139280D01*
X5073000Y-4243653D01*
X5073000Y-4453307D01*
X5116904Y-4559300D01*
X5073000Y-4665293D01*
X5073000Y-4874947D01*
X5117472Y-4982311D01*
X5076240Y-5081853D01*
X5076240Y-5291507D01*
X5121196Y-5400040D01*
X5076240Y-5508573D01*
X5076240Y-5718227D01*
X5156471Y-5911922D01*
X5304718Y-6060169D01*
X5498413Y-6140400D01*
X5708067Y-6140400D01*
X5901762Y-6060169D01*
X6050009Y-5911922D01*
X6130240Y-5718227D01*
X6130240Y-5508573D01*
X6085284Y-5400040D01*
X6130240Y-5291507D01*
X6130240Y-5081853D01*
X6085768Y-4974489D01*
X6127000Y-4874947D01*
X6127000Y-4665293D01*
X6083096Y-4559300D01*
X6127000Y-4453307D01*
X6127000Y-4243653D01*
X6083767Y-4139280D01*
X6127000Y-4034907D01*
X6127000Y-3825253D01*
X6105958Y-3774453D01*
X22878400Y-3774453D01*
X22878400Y-3984107D01*
X22921633Y-4088480D01*
X22878400Y-4192853D01*
X22878400Y-4402507D01*
X22922304Y-4508500D01*
X22878400Y-4614493D01*
X22878400Y-4824147D01*
X22922872Y-4931511D01*
X22881640Y-5031053D01*
X22881640Y-5240707D01*
X22961871Y-5434402D01*
X23110118Y-5582649D01*
X23303813Y-5662880D01*
X23513467Y-5662880D01*
X23707162Y-5582649D01*
X23855409Y-5434402D01*
X23935640Y-5240707D01*
X23935640Y-5031053D01*
X23891168Y-4923689D01*
X23932400Y-4824147D01*
X23932400Y-4614493D01*
X23888496Y-4508500D01*
X23932400Y-4402507D01*
X23932400Y-4192853D01*
X23889167Y-4088480D01*
X23932400Y-3984107D01*
X23932400Y-3774453D01*
X23852169Y-3580758D01*
X23822344Y-3550933D01*
X40693960Y-3550933D01*
X40693960Y-3760587D01*
X40737193Y-3864960D01*
X40693960Y-3969333D01*
X40693960Y-4178987D01*
X40737864Y-4284980D01*
X40693960Y-4390973D01*
X40693960Y-4600627D01*
X40738432Y-4707991D01*
X40697200Y-4807533D01*
X40697200Y-5017187D01*
X40777431Y-5210882D01*
X40925678Y-5359129D01*
X41119373Y-5439360D01*
X41329027Y-5439360D01*
X41522722Y-5359129D01*
X41670969Y-5210882D01*
X41751200Y-5017187D01*
X41751200Y-4807533D01*
X41706728Y-4700169D01*
X41747960Y-4600627D01*
X41747960Y-4390973D01*
X41704056Y-4284980D01*
X41747960Y-4178987D01*
X41747960Y-4115573D01*
X56373000Y-4115573D01*
X56373000Y-4325227D01*
X56412919Y-4421600D01*
X56373000Y-4517973D01*
X56373000Y-4727627D01*
X56416378Y-4832350D01*
X56373000Y-4937073D01*
X56373000Y-5146727D01*
X56413747Y-5245100D01*
X56373000Y-5343473D01*
X56373000Y-5553127D01*
X56453231Y-5746822D01*
X56601478Y-5895069D01*
X56795173Y-5975300D01*
X57004827Y-5975300D01*
X57198522Y-5895069D01*
X57346769Y-5746822D01*
X57427000Y-5553127D01*
X57427000Y-5343473D01*
X57386253Y-5245100D01*
X57427000Y-5146727D01*
X57427000Y-4937073D01*
X57383622Y-4832350D01*
X57427000Y-4727627D01*
X57427000Y-4517973D01*
X57387081Y-4421600D01*
X57419525Y-4343273D01*
X62373000Y-4343273D01*
X62373000Y-4552927D01*
X62418366Y-4662450D01*
X62373000Y-4771973D01*
X62373000Y-4981627D01*
X62413747Y-5080000D01*
X62373000Y-5178373D01*
X62373000Y-5388027D01*
X62411117Y-5480050D01*
X62373000Y-5572073D01*
X62373000Y-5781727D01*
X62453231Y-5975422D01*
X62601478Y-6123669D01*
X62795173Y-6203900D01*
X63004827Y-6203900D01*
X63198522Y-6123669D01*
X63346769Y-5975422D01*
X63427000Y-5781727D01*
X63427000Y-5572073D01*
X63388883Y-5480050D01*
X63427000Y-5388027D01*
X63427000Y-5178373D01*
X63386253Y-5080000D01*
X63427000Y-4981627D01*
X63427000Y-4771973D01*
X63381634Y-4662450D01*
X63427000Y-4552927D01*
X63427000Y-4343273D01*
X63346769Y-4149578D01*
X63198522Y-4001331D01*
X63004827Y-3921100D01*
X62795173Y-3921100D01*
X62601478Y-4001331D01*
X62453231Y-4149578D01*
X62373000Y-4343273D01*
X57419525Y-4343273D01*
X57427000Y-4325227D01*
X57427000Y-4115573D01*
X57346769Y-3921878D01*
X57198522Y-3773631D01*
X57004827Y-3693400D01*
X56795173Y-3693400D01*
X56601478Y-3773631D01*
X56453231Y-3921878D01*
X56373000Y-4115573D01*
X41747960Y-4115573D01*
X41747960Y-3969333D01*
X41704727Y-3864960D01*
X41747960Y-3760587D01*
X41747960Y-3550933D01*
X41667729Y-3357238D01*
X41519482Y-3208991D01*
X41325787Y-3128760D01*
X41116133Y-3128760D01*
X40922438Y-3208991D01*
X40774191Y-3357238D01*
X40693960Y-3550933D01*
X23822344Y-3550933D01*
X23703922Y-3432511D01*
X23510227Y-3352280D01*
X23300573Y-3352280D01*
X23106878Y-3432511D01*
X22958631Y-3580758D01*
X22878400Y-3774453D01*
X6105958Y-3774453D01*
X6046769Y-3631558D01*
X5898522Y-3483311D01*
X5704827Y-3403080D01*
X5495173Y-3403080D01*
X5301478Y-3483311D01*
X5153231Y-3631558D01*
X5073000Y-3825253D01*
X402000Y-3825253D01*
X402000Y-2966696D01*
X69173000Y-2966696D01*
X69173000Y-3733304D01*
X69466368Y-4441558D01*
X70008442Y-4983632D01*
X70716696Y-5277000D01*
X71483304Y-5277000D01*
X72191558Y-4983632D01*
X72733632Y-4441558D01*
X73027000Y-3733304D01*
X73027000Y-2966696D01*
X72733632Y-2258442D01*
X72191558Y-1716368D01*
X71483304Y-1423000D01*
X70716696Y-1423000D01*
X70008442Y-1716368D01*
X69466368Y-2258442D01*
X69173000Y-2966696D01*
X402000Y-2966696D01*
X402000Y-402000D01*
X74598001Y-402000D01*
X74598000Y-64598000D01*
X74598000Y-64598000D01*
G37*
X74598000Y-64598000D02*
X402000Y-64598000D01*
X402000Y-59315933D01*
X11284000Y-59315933D01*
X11284000Y-59525587D01*
X11328472Y-59632951D01*
X11287240Y-59732493D01*
X11287240Y-59942147D01*
X11331144Y-60048140D01*
X11287240Y-60154133D01*
X11287240Y-60363787D01*
X11330473Y-60468160D01*
X11287240Y-60572533D01*
X11287240Y-60782187D01*
X11367471Y-60975882D01*
X11515718Y-61124129D01*
X11709413Y-61204360D01*
X11919067Y-61204360D01*
X12112762Y-61124129D01*
X12261009Y-60975882D01*
X12341240Y-60782187D01*
X12341240Y-60572533D01*
X12298007Y-60468160D01*
X12341240Y-60363787D01*
X12341240Y-60154133D01*
X12297336Y-60048140D01*
X12341240Y-59942147D01*
X12341240Y-59732493D01*
X12296768Y-59625129D01*
X12338000Y-59525587D01*
X12338000Y-59315933D01*
X12304333Y-59234653D01*
X29881880Y-59234653D01*
X29881880Y-59444307D01*
X29926352Y-59551671D01*
X29885120Y-59651213D01*
X29885120Y-59860867D01*
X29929024Y-59966860D01*
X29885120Y-60072853D01*
X29885120Y-60282507D01*
X29928353Y-60386880D01*
X29885120Y-60491253D01*
X29885120Y-60700907D01*
X29965351Y-60894602D01*
X30113598Y-61042849D01*
X30307293Y-61123080D01*
X30516947Y-61123080D01*
X30710642Y-61042849D01*
X30858889Y-60894602D01*
X30939120Y-60700907D01*
X30939120Y-60491253D01*
X30895887Y-60386880D01*
X30939120Y-60282507D01*
X30939120Y-60072853D01*
X30895216Y-59966860D01*
X30939120Y-59860867D01*
X30939120Y-59651213D01*
X30894648Y-59543849D01*
X30935880Y-59444307D01*
X30935880Y-59234653D01*
X30916943Y-59188933D01*
X48682960Y-59188933D01*
X48682960Y-59398587D01*
X48727432Y-59505951D01*
X48686200Y-59605493D01*
X48686200Y-59815147D01*
X48730104Y-59921140D01*
X48686200Y-60027133D01*
X48686200Y-60236787D01*
X48729433Y-60341160D01*
X48686200Y-60445533D01*
X48686200Y-60655187D01*
X48766431Y-60848882D01*
X48914678Y-60997129D01*
X49108373Y-61077360D01*
X49318027Y-61077360D01*
X49511722Y-60997129D01*
X49659969Y-60848882D01*
X49740200Y-60655187D01*
X49740200Y-60616696D01*
X70373000Y-60616696D01*
X70373000Y-61383304D01*
X70666368Y-62091558D01*
X71208442Y-62633632D01*
X71916696Y-62927000D01*
X72683304Y-62927000D01*
X73391558Y-62633632D01*
X73933632Y-62091558D01*
X74227000Y-61383304D01*
X74227000Y-60616696D01*
X73933632Y-59908442D01*
X73391558Y-59366368D01*
X72683304Y-59073000D01*
X71916696Y-59073000D01*
X71208442Y-59366368D01*
X70666368Y-59908442D01*
X70373000Y-60616696D01*
X49740200Y-60616696D01*
X49740200Y-60445533D01*
X49696967Y-60341160D01*
X49740200Y-60236787D01*
X49740200Y-60027133D01*
X49696296Y-59921140D01*
X49740200Y-59815147D01*
X49740200Y-59605493D01*
X49695728Y-59498129D01*
X49736960Y-59398587D01*
X49736960Y-59188933D01*
X49656729Y-58995238D01*
X49508482Y-58846991D01*
X49314787Y-58766760D01*
X49105133Y-58766760D01*
X48911438Y-58846991D01*
X48763191Y-58995238D01*
X48682960Y-59188933D01*
X30916943Y-59188933D01*
X30855649Y-59040958D01*
X30707402Y-58892711D01*
X30513707Y-58812480D01*
X30304053Y-58812480D01*
X30110358Y-58892711D01*
X29962111Y-59040958D01*
X29881880Y-59234653D01*
X12304333Y-59234653D01*
X12257769Y-59122238D01*
X12109522Y-58973991D01*
X11915827Y-58893760D01*
X11706173Y-58893760D01*
X11512478Y-58973991D01*
X11364231Y-59122238D01*
X11284000Y-59315933D01*
X402000Y-59315933D01*
X402000Y-58619973D01*
X59273000Y-58619973D01*
X59273000Y-58829627D01*
X59321112Y-58945780D01*
X59273000Y-59061933D01*
X59273000Y-59271587D01*
X59325685Y-59398780D01*
X59273000Y-59525973D01*
X59273000Y-59735627D01*
X59353231Y-59929322D01*
X59501478Y-60077569D01*
X59695173Y-60157800D01*
X59904827Y-60157800D01*
X60098522Y-60077569D01*
X60246769Y-59929322D01*
X60327000Y-59735627D01*
X60327000Y-59525973D01*
X60274315Y-59398780D01*
X60327000Y-59271587D01*
X60327000Y-59061933D01*
X60278888Y-58945780D01*
X60314943Y-58858733D01*
X65273000Y-58858733D01*
X65273000Y-59068387D01*
X65312695Y-59164220D01*
X65273000Y-59260053D01*
X65273000Y-59469707D01*
X65312438Y-59564920D01*
X65273000Y-59660133D01*
X65273000Y-59869787D01*
X65353231Y-60063482D01*
X65501478Y-60211729D01*
X65695173Y-60291960D01*
X65904827Y-60291960D01*
X66098522Y-60211729D01*
X66246769Y-60063482D01*
X66327000Y-59869787D01*
X66327000Y-59660133D01*
X66287562Y-59564920D01*
X66327000Y-59469707D01*
X66327000Y-59260053D01*
X66287305Y-59164220D01*
X66327000Y-59068387D01*
X66327000Y-58858733D01*
X66246769Y-58665038D01*
X66098522Y-58516791D01*
X65904827Y-58436560D01*
X65695173Y-58436560D01*
X65501478Y-58516791D01*
X65353231Y-58665038D01*
X65273000Y-58858733D01*
X60314943Y-58858733D01*
X60327000Y-58829627D01*
X60327000Y-58619973D01*
X60246769Y-58426278D01*
X60098522Y-58278031D01*
X59904827Y-58197800D01*
X59695173Y-58197800D01*
X59501478Y-58278031D01*
X59353231Y-58426278D01*
X59273000Y-58619973D01*
X402000Y-58619973D01*
X402000Y-54159733D01*
X44243040Y-54159733D01*
X44243040Y-54369387D01*
X44323271Y-54563082D01*
X44471518Y-54711329D01*
X44665213Y-54791560D01*
X44874867Y-54791560D01*
X45068562Y-54711329D01*
X45216809Y-54563082D01*
X45297040Y-54369387D01*
X45297040Y-54159733D01*
X45216809Y-53966038D01*
X45068562Y-53817791D01*
X44874867Y-53737560D01*
X44665213Y-53737560D01*
X44471518Y-53817791D01*
X44323271Y-53966038D01*
X44243040Y-54159733D01*
X402000Y-54159733D01*
X402000Y-52310613D01*
X44268440Y-52310613D01*
X44268440Y-52520267D01*
X44348671Y-52713962D01*
X44496918Y-52862209D01*
X44690613Y-52942440D01*
X44900267Y-52942440D01*
X45093962Y-52862209D01*
X45242209Y-52713962D01*
X45322440Y-52520267D01*
X45322440Y-52310613D01*
X45242209Y-52116918D01*
X45093962Y-51968671D01*
X44900267Y-51888440D01*
X44690613Y-51888440D01*
X44496918Y-51968671D01*
X44348671Y-52116918D01*
X44268440Y-52310613D01*
X402000Y-52310613D01*
X402000Y-47645333D01*
X3403080Y-47645333D01*
X3403080Y-47854987D01*
X3483311Y-48048682D01*
X3631558Y-48196929D01*
X3825253Y-48277160D01*
X4034907Y-48277160D01*
X4139280Y-48233927D01*
X4243653Y-48277160D01*
X4453307Y-48277160D01*
X4559300Y-48233256D01*
X4665293Y-48277160D01*
X4874947Y-48277160D01*
X4982311Y-48232688D01*
X5081853Y-48273920D01*
X5291507Y-48273920D01*
X5485202Y-48193689D01*
X5633449Y-48045442D01*
X5713680Y-47851747D01*
X5713680Y-47642093D01*
X5707368Y-47626853D01*
X64024560Y-47626853D01*
X64024560Y-47836507D01*
X64104791Y-48030202D01*
X64253038Y-48178449D01*
X64446733Y-48258680D01*
X64656387Y-48258680D01*
X64850082Y-48178449D01*
X64998329Y-48030202D01*
X65078560Y-47836507D01*
X65078560Y-47626853D01*
X64998329Y-47433158D01*
X64850082Y-47284911D01*
X64656387Y-47204680D01*
X64446733Y-47204680D01*
X64253038Y-47284911D01*
X64104791Y-47433158D01*
X64024560Y-47626853D01*
X5707368Y-47626853D01*
X5633449Y-47448398D01*
X5485202Y-47300151D01*
X5291507Y-47219920D01*
X5081853Y-47219920D01*
X4974489Y-47264392D01*
X4874947Y-47223160D01*
X4665293Y-47223160D01*
X4559300Y-47267064D01*
X4453307Y-47223160D01*
X4243653Y-47223160D01*
X4139280Y-47266393D01*
X4034907Y-47223160D01*
X3825253Y-47223160D01*
X3631558Y-47303391D01*
X3483311Y-47451638D01*
X3403080Y-47645333D01*
X402000Y-47645333D01*
X402000Y-46229853D01*
X61606480Y-46229853D01*
X61606480Y-46439507D01*
X61686711Y-46633202D01*
X61834958Y-46781449D01*
X62028653Y-46861680D01*
X62238307Y-46861680D01*
X62432002Y-46781449D01*
X62580249Y-46633202D01*
X62660480Y-46439507D01*
X62660480Y-46229853D01*
X62580249Y-46036158D01*
X62432002Y-45887911D01*
X62238307Y-45807680D01*
X62028653Y-45807680D01*
X61834958Y-45887911D01*
X61686711Y-46036158D01*
X61606480Y-46229853D01*
X402000Y-46229853D01*
X402000Y-41485133D01*
X9912400Y-41485133D01*
X9912400Y-41694787D01*
X9992631Y-41888482D01*
X10140878Y-42036729D01*
X10334573Y-42116960D01*
X10544227Y-42116960D01*
X10737922Y-42036729D01*
X10886169Y-41888482D01*
X10966400Y-41694787D01*
X10966400Y-41485133D01*
X10886169Y-41291438D01*
X10737922Y-41143191D01*
X10544227Y-41062960D01*
X10334573Y-41062960D01*
X10140878Y-41143191D01*
X9992631Y-41291438D01*
X9912400Y-41485133D01*
X402000Y-41485133D01*
X402000Y-39148333D01*
X12213640Y-39148333D01*
X12213640Y-39357987D01*
X12293871Y-39551682D01*
X12442118Y-39699929D01*
X12635813Y-39780160D01*
X12845467Y-39780160D01*
X13039162Y-39699929D01*
X13187409Y-39551682D01*
X13267640Y-39357987D01*
X13267640Y-39148333D01*
X13187409Y-38954638D01*
X13039162Y-38806391D01*
X12845467Y-38726160D01*
X12635813Y-38726160D01*
X12442118Y-38806391D01*
X12293871Y-38954638D01*
X12213640Y-39148333D01*
X402000Y-39148333D01*
X402000Y-35490733D01*
X21154440Y-35490733D01*
X21154440Y-35700387D01*
X21234671Y-35894082D01*
X21382918Y-36042329D01*
X21576613Y-36122560D01*
X21786267Y-36122560D01*
X21979962Y-36042329D01*
X22128209Y-35894082D01*
X22169226Y-35795059D01*
X22174471Y-35807722D01*
X22322718Y-35955969D01*
X22516413Y-36036200D01*
X22726067Y-36036200D01*
X22919762Y-35955969D01*
X23068009Y-35807722D01*
X23148240Y-35614027D01*
X23148240Y-35404373D01*
X23068009Y-35210678D01*
X22919762Y-35062431D01*
X22726067Y-34982200D01*
X22516413Y-34982200D01*
X22322718Y-35062431D01*
X22174471Y-35210678D01*
X22133454Y-35309701D01*
X22128209Y-35297038D01*
X21979962Y-35148791D01*
X21786267Y-35068560D01*
X21576613Y-35068560D01*
X21382918Y-35148791D01*
X21234671Y-35297038D01*
X21154440Y-35490733D01*
X402000Y-35490733D01*
X402000Y-28938219D01*
X1573000Y-28938219D01*
X1573000Y-30261781D01*
X2079505Y-31484594D01*
X3015406Y-32420495D01*
X4238219Y-32927000D01*
X5561781Y-32927000D01*
X6784594Y-32420495D01*
X7720495Y-31484594D01*
X8227000Y-30261781D01*
X8227000Y-28938219D01*
X7720495Y-27715406D01*
X6784594Y-26779505D01*
X5561781Y-26273000D01*
X4238219Y-26273000D01*
X3015406Y-26779505D01*
X2079505Y-27715406D01*
X1573000Y-28938219D01*
X402000Y-28938219D01*
X402000Y-19497888D01*
X23869040Y-19497888D01*
X23869040Y-45697888D01*
X23893931Y-45823025D01*
X23964816Y-45929112D01*
X24070903Y-45999997D01*
X24196040Y-46024888D01*
X50596040Y-46024888D01*
X50721177Y-45999997D01*
X50827264Y-45929112D01*
X50898149Y-45823025D01*
X50923040Y-45697888D01*
X50923040Y-41317493D01*
X58822640Y-41317493D01*
X58822640Y-41527147D01*
X58902871Y-41720842D01*
X59051118Y-41869089D01*
X59244813Y-41949320D01*
X59454467Y-41949320D01*
X59648162Y-41869089D01*
X59796409Y-41720842D01*
X59876640Y-41527147D01*
X59876640Y-41317493D01*
X59796409Y-41123798D01*
X59648162Y-40975551D01*
X59454467Y-40895320D01*
X59244813Y-40895320D01*
X59051118Y-40975551D01*
X58902871Y-41123798D01*
X58822640Y-41317493D01*
X50923040Y-41317493D01*
X50923040Y-40565653D01*
X55952440Y-40565653D01*
X55952440Y-40775307D01*
X56032671Y-40969002D01*
X56180918Y-41117249D01*
X56374613Y-41197480D01*
X56584267Y-41197480D01*
X56777962Y-41117249D01*
X56926209Y-40969002D01*
X57006440Y-40775307D01*
X57006440Y-40565653D01*
X56926209Y-40371958D01*
X56777962Y-40223711D01*
X56584267Y-40143480D01*
X56374613Y-40143480D01*
X56180918Y-40223711D01*
X56032671Y-40371958D01*
X55952440Y-40565653D01*
X50923040Y-40565653D01*
X50923040Y-39869693D01*
X51334720Y-39869693D01*
X51334720Y-40079347D01*
X51414951Y-40273042D01*
X51563198Y-40421289D01*
X51756893Y-40501520D01*
X51966547Y-40501520D01*
X52160242Y-40421289D01*
X52308489Y-40273042D01*
X52388720Y-40079347D01*
X52388720Y-39869693D01*
X52308489Y-39675998D01*
X52269191Y-39636700D01*
X52379609Y-39526282D01*
X52459840Y-39332587D01*
X52459840Y-39153413D01*
X54636720Y-39153413D01*
X54636720Y-39363067D01*
X54716951Y-39556762D01*
X54781649Y-39621460D01*
X54772831Y-39630278D01*
X54692600Y-39823973D01*
X54692600Y-40033627D01*
X54772831Y-40227322D01*
X54921078Y-40375569D01*
X55114773Y-40455800D01*
X55324427Y-40455800D01*
X55518122Y-40375569D01*
X55666369Y-40227322D01*
X55746600Y-40033627D01*
X55746600Y-39823973D01*
X55666369Y-39630278D01*
X55601671Y-39565580D01*
X55610489Y-39556762D01*
X55690720Y-39363067D01*
X55690720Y-39346453D01*
X57633920Y-39346453D01*
X57633920Y-39556107D01*
X57714151Y-39749802D01*
X57862398Y-39898049D01*
X57882138Y-39906226D01*
X57832040Y-40027173D01*
X57832040Y-40236827D01*
X57912271Y-40430522D01*
X58060518Y-40578769D01*
X58254213Y-40659000D01*
X58463867Y-40659000D01*
X58657562Y-40578769D01*
X58805809Y-40430522D01*
X58886040Y-40236827D01*
X58886040Y-40194813D01*
X60732720Y-40194813D01*
X60732720Y-40404467D01*
X60795562Y-40556180D01*
X60732720Y-40707893D01*
X60732720Y-40917547D01*
X60812951Y-41111242D01*
X60849709Y-41148000D01*
X60812951Y-41184758D01*
X60732720Y-41378453D01*
X60732720Y-41588107D01*
X60812951Y-41781802D01*
X60961198Y-41930049D01*
X61154893Y-42010280D01*
X61364547Y-42010280D01*
X61558242Y-41930049D01*
X61678038Y-41810253D01*
X69597320Y-41810253D01*
X69597320Y-42019907D01*
X69677551Y-42213602D01*
X69825798Y-42361849D01*
X70019493Y-42442080D01*
X70229147Y-42442080D01*
X70336511Y-42397608D01*
X70436053Y-42438840D01*
X70645707Y-42438840D01*
X70751700Y-42394936D01*
X70857693Y-42438840D01*
X71067347Y-42438840D01*
X71171720Y-42395607D01*
X71276093Y-42438840D01*
X71485747Y-42438840D01*
X71679442Y-42358609D01*
X71827689Y-42210362D01*
X71907920Y-42016667D01*
X71907920Y-41807013D01*
X71827689Y-41613318D01*
X71679442Y-41465071D01*
X71485747Y-41384840D01*
X71276093Y-41384840D01*
X71171720Y-41428073D01*
X71067347Y-41384840D01*
X70857693Y-41384840D01*
X70751700Y-41428744D01*
X70645707Y-41384840D01*
X70436053Y-41384840D01*
X70328689Y-41429312D01*
X70229147Y-41388080D01*
X70019493Y-41388080D01*
X69825798Y-41468311D01*
X69677551Y-41616558D01*
X69597320Y-41810253D01*
X61678038Y-41810253D01*
X61706489Y-41781802D01*
X61786720Y-41588107D01*
X61786720Y-41378453D01*
X61706489Y-41184758D01*
X61669731Y-41148000D01*
X61706489Y-41111242D01*
X61786720Y-40917547D01*
X61786720Y-40707893D01*
X61723878Y-40556180D01*
X61786720Y-40404467D01*
X61786720Y-40194813D01*
X61706489Y-40001118D01*
X61558242Y-39852871D01*
X61364547Y-39772640D01*
X61154893Y-39772640D01*
X60961198Y-39852871D01*
X60812951Y-40001118D01*
X60732720Y-40194813D01*
X58886040Y-40194813D01*
X58886040Y-40027173D01*
X58805809Y-39833478D01*
X58657562Y-39685231D01*
X58637822Y-39677054D01*
X58687920Y-39556107D01*
X58687920Y-39346453D01*
X58607689Y-39152758D01*
X58459442Y-39004511D01*
X58265747Y-38924280D01*
X58056093Y-38924280D01*
X57862398Y-39004511D01*
X57714151Y-39152758D01*
X57633920Y-39346453D01*
X55690720Y-39346453D01*
X55690720Y-39153413D01*
X55610489Y-38959718D01*
X55462242Y-38811471D01*
X55268547Y-38731240D01*
X55058893Y-38731240D01*
X54865198Y-38811471D01*
X54716951Y-38959718D01*
X54636720Y-39153413D01*
X52459840Y-39153413D01*
X52459840Y-39122933D01*
X52379609Y-38929238D01*
X52231362Y-38780991D01*
X52037667Y-38700760D01*
X51828013Y-38700760D01*
X51634318Y-38780991D01*
X51486071Y-38929238D01*
X51405840Y-39122933D01*
X51405840Y-39332587D01*
X51486071Y-39526282D01*
X51525369Y-39565580D01*
X51414951Y-39675998D01*
X51334720Y-39869693D01*
X50923040Y-39869693D01*
X50923040Y-33559366D01*
X50977812Y-33536679D01*
X51126059Y-33388432D01*
X51206290Y-33194737D01*
X51206290Y-32985083D01*
X51126059Y-32791388D01*
X50977812Y-32643141D01*
X50923040Y-32620454D01*
X50923040Y-29745253D01*
X51080720Y-29745253D01*
X51080720Y-29954907D01*
X51160951Y-30148602D01*
X51309198Y-30296849D01*
X51502893Y-30377080D01*
X51712547Y-30377080D01*
X51906242Y-30296849D01*
X52054489Y-30148602D01*
X52074267Y-30100853D01*
X60732720Y-30100853D01*
X60732720Y-30310507D01*
X60812951Y-30504202D01*
X60824309Y-30515560D01*
X60812951Y-30526918D01*
X60732720Y-30720613D01*
X60732720Y-30930267D01*
X60796614Y-31084520D01*
X60732720Y-31238773D01*
X60732720Y-31448427D01*
X60812951Y-31642122D01*
X60961198Y-31790369D01*
X61154893Y-31870600D01*
X61364547Y-31870600D01*
X61558242Y-31790369D01*
X61706489Y-31642122D01*
X61786720Y-31448427D01*
X61786720Y-31238773D01*
X61722826Y-31084520D01*
X61786720Y-30930267D01*
X61786720Y-30720613D01*
X61777359Y-30698013D01*
X68809920Y-30698013D01*
X68809920Y-30907667D01*
X68890151Y-31101362D01*
X69038398Y-31249609D01*
X69232093Y-31329840D01*
X69441747Y-31329840D01*
X69542660Y-31288041D01*
X69643573Y-31329840D01*
X69853227Y-31329840D01*
X69979540Y-31277520D01*
X70105853Y-31329840D01*
X70315507Y-31329840D01*
X70436740Y-31279624D01*
X70557973Y-31329840D01*
X70767627Y-31329840D01*
X70883780Y-31281728D01*
X70999933Y-31329840D01*
X71209587Y-31329840D01*
X71339840Y-31275888D01*
X71470093Y-31329840D01*
X71679747Y-31329840D01*
X71873442Y-31249609D01*
X72021689Y-31101362D01*
X72101920Y-30907667D01*
X72101920Y-30698013D01*
X72021689Y-30504318D01*
X71873442Y-30356071D01*
X71679747Y-30275840D01*
X71470093Y-30275840D01*
X71339840Y-30329792D01*
X71209587Y-30275840D01*
X70999933Y-30275840D01*
X70883780Y-30323952D01*
X70767627Y-30275840D01*
X70557973Y-30275840D01*
X70436740Y-30326056D01*
X70315507Y-30275840D01*
X70105853Y-30275840D01*
X69979540Y-30328160D01*
X69853227Y-30275840D01*
X69643573Y-30275840D01*
X69542660Y-30317639D01*
X69441747Y-30275840D01*
X69232093Y-30275840D01*
X69038398Y-30356071D01*
X68890151Y-30504318D01*
X68809920Y-30698013D01*
X61777359Y-30698013D01*
X61706489Y-30526918D01*
X61695131Y-30515560D01*
X61706489Y-30504202D01*
X61786720Y-30310507D01*
X61786720Y-30100853D01*
X61706489Y-29907158D01*
X61558242Y-29758911D01*
X61364547Y-29678680D01*
X61154893Y-29678680D01*
X60961198Y-29758911D01*
X60812951Y-29907158D01*
X60732720Y-30100853D01*
X52074267Y-30100853D01*
X52134720Y-29954907D01*
X52134720Y-29745253D01*
X52054489Y-29551558D01*
X51906242Y-29403311D01*
X51712547Y-29323080D01*
X51502893Y-29323080D01*
X51309198Y-29403311D01*
X51160951Y-29551558D01*
X51080720Y-29745253D01*
X50923040Y-29745253D01*
X50923040Y-29282973D01*
X58263840Y-29282973D01*
X58263840Y-29492627D01*
X58344071Y-29686322D01*
X58492318Y-29834569D01*
X58686013Y-29914800D01*
X58895667Y-29914800D01*
X59089362Y-29834569D01*
X59237609Y-29686322D01*
X59317840Y-29492627D01*
X59317840Y-29282973D01*
X59237609Y-29089278D01*
X59089362Y-28941031D01*
X58895667Y-28860800D01*
X58686013Y-28860800D01*
X58492318Y-28941031D01*
X58344071Y-29089278D01*
X58263840Y-29282973D01*
X50923040Y-29282973D01*
X50923040Y-29273451D01*
X51048649Y-29147842D01*
X51128880Y-28954147D01*
X51128880Y-28744493D01*
X51048649Y-28550798D01*
X50923040Y-28425189D01*
X50923040Y-27656873D01*
X54323800Y-27656873D01*
X54323800Y-27866527D01*
X54364651Y-27965150D01*
X54323800Y-28063773D01*
X54323800Y-28273427D01*
X54364547Y-28371800D01*
X54323800Y-28470173D01*
X54323800Y-28679827D01*
X54404031Y-28873522D01*
X54552278Y-29021769D01*
X54745973Y-29102000D01*
X54955627Y-29102000D01*
X55149322Y-29021769D01*
X55297569Y-28873522D01*
X55304842Y-28855963D01*
X59889440Y-28855963D01*
X59889440Y-29065617D01*
X59969671Y-29259312D01*
X60117918Y-29407559D01*
X60311613Y-29487790D01*
X60521267Y-29487790D01*
X60714962Y-29407559D01*
X60863209Y-29259312D01*
X60943440Y-29065617D01*
X60943440Y-28855963D01*
X60878016Y-28698013D01*
X69602400Y-28698013D01*
X69602400Y-28907667D01*
X69682631Y-29101362D01*
X69830878Y-29249609D01*
X70024573Y-29329840D01*
X70234227Y-29329840D01*
X70363080Y-29276467D01*
X70491933Y-29329840D01*
X70701587Y-29329840D01*
X70838060Y-29273311D01*
X70974533Y-29329840D01*
X71184187Y-29329840D01*
X71290180Y-29285936D01*
X71396173Y-29329840D01*
X71605827Y-29329840D01*
X71742680Y-29273154D01*
X71879533Y-29329840D01*
X72089187Y-29329840D01*
X72282882Y-29249609D01*
X72431129Y-29101362D01*
X72511360Y-28907667D01*
X72511360Y-28698013D01*
X72431129Y-28504318D01*
X72282882Y-28356071D01*
X72089187Y-28275840D01*
X71879533Y-28275840D01*
X71742680Y-28332526D01*
X71605827Y-28275840D01*
X71396173Y-28275840D01*
X71290180Y-28319744D01*
X71184187Y-28275840D01*
X70974533Y-28275840D01*
X70838060Y-28332369D01*
X70701587Y-28275840D01*
X70491933Y-28275840D01*
X70363080Y-28329213D01*
X70234227Y-28275840D01*
X70024573Y-28275840D01*
X69830878Y-28356071D01*
X69682631Y-28504318D01*
X69602400Y-28698013D01*
X60878016Y-28698013D01*
X60863209Y-28662268D01*
X60714962Y-28514021D01*
X60521267Y-28433790D01*
X60311613Y-28433790D01*
X60117918Y-28514021D01*
X59969671Y-28662268D01*
X59889440Y-28855963D01*
X55304842Y-28855963D01*
X55377800Y-28679827D01*
X55377800Y-28470173D01*
X55337053Y-28371800D01*
X55377800Y-28273427D01*
X55377800Y-28063773D01*
X55336949Y-27965150D01*
X55377800Y-27866527D01*
X55377800Y-27656873D01*
X55297569Y-27463178D01*
X55149322Y-27314931D01*
X54955627Y-27234700D01*
X54745973Y-27234700D01*
X54552278Y-27314931D01*
X54404031Y-27463178D01*
X54323800Y-27656873D01*
X50923040Y-27656873D01*
X50923040Y-25751449D01*
X51101573Y-25825400D01*
X51311227Y-25825400D01*
X51504922Y-25745169D01*
X51653169Y-25596922D01*
X51733400Y-25403227D01*
X51733400Y-25193573D01*
X51692653Y-25095200D01*
X51733400Y-24996827D01*
X51733400Y-24914173D01*
X56229300Y-24914173D01*
X56229300Y-25123827D01*
X56270047Y-25222200D01*
X56229300Y-25320573D01*
X56229300Y-25530227D01*
X56270047Y-25628600D01*
X56229300Y-25726973D01*
X56229300Y-25936627D01*
X56309531Y-26130322D01*
X56457778Y-26278569D01*
X56651473Y-26358800D01*
X56861127Y-26358800D01*
X57054822Y-26278569D01*
X57203069Y-26130322D01*
X57283300Y-25936627D01*
X57283300Y-25726973D01*
X57242553Y-25628600D01*
X57283300Y-25530227D01*
X57283300Y-25320573D01*
X57242553Y-25222200D01*
X57283300Y-25123827D01*
X57283300Y-24914173D01*
X57203069Y-24720478D01*
X57054822Y-24572231D01*
X56861127Y-24492000D01*
X56651473Y-24492000D01*
X56457778Y-24572231D01*
X56309531Y-24720478D01*
X56229300Y-24914173D01*
X51733400Y-24914173D01*
X51733400Y-24787173D01*
X51692653Y-24688800D01*
X51733400Y-24590427D01*
X51733400Y-24380773D01*
X51653169Y-24187078D01*
X51504922Y-24038831D01*
X51311227Y-23958600D01*
X51101573Y-23958600D01*
X50923040Y-24032551D01*
X50923040Y-21523273D01*
X52800300Y-21523273D01*
X52800300Y-21732927D01*
X52880531Y-21926622D01*
X53028778Y-22074869D01*
X53222473Y-22155100D01*
X53432127Y-22155100D01*
X53625822Y-22074869D01*
X53774069Y-21926622D01*
X53854300Y-21732927D01*
X53854300Y-21701073D01*
X54311600Y-21701073D01*
X54311600Y-21910727D01*
X54391831Y-22104422D01*
X54540078Y-22252669D01*
X54733773Y-22332900D01*
X54943427Y-22332900D01*
X55137122Y-22252669D01*
X55285369Y-22104422D01*
X55365600Y-21910727D01*
X55365600Y-21701073D01*
X55285369Y-21507378D01*
X55137122Y-21359131D01*
X54943427Y-21278900D01*
X54733773Y-21278900D01*
X54540078Y-21359131D01*
X54391831Y-21507378D01*
X54311600Y-21701073D01*
X53854300Y-21701073D01*
X53854300Y-21523273D01*
X53774069Y-21329578D01*
X53625822Y-21181331D01*
X53432127Y-21101100D01*
X53222473Y-21101100D01*
X53028778Y-21181331D01*
X52880531Y-21329578D01*
X52800300Y-21523273D01*
X50923040Y-21523273D01*
X50923040Y-19966253D01*
X56247080Y-19966253D01*
X56247080Y-20175907D01*
X56296244Y-20294600D01*
X56247080Y-20413293D01*
X56247080Y-20622947D01*
X56294140Y-20736560D01*
X56247080Y-20850173D01*
X56247080Y-21059827D01*
X56327311Y-21253522D01*
X56414869Y-21341080D01*
X56327311Y-21428638D01*
X56247080Y-21622333D01*
X56247080Y-21831987D01*
X56327311Y-22025682D01*
X56475558Y-22173929D01*
X56669253Y-22254160D01*
X56878907Y-22254160D01*
X57072602Y-22173929D01*
X57220849Y-22025682D01*
X57301080Y-21831987D01*
X57301080Y-21622333D01*
X57220849Y-21428638D01*
X57133291Y-21341080D01*
X57220849Y-21253522D01*
X57301080Y-21059827D01*
X57301080Y-20850173D01*
X57254020Y-20736560D01*
X57301080Y-20622947D01*
X57301080Y-20413293D01*
X57251916Y-20294600D01*
X57301080Y-20175907D01*
X57301080Y-19966253D01*
X57226049Y-19785112D01*
X57306160Y-19591707D01*
X57306160Y-19382053D01*
X57225929Y-19188358D01*
X57077682Y-19040111D01*
X56883987Y-18959880D01*
X56674333Y-18959880D01*
X56480638Y-19040111D01*
X56332391Y-19188358D01*
X56252160Y-19382053D01*
X56252160Y-19591707D01*
X56327191Y-19772848D01*
X56247080Y-19966253D01*
X50923040Y-19966253D01*
X50923040Y-19497888D01*
X50898149Y-19372751D01*
X50827264Y-19266664D01*
X50721177Y-19195779D01*
X50596040Y-19170888D01*
X33047979Y-19170888D01*
X32927362Y-19050271D01*
X32733667Y-18970040D01*
X32524013Y-18970040D01*
X32330318Y-19050271D01*
X32209701Y-19170888D01*
X27573803Y-19170888D01*
X27630346Y-19114345D01*
X27753893Y-19165520D01*
X27963547Y-19165520D01*
X28157242Y-19085289D01*
X28305489Y-18937042D01*
X28385720Y-18743347D01*
X28385720Y-18533693D01*
X28305489Y-18339998D01*
X28157242Y-18191751D01*
X27963547Y-18111520D01*
X27753893Y-18111520D01*
X27560198Y-18191751D01*
X27487654Y-18264295D01*
X27364107Y-18213120D01*
X27154453Y-18213120D01*
X26960758Y-18293351D01*
X26812511Y-18441598D01*
X26732280Y-18635293D01*
X26732280Y-18844947D01*
X26812511Y-19038642D01*
X26944757Y-19170888D01*
X24196040Y-19170888D01*
X24070903Y-19195779D01*
X23964816Y-19266664D01*
X23893931Y-19372751D01*
X23869040Y-19497888D01*
X402000Y-19497888D01*
X402000Y-17935173D01*
X54317600Y-17935173D01*
X54317600Y-18144827D01*
X54397831Y-18338522D01*
X54546078Y-18486769D01*
X54739773Y-18567000D01*
X54949427Y-18567000D01*
X55143122Y-18486769D01*
X55291369Y-18338522D01*
X55371600Y-18144827D01*
X55371600Y-17935173D01*
X55291369Y-17741478D01*
X55143122Y-17593231D01*
X54949427Y-17513000D01*
X54739773Y-17513000D01*
X54546078Y-17593231D01*
X54397831Y-17741478D01*
X54317600Y-17935173D01*
X402000Y-17935173D01*
X402000Y-16694733D01*
X31111240Y-16694733D01*
X31111240Y-16904387D01*
X31191471Y-17098082D01*
X31339718Y-17246329D01*
X31533413Y-17326560D01*
X31743067Y-17326560D01*
X31936762Y-17246329D01*
X31952418Y-17230673D01*
X52343100Y-17230673D01*
X52343100Y-17440327D01*
X52423331Y-17634022D01*
X52571578Y-17782269D01*
X52765273Y-17862500D01*
X52974927Y-17862500D01*
X53168622Y-17782269D01*
X53316869Y-17634022D01*
X53397100Y-17440327D01*
X53397100Y-17230673D01*
X53316869Y-17036978D01*
X53168622Y-16888731D01*
X52974927Y-16808500D01*
X52765273Y-16808500D01*
X52571578Y-16888731D01*
X52423331Y-17036978D01*
X52343100Y-17230673D01*
X31952418Y-17230673D01*
X32085009Y-17098082D01*
X32165240Y-16904387D01*
X32165240Y-16694733D01*
X32085009Y-16501038D01*
X31936762Y-16352791D01*
X31743067Y-16272560D01*
X31533413Y-16272560D01*
X31339718Y-16352791D01*
X31191471Y-16501038D01*
X31111240Y-16694733D01*
X402000Y-16694733D01*
X402000Y-15973373D01*
X24344680Y-15973373D01*
X24344680Y-16183027D01*
X24424911Y-16376722D01*
X24573158Y-16524969D01*
X24766853Y-16605200D01*
X24976507Y-16605200D01*
X25170202Y-16524969D01*
X25318449Y-16376722D01*
X25398680Y-16183027D01*
X25398680Y-16049573D01*
X42373600Y-16049573D01*
X42373600Y-16259227D01*
X42453831Y-16452922D01*
X42602078Y-16601169D01*
X42795773Y-16681400D01*
X43005427Y-16681400D01*
X43199122Y-16601169D01*
X43347369Y-16452922D01*
X43427600Y-16259227D01*
X43427600Y-16049573D01*
X44121120Y-16049573D01*
X44121120Y-16259227D01*
X44201351Y-16452922D01*
X44349598Y-16601169D01*
X44543293Y-16681400D01*
X44752947Y-16681400D01*
X44946642Y-16601169D01*
X45094889Y-16452922D01*
X45175120Y-16259227D01*
X45175120Y-16049573D01*
X45173016Y-16044493D01*
X46132800Y-16044493D01*
X46132800Y-16254147D01*
X46213031Y-16447842D01*
X46361278Y-16596089D01*
X46554973Y-16676320D01*
X46764627Y-16676320D01*
X46958322Y-16596089D01*
X47106569Y-16447842D01*
X47186800Y-16254147D01*
X47186800Y-16044493D01*
X47106569Y-15850798D01*
X47050944Y-15795173D01*
X68764200Y-15795173D01*
X68764200Y-16004827D01*
X68844431Y-16198522D01*
X68992678Y-16346769D01*
X69186373Y-16427000D01*
X69396027Y-16427000D01*
X69494400Y-16386253D01*
X69592773Y-16427000D01*
X69802427Y-16427000D01*
X69905880Y-16384148D01*
X70009333Y-16427000D01*
X70218987Y-16427000D01*
X70332600Y-16379940D01*
X70446213Y-16427000D01*
X70655867Y-16427000D01*
X70766740Y-16381075D01*
X70877613Y-16427000D01*
X71087267Y-16427000D01*
X71280962Y-16346769D01*
X71429209Y-16198522D01*
X71509440Y-16004827D01*
X71509440Y-15795173D01*
X71429209Y-15601478D01*
X71280962Y-15453231D01*
X71087267Y-15373000D01*
X70877613Y-15373000D01*
X70766740Y-15418925D01*
X70655867Y-15373000D01*
X70446213Y-15373000D01*
X70332600Y-15420060D01*
X70218987Y-15373000D01*
X70009333Y-15373000D01*
X69905880Y-15415852D01*
X69802427Y-15373000D01*
X69592773Y-15373000D01*
X69494400Y-15413747D01*
X69396027Y-15373000D01*
X69186373Y-15373000D01*
X68992678Y-15453231D01*
X68844431Y-15601478D01*
X68764200Y-15795173D01*
X47050944Y-15795173D01*
X46958322Y-15702551D01*
X46764627Y-15622320D01*
X46554973Y-15622320D01*
X46361278Y-15702551D01*
X46213031Y-15850798D01*
X46132800Y-16044493D01*
X45173016Y-16044493D01*
X45094889Y-15855878D01*
X44946642Y-15707631D01*
X44752947Y-15627400D01*
X44543293Y-15627400D01*
X44349598Y-15707631D01*
X44201351Y-15855878D01*
X44121120Y-16049573D01*
X43427600Y-16049573D01*
X43347369Y-15855878D01*
X43199122Y-15707631D01*
X43005427Y-15627400D01*
X42795773Y-15627400D01*
X42602078Y-15707631D01*
X42453831Y-15855878D01*
X42373600Y-16049573D01*
X25398680Y-16049573D01*
X25398680Y-15973373D01*
X25318449Y-15779678D01*
X25170202Y-15631431D01*
X24976507Y-15551200D01*
X24766853Y-15551200D01*
X24573158Y-15631431D01*
X24424911Y-15779678D01*
X24344680Y-15973373D01*
X402000Y-15973373D01*
X402000Y-12941696D01*
X3423000Y-12941696D01*
X3423000Y-13708304D01*
X3716368Y-14416558D01*
X4258442Y-14958632D01*
X4966696Y-15252000D01*
X5733304Y-15252000D01*
X6441558Y-14958632D01*
X6983632Y-14416558D01*
X7054207Y-14246173D01*
X55190440Y-14246173D01*
X55190440Y-14455827D01*
X55270671Y-14649522D01*
X55418918Y-14797769D01*
X55612613Y-14878000D01*
X55822267Y-14878000D01*
X56015962Y-14797769D01*
X56164209Y-14649522D01*
X56244440Y-14455827D01*
X56244440Y-14429656D01*
X56361402Y-14381209D01*
X56465958Y-14276653D01*
X57679640Y-14276653D01*
X57679640Y-14486307D01*
X57759871Y-14680002D01*
X57908118Y-14828249D01*
X58101813Y-14908480D01*
X58311467Y-14908480D01*
X58505162Y-14828249D01*
X58653409Y-14680002D01*
X58733640Y-14486307D01*
X58733640Y-14454546D01*
X58886162Y-14391369D01*
X59034409Y-14243122D01*
X59114640Y-14049427D01*
X59114640Y-13839773D01*
X59096167Y-13795173D01*
X68728640Y-13795173D01*
X68728640Y-14004827D01*
X68808871Y-14198522D01*
X68957118Y-14346769D01*
X69150813Y-14427000D01*
X69360467Y-14427000D01*
X69466460Y-14383096D01*
X69572453Y-14427000D01*
X69782107Y-14427000D01*
X69888100Y-14383096D01*
X69994093Y-14427000D01*
X70203747Y-14427000D01*
X70304660Y-14385201D01*
X70405573Y-14427000D01*
X70615227Y-14427000D01*
X70716700Y-14384969D01*
X70818173Y-14427000D01*
X71027827Y-14427000D01*
X71221522Y-14346769D01*
X71369769Y-14198522D01*
X71450000Y-14004827D01*
X71450000Y-13795173D01*
X71369769Y-13601478D01*
X71221522Y-13453231D01*
X71027827Y-13373000D01*
X70818173Y-13373000D01*
X70716700Y-13415031D01*
X70615227Y-13373000D01*
X70405573Y-13373000D01*
X70304660Y-13414799D01*
X70203747Y-13373000D01*
X69994093Y-13373000D01*
X69888100Y-13416904D01*
X69782107Y-13373000D01*
X69572453Y-13373000D01*
X69466460Y-13416904D01*
X69360467Y-13373000D01*
X69150813Y-13373000D01*
X68957118Y-13453231D01*
X68808871Y-13601478D01*
X68728640Y-13795173D01*
X59096167Y-13795173D01*
X59034409Y-13646078D01*
X58886162Y-13497831D01*
X58692467Y-13417600D01*
X58482813Y-13417600D01*
X58289118Y-13497831D01*
X58140871Y-13646078D01*
X58060640Y-13839773D01*
X58060640Y-13871534D01*
X57908118Y-13934711D01*
X57759871Y-14082958D01*
X57679640Y-14276653D01*
X56465958Y-14276653D01*
X56509649Y-14232962D01*
X56589880Y-14039267D01*
X56589880Y-13829613D01*
X56509649Y-13635918D01*
X56361402Y-13487671D01*
X56167707Y-13407440D01*
X55958053Y-13407440D01*
X55764358Y-13487671D01*
X55616111Y-13635918D01*
X55535880Y-13829613D01*
X55535880Y-13855784D01*
X55418918Y-13904231D01*
X55270671Y-14052478D01*
X55190440Y-14246173D01*
X7054207Y-14246173D01*
X7277000Y-13708304D01*
X7277000Y-12941696D01*
X6983632Y-12233442D01*
X6441558Y-11691368D01*
X5733304Y-11398000D01*
X4966696Y-11398000D01*
X4258442Y-11691368D01*
X3716368Y-12233442D01*
X3423000Y-12941696D01*
X402000Y-12941696D01*
X402000Y-10944173D01*
X9693960Y-10944173D01*
X9693960Y-11153827D01*
X9774191Y-11347522D01*
X9922438Y-11495769D01*
X10116133Y-11576000D01*
X10325787Y-11576000D01*
X10519482Y-11495769D01*
X10667729Y-11347522D01*
X10747960Y-11153827D01*
X10747960Y-10944173D01*
X10667729Y-10750478D01*
X10519482Y-10602231D01*
X10325787Y-10522000D01*
X10116133Y-10522000D01*
X9922438Y-10602231D01*
X9774191Y-10750478D01*
X9693960Y-10944173D01*
X402000Y-10944173D01*
X402000Y-9526853D01*
X9749840Y-9526853D01*
X9749840Y-9736507D01*
X9830071Y-9930202D01*
X9978318Y-10078449D01*
X10172013Y-10158680D01*
X10381667Y-10158680D01*
X10575362Y-10078449D01*
X10723609Y-9930202D01*
X10803840Y-9736507D01*
X10803840Y-9526853D01*
X10723609Y-9333158D01*
X10575362Y-9184911D01*
X10381667Y-9104680D01*
X10172013Y-9104680D01*
X9978318Y-9184911D01*
X9830071Y-9333158D01*
X9749840Y-9526853D01*
X402000Y-9526853D01*
X402000Y-3825253D01*
X5073000Y-3825253D01*
X5073000Y-4034907D01*
X5116233Y-4139280D01*
X5073000Y-4243653D01*
X5073000Y-4453307D01*
X5116904Y-4559300D01*
X5073000Y-4665293D01*
X5073000Y-4874947D01*
X5117472Y-4982311D01*
X5076240Y-5081853D01*
X5076240Y-5291507D01*
X5121196Y-5400040D01*
X5076240Y-5508573D01*
X5076240Y-5718227D01*
X5156471Y-5911922D01*
X5304718Y-6060169D01*
X5498413Y-6140400D01*
X5708067Y-6140400D01*
X5901762Y-6060169D01*
X6050009Y-5911922D01*
X6130240Y-5718227D01*
X6130240Y-5508573D01*
X6085284Y-5400040D01*
X6130240Y-5291507D01*
X6130240Y-5081853D01*
X6085768Y-4974489D01*
X6127000Y-4874947D01*
X6127000Y-4665293D01*
X6083096Y-4559300D01*
X6127000Y-4453307D01*
X6127000Y-4243653D01*
X6083767Y-4139280D01*
X6127000Y-4034907D01*
X6127000Y-3825253D01*
X6105958Y-3774453D01*
X22878400Y-3774453D01*
X22878400Y-3984107D01*
X22921633Y-4088480D01*
X22878400Y-4192853D01*
X22878400Y-4402507D01*
X22922304Y-4508500D01*
X22878400Y-4614493D01*
X22878400Y-4824147D01*
X22922872Y-4931511D01*
X22881640Y-5031053D01*
X22881640Y-5240707D01*
X22961871Y-5434402D01*
X23110118Y-5582649D01*
X23303813Y-5662880D01*
X23513467Y-5662880D01*
X23707162Y-5582649D01*
X23855409Y-5434402D01*
X23935640Y-5240707D01*
X23935640Y-5031053D01*
X23891168Y-4923689D01*
X23932400Y-4824147D01*
X23932400Y-4614493D01*
X23888496Y-4508500D01*
X23932400Y-4402507D01*
X23932400Y-4192853D01*
X23889167Y-4088480D01*
X23932400Y-3984107D01*
X23932400Y-3774453D01*
X23852169Y-3580758D01*
X23822344Y-3550933D01*
X40693960Y-3550933D01*
X40693960Y-3760587D01*
X40737193Y-3864960D01*
X40693960Y-3969333D01*
X40693960Y-4178987D01*
X40737864Y-4284980D01*
X40693960Y-4390973D01*
X40693960Y-4600627D01*
X40738432Y-4707991D01*
X40697200Y-4807533D01*
X40697200Y-5017187D01*
X40777431Y-5210882D01*
X40925678Y-5359129D01*
X41119373Y-5439360D01*
X41329027Y-5439360D01*
X41522722Y-5359129D01*
X41670969Y-5210882D01*
X41751200Y-5017187D01*
X41751200Y-4807533D01*
X41706728Y-4700169D01*
X41747960Y-4600627D01*
X41747960Y-4390973D01*
X41704056Y-4284980D01*
X41747960Y-4178987D01*
X41747960Y-4115573D01*
X56373000Y-4115573D01*
X56373000Y-4325227D01*
X56412919Y-4421600D01*
X56373000Y-4517973D01*
X56373000Y-4727627D01*
X56416378Y-4832350D01*
X56373000Y-4937073D01*
X56373000Y-5146727D01*
X56413747Y-5245100D01*
X56373000Y-5343473D01*
X56373000Y-5553127D01*
X56453231Y-5746822D01*
X56601478Y-5895069D01*
X56795173Y-5975300D01*
X57004827Y-5975300D01*
X57198522Y-5895069D01*
X57346769Y-5746822D01*
X57427000Y-5553127D01*
X57427000Y-5343473D01*
X57386253Y-5245100D01*
X57427000Y-5146727D01*
X57427000Y-4937073D01*
X57383622Y-4832350D01*
X57427000Y-4727627D01*
X57427000Y-4517973D01*
X57387081Y-4421600D01*
X57419525Y-4343273D01*
X62373000Y-4343273D01*
X62373000Y-4552927D01*
X62418366Y-4662450D01*
X62373000Y-4771973D01*
X62373000Y-4981627D01*
X62413747Y-5080000D01*
X62373000Y-5178373D01*
X62373000Y-5388027D01*
X62411117Y-5480050D01*
X62373000Y-5572073D01*
X62373000Y-5781727D01*
X62453231Y-5975422D01*
X62601478Y-6123669D01*
X62795173Y-6203900D01*
X63004827Y-6203900D01*
X63198522Y-6123669D01*
X63346769Y-5975422D01*
X63427000Y-5781727D01*
X63427000Y-5572073D01*
X63388883Y-5480050D01*
X63427000Y-5388027D01*
X63427000Y-5178373D01*
X63386253Y-5080000D01*
X63427000Y-4981627D01*
X63427000Y-4771973D01*
X63381634Y-4662450D01*
X63427000Y-4552927D01*
X63427000Y-4343273D01*
X63346769Y-4149578D01*
X63198522Y-4001331D01*
X63004827Y-3921100D01*
X62795173Y-3921100D01*
X62601478Y-4001331D01*
X62453231Y-4149578D01*
X62373000Y-4343273D01*
X57419525Y-4343273D01*
X57427000Y-4325227D01*
X57427000Y-4115573D01*
X57346769Y-3921878D01*
X57198522Y-3773631D01*
X57004827Y-3693400D01*
X56795173Y-3693400D01*
X56601478Y-3773631D01*
X56453231Y-3921878D01*
X56373000Y-4115573D01*
X41747960Y-4115573D01*
X41747960Y-3969333D01*
X41704727Y-3864960D01*
X41747960Y-3760587D01*
X41747960Y-3550933D01*
X41667729Y-3357238D01*
X41519482Y-3208991D01*
X41325787Y-3128760D01*
X41116133Y-3128760D01*
X40922438Y-3208991D01*
X40774191Y-3357238D01*
X40693960Y-3550933D01*
X23822344Y-3550933D01*
X23703922Y-3432511D01*
X23510227Y-3352280D01*
X23300573Y-3352280D01*
X23106878Y-3432511D01*
X22958631Y-3580758D01*
X22878400Y-3774453D01*
X6105958Y-3774453D01*
X6046769Y-3631558D01*
X5898522Y-3483311D01*
X5704827Y-3403080D01*
X5495173Y-3403080D01*
X5301478Y-3483311D01*
X5153231Y-3631558D01*
X5073000Y-3825253D01*
X402000Y-3825253D01*
X402000Y-2966696D01*
X69173000Y-2966696D01*
X69173000Y-3733304D01*
X69466368Y-4441558D01*
X70008442Y-4983632D01*
X70716696Y-5277000D01*
X71483304Y-5277000D01*
X72191558Y-4983632D01*
X72733632Y-4441558D01*
X73027000Y-3733304D01*
X73027000Y-2966696D01*
X72733632Y-2258442D01*
X72191558Y-1716368D01*
X71483304Y-1423000D01*
X70716696Y-1423000D01*
X70008442Y-1716368D01*
X69466368Y-2258442D01*
X69173000Y-2966696D01*
X402000Y-2966696D01*
X402000Y-402000D01*
X74598001Y-402000D01*
X74598000Y-64598000D01*
G04 #@! TO.N,+3V3*
G36*
X27381471Y-19736998D02*
X27301240Y-19930693D01*
X27301240Y-20087640D01*
X27195093Y-20087640D01*
X27001398Y-20167871D01*
X26853151Y-20316118D01*
X26772920Y-20509813D01*
X26772920Y-20719467D01*
X26853151Y-20913162D01*
X27001398Y-21061409D01*
X27195093Y-21141640D01*
X27404747Y-21141640D01*
X27598442Y-21061409D01*
X27746689Y-20913162D01*
X27826920Y-20719467D01*
X27826920Y-20562520D01*
X27933067Y-20562520D01*
X28126762Y-20482289D01*
X28275009Y-20334042D01*
X28355240Y-20140347D01*
X28355240Y-19930693D01*
X28275009Y-19736998D01*
X28162899Y-19624888D01*
X32111376Y-19624888D01*
X32182071Y-19795562D01*
X32330318Y-19943809D01*
X32482787Y-20006964D01*
X32315078Y-20076431D01*
X32166831Y-20224678D01*
X32086600Y-20418373D01*
X32086600Y-20628027D01*
X32166831Y-20821722D01*
X32315078Y-20969969D01*
X32508773Y-21050200D01*
X32718427Y-21050200D01*
X32912122Y-20969969D01*
X33060369Y-20821722D01*
X33140600Y-20628027D01*
X33140600Y-20418373D01*
X33060369Y-20224678D01*
X32912122Y-20076431D01*
X32759653Y-20013276D01*
X32927362Y-19943809D01*
X33075609Y-19795562D01*
X33146304Y-19624888D01*
X33483806Y-19624888D01*
X33443278Y-19722731D01*
X33443278Y-19932385D01*
X33523509Y-20126080D01*
X33671756Y-20274327D01*
X33865451Y-20354558D01*
X34075105Y-20354558D01*
X34268800Y-20274327D01*
X34417047Y-20126080D01*
X34497278Y-19932385D01*
X34497278Y-19722731D01*
X34456750Y-19624888D01*
X50469040Y-19624888D01*
X50469040Y-28333923D01*
X50303358Y-28402551D01*
X50155111Y-28550798D01*
X50074880Y-28744493D01*
X50074880Y-28954147D01*
X50155111Y-29147842D01*
X50303358Y-29296089D01*
X50469040Y-29364717D01*
X50469040Y-32606578D01*
X50380768Y-32643141D01*
X50232521Y-32791388D01*
X50152290Y-32985083D01*
X50152290Y-33022530D01*
X50114843Y-33022530D01*
X49921148Y-33102761D01*
X49772901Y-33251008D01*
X49692670Y-33444703D01*
X49692670Y-33654357D01*
X49772901Y-33848052D01*
X49921148Y-33996299D01*
X50114843Y-34076530D01*
X50324497Y-34076530D01*
X50469040Y-34016658D01*
X50469040Y-40112389D01*
X50412722Y-40056071D01*
X50260200Y-39992894D01*
X50260200Y-39961133D01*
X50179969Y-39767438D01*
X50031722Y-39619191D01*
X49838027Y-39538960D01*
X49628373Y-39538960D01*
X49434678Y-39619191D01*
X49286431Y-39767438D01*
X49206200Y-39961133D01*
X49206200Y-40170787D01*
X49286431Y-40364482D01*
X49434678Y-40512729D01*
X49587200Y-40575906D01*
X49587200Y-40607667D01*
X49667431Y-40801362D01*
X49815678Y-40949609D01*
X50009373Y-41029840D01*
X50219027Y-41029840D01*
X50412722Y-40949609D01*
X50469040Y-40893291D01*
X50469040Y-45570888D01*
X24323040Y-45570888D01*
X24323040Y-44903973D01*
X24796800Y-44903973D01*
X24796800Y-45113627D01*
X24877031Y-45307322D01*
X25025278Y-45455569D01*
X25218973Y-45535800D01*
X25428627Y-45535800D01*
X25622322Y-45455569D01*
X25770569Y-45307322D01*
X25850800Y-45113627D01*
X25850800Y-44903973D01*
X25841069Y-44880480D01*
X25946787Y-44880480D01*
X26140482Y-44800249D01*
X26288729Y-44652002D01*
X26368960Y-44458307D01*
X26368960Y-44248653D01*
X26288729Y-44054958D01*
X26140482Y-43906711D01*
X25946787Y-43826480D01*
X25737133Y-43826480D01*
X25543438Y-43906711D01*
X25395191Y-44054958D01*
X25314960Y-44248653D01*
X25314960Y-44458307D01*
X25324691Y-44481800D01*
X25218973Y-44481800D01*
X25025278Y-44562031D01*
X24877031Y-44710278D01*
X24796800Y-44903973D01*
X24323040Y-44903973D01*
X24323040Y-43821643D01*
X26584096Y-43821643D01*
X26584096Y-44031297D01*
X26664327Y-44224992D01*
X26812574Y-44373239D01*
X27006269Y-44453470D01*
X27215923Y-44453470D01*
X27409618Y-44373239D01*
X27556211Y-44226646D01*
X27556211Y-44374045D01*
X27636442Y-44567740D01*
X27784689Y-44715987D01*
X27978384Y-44796218D01*
X28188038Y-44796218D01*
X28381733Y-44715987D01*
X28478227Y-44619493D01*
X32086600Y-44619493D01*
X32086600Y-44829147D01*
X32166831Y-45022842D01*
X32315078Y-45171089D01*
X32508773Y-45251320D01*
X32718427Y-45251320D01*
X32912122Y-45171089D01*
X33060369Y-45022842D01*
X33140600Y-44829147D01*
X33140600Y-44619493D01*
X33102725Y-44528053D01*
X33549640Y-44528053D01*
X33549640Y-44737707D01*
X33629871Y-44931402D01*
X33778118Y-45079649D01*
X33971813Y-45159880D01*
X34181467Y-45159880D01*
X34375162Y-45079649D01*
X34523409Y-44931402D01*
X34603640Y-44737707D01*
X34603640Y-44528053D01*
X34523409Y-44334358D01*
X34375162Y-44186111D01*
X34181467Y-44105880D01*
X33971813Y-44105880D01*
X33778118Y-44186111D01*
X33629871Y-44334358D01*
X33549640Y-44528053D01*
X33102725Y-44528053D01*
X33060369Y-44425798D01*
X32912122Y-44277551D01*
X32718427Y-44197320D01*
X32508773Y-44197320D01*
X32315078Y-44277551D01*
X32166831Y-44425798D01*
X32086600Y-44619493D01*
X28478227Y-44619493D01*
X28529980Y-44567740D01*
X28610211Y-44374045D01*
X28610211Y-44164391D01*
X28529980Y-43970696D01*
X28462497Y-43903213D01*
X36282680Y-43903213D01*
X36282680Y-44112867D01*
X36362911Y-44306562D01*
X36450079Y-44393730D01*
X36394440Y-44528053D01*
X36394440Y-44737707D01*
X36474671Y-44931402D01*
X36622918Y-45079649D01*
X36816613Y-45159880D01*
X37026267Y-45159880D01*
X37219962Y-45079649D01*
X37368209Y-44931402D01*
X37447122Y-44740888D01*
X40641638Y-44740888D01*
X40641638Y-44950542D01*
X40721869Y-45144237D01*
X40870116Y-45292484D01*
X41063811Y-45372715D01*
X41273465Y-45372715D01*
X41467160Y-45292484D01*
X41615407Y-45144237D01*
X41695638Y-44950542D01*
X41695638Y-44740888D01*
X41615407Y-44547193D01*
X41467160Y-44398946D01*
X41273465Y-44318715D01*
X41063811Y-44318715D01*
X40870116Y-44398946D01*
X40721869Y-44547193D01*
X40641638Y-44740888D01*
X37447122Y-44740888D01*
X37448440Y-44737707D01*
X37448440Y-44528053D01*
X37368209Y-44334358D01*
X37281041Y-44247190D01*
X37336680Y-44112867D01*
X37336680Y-43903213D01*
X37256449Y-43709518D01*
X37149990Y-43603059D01*
X37301242Y-43540409D01*
X37449489Y-43392162D01*
X37529720Y-43198467D01*
X37529720Y-42988813D01*
X37449489Y-42795118D01*
X37301242Y-42646871D01*
X37194684Y-42602733D01*
X40026640Y-42602733D01*
X40026640Y-42812387D01*
X40106871Y-43006082D01*
X40255118Y-43154329D01*
X40448813Y-43234560D01*
X40658467Y-43234560D01*
X40852162Y-43154329D01*
X41000409Y-43006082D01*
X41080640Y-42812387D01*
X41080640Y-42602733D01*
X41000409Y-42409038D01*
X40852162Y-42260791D01*
X40658467Y-42180560D01*
X40448813Y-42180560D01*
X40255118Y-42260791D01*
X40106871Y-42409038D01*
X40026640Y-42602733D01*
X37194684Y-42602733D01*
X37107547Y-42566640D01*
X36897893Y-42566640D01*
X36704198Y-42646871D01*
X36555951Y-42795118D01*
X36475720Y-42988813D01*
X36475720Y-43198467D01*
X36555951Y-43392162D01*
X36662410Y-43498621D01*
X36511158Y-43561271D01*
X36362911Y-43709518D01*
X36282680Y-43903213D01*
X28462497Y-43903213D01*
X28381733Y-43822449D01*
X28188038Y-43742218D01*
X27978384Y-43742218D01*
X27784689Y-43822449D01*
X27638096Y-43969042D01*
X27638096Y-43821643D01*
X27557865Y-43627948D01*
X27409618Y-43479701D01*
X27215923Y-43399470D01*
X27006269Y-43399470D01*
X26812574Y-43479701D01*
X26664327Y-43627948D01*
X26584096Y-43821643D01*
X24323040Y-43821643D01*
X24323040Y-42946638D01*
X31910971Y-42946638D01*
X31910971Y-43156292D01*
X31991202Y-43349987D01*
X32139449Y-43498234D01*
X32333144Y-43578465D01*
X32542798Y-43578465D01*
X32736493Y-43498234D01*
X32884740Y-43349987D01*
X32964971Y-43156292D01*
X32964971Y-42946638D01*
X32884740Y-42752943D01*
X32736493Y-42604696D01*
X32596848Y-42546853D01*
X34128760Y-42546853D01*
X34128760Y-42756507D01*
X34208991Y-42950202D01*
X34357238Y-43098449D01*
X34550933Y-43178680D01*
X34760587Y-43178680D01*
X34954282Y-43098449D01*
X35102529Y-42950202D01*
X35182760Y-42756507D01*
X35182760Y-42546853D01*
X35102529Y-42353158D01*
X34954282Y-42204911D01*
X34879152Y-42173791D01*
X40994062Y-42173791D01*
X40994062Y-42383445D01*
X41074293Y-42577140D01*
X41222540Y-42725387D01*
X41416235Y-42805618D01*
X41625889Y-42805618D01*
X41819584Y-42725387D01*
X41967831Y-42577140D01*
X42048062Y-42383445D01*
X42048062Y-42173791D01*
X42033060Y-42137572D01*
X42117082Y-42102769D01*
X42265329Y-41954522D01*
X42345560Y-41760827D01*
X42345560Y-41551173D01*
X42328727Y-41510533D01*
X45828000Y-41510533D01*
X45828000Y-41720187D01*
X45908231Y-41913882D01*
X46056478Y-42062129D01*
X46250173Y-42142360D01*
X46459827Y-42142360D01*
X46653522Y-42062129D01*
X46801769Y-41913882D01*
X46882000Y-41720187D01*
X46882000Y-41510533D01*
X46801769Y-41316838D01*
X46653522Y-41168591D01*
X46459827Y-41088360D01*
X46250173Y-41088360D01*
X46056478Y-41168591D01*
X45908231Y-41316838D01*
X45828000Y-41510533D01*
X42328727Y-41510533D01*
X42265329Y-41357478D01*
X42117082Y-41209231D01*
X41923387Y-41129000D01*
X41713733Y-41129000D01*
X41520038Y-41209231D01*
X41371791Y-41357478D01*
X41291560Y-41551173D01*
X41291560Y-41760827D01*
X41306562Y-41797046D01*
X41222540Y-41831849D01*
X41074293Y-41980096D01*
X40994062Y-42173791D01*
X34879152Y-42173791D01*
X34760587Y-42124680D01*
X34550933Y-42124680D01*
X34357238Y-42204911D01*
X34208991Y-42353158D01*
X34128760Y-42546853D01*
X32596848Y-42546853D01*
X32542798Y-42524465D01*
X32333144Y-42524465D01*
X32139449Y-42604696D01*
X31991202Y-42752943D01*
X31910971Y-42946638D01*
X24323040Y-42946638D01*
X24323040Y-41048253D01*
X27834640Y-41048253D01*
X27834640Y-41257907D01*
X27914871Y-41451602D01*
X28063118Y-41599849D01*
X28256813Y-41680080D01*
X28466467Y-41680080D01*
X28660162Y-41599849D01*
X28808409Y-41451602D01*
X28852493Y-41345173D01*
X37373000Y-41345173D01*
X37373000Y-41554827D01*
X37453231Y-41748522D01*
X37601478Y-41896769D01*
X37795173Y-41977000D01*
X38004827Y-41977000D01*
X38198522Y-41896769D01*
X38346769Y-41748522D01*
X38427000Y-41554827D01*
X38427000Y-41345173D01*
X38346769Y-41151478D01*
X38198522Y-41003231D01*
X38004827Y-40923000D01*
X37795173Y-40923000D01*
X37601478Y-41003231D01*
X37453231Y-41151478D01*
X37373000Y-41345173D01*
X28852493Y-41345173D01*
X28888640Y-41257907D01*
X28888640Y-41048253D01*
X28808409Y-40854558D01*
X28660162Y-40706311D01*
X28466467Y-40626080D01*
X28256813Y-40626080D01*
X28063118Y-40706311D01*
X27914871Y-40854558D01*
X27834640Y-41048253D01*
X24323040Y-41048253D01*
X24323040Y-40479293D01*
X38106400Y-40479293D01*
X38106400Y-40688947D01*
X38186631Y-40882642D01*
X38334878Y-41030889D01*
X38528573Y-41111120D01*
X38738227Y-41111120D01*
X38931922Y-41030889D01*
X39080169Y-40882642D01*
X39142031Y-40733293D01*
X42038320Y-40733293D01*
X42038320Y-40942947D01*
X42118551Y-41136642D01*
X42266798Y-41284889D01*
X42460493Y-41365120D01*
X42670147Y-41365120D01*
X42863842Y-41284889D01*
X43012089Y-41136642D01*
X43092320Y-40942947D01*
X43092320Y-40831720D01*
X43162907Y-40831720D01*
X43356602Y-40751489D01*
X43504849Y-40603242D01*
X43585080Y-40409547D01*
X43585080Y-40199893D01*
X43504849Y-40006198D01*
X43356602Y-39857951D01*
X43162907Y-39777720D01*
X42953253Y-39777720D01*
X42759558Y-39857951D01*
X42611311Y-40006198D01*
X42531080Y-40199893D01*
X42531080Y-40311120D01*
X42460493Y-40311120D01*
X42266798Y-40391351D01*
X42118551Y-40539598D01*
X42038320Y-40733293D01*
X39142031Y-40733293D01*
X39160400Y-40688947D01*
X39160400Y-40479293D01*
X39080169Y-40285598D01*
X38931922Y-40137351D01*
X38738227Y-40057120D01*
X38528573Y-40057120D01*
X38334878Y-40137351D01*
X38186631Y-40285598D01*
X38106400Y-40479293D01*
X24323040Y-40479293D01*
X24323040Y-39811841D01*
X25817880Y-39811841D01*
X25817880Y-40021495D01*
X25898111Y-40215190D01*
X26046358Y-40363437D01*
X26240053Y-40443668D01*
X26449707Y-40443668D01*
X26643402Y-40363437D01*
X26791649Y-40215190D01*
X26871880Y-40021495D01*
X26871880Y-39811841D01*
X26791649Y-39618146D01*
X26643402Y-39469899D01*
X26449707Y-39389668D01*
X26240053Y-39389668D01*
X26046358Y-39469899D01*
X25898111Y-39618146D01*
X25817880Y-39811841D01*
X24323040Y-39811841D01*
X24323040Y-38181738D01*
X33288083Y-38181738D01*
X33288083Y-38391392D01*
X33368314Y-38585087D01*
X33516561Y-38733334D01*
X33710256Y-38813565D01*
X33814987Y-38813565D01*
X33827487Y-38843742D01*
X33975734Y-38991989D01*
X34169429Y-39072220D01*
X34246000Y-39072220D01*
X34269951Y-39130042D01*
X34418198Y-39278289D01*
X34454947Y-39293511D01*
X34454947Y-39391755D01*
X34535178Y-39585450D01*
X34683425Y-39733697D01*
X34877120Y-39813928D01*
X35086774Y-39813928D01*
X35258750Y-39742693D01*
X44654520Y-39742693D01*
X44654520Y-39952347D01*
X44734751Y-40146042D01*
X44882998Y-40294289D01*
X45076693Y-40374520D01*
X45286347Y-40374520D01*
X45480042Y-40294289D01*
X45628289Y-40146042D01*
X45708520Y-39952347D01*
X45708520Y-39742693D01*
X45628289Y-39548998D01*
X45480042Y-39400751D01*
X45286347Y-39320520D01*
X45076693Y-39320520D01*
X44882998Y-39400751D01*
X44734751Y-39548998D01*
X44654520Y-39742693D01*
X35258750Y-39742693D01*
X35280469Y-39733697D01*
X35428716Y-39585450D01*
X35508947Y-39391755D01*
X35508947Y-39182101D01*
X35428716Y-38988406D01*
X35300239Y-38859929D01*
X39875318Y-38859929D01*
X39875318Y-39069583D01*
X39955549Y-39263278D01*
X40103796Y-39411525D01*
X40297491Y-39491756D01*
X40507145Y-39491756D01*
X40700840Y-39411525D01*
X40849087Y-39263278D01*
X40898013Y-39145160D01*
X40942947Y-39145160D01*
X41136642Y-39064929D01*
X41284889Y-38916682D01*
X41365120Y-38722987D01*
X41365120Y-38513333D01*
X41284889Y-38319638D01*
X41136642Y-38171391D01*
X40942947Y-38091160D01*
X40733293Y-38091160D01*
X40539598Y-38171391D01*
X40391351Y-38319638D01*
X40342425Y-38437756D01*
X40297491Y-38437756D01*
X40103796Y-38517987D01*
X39955549Y-38666234D01*
X39875318Y-38859929D01*
X35300239Y-38859929D01*
X35280469Y-38840159D01*
X35243720Y-38824937D01*
X35243720Y-38726693D01*
X35163489Y-38532998D01*
X35015242Y-38384751D01*
X34821547Y-38304520D01*
X34744976Y-38304520D01*
X34721025Y-38246698D01*
X34572778Y-38098451D01*
X34379083Y-38018220D01*
X34274352Y-38018220D01*
X34261852Y-37988043D01*
X34113605Y-37839796D01*
X33919910Y-37759565D01*
X33710256Y-37759565D01*
X33516561Y-37839796D01*
X33368314Y-37988043D01*
X33288083Y-38181738D01*
X24323040Y-38181738D01*
X24323040Y-36928373D01*
X35947400Y-36928373D01*
X35947400Y-37138027D01*
X36027631Y-37331722D01*
X36175878Y-37479969D01*
X36369573Y-37560200D01*
X36579227Y-37560200D01*
X36772922Y-37479969D01*
X36921169Y-37331722D01*
X37001400Y-37138027D01*
X37001400Y-36928373D01*
X36921169Y-36734678D01*
X36772922Y-36586431D01*
X36579227Y-36506200D01*
X36369573Y-36506200D01*
X36175878Y-36586431D01*
X36027631Y-36734678D01*
X35947400Y-36928373D01*
X24323040Y-36928373D01*
X24323040Y-35995173D01*
X31223000Y-35995173D01*
X31223000Y-36204827D01*
X31303231Y-36398522D01*
X31451478Y-36546769D01*
X31645173Y-36627000D01*
X31854827Y-36627000D01*
X32048522Y-36546769D01*
X32196769Y-36398522D01*
X32277000Y-36204827D01*
X32277000Y-35995173D01*
X32196769Y-35801478D01*
X32048522Y-35653231D01*
X31854827Y-35573000D01*
X31645173Y-35573000D01*
X31451478Y-35653231D01*
X31303231Y-35801478D01*
X31223000Y-35995173D01*
X24323040Y-35995173D01*
X24323040Y-35053563D01*
X25419100Y-35053563D01*
X25419100Y-35263217D01*
X25499331Y-35456912D01*
X25647578Y-35605159D01*
X25841273Y-35685390D01*
X26050927Y-35685390D01*
X26244622Y-35605159D01*
X26392869Y-35456912D01*
X26473100Y-35263217D01*
X26473100Y-35053563D01*
X26392869Y-34859868D01*
X26244622Y-34711621D01*
X26050927Y-34631390D01*
X25841273Y-34631390D01*
X25647578Y-34711621D01*
X25499331Y-34859868D01*
X25419100Y-35053563D01*
X24323040Y-35053563D01*
X24323040Y-33809253D01*
X29124960Y-33809253D01*
X29124960Y-34018907D01*
X29205191Y-34212602D01*
X29353438Y-34360849D01*
X29455160Y-34402984D01*
X29455160Y-34450707D01*
X29535391Y-34644402D01*
X29683638Y-34792649D01*
X29877333Y-34872880D01*
X30086987Y-34872880D01*
X30280682Y-34792649D01*
X30428929Y-34644402D01*
X30509160Y-34450707D01*
X30509160Y-34241053D01*
X30471285Y-34149613D01*
X44227800Y-34149613D01*
X44227800Y-34359267D01*
X44308031Y-34552962D01*
X44456278Y-34701209D01*
X44649973Y-34781440D01*
X44859627Y-34781440D01*
X45053322Y-34701209D01*
X45201569Y-34552962D01*
X45281800Y-34359267D01*
X45281800Y-34149613D01*
X45201569Y-33955918D01*
X45053322Y-33807671D01*
X44859627Y-33727440D01*
X44649973Y-33727440D01*
X44456278Y-33807671D01*
X44308031Y-33955918D01*
X44227800Y-34149613D01*
X30471285Y-34149613D01*
X30428929Y-34047358D01*
X30280682Y-33899111D01*
X30178960Y-33856976D01*
X30178960Y-33809253D01*
X30098729Y-33615558D01*
X29950482Y-33467311D01*
X29756787Y-33387080D01*
X29547133Y-33387080D01*
X29353438Y-33467311D01*
X29205191Y-33615558D01*
X29124960Y-33809253D01*
X24323040Y-33809253D01*
X24323040Y-33170173D01*
X45523000Y-33170173D01*
X45523000Y-33379827D01*
X45603231Y-33573522D01*
X45751478Y-33721769D01*
X45945173Y-33802000D01*
X46154827Y-33802000D01*
X46348522Y-33721769D01*
X46496769Y-33573522D01*
X46577000Y-33379827D01*
X46577000Y-33170173D01*
X46496769Y-32976478D01*
X46348522Y-32828231D01*
X46154827Y-32748000D01*
X45945173Y-32748000D01*
X45751478Y-32828231D01*
X45603231Y-32976478D01*
X45523000Y-33170173D01*
X24323040Y-33170173D01*
X24323040Y-31570173D01*
X28423000Y-31570173D01*
X28423000Y-31779827D01*
X28503231Y-31973522D01*
X28651478Y-32121769D01*
X28845173Y-32202000D01*
X29054827Y-32202000D01*
X29248522Y-32121769D01*
X29396769Y-31973522D01*
X29477000Y-31779827D01*
X29477000Y-31570173D01*
X29396769Y-31376478D01*
X29248522Y-31228231D01*
X29054827Y-31148000D01*
X28845173Y-31148000D01*
X28651478Y-31228231D01*
X28503231Y-31376478D01*
X28423000Y-31570173D01*
X24323040Y-31570173D01*
X24323040Y-27967253D01*
X26417320Y-27967253D01*
X26417320Y-28176907D01*
X26497551Y-28370602D01*
X26645798Y-28518849D01*
X26839493Y-28599080D01*
X27049147Y-28599080D01*
X27242842Y-28518849D01*
X27391089Y-28370602D01*
X27434013Y-28266973D01*
X47915880Y-28266973D01*
X47915880Y-28476627D01*
X47996111Y-28670322D01*
X48068429Y-28742640D01*
X48041831Y-28769238D01*
X47961600Y-28962933D01*
X47961600Y-29172587D01*
X48041831Y-29366282D01*
X48190078Y-29514529D01*
X48383773Y-29594760D01*
X48593427Y-29594760D01*
X48787122Y-29514529D01*
X48935369Y-29366282D01*
X49015600Y-29172587D01*
X49015600Y-28962933D01*
X48935369Y-28769238D01*
X48863051Y-28696920D01*
X48889649Y-28670322D01*
X48969880Y-28476627D01*
X48969880Y-28266973D01*
X48889649Y-28073278D01*
X48741402Y-27925031D01*
X48547707Y-27844800D01*
X48338053Y-27844800D01*
X48144358Y-27925031D01*
X47996111Y-28073278D01*
X47915880Y-28266973D01*
X27434013Y-28266973D01*
X27471320Y-28176907D01*
X27471320Y-27967253D01*
X27391089Y-27773558D01*
X27242842Y-27625311D01*
X27049147Y-27545080D01*
X26839493Y-27545080D01*
X26645798Y-27625311D01*
X26497551Y-27773558D01*
X26417320Y-27967253D01*
X24323040Y-27967253D01*
X24323040Y-27159533D01*
X40570200Y-27159533D01*
X40570200Y-27369187D01*
X40650431Y-27562882D01*
X40798678Y-27711129D01*
X40992373Y-27791360D01*
X41202027Y-27791360D01*
X41395722Y-27711129D01*
X41543969Y-27562882D01*
X41624200Y-27369187D01*
X41624200Y-27159533D01*
X41543969Y-26965838D01*
X41395722Y-26817591D01*
X41202027Y-26737360D01*
X40992373Y-26737360D01*
X40798678Y-26817591D01*
X40650431Y-26965838D01*
X40570200Y-27159533D01*
X24323040Y-27159533D01*
X24323040Y-24832893D01*
X38517880Y-24832893D01*
X38517880Y-25042547D01*
X38598111Y-25236242D01*
X38746358Y-25384489D01*
X38940053Y-25464720D01*
X39149707Y-25464720D01*
X39343402Y-25384489D01*
X39491649Y-25236242D01*
X39571880Y-25042547D01*
X39571880Y-24832893D01*
X39491649Y-24639198D01*
X39343402Y-24490951D01*
X39149707Y-24410720D01*
X38940053Y-24410720D01*
X38746358Y-24490951D01*
X38598111Y-24639198D01*
X38517880Y-24832893D01*
X24323040Y-24832893D01*
X24323040Y-22953293D01*
X27265680Y-22953293D01*
X27265680Y-23162947D01*
X27345911Y-23356642D01*
X27494158Y-23504889D01*
X27656186Y-23572003D01*
X27640551Y-23587638D01*
X27560320Y-23781333D01*
X27560320Y-23990987D01*
X27640551Y-24184682D01*
X27788798Y-24332929D01*
X27982493Y-24413160D01*
X28192147Y-24413160D01*
X28385842Y-24332929D01*
X28534089Y-24184682D01*
X28614320Y-23990987D01*
X28614320Y-23781333D01*
X28534089Y-23587638D01*
X28385842Y-23439391D01*
X28223814Y-23372277D01*
X28239449Y-23356642D01*
X28288686Y-23237773D01*
X30181600Y-23237773D01*
X30181600Y-23447427D01*
X30261831Y-23641122D01*
X30410078Y-23789369D01*
X30603773Y-23869600D01*
X30813427Y-23869600D01*
X31007122Y-23789369D01*
X31155369Y-23641122D01*
X31235600Y-23447427D01*
X31235600Y-23237773D01*
X31216663Y-23192053D01*
X32620000Y-23192053D01*
X32620000Y-23401707D01*
X32700231Y-23595402D01*
X32848478Y-23743649D01*
X33042173Y-23823880D01*
X33251827Y-23823880D01*
X33321131Y-23795173D01*
X37823000Y-23795173D01*
X37823000Y-24004827D01*
X37903231Y-24198522D01*
X38051478Y-24346769D01*
X38245173Y-24427000D01*
X38454827Y-24427000D01*
X38648522Y-24346769D01*
X38796769Y-24198522D01*
X38805446Y-24177573D01*
X41733520Y-24177573D01*
X41733520Y-24387227D01*
X41813751Y-24580922D01*
X41961998Y-24729169D01*
X42155693Y-24809400D01*
X42365347Y-24809400D01*
X42559042Y-24729169D01*
X42707289Y-24580922D01*
X42787520Y-24387227D01*
X42787520Y-24177573D01*
X42707289Y-23983878D01*
X42559042Y-23835631D01*
X42365347Y-23755400D01*
X42155693Y-23755400D01*
X41961998Y-23835631D01*
X41813751Y-23983878D01*
X41733520Y-24177573D01*
X38805446Y-24177573D01*
X38877000Y-24004827D01*
X38877000Y-23795173D01*
X38796769Y-23601478D01*
X38648522Y-23453231D01*
X38454827Y-23373000D01*
X38245173Y-23373000D01*
X38051478Y-23453231D01*
X37903231Y-23601478D01*
X37823000Y-23795173D01*
X33321131Y-23795173D01*
X33445522Y-23743649D01*
X33593769Y-23595402D01*
X33674000Y-23401707D01*
X33674000Y-23192053D01*
X33593769Y-22998358D01*
X33455472Y-22860061D01*
X41928745Y-22860061D01*
X41928745Y-23069715D01*
X42008976Y-23263410D01*
X42157223Y-23411657D01*
X42350918Y-23491888D01*
X42375394Y-23491888D01*
X42418271Y-23595402D01*
X42566518Y-23743649D01*
X42760213Y-23823880D01*
X42969867Y-23823880D01*
X43163562Y-23743649D01*
X43311809Y-23595402D01*
X43392040Y-23401707D01*
X43392040Y-23192053D01*
X43311809Y-22998358D01*
X43163562Y-22850111D01*
X43057004Y-22805973D01*
X44451320Y-22805973D01*
X44451320Y-23015627D01*
X44531551Y-23209322D01*
X44679798Y-23357569D01*
X44873493Y-23437800D01*
X45083147Y-23437800D01*
X45159682Y-23406098D01*
X45166551Y-23422682D01*
X45314798Y-23570929D01*
X45508493Y-23651160D01*
X45632777Y-23651160D01*
X45664391Y-23727482D01*
X45812638Y-23875729D01*
X46006333Y-23955960D01*
X46215987Y-23955960D01*
X46409682Y-23875729D01*
X46557929Y-23727482D01*
X46638160Y-23533787D01*
X46638160Y-23324133D01*
X46557929Y-23130438D01*
X46409682Y-22982191D01*
X46215987Y-22901960D01*
X46091703Y-22901960D01*
X46060089Y-22825638D01*
X45911842Y-22677391D01*
X45718147Y-22597160D01*
X45508493Y-22597160D01*
X45431958Y-22628862D01*
X45425089Y-22612278D01*
X45276842Y-22464031D01*
X45083147Y-22383800D01*
X44873493Y-22383800D01*
X44679798Y-22464031D01*
X44531551Y-22612278D01*
X44451320Y-22805973D01*
X43057004Y-22805973D01*
X42969867Y-22769880D01*
X42945391Y-22769880D01*
X42904708Y-22671663D01*
X42935889Y-22640482D01*
X43016120Y-22446787D01*
X43016120Y-22237133D01*
X42935889Y-22043438D01*
X42787642Y-21895191D01*
X42593947Y-21814960D01*
X42384293Y-21814960D01*
X42190598Y-21895191D01*
X42042351Y-22043438D01*
X41962120Y-22237133D01*
X41962120Y-22446787D01*
X42040157Y-22635185D01*
X42008976Y-22666366D01*
X41928745Y-22860061D01*
X33455472Y-22860061D01*
X33445522Y-22850111D01*
X33251827Y-22769880D01*
X33042173Y-22769880D01*
X32848478Y-22850111D01*
X32700231Y-22998358D01*
X32620000Y-23192053D01*
X31216663Y-23192053D01*
X31155369Y-23044078D01*
X31007122Y-22895831D01*
X30813427Y-22815600D01*
X30603773Y-22815600D01*
X30410078Y-22895831D01*
X30261831Y-23044078D01*
X30181600Y-23237773D01*
X28288686Y-23237773D01*
X28319680Y-23162947D01*
X28319680Y-22953293D01*
X28307190Y-22923141D01*
X28381689Y-22848642D01*
X28461920Y-22654947D01*
X28461920Y-22445293D01*
X28381689Y-22251598D01*
X28233442Y-22103351D01*
X28039747Y-22023120D01*
X27830093Y-22023120D01*
X27636398Y-22103351D01*
X27488151Y-22251598D01*
X27407920Y-22445293D01*
X27407920Y-22654947D01*
X27420410Y-22685099D01*
X27345911Y-22759598D01*
X27265680Y-22953293D01*
X24323040Y-22953293D01*
X24323040Y-21434373D01*
X43105120Y-21434373D01*
X43105120Y-21644027D01*
X43185351Y-21837722D01*
X43333598Y-21985969D01*
X43527293Y-22066200D01*
X43736947Y-22066200D01*
X43930642Y-21985969D01*
X44078889Y-21837722D01*
X44159120Y-21644027D01*
X44159120Y-21549351D01*
X44245602Y-21513529D01*
X44381721Y-21377410D01*
X44548373Y-21446440D01*
X44758027Y-21446440D01*
X44951722Y-21366209D01*
X45099969Y-21217962D01*
X45180200Y-21024267D01*
X45180200Y-20814613D01*
X45099969Y-20620918D01*
X44951722Y-20472671D01*
X44758027Y-20392440D01*
X44548373Y-20392440D01*
X44354678Y-20472671D01*
X44218559Y-20608790D01*
X44051907Y-20539760D01*
X43842253Y-20539760D01*
X43648558Y-20619991D01*
X43500311Y-20768238D01*
X43420080Y-20961933D01*
X43420080Y-21056609D01*
X43333598Y-21092431D01*
X43185351Y-21240678D01*
X43105120Y-21434373D01*
X24323040Y-21434373D01*
X24323040Y-19624888D01*
X27493581Y-19624888D01*
X27381471Y-19736998D01*
X27381471Y-19736998D01*
G37*
X27381471Y-19736998D02*
X27301240Y-19930693D01*
X27301240Y-20087640D01*
X27195093Y-20087640D01*
X27001398Y-20167871D01*
X26853151Y-20316118D01*
X26772920Y-20509813D01*
X26772920Y-20719467D01*
X26853151Y-20913162D01*
X27001398Y-21061409D01*
X27195093Y-21141640D01*
X27404747Y-21141640D01*
X27598442Y-21061409D01*
X27746689Y-20913162D01*
X27826920Y-20719467D01*
X27826920Y-20562520D01*
X27933067Y-20562520D01*
X28126762Y-20482289D01*
X28275009Y-20334042D01*
X28355240Y-20140347D01*
X28355240Y-19930693D01*
X28275009Y-19736998D01*
X28162899Y-19624888D01*
X32111376Y-19624888D01*
X32182071Y-19795562D01*
X32330318Y-19943809D01*
X32482787Y-20006964D01*
X32315078Y-20076431D01*
X32166831Y-20224678D01*
X32086600Y-20418373D01*
X32086600Y-20628027D01*
X32166831Y-20821722D01*
X32315078Y-20969969D01*
X32508773Y-21050200D01*
X32718427Y-21050200D01*
X32912122Y-20969969D01*
X33060369Y-20821722D01*
X33140600Y-20628027D01*
X33140600Y-20418373D01*
X33060369Y-20224678D01*
X32912122Y-20076431D01*
X32759653Y-20013276D01*
X32927362Y-19943809D01*
X33075609Y-19795562D01*
X33146304Y-19624888D01*
X33483806Y-19624888D01*
X33443278Y-19722731D01*
X33443278Y-19932385D01*
X33523509Y-20126080D01*
X33671756Y-20274327D01*
X33865451Y-20354558D01*
X34075105Y-20354558D01*
X34268800Y-20274327D01*
X34417047Y-20126080D01*
X34497278Y-19932385D01*
X34497278Y-19722731D01*
X34456750Y-19624888D01*
X50469040Y-19624888D01*
X50469040Y-28333923D01*
X50303358Y-28402551D01*
X50155111Y-28550798D01*
X50074880Y-28744493D01*
X50074880Y-28954147D01*
X50155111Y-29147842D01*
X50303358Y-29296089D01*
X50469040Y-29364717D01*
X50469040Y-32606578D01*
X50380768Y-32643141D01*
X50232521Y-32791388D01*
X50152290Y-32985083D01*
X50152290Y-33022530D01*
X50114843Y-33022530D01*
X49921148Y-33102761D01*
X49772901Y-33251008D01*
X49692670Y-33444703D01*
X49692670Y-33654357D01*
X49772901Y-33848052D01*
X49921148Y-33996299D01*
X50114843Y-34076530D01*
X50324497Y-34076530D01*
X50469040Y-34016658D01*
X50469040Y-40112389D01*
X50412722Y-40056071D01*
X50260200Y-39992894D01*
X50260200Y-39961133D01*
X50179969Y-39767438D01*
X50031722Y-39619191D01*
X49838027Y-39538960D01*
X49628373Y-39538960D01*
X49434678Y-39619191D01*
X49286431Y-39767438D01*
X49206200Y-39961133D01*
X49206200Y-40170787D01*
X49286431Y-40364482D01*
X49434678Y-40512729D01*
X49587200Y-40575906D01*
X49587200Y-40607667D01*
X49667431Y-40801362D01*
X49815678Y-40949609D01*
X50009373Y-41029840D01*
X50219027Y-41029840D01*
X50412722Y-40949609D01*
X50469040Y-40893291D01*
X50469040Y-45570888D01*
X24323040Y-45570888D01*
X24323040Y-44903973D01*
X24796800Y-44903973D01*
X24796800Y-45113627D01*
X24877031Y-45307322D01*
X25025278Y-45455569D01*
X25218973Y-45535800D01*
X25428627Y-45535800D01*
X25622322Y-45455569D01*
X25770569Y-45307322D01*
X25850800Y-45113627D01*
X25850800Y-44903973D01*
X25841069Y-44880480D01*
X25946787Y-44880480D01*
X26140482Y-44800249D01*
X26288729Y-44652002D01*
X26368960Y-44458307D01*
X26368960Y-44248653D01*
X26288729Y-44054958D01*
X26140482Y-43906711D01*
X25946787Y-43826480D01*
X25737133Y-43826480D01*
X25543438Y-43906711D01*
X25395191Y-44054958D01*
X25314960Y-44248653D01*
X25314960Y-44458307D01*
X25324691Y-44481800D01*
X25218973Y-44481800D01*
X25025278Y-44562031D01*
X24877031Y-44710278D01*
X24796800Y-44903973D01*
X24323040Y-44903973D01*
X24323040Y-43821643D01*
X26584096Y-43821643D01*
X26584096Y-44031297D01*
X26664327Y-44224992D01*
X26812574Y-44373239D01*
X27006269Y-44453470D01*
X27215923Y-44453470D01*
X27409618Y-44373239D01*
X27556211Y-44226646D01*
X27556211Y-44374045D01*
X27636442Y-44567740D01*
X27784689Y-44715987D01*
X27978384Y-44796218D01*
X28188038Y-44796218D01*
X28381733Y-44715987D01*
X28478227Y-44619493D01*
X32086600Y-44619493D01*
X32086600Y-44829147D01*
X32166831Y-45022842D01*
X32315078Y-45171089D01*
X32508773Y-45251320D01*
X32718427Y-45251320D01*
X32912122Y-45171089D01*
X33060369Y-45022842D01*
X33140600Y-44829147D01*
X33140600Y-44619493D01*
X33102725Y-44528053D01*
X33549640Y-44528053D01*
X33549640Y-44737707D01*
X33629871Y-44931402D01*
X33778118Y-45079649D01*
X33971813Y-45159880D01*
X34181467Y-45159880D01*
X34375162Y-45079649D01*
X34523409Y-44931402D01*
X34603640Y-44737707D01*
X34603640Y-44528053D01*
X34523409Y-44334358D01*
X34375162Y-44186111D01*
X34181467Y-44105880D01*
X33971813Y-44105880D01*
X33778118Y-44186111D01*
X33629871Y-44334358D01*
X33549640Y-44528053D01*
X33102725Y-44528053D01*
X33060369Y-44425798D01*
X32912122Y-44277551D01*
X32718427Y-44197320D01*
X32508773Y-44197320D01*
X32315078Y-44277551D01*
X32166831Y-44425798D01*
X32086600Y-44619493D01*
X28478227Y-44619493D01*
X28529980Y-44567740D01*
X28610211Y-44374045D01*
X28610211Y-44164391D01*
X28529980Y-43970696D01*
X28462497Y-43903213D01*
X36282680Y-43903213D01*
X36282680Y-44112867D01*
X36362911Y-44306562D01*
X36450079Y-44393730D01*
X36394440Y-44528053D01*
X36394440Y-44737707D01*
X36474671Y-44931402D01*
X36622918Y-45079649D01*
X36816613Y-45159880D01*
X37026267Y-45159880D01*
X37219962Y-45079649D01*
X37368209Y-44931402D01*
X37447122Y-44740888D01*
X40641638Y-44740888D01*
X40641638Y-44950542D01*
X40721869Y-45144237D01*
X40870116Y-45292484D01*
X41063811Y-45372715D01*
X41273465Y-45372715D01*
X41467160Y-45292484D01*
X41615407Y-45144237D01*
X41695638Y-44950542D01*
X41695638Y-44740888D01*
X41615407Y-44547193D01*
X41467160Y-44398946D01*
X41273465Y-44318715D01*
X41063811Y-44318715D01*
X40870116Y-44398946D01*
X40721869Y-44547193D01*
X40641638Y-44740888D01*
X37447122Y-44740888D01*
X37448440Y-44737707D01*
X37448440Y-44528053D01*
X37368209Y-44334358D01*
X37281041Y-44247190D01*
X37336680Y-44112867D01*
X37336680Y-43903213D01*
X37256449Y-43709518D01*
X37149990Y-43603059D01*
X37301242Y-43540409D01*
X37449489Y-43392162D01*
X37529720Y-43198467D01*
X37529720Y-42988813D01*
X37449489Y-42795118D01*
X37301242Y-42646871D01*
X37194684Y-42602733D01*
X40026640Y-42602733D01*
X40026640Y-42812387D01*
X40106871Y-43006082D01*
X40255118Y-43154329D01*
X40448813Y-43234560D01*
X40658467Y-43234560D01*
X40852162Y-43154329D01*
X41000409Y-43006082D01*
X41080640Y-42812387D01*
X41080640Y-42602733D01*
X41000409Y-42409038D01*
X40852162Y-42260791D01*
X40658467Y-42180560D01*
X40448813Y-42180560D01*
X40255118Y-42260791D01*
X40106871Y-42409038D01*
X40026640Y-42602733D01*
X37194684Y-42602733D01*
X37107547Y-42566640D01*
X36897893Y-42566640D01*
X36704198Y-42646871D01*
X36555951Y-42795118D01*
X36475720Y-42988813D01*
X36475720Y-43198467D01*
X36555951Y-43392162D01*
X36662410Y-43498621D01*
X36511158Y-43561271D01*
X36362911Y-43709518D01*
X36282680Y-43903213D01*
X28462497Y-43903213D01*
X28381733Y-43822449D01*
X28188038Y-43742218D01*
X27978384Y-43742218D01*
X27784689Y-43822449D01*
X27638096Y-43969042D01*
X27638096Y-43821643D01*
X27557865Y-43627948D01*
X27409618Y-43479701D01*
X27215923Y-43399470D01*
X27006269Y-43399470D01*
X26812574Y-43479701D01*
X26664327Y-43627948D01*
X26584096Y-43821643D01*
X24323040Y-43821643D01*
X24323040Y-42946638D01*
X31910971Y-42946638D01*
X31910971Y-43156292D01*
X31991202Y-43349987D01*
X32139449Y-43498234D01*
X32333144Y-43578465D01*
X32542798Y-43578465D01*
X32736493Y-43498234D01*
X32884740Y-43349987D01*
X32964971Y-43156292D01*
X32964971Y-42946638D01*
X32884740Y-42752943D01*
X32736493Y-42604696D01*
X32596848Y-42546853D01*
X34128760Y-42546853D01*
X34128760Y-42756507D01*
X34208991Y-42950202D01*
X34357238Y-43098449D01*
X34550933Y-43178680D01*
X34760587Y-43178680D01*
X34954282Y-43098449D01*
X35102529Y-42950202D01*
X35182760Y-42756507D01*
X35182760Y-42546853D01*
X35102529Y-42353158D01*
X34954282Y-42204911D01*
X34879152Y-42173791D01*
X40994062Y-42173791D01*
X40994062Y-42383445D01*
X41074293Y-42577140D01*
X41222540Y-42725387D01*
X41416235Y-42805618D01*
X41625889Y-42805618D01*
X41819584Y-42725387D01*
X41967831Y-42577140D01*
X42048062Y-42383445D01*
X42048062Y-42173791D01*
X42033060Y-42137572D01*
X42117082Y-42102769D01*
X42265329Y-41954522D01*
X42345560Y-41760827D01*
X42345560Y-41551173D01*
X42328727Y-41510533D01*
X45828000Y-41510533D01*
X45828000Y-41720187D01*
X45908231Y-41913882D01*
X46056478Y-42062129D01*
X46250173Y-42142360D01*
X46459827Y-42142360D01*
X46653522Y-42062129D01*
X46801769Y-41913882D01*
X46882000Y-41720187D01*
X46882000Y-41510533D01*
X46801769Y-41316838D01*
X46653522Y-41168591D01*
X46459827Y-41088360D01*
X46250173Y-41088360D01*
X46056478Y-41168591D01*
X45908231Y-41316838D01*
X45828000Y-41510533D01*
X42328727Y-41510533D01*
X42265329Y-41357478D01*
X42117082Y-41209231D01*
X41923387Y-41129000D01*
X41713733Y-41129000D01*
X41520038Y-41209231D01*
X41371791Y-41357478D01*
X41291560Y-41551173D01*
X41291560Y-41760827D01*
X41306562Y-41797046D01*
X41222540Y-41831849D01*
X41074293Y-41980096D01*
X40994062Y-42173791D01*
X34879152Y-42173791D01*
X34760587Y-42124680D01*
X34550933Y-42124680D01*
X34357238Y-42204911D01*
X34208991Y-42353158D01*
X34128760Y-42546853D01*
X32596848Y-42546853D01*
X32542798Y-42524465D01*
X32333144Y-42524465D01*
X32139449Y-42604696D01*
X31991202Y-42752943D01*
X31910971Y-42946638D01*
X24323040Y-42946638D01*
X24323040Y-41048253D01*
X27834640Y-41048253D01*
X27834640Y-41257907D01*
X27914871Y-41451602D01*
X28063118Y-41599849D01*
X28256813Y-41680080D01*
X28466467Y-41680080D01*
X28660162Y-41599849D01*
X28808409Y-41451602D01*
X28852493Y-41345173D01*
X37373000Y-41345173D01*
X37373000Y-41554827D01*
X37453231Y-41748522D01*
X37601478Y-41896769D01*
X37795173Y-41977000D01*
X38004827Y-41977000D01*
X38198522Y-41896769D01*
X38346769Y-41748522D01*
X38427000Y-41554827D01*
X38427000Y-41345173D01*
X38346769Y-41151478D01*
X38198522Y-41003231D01*
X38004827Y-40923000D01*
X37795173Y-40923000D01*
X37601478Y-41003231D01*
X37453231Y-41151478D01*
X37373000Y-41345173D01*
X28852493Y-41345173D01*
X28888640Y-41257907D01*
X28888640Y-41048253D01*
X28808409Y-40854558D01*
X28660162Y-40706311D01*
X28466467Y-40626080D01*
X28256813Y-40626080D01*
X28063118Y-40706311D01*
X27914871Y-40854558D01*
X27834640Y-41048253D01*
X24323040Y-41048253D01*
X24323040Y-40479293D01*
X38106400Y-40479293D01*
X38106400Y-40688947D01*
X38186631Y-40882642D01*
X38334878Y-41030889D01*
X38528573Y-41111120D01*
X38738227Y-41111120D01*
X38931922Y-41030889D01*
X39080169Y-40882642D01*
X39142031Y-40733293D01*
X42038320Y-40733293D01*
X42038320Y-40942947D01*
X42118551Y-41136642D01*
X42266798Y-41284889D01*
X42460493Y-41365120D01*
X42670147Y-41365120D01*
X42863842Y-41284889D01*
X43012089Y-41136642D01*
X43092320Y-40942947D01*
X43092320Y-40831720D01*
X43162907Y-40831720D01*
X43356602Y-40751489D01*
X43504849Y-40603242D01*
X43585080Y-40409547D01*
X43585080Y-40199893D01*
X43504849Y-40006198D01*
X43356602Y-39857951D01*
X43162907Y-39777720D01*
X42953253Y-39777720D01*
X42759558Y-39857951D01*
X42611311Y-40006198D01*
X42531080Y-40199893D01*
X42531080Y-40311120D01*
X42460493Y-40311120D01*
X42266798Y-40391351D01*
X42118551Y-40539598D01*
X42038320Y-40733293D01*
X39142031Y-40733293D01*
X39160400Y-40688947D01*
X39160400Y-40479293D01*
X39080169Y-40285598D01*
X38931922Y-40137351D01*
X38738227Y-40057120D01*
X38528573Y-40057120D01*
X38334878Y-40137351D01*
X38186631Y-40285598D01*
X38106400Y-40479293D01*
X24323040Y-40479293D01*
X24323040Y-39811841D01*
X25817880Y-39811841D01*
X25817880Y-40021495D01*
X25898111Y-40215190D01*
X26046358Y-40363437D01*
X26240053Y-40443668D01*
X26449707Y-40443668D01*
X26643402Y-40363437D01*
X26791649Y-40215190D01*
X26871880Y-40021495D01*
X26871880Y-39811841D01*
X26791649Y-39618146D01*
X26643402Y-39469899D01*
X26449707Y-39389668D01*
X26240053Y-39389668D01*
X26046358Y-39469899D01*
X25898111Y-39618146D01*
X25817880Y-39811841D01*
X24323040Y-39811841D01*
X24323040Y-38181738D01*
X33288083Y-38181738D01*
X33288083Y-38391392D01*
X33368314Y-38585087D01*
X33516561Y-38733334D01*
X33710256Y-38813565D01*
X33814987Y-38813565D01*
X33827487Y-38843742D01*
X33975734Y-38991989D01*
X34169429Y-39072220D01*
X34246000Y-39072220D01*
X34269951Y-39130042D01*
X34418198Y-39278289D01*
X34454947Y-39293511D01*
X34454947Y-39391755D01*
X34535178Y-39585450D01*
X34683425Y-39733697D01*
X34877120Y-39813928D01*
X35086774Y-39813928D01*
X35258750Y-39742693D01*
X44654520Y-39742693D01*
X44654520Y-39952347D01*
X44734751Y-40146042D01*
X44882998Y-40294289D01*
X45076693Y-40374520D01*
X45286347Y-40374520D01*
X45480042Y-40294289D01*
X45628289Y-40146042D01*
X45708520Y-39952347D01*
X45708520Y-39742693D01*
X45628289Y-39548998D01*
X45480042Y-39400751D01*
X45286347Y-39320520D01*
X45076693Y-39320520D01*
X44882998Y-39400751D01*
X44734751Y-39548998D01*
X44654520Y-39742693D01*
X35258750Y-39742693D01*
X35280469Y-39733697D01*
X35428716Y-39585450D01*
X35508947Y-39391755D01*
X35508947Y-39182101D01*
X35428716Y-38988406D01*
X35300239Y-38859929D01*
X39875318Y-38859929D01*
X39875318Y-39069583D01*
X39955549Y-39263278D01*
X40103796Y-39411525D01*
X40297491Y-39491756D01*
X40507145Y-39491756D01*
X40700840Y-39411525D01*
X40849087Y-39263278D01*
X40898013Y-39145160D01*
X40942947Y-39145160D01*
X41136642Y-39064929D01*
X41284889Y-38916682D01*
X41365120Y-38722987D01*
X41365120Y-38513333D01*
X41284889Y-38319638D01*
X41136642Y-38171391D01*
X40942947Y-38091160D01*
X40733293Y-38091160D01*
X40539598Y-38171391D01*
X40391351Y-38319638D01*
X40342425Y-38437756D01*
X40297491Y-38437756D01*
X40103796Y-38517987D01*
X39955549Y-38666234D01*
X39875318Y-38859929D01*
X35300239Y-38859929D01*
X35280469Y-38840159D01*
X35243720Y-38824937D01*
X35243720Y-38726693D01*
X35163489Y-38532998D01*
X35015242Y-38384751D01*
X34821547Y-38304520D01*
X34744976Y-38304520D01*
X34721025Y-38246698D01*
X34572778Y-38098451D01*
X34379083Y-38018220D01*
X34274352Y-38018220D01*
X34261852Y-37988043D01*
X34113605Y-37839796D01*
X33919910Y-37759565D01*
X33710256Y-37759565D01*
X33516561Y-37839796D01*
X33368314Y-37988043D01*
X33288083Y-38181738D01*
X24323040Y-38181738D01*
X24323040Y-36928373D01*
X35947400Y-36928373D01*
X35947400Y-37138027D01*
X36027631Y-37331722D01*
X36175878Y-37479969D01*
X36369573Y-37560200D01*
X36579227Y-37560200D01*
X36772922Y-37479969D01*
X36921169Y-37331722D01*
X37001400Y-37138027D01*
X37001400Y-36928373D01*
X36921169Y-36734678D01*
X36772922Y-36586431D01*
X36579227Y-36506200D01*
X36369573Y-36506200D01*
X36175878Y-36586431D01*
X36027631Y-36734678D01*
X35947400Y-36928373D01*
X24323040Y-36928373D01*
X24323040Y-35995173D01*
X31223000Y-35995173D01*
X31223000Y-36204827D01*
X31303231Y-36398522D01*
X31451478Y-36546769D01*
X31645173Y-36627000D01*
X31854827Y-36627000D01*
X32048522Y-36546769D01*
X32196769Y-36398522D01*
X32277000Y-36204827D01*
X32277000Y-35995173D01*
X32196769Y-35801478D01*
X32048522Y-35653231D01*
X31854827Y-35573000D01*
X31645173Y-35573000D01*
X31451478Y-35653231D01*
X31303231Y-35801478D01*
X31223000Y-35995173D01*
X24323040Y-35995173D01*
X24323040Y-35053563D01*
X25419100Y-35053563D01*
X25419100Y-35263217D01*
X25499331Y-35456912D01*
X25647578Y-35605159D01*
X25841273Y-35685390D01*
X26050927Y-35685390D01*
X26244622Y-35605159D01*
X26392869Y-35456912D01*
X26473100Y-35263217D01*
X26473100Y-35053563D01*
X26392869Y-34859868D01*
X26244622Y-34711621D01*
X26050927Y-34631390D01*
X25841273Y-34631390D01*
X25647578Y-34711621D01*
X25499331Y-34859868D01*
X25419100Y-35053563D01*
X24323040Y-35053563D01*
X24323040Y-33809253D01*
X29124960Y-33809253D01*
X29124960Y-34018907D01*
X29205191Y-34212602D01*
X29353438Y-34360849D01*
X29455160Y-34402984D01*
X29455160Y-34450707D01*
X29535391Y-34644402D01*
X29683638Y-34792649D01*
X29877333Y-34872880D01*
X30086987Y-34872880D01*
X30280682Y-34792649D01*
X30428929Y-34644402D01*
X30509160Y-34450707D01*
X30509160Y-34241053D01*
X30471285Y-34149613D01*
X44227800Y-34149613D01*
X44227800Y-34359267D01*
X44308031Y-34552962D01*
X44456278Y-34701209D01*
X44649973Y-34781440D01*
X44859627Y-34781440D01*
X45053322Y-34701209D01*
X45201569Y-34552962D01*
X45281800Y-34359267D01*
X45281800Y-34149613D01*
X45201569Y-33955918D01*
X45053322Y-33807671D01*
X44859627Y-33727440D01*
X44649973Y-33727440D01*
X44456278Y-33807671D01*
X44308031Y-33955918D01*
X44227800Y-34149613D01*
X30471285Y-34149613D01*
X30428929Y-34047358D01*
X30280682Y-33899111D01*
X30178960Y-33856976D01*
X30178960Y-33809253D01*
X30098729Y-33615558D01*
X29950482Y-33467311D01*
X29756787Y-33387080D01*
X29547133Y-33387080D01*
X29353438Y-33467311D01*
X29205191Y-33615558D01*
X29124960Y-33809253D01*
X24323040Y-33809253D01*
X24323040Y-33170173D01*
X45523000Y-33170173D01*
X45523000Y-33379827D01*
X45603231Y-33573522D01*
X45751478Y-33721769D01*
X45945173Y-33802000D01*
X46154827Y-33802000D01*
X46348522Y-33721769D01*
X46496769Y-33573522D01*
X46577000Y-33379827D01*
X46577000Y-33170173D01*
X46496769Y-32976478D01*
X46348522Y-32828231D01*
X46154827Y-32748000D01*
X45945173Y-32748000D01*
X45751478Y-32828231D01*
X45603231Y-32976478D01*
X45523000Y-33170173D01*
X24323040Y-33170173D01*
X24323040Y-31570173D01*
X28423000Y-31570173D01*
X28423000Y-31779827D01*
X28503231Y-31973522D01*
X28651478Y-32121769D01*
X28845173Y-32202000D01*
X29054827Y-32202000D01*
X29248522Y-32121769D01*
X29396769Y-31973522D01*
X29477000Y-31779827D01*
X29477000Y-31570173D01*
X29396769Y-31376478D01*
X29248522Y-31228231D01*
X29054827Y-31148000D01*
X28845173Y-31148000D01*
X28651478Y-31228231D01*
X28503231Y-31376478D01*
X28423000Y-31570173D01*
X24323040Y-31570173D01*
X24323040Y-27967253D01*
X26417320Y-27967253D01*
X26417320Y-28176907D01*
X26497551Y-28370602D01*
X26645798Y-28518849D01*
X26839493Y-28599080D01*
X27049147Y-28599080D01*
X27242842Y-28518849D01*
X27391089Y-28370602D01*
X27434013Y-28266973D01*
X47915880Y-28266973D01*
X47915880Y-28476627D01*
X47996111Y-28670322D01*
X48068429Y-28742640D01*
X48041831Y-28769238D01*
X47961600Y-28962933D01*
X47961600Y-29172587D01*
X48041831Y-29366282D01*
X48190078Y-29514529D01*
X48383773Y-29594760D01*
X48593427Y-29594760D01*
X48787122Y-29514529D01*
X48935369Y-29366282D01*
X49015600Y-29172587D01*
X49015600Y-28962933D01*
X48935369Y-28769238D01*
X48863051Y-28696920D01*
X48889649Y-28670322D01*
X48969880Y-28476627D01*
X48969880Y-28266973D01*
X48889649Y-28073278D01*
X48741402Y-27925031D01*
X48547707Y-27844800D01*
X48338053Y-27844800D01*
X48144358Y-27925031D01*
X47996111Y-28073278D01*
X47915880Y-28266973D01*
X27434013Y-28266973D01*
X27471320Y-28176907D01*
X27471320Y-27967253D01*
X27391089Y-27773558D01*
X27242842Y-27625311D01*
X27049147Y-27545080D01*
X26839493Y-27545080D01*
X26645798Y-27625311D01*
X26497551Y-27773558D01*
X26417320Y-27967253D01*
X24323040Y-27967253D01*
X24323040Y-27159533D01*
X40570200Y-27159533D01*
X40570200Y-27369187D01*
X40650431Y-27562882D01*
X40798678Y-27711129D01*
X40992373Y-27791360D01*
X41202027Y-27791360D01*
X41395722Y-27711129D01*
X41543969Y-27562882D01*
X41624200Y-27369187D01*
X41624200Y-27159533D01*
X41543969Y-26965838D01*
X41395722Y-26817591D01*
X41202027Y-26737360D01*
X40992373Y-26737360D01*
X40798678Y-26817591D01*
X40650431Y-26965838D01*
X40570200Y-27159533D01*
X24323040Y-27159533D01*
X24323040Y-24832893D01*
X38517880Y-24832893D01*
X38517880Y-25042547D01*
X38598111Y-25236242D01*
X38746358Y-25384489D01*
X38940053Y-25464720D01*
X39149707Y-25464720D01*
X39343402Y-25384489D01*
X39491649Y-25236242D01*
X39571880Y-25042547D01*
X39571880Y-24832893D01*
X39491649Y-24639198D01*
X39343402Y-24490951D01*
X39149707Y-24410720D01*
X38940053Y-24410720D01*
X38746358Y-24490951D01*
X38598111Y-24639198D01*
X38517880Y-24832893D01*
X24323040Y-24832893D01*
X24323040Y-22953293D01*
X27265680Y-22953293D01*
X27265680Y-23162947D01*
X27345911Y-23356642D01*
X27494158Y-23504889D01*
X27656186Y-23572003D01*
X27640551Y-23587638D01*
X27560320Y-23781333D01*
X27560320Y-23990987D01*
X27640551Y-24184682D01*
X27788798Y-24332929D01*
X27982493Y-24413160D01*
X28192147Y-24413160D01*
X28385842Y-24332929D01*
X28534089Y-24184682D01*
X28614320Y-23990987D01*
X28614320Y-23781333D01*
X28534089Y-23587638D01*
X28385842Y-23439391D01*
X28223814Y-23372277D01*
X28239449Y-23356642D01*
X28288686Y-23237773D01*
X30181600Y-23237773D01*
X30181600Y-23447427D01*
X30261831Y-23641122D01*
X30410078Y-23789369D01*
X30603773Y-23869600D01*
X30813427Y-23869600D01*
X31007122Y-23789369D01*
X31155369Y-23641122D01*
X31235600Y-23447427D01*
X31235600Y-23237773D01*
X31216663Y-23192053D01*
X32620000Y-23192053D01*
X32620000Y-23401707D01*
X32700231Y-23595402D01*
X32848478Y-23743649D01*
X33042173Y-23823880D01*
X33251827Y-23823880D01*
X33321131Y-23795173D01*
X37823000Y-23795173D01*
X37823000Y-24004827D01*
X37903231Y-24198522D01*
X38051478Y-24346769D01*
X38245173Y-24427000D01*
X38454827Y-24427000D01*
X38648522Y-24346769D01*
X38796769Y-24198522D01*
X38805446Y-24177573D01*
X41733520Y-24177573D01*
X41733520Y-24387227D01*
X41813751Y-24580922D01*
X41961998Y-24729169D01*
X42155693Y-24809400D01*
X42365347Y-24809400D01*
X42559042Y-24729169D01*
X42707289Y-24580922D01*
X42787520Y-24387227D01*
X42787520Y-24177573D01*
X42707289Y-23983878D01*
X42559042Y-23835631D01*
X42365347Y-23755400D01*
X42155693Y-23755400D01*
X41961998Y-23835631D01*
X41813751Y-23983878D01*
X41733520Y-24177573D01*
X38805446Y-24177573D01*
X38877000Y-24004827D01*
X38877000Y-23795173D01*
X38796769Y-23601478D01*
X38648522Y-23453231D01*
X38454827Y-23373000D01*
X38245173Y-23373000D01*
X38051478Y-23453231D01*
X37903231Y-23601478D01*
X37823000Y-23795173D01*
X33321131Y-23795173D01*
X33445522Y-23743649D01*
X33593769Y-23595402D01*
X33674000Y-23401707D01*
X33674000Y-23192053D01*
X33593769Y-22998358D01*
X33455472Y-22860061D01*
X41928745Y-22860061D01*
X41928745Y-23069715D01*
X42008976Y-23263410D01*
X42157223Y-23411657D01*
X42350918Y-23491888D01*
X42375394Y-23491888D01*
X42418271Y-23595402D01*
X42566518Y-23743649D01*
X42760213Y-23823880D01*
X42969867Y-23823880D01*
X43163562Y-23743649D01*
X43311809Y-23595402D01*
X43392040Y-23401707D01*
X43392040Y-23192053D01*
X43311809Y-22998358D01*
X43163562Y-22850111D01*
X43057004Y-22805973D01*
X44451320Y-22805973D01*
X44451320Y-23015627D01*
X44531551Y-23209322D01*
X44679798Y-23357569D01*
X44873493Y-23437800D01*
X45083147Y-23437800D01*
X45159682Y-23406098D01*
X45166551Y-23422682D01*
X45314798Y-23570929D01*
X45508493Y-23651160D01*
X45632777Y-23651160D01*
X45664391Y-23727482D01*
X45812638Y-23875729D01*
X46006333Y-23955960D01*
X46215987Y-23955960D01*
X46409682Y-23875729D01*
X46557929Y-23727482D01*
X46638160Y-23533787D01*
X46638160Y-23324133D01*
X46557929Y-23130438D01*
X46409682Y-22982191D01*
X46215987Y-22901960D01*
X46091703Y-22901960D01*
X46060089Y-22825638D01*
X45911842Y-22677391D01*
X45718147Y-22597160D01*
X45508493Y-22597160D01*
X45431958Y-22628862D01*
X45425089Y-22612278D01*
X45276842Y-22464031D01*
X45083147Y-22383800D01*
X44873493Y-22383800D01*
X44679798Y-22464031D01*
X44531551Y-22612278D01*
X44451320Y-22805973D01*
X43057004Y-22805973D01*
X42969867Y-22769880D01*
X42945391Y-22769880D01*
X42904708Y-22671663D01*
X42935889Y-22640482D01*
X43016120Y-22446787D01*
X43016120Y-22237133D01*
X42935889Y-22043438D01*
X42787642Y-21895191D01*
X42593947Y-21814960D01*
X42384293Y-21814960D01*
X42190598Y-21895191D01*
X42042351Y-22043438D01*
X41962120Y-22237133D01*
X41962120Y-22446787D01*
X42040157Y-22635185D01*
X42008976Y-22666366D01*
X41928745Y-22860061D01*
X33455472Y-22860061D01*
X33445522Y-22850111D01*
X33251827Y-22769880D01*
X33042173Y-22769880D01*
X32848478Y-22850111D01*
X32700231Y-22998358D01*
X32620000Y-23192053D01*
X31216663Y-23192053D01*
X31155369Y-23044078D01*
X31007122Y-22895831D01*
X30813427Y-22815600D01*
X30603773Y-22815600D01*
X30410078Y-22895831D01*
X30261831Y-23044078D01*
X30181600Y-23237773D01*
X28288686Y-23237773D01*
X28319680Y-23162947D01*
X28319680Y-22953293D01*
X28307190Y-22923141D01*
X28381689Y-22848642D01*
X28461920Y-22654947D01*
X28461920Y-22445293D01*
X28381689Y-22251598D01*
X28233442Y-22103351D01*
X28039747Y-22023120D01*
X27830093Y-22023120D01*
X27636398Y-22103351D01*
X27488151Y-22251598D01*
X27407920Y-22445293D01*
X27407920Y-22654947D01*
X27420410Y-22685099D01*
X27345911Y-22759598D01*
X27265680Y-22953293D01*
X24323040Y-22953293D01*
X24323040Y-21434373D01*
X43105120Y-21434373D01*
X43105120Y-21644027D01*
X43185351Y-21837722D01*
X43333598Y-21985969D01*
X43527293Y-22066200D01*
X43736947Y-22066200D01*
X43930642Y-21985969D01*
X44078889Y-21837722D01*
X44159120Y-21644027D01*
X44159120Y-21549351D01*
X44245602Y-21513529D01*
X44381721Y-21377410D01*
X44548373Y-21446440D01*
X44758027Y-21446440D01*
X44951722Y-21366209D01*
X45099969Y-21217962D01*
X45180200Y-21024267D01*
X45180200Y-20814613D01*
X45099969Y-20620918D01*
X44951722Y-20472671D01*
X44758027Y-20392440D01*
X44548373Y-20392440D01*
X44354678Y-20472671D01*
X44218559Y-20608790D01*
X44051907Y-20539760D01*
X43842253Y-20539760D01*
X43648558Y-20619991D01*
X43500311Y-20768238D01*
X43420080Y-20961933D01*
X43420080Y-21056609D01*
X43333598Y-21092431D01*
X43185351Y-21240678D01*
X43105120Y-21434373D01*
X24323040Y-21434373D01*
X24323040Y-19624888D01*
X27493581Y-19624888D01*
X27381471Y-19736998D01*
G04 #@! TD*
M02*
