G04 #@! TF.GenerationSoftware,KiCad,Pcbnew,5.0.1-33cea8e~68~ubuntu16.04.1*
G04 #@! TF.CreationDate,2019-02-08T00:52:31-05:00*
G04 #@! TF.ProjectId,SmallKat Jumbo Motherboard,536D616C6C4B6174204A756D626F204D,rev?*
G04 #@! TF.SameCoordinates,Original*
G04 #@! TF.FileFunction,Legend,Top*
G04 #@! TF.FilePolarity,Positive*
%FSLAX46Y46*%
G04 Gerber Fmt 4.6, Leading zero omitted, Abs format (unit mm)*
G04 Created by KiCad (PCBNEW 5.0.1-33cea8e~68~ubuntu16.04.1) date Fri 08 Feb 2019 12:52:31 AM EST*
%MOMM*%
%LPD*%
G01*
G04 APERTURE LIST*
%ADD10C,0.300000*%
%ADD11C,0.200000*%
%ADD12C,0.100000*%
%ADD13C,0.120000*%
%ADD14C,0.150000*%
G04 APERTURE END LIST*
D10*
X47918725Y-52915428D02*
X48633011Y-52915428D01*
X48633011Y-54415428D01*
X47418725Y-53701142D02*
X46918725Y-53701142D01*
X46704440Y-52915428D02*
X47418725Y-52915428D01*
X47418725Y-54415428D01*
X46704440Y-54415428D01*
X45275868Y-54344000D02*
X45418725Y-54415428D01*
X45633011Y-54415428D01*
X45847297Y-54344000D01*
X45990154Y-54201142D01*
X46061582Y-54058285D01*
X46133011Y-53772571D01*
X46133011Y-53558285D01*
X46061582Y-53272571D01*
X45990154Y-53129714D01*
X45847297Y-52986857D01*
X45633011Y-52915428D01*
X45490154Y-52915428D01*
X45275868Y-52986857D01*
X45204440Y-53058285D01*
X45204440Y-53558285D01*
X45490154Y-53558285D01*
X12401194Y-11676771D02*
X11686908Y-11676771D01*
X11686908Y-10176771D01*
X12901194Y-10891057D02*
X13401194Y-10891057D01*
X13615480Y-11676771D02*
X12901194Y-11676771D01*
X12901194Y-10176771D01*
X13615480Y-10176771D01*
X15044051Y-10248200D02*
X14901194Y-10176771D01*
X14686908Y-10176771D01*
X14472622Y-10248200D01*
X14329765Y-10391057D01*
X14258337Y-10533914D01*
X14186908Y-10819628D01*
X14186908Y-11033914D01*
X14258337Y-11319628D01*
X14329765Y-11462485D01*
X14472622Y-11605342D01*
X14686908Y-11676771D01*
X14829765Y-11676771D01*
X15044051Y-11605342D01*
X15115480Y-11533914D01*
X15115480Y-11033914D01*
X14829765Y-11033914D01*
X13120725Y-52575068D02*
X13835011Y-52575068D01*
X13835011Y-54075068D01*
X12620725Y-53360782D02*
X12120725Y-53360782D01*
X11906440Y-52575068D02*
X12620725Y-52575068D01*
X12620725Y-54075068D01*
X11906440Y-54075068D01*
X10477868Y-54003640D02*
X10620725Y-54075068D01*
X10835011Y-54075068D01*
X11049297Y-54003640D01*
X11192154Y-53860782D01*
X11263582Y-53717925D01*
X11335011Y-53432211D01*
X11335011Y-53217925D01*
X11263582Y-52932211D01*
X11192154Y-52789354D01*
X11049297Y-52646497D01*
X10835011Y-52575068D01*
X10692154Y-52575068D01*
X10477868Y-52646497D01*
X10406440Y-52717925D01*
X10406440Y-53217925D01*
X10692154Y-53217925D01*
X12342251Y-45764805D02*
X12342251Y-46479091D01*
X10842251Y-46479091D01*
X11556537Y-45264805D02*
X11556537Y-44764805D01*
X12342251Y-44550520D02*
X12342251Y-45264805D01*
X10842251Y-45264805D01*
X10842251Y-44550520D01*
X10913680Y-43121948D02*
X10842251Y-43264805D01*
X10842251Y-43479091D01*
X10913680Y-43693377D01*
X11056537Y-43836234D01*
X11199394Y-43907662D01*
X11485108Y-43979091D01*
X11699394Y-43979091D01*
X11985108Y-43907662D01*
X12127965Y-43836234D01*
X12270822Y-43693377D01*
X12342251Y-43479091D01*
X12342251Y-43336234D01*
X12270822Y-43121948D01*
X12199394Y-43050520D01*
X11699394Y-43050520D01*
X11699394Y-43336234D01*
X63618988Y-43244022D02*
X65118988Y-43244022D01*
X63618988Y-43958308D02*
X65118988Y-43958308D01*
X64047560Y-44458308D01*
X65118988Y-44958308D01*
X63618988Y-44958308D01*
X65118988Y-45672594D02*
X63904702Y-45672594D01*
X63761845Y-45744022D01*
X63690417Y-45815451D01*
X63618988Y-45958308D01*
X63618988Y-46244022D01*
X63690417Y-46386880D01*
X63761845Y-46458308D01*
X63904702Y-46529737D01*
X65118988Y-46529737D01*
X29151057Y-52813828D02*
X29151057Y-54313828D01*
X28436771Y-52813828D02*
X28436771Y-54313828D01*
X27936771Y-53242400D01*
X27436771Y-54313828D01*
X27436771Y-52813828D01*
X26722485Y-54313828D02*
X26722485Y-53099542D01*
X26651057Y-52956685D01*
X26579628Y-52885257D01*
X26436771Y-52813828D01*
X26151057Y-52813828D01*
X26008200Y-52885257D01*
X25936771Y-52956685D01*
X25865342Y-53099542D01*
X25865342Y-54313828D01*
X10673994Y-29298200D02*
X10531137Y-29226771D01*
X10316851Y-29226771D01*
X10102565Y-29298200D01*
X9959708Y-29441057D01*
X9888280Y-29583914D01*
X9816851Y-29869628D01*
X9816851Y-30083914D01*
X9888280Y-30369628D01*
X9959708Y-30512485D01*
X10102565Y-30655342D01*
X10316851Y-30726771D01*
X10459708Y-30726771D01*
X10673994Y-30655342D01*
X10745422Y-30583914D01*
X10745422Y-30083914D01*
X10459708Y-30083914D01*
X11388280Y-29726771D02*
X11388280Y-30726771D01*
X11388280Y-29869628D02*
X11459708Y-29798200D01*
X11602565Y-29726771D01*
X11816851Y-29726771D01*
X11959708Y-29798200D01*
X12031137Y-29941057D01*
X12031137Y-30726771D01*
X13388280Y-30726771D02*
X13388280Y-29226771D01*
X13388280Y-30655342D02*
X13245422Y-30726771D01*
X12959708Y-30726771D01*
X12816851Y-30655342D01*
X12745422Y-30583914D01*
X12673994Y-30441057D01*
X12673994Y-30012485D01*
X12745422Y-29869628D01*
X12816851Y-29798200D01*
X12959708Y-29726771D01*
X13245422Y-29726771D01*
X13388280Y-29798200D01*
X9618719Y-22215302D02*
X10761577Y-22215302D01*
X10190148Y-22786731D02*
X10190148Y-21643874D01*
X11690148Y-21929588D02*
X11547291Y-21858160D01*
X11475862Y-21786731D01*
X11404434Y-21643874D01*
X11404434Y-21572445D01*
X11475862Y-21429588D01*
X11547291Y-21358160D01*
X11690148Y-21286731D01*
X11975862Y-21286731D01*
X12118720Y-21358160D01*
X12190148Y-21429588D01*
X12261577Y-21572445D01*
X12261577Y-21643874D01*
X12190148Y-21786731D01*
X12118720Y-21858160D01*
X11975862Y-21929588D01*
X11690148Y-21929588D01*
X11547291Y-22001017D01*
X11475862Y-22072445D01*
X11404434Y-22215302D01*
X11404434Y-22501017D01*
X11475862Y-22643874D01*
X11547291Y-22715302D01*
X11690148Y-22786731D01*
X11975862Y-22786731D01*
X12118720Y-22715302D01*
X12190148Y-22643874D01*
X12261577Y-22501017D01*
X12261577Y-22215302D01*
X12190148Y-22072445D01*
X12118720Y-22001017D01*
X11975862Y-21929588D01*
X12904434Y-22643874D02*
X12975862Y-22715302D01*
X12904434Y-22786731D01*
X12833005Y-22715302D01*
X12904434Y-22643874D01*
X12904434Y-22786731D01*
X14261577Y-21786731D02*
X14261577Y-22786731D01*
X13904434Y-21215302D02*
X13547291Y-22286731D01*
X14475862Y-22286731D01*
X14833005Y-21286731D02*
X15333005Y-22786731D01*
X15833005Y-21286731D01*
X66869308Y-52703468D02*
X66869308Y-51489182D01*
X66797880Y-51346325D01*
X66726451Y-51274897D01*
X66583594Y-51203468D01*
X66297880Y-51203468D01*
X66155022Y-51274897D01*
X66083594Y-51346325D01*
X66012165Y-51489182D01*
X66012165Y-52703468D01*
X65369308Y-51274897D02*
X65155022Y-51203468D01*
X64797880Y-51203468D01*
X64655022Y-51274897D01*
X64583594Y-51346325D01*
X64512165Y-51489182D01*
X64512165Y-51632040D01*
X64583594Y-51774897D01*
X64655022Y-51846325D01*
X64797880Y-51917754D01*
X65083594Y-51989182D01*
X65226451Y-52060611D01*
X65297880Y-52132040D01*
X65369308Y-52274897D01*
X65369308Y-52417754D01*
X65297880Y-52560611D01*
X65226451Y-52632040D01*
X65083594Y-52703468D01*
X64726451Y-52703468D01*
X64512165Y-52632040D01*
X63369308Y-51989182D02*
X63155022Y-51917754D01*
X63083594Y-51846325D01*
X63012165Y-51703468D01*
X63012165Y-51489182D01*
X63083594Y-51346325D01*
X63155022Y-51274897D01*
X63297880Y-51203468D01*
X63869308Y-51203468D01*
X63869308Y-52703468D01*
X63369308Y-52703468D01*
X63226451Y-52632040D01*
X63155022Y-52560611D01*
X63083594Y-52417754D01*
X63083594Y-52274897D01*
X63155022Y-52132040D01*
X63226451Y-52060611D01*
X63369308Y-51989182D01*
X63869308Y-51989182D01*
X60726451Y-51989182D02*
X61226451Y-51989182D01*
X61226451Y-51203468D02*
X61226451Y-52703468D01*
X60512165Y-52703468D01*
X60012165Y-51274897D02*
X59797880Y-51203468D01*
X59440737Y-51203468D01*
X59297880Y-51274897D01*
X59226451Y-51346325D01*
X59155022Y-51489182D01*
X59155022Y-51632040D01*
X59226451Y-51774897D01*
X59297880Y-51846325D01*
X59440737Y-51917754D01*
X59726451Y-51989182D01*
X59869308Y-52060611D01*
X59940737Y-52132040D01*
X60012165Y-52274897D01*
X60012165Y-52417754D01*
X59940737Y-52560611D01*
X59869308Y-52632040D01*
X59726451Y-52703468D01*
X59369308Y-52703468D01*
X59155022Y-52632040D01*
X63690108Y-20960011D02*
X65190108Y-20960011D01*
X65190108Y-21531439D01*
X65118680Y-21674297D01*
X65047251Y-21745725D01*
X64904394Y-21817154D01*
X64690108Y-21817154D01*
X64547251Y-21745725D01*
X64475822Y-21674297D01*
X64404394Y-21531439D01*
X64404394Y-20960011D01*
X63690108Y-22460011D02*
X64690108Y-22460011D01*
X64404394Y-22460011D02*
X64547251Y-22531439D01*
X64618680Y-22602868D01*
X64690108Y-22745725D01*
X64690108Y-22888582D01*
X63690108Y-23602868D02*
X63761537Y-23460011D01*
X63832965Y-23388582D01*
X63975822Y-23317154D01*
X64404394Y-23317154D01*
X64547251Y-23388582D01*
X64618680Y-23460011D01*
X64690108Y-23602868D01*
X64690108Y-23817154D01*
X64618680Y-23960011D01*
X64547251Y-24031439D01*
X64404394Y-24102868D01*
X63975822Y-24102868D01*
X63832965Y-24031439D01*
X63761537Y-23960011D01*
X63690108Y-23817154D01*
X63690108Y-23602868D01*
X64690108Y-25388582D02*
X63475822Y-25388582D01*
X63332965Y-25317154D01*
X63261537Y-25245725D01*
X63190108Y-25102868D01*
X63190108Y-24888582D01*
X63261537Y-24745725D01*
X63761537Y-25388582D02*
X63690108Y-25245725D01*
X63690108Y-24960011D01*
X63761537Y-24817154D01*
X63832965Y-24745725D01*
X63975822Y-24674297D01*
X64404394Y-24674297D01*
X64547251Y-24745725D01*
X64618680Y-24817154D01*
X64690108Y-24960011D01*
X64690108Y-25245725D01*
X64618680Y-25388582D01*
X63690108Y-26102868D02*
X64690108Y-26102868D01*
X64404394Y-26102868D02*
X64547251Y-26174297D01*
X64618680Y-26245725D01*
X64690108Y-26388582D01*
X64690108Y-26531439D01*
X63690108Y-27674297D02*
X64475822Y-27674297D01*
X64618680Y-27602868D01*
X64690108Y-27460011D01*
X64690108Y-27174297D01*
X64618680Y-27031439D01*
X63761537Y-27674297D02*
X63690108Y-27531439D01*
X63690108Y-27174297D01*
X63761537Y-27031439D01*
X63904394Y-26960011D01*
X64047251Y-26960011D01*
X64190108Y-27031439D01*
X64261537Y-27174297D01*
X64261537Y-27531439D01*
X64332965Y-27674297D01*
X63690108Y-28388582D02*
X64690108Y-28388582D01*
X64547251Y-28388582D02*
X64618680Y-28460011D01*
X64690108Y-28602868D01*
X64690108Y-28817154D01*
X64618680Y-28960011D01*
X64475822Y-29031440D01*
X63690108Y-29031440D01*
X64475822Y-29031440D02*
X64618680Y-29102868D01*
X64690108Y-29245725D01*
X64690108Y-29460011D01*
X64618680Y-29602868D01*
X64475822Y-29674297D01*
X63690108Y-29674297D01*
X63690108Y-30388582D02*
X64690108Y-30388582D01*
X64547251Y-30388582D02*
X64618680Y-30460011D01*
X64690108Y-30602868D01*
X64690108Y-30817154D01*
X64618680Y-30960011D01*
X64475822Y-31031440D01*
X63690108Y-31031440D01*
X64475822Y-31031440D02*
X64618680Y-31102868D01*
X64690108Y-31245725D01*
X64690108Y-31460011D01*
X64618680Y-31602868D01*
X64475822Y-31674297D01*
X63690108Y-31674297D01*
X63690108Y-32388582D02*
X64690108Y-32388582D01*
X65190108Y-32388582D02*
X65118680Y-32317154D01*
X65047251Y-32388582D01*
X65118680Y-32460011D01*
X65190108Y-32388582D01*
X65047251Y-32388582D01*
X64690108Y-33102868D02*
X63690108Y-33102868D01*
X64547251Y-33102868D02*
X64618680Y-33174297D01*
X64690108Y-33317154D01*
X64690108Y-33531440D01*
X64618680Y-33674297D01*
X64475822Y-33745725D01*
X63690108Y-33745725D01*
X64690108Y-35102868D02*
X63475822Y-35102868D01*
X63332965Y-35031440D01*
X63261537Y-34960011D01*
X63190108Y-34817154D01*
X63190108Y-34602868D01*
X63261537Y-34460011D01*
X63761537Y-35102868D02*
X63690108Y-34960011D01*
X63690108Y-34674297D01*
X63761537Y-34531440D01*
X63832965Y-34460011D01*
X63975822Y-34388582D01*
X64404394Y-34388582D01*
X64547251Y-34460011D01*
X64618680Y-34531440D01*
X64690108Y-34674297D01*
X64690108Y-34960011D01*
X64618680Y-35102868D01*
X64066337Y-10899034D02*
X63994908Y-11113320D01*
X63994908Y-11470462D01*
X64066337Y-11613320D01*
X64137765Y-11684748D01*
X64280622Y-11756177D01*
X64423480Y-11756177D01*
X64566337Y-11684748D01*
X64637765Y-11613320D01*
X64709194Y-11470462D01*
X64780622Y-11184748D01*
X64852051Y-11041891D01*
X64923480Y-10970462D01*
X65066337Y-10899034D01*
X65209194Y-10899034D01*
X65352051Y-10970462D01*
X65423480Y-11041891D01*
X65494908Y-11184748D01*
X65494908Y-11541891D01*
X65423480Y-11756177D01*
X64066337Y-12970462D02*
X63994908Y-12827605D01*
X63994908Y-12541891D01*
X64066337Y-12399034D01*
X64209194Y-12327605D01*
X64780622Y-12327605D01*
X64923480Y-12399034D01*
X64994908Y-12541891D01*
X64994908Y-12827605D01*
X64923480Y-12970462D01*
X64780622Y-13041891D01*
X64637765Y-13041891D01*
X64494908Y-12327605D01*
X63994908Y-13684748D02*
X64994908Y-13684748D01*
X64709194Y-13684748D02*
X64852051Y-13756177D01*
X64923480Y-13827605D01*
X64994908Y-13970462D01*
X64994908Y-14113320D01*
X63994908Y-14613320D02*
X64994908Y-14613320D01*
X65494908Y-14613320D02*
X65423480Y-14541891D01*
X65352051Y-14613320D01*
X65423480Y-14684748D01*
X65494908Y-14613320D01*
X65352051Y-14613320D01*
X63994908Y-15970462D02*
X64780622Y-15970462D01*
X64923480Y-15899034D01*
X64994908Y-15756177D01*
X64994908Y-15470462D01*
X64923480Y-15327605D01*
X64066337Y-15970462D02*
X63994908Y-15827605D01*
X63994908Y-15470462D01*
X64066337Y-15327605D01*
X64209194Y-15256177D01*
X64352051Y-15256177D01*
X64494908Y-15327605D01*
X64566337Y-15470462D01*
X64566337Y-15827605D01*
X64637765Y-15970462D01*
X63994908Y-16899034D02*
X64066337Y-16756177D01*
X64209194Y-16684748D01*
X65494908Y-16684748D01*
X54216954Y-11482331D02*
X54216954Y-12696617D01*
X54288382Y-12839474D01*
X54359811Y-12910902D01*
X54502668Y-12982331D01*
X54788382Y-12982331D01*
X54931240Y-12910902D01*
X55002668Y-12839474D01*
X55074097Y-12696617D01*
X55074097Y-11482331D01*
X55716954Y-12910902D02*
X55931240Y-12982331D01*
X56288382Y-12982331D01*
X56431240Y-12910902D01*
X56502668Y-12839474D01*
X56574097Y-12696617D01*
X56574097Y-12553760D01*
X56502668Y-12410902D01*
X56431240Y-12339474D01*
X56288382Y-12268045D01*
X56002668Y-12196617D01*
X55859811Y-12125188D01*
X55788382Y-12053760D01*
X55716954Y-11910902D01*
X55716954Y-11768045D01*
X55788382Y-11625188D01*
X55859811Y-11553760D01*
X56002668Y-11482331D01*
X56359811Y-11482331D01*
X56574097Y-11553760D01*
X57716954Y-12196617D02*
X57931240Y-12268045D01*
X58002668Y-12339474D01*
X58074097Y-12482331D01*
X58074097Y-12696617D01*
X58002668Y-12839474D01*
X57931240Y-12910902D01*
X57788382Y-12982331D01*
X57216954Y-12982331D01*
X57216954Y-11482331D01*
X57716954Y-11482331D01*
X57859811Y-11553760D01*
X57931240Y-11625188D01*
X58002668Y-11768045D01*
X58002668Y-11910902D01*
X57931240Y-12053760D01*
X57859811Y-12125188D01*
X57716954Y-12196617D01*
X57216954Y-12196617D01*
X59859811Y-12982331D02*
X59859811Y-11482331D01*
X59859811Y-12196617D02*
X60716954Y-12196617D01*
X60716954Y-12982331D02*
X60716954Y-11482331D01*
X61359811Y-12910902D02*
X61574097Y-12982331D01*
X61931240Y-12982331D01*
X62074097Y-12910902D01*
X62145525Y-12839474D01*
X62216954Y-12696617D01*
X62216954Y-12553760D01*
X62145525Y-12410902D01*
X62074097Y-12339474D01*
X61931240Y-12268045D01*
X61645525Y-12196617D01*
X61502668Y-12125188D01*
X61431240Y-12053760D01*
X61359811Y-11910902D01*
X61359811Y-11768045D01*
X61431240Y-11625188D01*
X61502668Y-11553760D01*
X61645525Y-11482331D01*
X62002668Y-11482331D01*
X62216954Y-11553760D01*
X24629977Y-9673851D02*
X25487120Y-9673851D01*
X25058548Y-11173851D02*
X25058548Y-9673851D01*
X26629977Y-11173851D02*
X26629977Y-10388137D01*
X26558548Y-10245280D01*
X26415691Y-10173851D01*
X26129977Y-10173851D01*
X25987120Y-10245280D01*
X26629977Y-11102422D02*
X26487120Y-11173851D01*
X26129977Y-11173851D01*
X25987120Y-11102422D01*
X25915691Y-10959565D01*
X25915691Y-10816708D01*
X25987120Y-10673851D01*
X26129977Y-10602422D01*
X26487120Y-10602422D01*
X26629977Y-10530994D01*
X27344262Y-11173851D02*
X27344262Y-10173851D01*
X27344262Y-9673851D02*
X27272834Y-9745280D01*
X27344262Y-9816708D01*
X27415691Y-9745280D01*
X27344262Y-9673851D01*
X27344262Y-9816708D01*
X28272834Y-11173851D02*
X28129977Y-11102422D01*
X28058548Y-10959565D01*
X28058548Y-9673851D01*
X41305148Y-11453251D02*
X41305148Y-9953251D01*
X41305148Y-10667537D02*
X42162291Y-10667537D01*
X42162291Y-11453251D02*
X42162291Y-9953251D01*
X43448005Y-11381822D02*
X43305148Y-11453251D01*
X43019434Y-11453251D01*
X42876577Y-11381822D01*
X42805148Y-11238965D01*
X42805148Y-10667537D01*
X42876577Y-10524680D01*
X43019434Y-10453251D01*
X43305148Y-10453251D01*
X43448005Y-10524680D01*
X43519434Y-10667537D01*
X43519434Y-10810394D01*
X42805148Y-10953251D01*
X44805148Y-11453251D02*
X44805148Y-10667537D01*
X44733720Y-10524680D01*
X44590862Y-10453251D01*
X44305148Y-10453251D01*
X44162291Y-10524680D01*
X44805148Y-11381822D02*
X44662291Y-11453251D01*
X44305148Y-11453251D01*
X44162291Y-11381822D01*
X44090862Y-11238965D01*
X44090862Y-11096108D01*
X44162291Y-10953251D01*
X44305148Y-10881822D01*
X44662291Y-10881822D01*
X44805148Y-10810394D01*
X46162291Y-11453251D02*
X46162291Y-9953251D01*
X46162291Y-11381822D02*
X46019434Y-11453251D01*
X45733720Y-11453251D01*
X45590862Y-11381822D01*
X45519434Y-11310394D01*
X45448005Y-11167537D01*
X45448005Y-10738965D01*
X45519434Y-10596108D01*
X45590862Y-10524680D01*
X45733720Y-10453251D01*
X46019434Y-10453251D01*
X46162291Y-10524680D01*
D11*
X26655636Y-32308800D02*
G75*
G03X26655636Y-32308800I-132956J0D01*
G01*
D12*
G04 #@! TO.C,J8*
X8900000Y-22400000D02*
X8900000Y-17700000D01*
X8900000Y-17700000D02*
X7300000Y-17700000D01*
X900000Y-22100000D02*
X900000Y-17900000D01*
X900000Y-17900000D02*
X900000Y-17800000D01*
X900000Y-17800000D02*
X900000Y-17700000D01*
X900000Y-17700000D02*
X4900000Y-17700000D01*
X8900000Y-32000000D02*
X6200000Y-34000000D01*
X900000Y-32000000D02*
X3600000Y-34000000D01*
X4900000Y-34000000D02*
X6150000Y-34000000D01*
X4900000Y-34000000D02*
X3650000Y-34000000D01*
X8900000Y-29600000D02*
X8900000Y-32000000D01*
X8900000Y-26600000D02*
X8900000Y-29600000D01*
X900000Y-29600000D02*
X900000Y-32000000D01*
X900000Y-26500000D02*
X900000Y-29600000D01*
X4800000Y-34000000D02*
X5100000Y-34000000D01*
X4900000Y-17700000D02*
X7300000Y-17700000D01*
X900000Y-22100000D02*
X900000Y-26500000D01*
X8900000Y-22400000D02*
X8900000Y-26600000D01*
D13*
G04 #@! TO.C,D3*
X42787240Y-17741900D02*
X42787240Y-15456900D01*
X42787240Y-15456900D02*
X41317240Y-15456900D01*
X41317240Y-15456900D02*
X41317240Y-17741900D01*
G04 #@! TO.C,D2*
X43054600Y-15441660D02*
X43054600Y-17726660D01*
X44524600Y-15441660D02*
X43054600Y-15441660D01*
X44524600Y-17726660D02*
X44524600Y-15441660D01*
G04 #@! TO.C,D1*
X46261960Y-17736820D02*
X46261960Y-15451820D01*
X46261960Y-15451820D02*
X44791960Y-15451820D01*
X44791960Y-15451820D02*
X44791960Y-17736820D01*
G04 #@! TO.C,J9*
X70219400Y-21692840D02*
X67569400Y-21692840D01*
X67569400Y-21692840D02*
X67569400Y-24042840D01*
X67569400Y-24042840D02*
X66179400Y-24042840D01*
X70219400Y-33912840D02*
X67569400Y-33912840D01*
X67569400Y-33912840D02*
X67569400Y-31562840D01*
X74639400Y-21802840D02*
X74639400Y-33802840D01*
G04 #@! TO.C,L2*
X52223600Y-26598752D02*
X52223600Y-26076248D01*
X53643600Y-26598752D02*
X53643600Y-26076248D01*
G04 #@! TO.C,C12*
X53642222Y-30820800D02*
X54159378Y-30820800D01*
X53642222Y-32240800D02*
X54159378Y-32240800D01*
G04 #@! TO.C,C13*
X53654722Y-30340800D02*
X54171878Y-30340800D01*
X53654722Y-28920800D02*
X54171878Y-28920800D01*
G04 #@! TO.C,C14*
X55140000Y-23648578D02*
X55140000Y-23131422D01*
X56560000Y-23648578D02*
X56560000Y-23131422D01*
G04 #@! TO.C,C16*
X58460000Y-23646078D02*
X58460000Y-23128922D01*
X57040000Y-23646078D02*
X57040000Y-23128922D01*
D11*
G04 #@! TO.C,IC2*
X51325000Y-23525000D02*
X51325000Y-22275000D01*
X54375000Y-21925000D02*
X51475000Y-21925000D01*
X54375000Y-21375000D02*
X54375000Y-21925000D01*
X51475000Y-21375000D02*
X54375000Y-21375000D01*
X51475000Y-21925000D02*
X51475000Y-21375000D01*
D13*
G04 #@! TO.C,J1*
X54310000Y-59690000D02*
X54310000Y-57040000D01*
X54310000Y-57040000D02*
X51960000Y-57040000D01*
X51960000Y-57040000D02*
X51960000Y-55650000D01*
X38090000Y-59690000D02*
X38090000Y-57040000D01*
X38090000Y-57040000D02*
X40440000Y-57040000D01*
X54200000Y-64110000D02*
X38200000Y-64110000D01*
G04 #@! TO.C,J2*
X600000Y-290000D02*
X16600000Y-290000D01*
X16710000Y-7360000D02*
X14360000Y-7360000D01*
X16710000Y-4710000D02*
X16710000Y-7360000D01*
X2840000Y-7360000D02*
X2840000Y-8750000D01*
X490000Y-7360000D02*
X2840000Y-7360000D01*
X490000Y-4710000D02*
X490000Y-7360000D01*
G04 #@! TO.C,J3*
X18290000Y-4710000D02*
X18290000Y-7360000D01*
X18290000Y-7360000D02*
X20640000Y-7360000D01*
X20640000Y-7360000D02*
X20640000Y-8750000D01*
X34510000Y-4710000D02*
X34510000Y-7360000D01*
X34510000Y-7360000D02*
X32160000Y-7360000D01*
X18400000Y-290000D02*
X34400000Y-290000D01*
G04 #@! TO.C,J4*
X16910000Y-59690000D02*
X16910000Y-57040000D01*
X16910000Y-57040000D02*
X14560000Y-57040000D01*
X14560000Y-57040000D02*
X14560000Y-55650000D01*
X690000Y-59690000D02*
X690000Y-57040000D01*
X690000Y-57040000D02*
X3040000Y-57040000D01*
X16800000Y-64110000D02*
X800000Y-64110000D01*
G04 #@! TO.C,J5*
X490000Y-52700000D02*
X490000Y-36700000D01*
X7560000Y-36590000D02*
X7560000Y-38940000D01*
X4910000Y-36590000D02*
X7560000Y-36590000D01*
X7560000Y-50460000D02*
X8950000Y-50460000D01*
X7560000Y-52810000D02*
X7560000Y-50460000D01*
X4910000Y-52810000D02*
X7560000Y-52810000D01*
G04 #@! TO.C,J6*
X35400000Y-64110000D02*
X19400000Y-64110000D01*
X19290000Y-57040000D02*
X21640000Y-57040000D01*
X19290000Y-59690000D02*
X19290000Y-57040000D01*
X33160000Y-57040000D02*
X33160000Y-55650000D01*
X35510000Y-57040000D02*
X33160000Y-57040000D01*
X35510000Y-59690000D02*
X35510000Y-57040000D01*
G04 #@! TO.C,J7*
X70290000Y-36790000D02*
X67640000Y-36790000D01*
X67640000Y-36790000D02*
X67640000Y-39140000D01*
X67640000Y-39140000D02*
X66250000Y-39140000D01*
X70290000Y-53010000D02*
X67640000Y-53010000D01*
X67640000Y-53010000D02*
X67640000Y-50660000D01*
X74710000Y-36900000D02*
X74710000Y-52900000D01*
G04 #@! TO.C,J10*
X68910000Y-59690000D02*
X68910000Y-57040000D01*
X68910000Y-57040000D02*
X66560000Y-57040000D01*
X66560000Y-57040000D02*
X66560000Y-55650000D01*
X56690000Y-59690000D02*
X56690000Y-57040000D01*
X56690000Y-57040000D02*
X59040000Y-57040000D01*
X68800000Y-64110000D02*
X56800000Y-64110000D01*
G04 #@! TO.C,J14*
X74610000Y-6900000D02*
X74610000Y-18900000D01*
X67540000Y-19010000D02*
X67540000Y-16660000D01*
X70190000Y-19010000D02*
X67540000Y-19010000D01*
X67540000Y-9140000D02*
X66150000Y-9140000D01*
X67540000Y-6790000D02*
X67540000Y-9140000D01*
X70190000Y-6790000D02*
X67540000Y-6790000D01*
G04 #@! TO.C,J15*
X53790000Y-4710000D02*
X53790000Y-7360000D01*
X53790000Y-7360000D02*
X56140000Y-7360000D01*
X56140000Y-7360000D02*
X56140000Y-8750000D01*
X66010000Y-4710000D02*
X66010000Y-7360000D01*
X66010000Y-7360000D02*
X63660000Y-7360000D01*
X53900000Y-290000D02*
X65900000Y-290000D01*
G04 #@! TO.C,J16*
X36090000Y-4710000D02*
X36090000Y-7360000D01*
X36090000Y-7360000D02*
X38440000Y-7360000D01*
X38440000Y-7360000D02*
X38440000Y-8750000D01*
X52310000Y-4710000D02*
X52310000Y-7360000D01*
X52310000Y-7360000D02*
X49960000Y-7360000D01*
X36200000Y-290000D02*
X52200000Y-290000D01*
D14*
G04 #@! TO.C,U1*
X27423728Y-32500000D02*
X27883348Y-32959619D01*
X37500000Y-22423728D02*
X38037401Y-22961130D01*
X47576272Y-32500000D02*
X47038870Y-31962599D01*
X37500000Y-42576272D02*
X36962599Y-42038870D01*
X27423728Y-32500000D02*
X27961130Y-31962599D01*
X37500000Y-42576272D02*
X38037401Y-42038870D01*
X47576272Y-32500000D02*
X47038870Y-33037401D01*
X37500000Y-22423728D02*
X36962599Y-22961130D01*
X27883348Y-32959619D02*
X26805010Y-34037957D01*
D13*
G04 #@! TO.C,Y1*
X29494239Y-38412868D02*
X27797182Y-36715811D01*
X27797182Y-36715811D02*
X26665811Y-37847182D01*
X26665811Y-37847182D02*
X28362868Y-39544239D01*
G04 #@! TO.C,Y2*
X32298833Y-41399696D02*
X30672487Y-39773350D01*
X30672487Y-39773350D02*
X28763299Y-41682538D01*
G04 #@! TO.C,J8*
D14*
X10448380Y-26377333D02*
X11162666Y-26377333D01*
X11305523Y-26424952D01*
X11400761Y-26520190D01*
X11448380Y-26663047D01*
X11448380Y-26758285D01*
X10876952Y-25758285D02*
X10829333Y-25853523D01*
X10781714Y-25901142D01*
X10686476Y-25948761D01*
X10638857Y-25948761D01*
X10543619Y-25901142D01*
X10496000Y-25853523D01*
X10448380Y-25758285D01*
X10448380Y-25567809D01*
X10496000Y-25472571D01*
X10543619Y-25424952D01*
X10638857Y-25377333D01*
X10686476Y-25377333D01*
X10781714Y-25424952D01*
X10829333Y-25472571D01*
X10876952Y-25567809D01*
X10876952Y-25758285D01*
X10924571Y-25853523D01*
X10972190Y-25901142D01*
X11067428Y-25948761D01*
X11257904Y-25948761D01*
X11353142Y-25901142D01*
X11400761Y-25853523D01*
X11448380Y-25758285D01*
X11448380Y-25567809D01*
X11400761Y-25472571D01*
X11353142Y-25424952D01*
X11257904Y-25377333D01*
X11067428Y-25377333D01*
X10972190Y-25424952D01*
X10924571Y-25472571D01*
X10876952Y-25567809D01*
G04 #@! TO.C,D3*
D12*
X43482240Y-16941900D02*
X43482240Y-16941900D01*
X43482240Y-16941900D01*
X43482240Y-16941900D01*
X43482240Y-16941900D01*
X43482240Y-16941900D01*
X43482240Y-16941900D01*
X43482240Y-16941900D01*
X43482240Y-16941900D01*
X43482240Y-16941900D01*
X43482240Y-16941900D01*
X43482240Y-16941900D01*
X43482240Y-16941900D01*
X43482240Y-16941900D02*
X43482240Y-16941900D01*
X43482240Y-16941900D01*
X43482240Y-16941900D01*
X43482240Y-16941900D01*
X43482240Y-16941900D01*
X43482240Y-16941900D01*
X43482240Y-16941900D01*
X43482240Y-16941900D01*
X43482240Y-16941900D01*
X43482240Y-16941900D01*
X43482240Y-16941900D01*
X43482240Y-16941900D01*
X43482240Y-16941900D01*
D14*
G04 #@! TO.C,D2*
D12*
X45219600Y-16926660D02*
X45219600Y-16926660D01*
X45219600Y-16926660D01*
X45219600Y-16926660D01*
X45219600Y-16926660D01*
X45219600Y-16926660D01*
X45219600Y-16926660D01*
X45219600Y-16926660D01*
X45219600Y-16926660D01*
X45219600Y-16926660D01*
X45219600Y-16926660D01*
X45219600Y-16926660D01*
X45219600Y-16926660D01*
X45219600Y-16926660D02*
X45219600Y-16926660D01*
X45219600Y-16926660D01*
X45219600Y-16926660D01*
X45219600Y-16926660D01*
X45219600Y-16926660D01*
X45219600Y-16926660D01*
X45219600Y-16926660D01*
X45219600Y-16926660D01*
X45219600Y-16926660D01*
X45219600Y-16926660D01*
D14*
G04 #@! TO.C,D1*
D12*
X46956960Y-16936820D02*
X46956960Y-16936820D01*
X46956960Y-16936820D01*
X46956960Y-16936820D01*
X46956960Y-16936820D01*
X46956960Y-16936820D01*
X46956960Y-16936820D01*
X46956960Y-16936820D01*
X46956960Y-16936820D01*
X46956960Y-16936820D01*
X46956960Y-16936820D01*
X46956960Y-16936820D01*
X46956960Y-16936820D01*
X46956960Y-16936820D02*
X46956960Y-16936820D01*
X46956960Y-16936820D02*
X46956960Y-16936820D01*
X46956960Y-16936820D01*
X46956960Y-16936820D01*
X46956960Y-16936820D01*
D14*
G04 #@! TO.C,R2*
D12*
X43920080Y-19535280D02*
X43920080Y-19535280D01*
X43920080Y-19535280D02*
X43920080Y-19535280D01*
X43920080Y-19535280D01*
X43920080Y-19535280D01*
X43920080Y-19535280D01*
X43920080Y-19535280D01*
X43920080Y-19535280D01*
X43920080Y-19535280D01*
X43920080Y-19535280D01*
X43920080Y-19535280D01*
X43920080Y-19535280D01*
X43920080Y-19535280D02*
X43920080Y-19535280D01*
X43920080Y-19535280D01*
X43920080Y-19535280D01*
X43920080Y-19535280D01*
X43920080Y-19535280D01*
X43920080Y-19535280D01*
X43920080Y-19535280D01*
X43920080Y-19535280D01*
X43920080Y-19535280D01*
X43920080Y-19535280D01*
D14*
G04 #@! TO.C,R3*
D12*
X42665320Y-19568160D02*
X42665320Y-19568160D01*
X42665320Y-19568160D02*
X42665320Y-19568160D01*
X42665320Y-19568160D01*
X42665320Y-19568160D01*
X42665320Y-19568160D01*
X42665320Y-19568160D01*
X42665320Y-19568160D01*
X42665320Y-19568160D01*
X42665320Y-19568160D01*
X42665320Y-19568160D01*
X42665320Y-19568160D01*
X42665320Y-19568160D02*
X42665320Y-19568160D01*
X42665320Y-19568160D01*
X42665320Y-19568160D01*
X42665320Y-19568160D01*
X42665320Y-19568160D01*
X42665320Y-19568160D01*
X42665320Y-19568160D01*
X42665320Y-19568160D01*
X42665320Y-19568160D01*
X42665320Y-19568160D01*
X42665320Y-19568160D01*
X42665320Y-19568160D01*
X42665320Y-19568160D01*
D14*
G04 #@! TO.C,R4*
D12*
X40887320Y-19514680D02*
X40887320Y-19514680D01*
X40887320Y-19514680D02*
X40887320Y-19514680D01*
X40887320Y-19514680D01*
X40887320Y-19514680D01*
X40887320Y-19514680D01*
X40887320Y-19514680D01*
X40887320Y-19514680D01*
X40887320Y-19514680D01*
X40887320Y-19514680D01*
X40887320Y-19514680D01*
X40887320Y-19514680D01*
X40887320Y-19514680D02*
X40887320Y-19514680D01*
X40887320Y-19514680D02*
X40887320Y-19514680D01*
X40887320Y-19514680D01*
D14*
G04 #@! TO.C,J9*
D12*
X75729400Y-27802840D02*
X75729400Y-27802840D01*
X75729400Y-27802840D01*
X75729400Y-27802840D01*
X75729400Y-27802840D01*
X75729400Y-27802840D01*
X75729400Y-27802840D02*
X75729400Y-27802840D01*
X75729400Y-27802840D01*
X75729400Y-27802840D01*
X75729400Y-27802840D01*
X75729400Y-27802840D01*
X75729400Y-27802840D01*
X75729400Y-27802840D01*
X75729400Y-27802840D01*
X75729400Y-27802840D01*
X75729400Y-27802840D01*
X75729400Y-27802840D01*
X75729400Y-27802840D01*
X75729400Y-27802840D01*
X75729400Y-27802840D01*
X75729400Y-27802840D01*
X75729400Y-27802840D01*
X75729400Y-27802840D01*
X75729400Y-27802840D01*
X75729400Y-27802840D01*
X75729400Y-27802840D01*
X75729400Y-27802840D01*
D14*
G04 #@! TO.C,L2*
D12*
X51283600Y-26337500D02*
X51283600Y-26337500D01*
X51283600Y-26337500D01*
X51283600Y-26337500D02*
X51283600Y-26337500D01*
X51283600Y-26337500D01*
X51283600Y-26337500D01*
X51283600Y-26337500D01*
X51283600Y-26337500D01*
X51283600Y-26337500D01*
X51283600Y-26337500D01*
X51283600Y-26337500D01*
X51283600Y-26337500D01*
X51283600Y-26337500D01*
D14*
G04 #@! TO.C,C12*
D12*
X53900800Y-29880800D02*
X53900800Y-29880800D01*
X53900800Y-29880800D01*
X53900800Y-29880800D01*
X53900800Y-29880800D01*
X53900800Y-29880800D01*
X53900800Y-29880800D01*
X53900800Y-29880800D01*
X53900800Y-29880800D01*
X53900800Y-29880800D01*
X53900800Y-29880800D01*
X53900800Y-29880800D01*
X53900800Y-29880800D01*
X53900800Y-29880800D01*
X53900800Y-29880800D01*
X53900800Y-29880800D01*
X53900800Y-29880800D02*
X53900800Y-29880800D01*
X53900800Y-29880800D02*
X53900800Y-29880800D01*
X53900800Y-29880800D01*
X53900800Y-29880800D01*
X53900800Y-29880800D01*
X53900800Y-29880800D02*
X53900800Y-29880800D01*
X53900800Y-29880800D01*
X53900800Y-29880800D01*
X53900800Y-29880800D01*
X53900800Y-29880800D01*
X53900800Y-29880800D01*
X53900800Y-29880800D01*
X53900800Y-29880800D01*
X53900800Y-29880800D01*
X53900800Y-29880800D01*
D14*
G04 #@! TO.C,C13*
D12*
X53913300Y-27980800D02*
X53913300Y-27980800D01*
X53913300Y-27980800D01*
X53913300Y-27980800D01*
X53913300Y-27980800D01*
X53913300Y-27980800D01*
X53913300Y-27980800D01*
X53913300Y-27980800D01*
X53913300Y-27980800D01*
X53913300Y-27980800D01*
X53913300Y-27980800D01*
X53913300Y-27980800D01*
X53913300Y-27980800D01*
X53913300Y-27980800D01*
X53913300Y-27980800D01*
X53913300Y-27980800D01*
X53913300Y-27980800D02*
X53913300Y-27980800D01*
X53913300Y-27980800D02*
X53913300Y-27980800D01*
X53913300Y-27980800D01*
X53913300Y-27980800D01*
X53913300Y-27980800D01*
X53913300Y-27980800D02*
X53913300Y-27980800D01*
X53913300Y-27980800D01*
X53913300Y-27980800D01*
X53913300Y-27980800D01*
X53913300Y-27980800D01*
X53913300Y-27980800D01*
X53913300Y-27980800D01*
X53913300Y-27980800D01*
X53913300Y-27980800D01*
X53913300Y-27980800D01*
X53913300Y-27980800D01*
X53913300Y-27980800D01*
X53913300Y-27980800D01*
D14*
G04 #@! TO.C,C14*
D12*
X54200000Y-23390000D02*
X54200000Y-23390000D01*
X54200000Y-23390000D01*
X54200000Y-23390000D01*
X54200000Y-23390000D01*
X54200000Y-23390000D01*
X54200000Y-23390000D01*
X54200000Y-23390000D01*
X54200000Y-23390000D01*
X54200000Y-23390000D01*
X54200000Y-23390000D01*
X54200000Y-23390000D01*
X54200000Y-23390000D01*
X54200000Y-23390000D01*
X54200000Y-23390000D01*
X54200000Y-23390000D01*
X54200000Y-23390000D02*
X54200000Y-23390000D01*
X54200000Y-23390000D02*
X54200000Y-23390000D01*
X54200000Y-23390000D01*
X54200000Y-23390000D01*
X54200000Y-23390000D01*
X54200000Y-23390000D02*
X54200000Y-23390000D01*
X54200000Y-23390000D02*
X54200000Y-23390000D01*
X54200000Y-23390000D01*
D14*
G04 #@! TO.C,C16*
D12*
X56100000Y-23387500D02*
X56100000Y-23387500D01*
X56100000Y-23387500D01*
X56100000Y-23387500D01*
X56100000Y-23387500D01*
X56100000Y-23387500D01*
X56100000Y-23387500D01*
X56100000Y-23387500D01*
X56100000Y-23387500D01*
X56100000Y-23387500D01*
X56100000Y-23387500D01*
X56100000Y-23387500D01*
X56100000Y-23387500D01*
X56100000Y-23387500D01*
X56100000Y-23387500D01*
X56100000Y-23387500D01*
X56100000Y-23387500D02*
X56100000Y-23387500D01*
X56100000Y-23387500D02*
X56100000Y-23387500D01*
X56100000Y-23387500D01*
X56100000Y-23387500D01*
X56100000Y-23387500D01*
X56100000Y-23387500D02*
X56100000Y-23387500D01*
X56100000Y-23387500D01*
X56100000Y-23387500D01*
X56100000Y-23387500D01*
X56100000Y-23387500D01*
X56100000Y-23387500D01*
X56100000Y-23387500D01*
X56100000Y-23387500D01*
X56100000Y-23387500D01*
X56100000Y-23387500D01*
X56100000Y-23387500D01*
X56100000Y-23387500D01*
X56100000Y-23387500D01*
X56100000Y-23387500D01*
X56100000Y-23387500D01*
X56100000Y-23387500D01*
X56100000Y-23387500D01*
X56100000Y-23387500D01*
X56100000Y-23387500D01*
X56100000Y-23387500D01*
X56100000Y-23387500D01*
D14*
G04 #@! TO.C,H1*
D12*
X72300000Y-56800000D02*
X72300000Y-56800000D01*
X72300000Y-56800000D02*
X72300000Y-56800000D01*
X72300000Y-56800000D02*
X72300000Y-56800000D01*
X72300000Y-56800000D02*
X72300000Y-56800000D01*
X72300000Y-56800000D02*
X72300000Y-56800000D01*
X72300000Y-56800000D01*
X72300000Y-56800000D01*
X72300000Y-56800000D01*
D14*
G04 #@! TO.C,H2*
D12*
X71100000Y850000D02*
X71100000Y850000D01*
X71100000Y850000D02*
X71100000Y850000D01*
X71100000Y850000D02*
X71100000Y850000D01*
X71100000Y850000D02*
X71100000Y850000D01*
X71100000Y850000D01*
X71100000Y850000D01*
X71100000Y850000D01*
X71100000Y850000D01*
X71100000Y850000D01*
X71100000Y850000D01*
X71100000Y850000D01*
X71100000Y850000D01*
X71100000Y850000D01*
D14*
G04 #@! TO.C,H3*
D12*
X5350000Y-9125000D02*
X5350000Y-9125000D01*
X5350000Y-9125000D02*
X5350000Y-9125000D01*
X5350000Y-9125000D02*
X5350000Y-9125000D01*
X5350000Y-9125000D02*
X5350000Y-9125000D01*
X5350000Y-9125000D01*
X5350000Y-9125000D01*
X5350000Y-9125000D01*
X5350000Y-9125000D01*
X5350000Y-9125000D01*
X5350000Y-9125000D01*
X5350000Y-9125000D01*
X5350000Y-9125000D01*
X5350000Y-9125000D01*
X5350000Y-9125000D01*
X5350000Y-9125000D01*
X5350000Y-9125000D01*
D14*
G04 #@! TO.C,C2*
D12*
X27084368Y-39970262D02*
X27084368Y-39970262D01*
X27084368Y-39970262D01*
X27084368Y-39970262D01*
X27084368Y-39970262D01*
X27084368Y-39970262D01*
X27084368Y-39970262D01*
X27084368Y-39970262D01*
X27084368Y-39970262D01*
X27084368Y-39970262D01*
X27084368Y-39970262D01*
X27084368Y-39970262D01*
X27084368Y-39970262D01*
X27084368Y-39970262D01*
X27084368Y-39970262D01*
X27084368Y-39970262D01*
X27084368Y-39970262D02*
X27084368Y-39970262D01*
X27084368Y-39970262D01*
X27084368Y-39970262D01*
X27084368Y-39970262D01*
X27084368Y-39970262D01*
X27084368Y-39970262D01*
X27084368Y-39970262D01*
X27084368Y-39970262D01*
X27084368Y-39970262D01*
X27084368Y-39970262D01*
D14*
G04 #@! TO.C,C3*
D12*
X28052315Y-40927315D02*
X28052315Y-40927315D01*
X28052315Y-40927315D01*
X28052315Y-40927315D01*
X28052315Y-40927315D01*
X28052315Y-40927315D01*
X28052315Y-40927315D01*
X28052315Y-40927315D01*
X28052315Y-40927315D01*
X28052315Y-40927315D01*
X28052315Y-40927315D01*
X28052315Y-40927315D01*
X28052315Y-40927315D01*
X28052315Y-40927315D01*
X28052315Y-40927315D01*
X28052315Y-40927315D01*
X28052315Y-40927315D02*
X28052315Y-40927315D01*
X28052315Y-40927315D01*
X28052315Y-40927315D01*
X28052315Y-40927315D01*
X28052315Y-40927315D01*
X28052315Y-40927315D01*
X28052315Y-40927315D01*
X28052315Y-40927315D01*
X28052315Y-40927315D01*
X28052315Y-40927315D01*
X28052315Y-40927315D01*
X28052315Y-40927315D01*
X28052315Y-40927315D01*
D14*
G04 #@! TO.C,C4*
D12*
X29884368Y-40970262D02*
X29884368Y-40970262D01*
X29884368Y-40970262D01*
X29884368Y-40970262D01*
X29884368Y-40970262D01*
X29884368Y-40970262D01*
X29884368Y-40970262D01*
X29884368Y-40970262D01*
X29884368Y-40970262D01*
X29884368Y-40970262D01*
X29884368Y-40970262D01*
X29884368Y-40970262D01*
X29884368Y-40970262D01*
X29884368Y-40970262D01*
X29884368Y-40970262D01*
X29884368Y-40970262D01*
X29884368Y-40970262D02*
X29884368Y-40970262D01*
X29884368Y-40970262D02*
X29884368Y-40970262D01*
X29884368Y-40970262D01*
D14*
G04 #@! TO.C,C5*
D12*
X31022685Y-42097685D02*
X31022685Y-42097685D01*
X31022685Y-42097685D01*
X31022685Y-42097685D01*
X31022685Y-42097685D01*
X31022685Y-42097685D01*
X31022685Y-42097685D01*
X31022685Y-42097685D01*
X31022685Y-42097685D01*
X31022685Y-42097685D01*
X31022685Y-42097685D01*
X31022685Y-42097685D01*
X31022685Y-42097685D01*
X31022685Y-42097685D01*
X31022685Y-42097685D01*
X31022685Y-42097685D01*
X31022685Y-42097685D02*
X31022685Y-42097685D01*
X31022685Y-42097685D01*
X31022685Y-42097685D01*
X31022685Y-42097685D01*
X31022685Y-42097685D01*
X31022685Y-42097685D01*
X31022685Y-42097685D01*
X31022685Y-42097685D01*
X31022685Y-42097685D01*
X31022685Y-42097685D01*
X31022685Y-42097685D01*
X31022685Y-42097685D01*
X31022685Y-42097685D01*
X31022685Y-42097685D01*
X31022685Y-42097685D01*
D14*
G04 #@! TO.C,C17*
D12*
X51720000Y-21785000D02*
X51720000Y-21785000D01*
X51720000Y-21785000D01*
X51720000Y-21785000D01*
X51720000Y-21785000D01*
X51720000Y-21785000D01*
X51720000Y-21785000D01*
X51720000Y-21785000D01*
X51720000Y-21785000D01*
X51720000Y-21785000D01*
X51720000Y-21785000D01*
X51720000Y-21785000D01*
X51720000Y-21785000D01*
X51720000Y-21785000D01*
X51720000Y-21785000D01*
X51720000Y-21785000D01*
X51720000Y-21785000D02*
X51720000Y-21785000D01*
X51720000Y-21785000D02*
X51720000Y-21785000D01*
X51720000Y-21785000D01*
X51720000Y-21785000D01*
X51720000Y-21785000D01*
X51720000Y-21785000D02*
X51720000Y-21785000D01*
X51720000Y-21785000D01*
D14*
G04 #@! TO.C,C18*
D12*
X34952315Y-42497685D02*
X34952315Y-42497685D01*
X34952315Y-42497685D01*
X34952315Y-42497685D01*
X34952315Y-42497685D01*
X34952315Y-42497685D01*
X34952315Y-42497685D01*
X34952315Y-42497685D01*
X34952315Y-42497685D01*
X34952315Y-42497685D01*
X34952315Y-42497685D01*
X34952315Y-42497685D01*
X34952315Y-42497685D01*
X34952315Y-42497685D01*
X34952315Y-42497685D01*
X34952315Y-42497685D01*
X34952315Y-42497685D02*
X34952315Y-42497685D01*
X34952315Y-42497685D02*
X34952315Y-42497685D01*
X34952315Y-42497685D01*
X34952315Y-42497685D01*
X34952315Y-42497685D01*
X34952315Y-42497685D02*
X34952315Y-42497685D01*
X34952315Y-42497685D01*
X34952315Y-42497685D01*
X34952315Y-42497685D01*
X34952315Y-42497685D01*
X34952315Y-42497685D01*
X34952315Y-42497685D01*
X34952315Y-42497685D01*
X34952315Y-42497685D01*
X34952315Y-42497685D01*
X34952315Y-42497685D01*
X34952315Y-42497685D01*
X34952315Y-42497685D01*
X34952315Y-42497685D01*
X34952315Y-42497685D01*
X34952315Y-42497685D01*
X34952315Y-42497685D01*
X34952315Y-42497685D01*
X34952315Y-42497685D01*
X34952315Y-42497685D01*
X34952315Y-42497685D01*
X34952315Y-42497685D01*
X34952315Y-42497685D01*
X34952315Y-42497685D01*
X34952315Y-42497685D01*
X34952315Y-42497685D01*
X34952315Y-42497685D01*
X34952315Y-42497685D01*
X34952315Y-42497685D01*
X34952315Y-42497685D01*
X34952315Y-42497685D01*
D14*
G04 #@! TO.C,C19*
D12*
X25632685Y-28997685D02*
X25632685Y-28997685D01*
X25632685Y-28997685D01*
X25632685Y-28997685D01*
X25632685Y-28997685D01*
X25632685Y-28997685D01*
X25632685Y-28997685D01*
X25632685Y-28997685D01*
X25632685Y-28997685D01*
X25632685Y-28997685D01*
X25632685Y-28997685D01*
X25632685Y-28997685D01*
X25632685Y-28997685D01*
X25632685Y-28997685D01*
X25632685Y-28997685D01*
X25632685Y-28997685D01*
X25632685Y-28997685D02*
X25632685Y-28997685D01*
X25632685Y-28997685D02*
X25632685Y-28997685D01*
X25632685Y-28997685D01*
X25632685Y-28997685D01*
X25632685Y-28997685D01*
X25632685Y-28997685D02*
X25632685Y-28997685D01*
X25632685Y-28997685D01*
X25632685Y-28997685D01*
X25632685Y-28997685D01*
X25632685Y-28997685D01*
X25632685Y-28997685D01*
X25632685Y-28997685D01*
X25632685Y-28997685D01*
X25632685Y-28997685D01*
X25632685Y-28997685D01*
X25632685Y-28997685D01*
X25632685Y-28997685D01*
X25632685Y-28997685D01*
X25632685Y-28997685D01*
X25632685Y-28997685D01*
X25632685Y-28997685D01*
X25632685Y-28997685D01*
X25632685Y-28997685D01*
X25632685Y-28997685D01*
X25632685Y-28997685D01*
X25632685Y-28997685D01*
D14*
G04 #@! TO.C,C20*
D12*
X49462315Y-36177315D02*
X49462315Y-36177315D01*
X49462315Y-36177315D01*
X49462315Y-36177315D01*
X49462315Y-36177315D01*
X49462315Y-36177315D01*
X49462315Y-36177315D01*
X49462315Y-36177315D01*
X49462315Y-36177315D01*
X49462315Y-36177315D01*
X49462315Y-36177315D01*
X49462315Y-36177315D01*
X49462315Y-36177315D01*
X49462315Y-36177315D01*
X49462315Y-36177315D01*
X49462315Y-36177315D01*
X49462315Y-36177315D02*
X49462315Y-36177315D01*
X49462315Y-36177315D01*
X49462315Y-36177315D01*
X49462315Y-36177315D01*
X49462315Y-36177315D01*
X49462315Y-36177315D01*
X49462315Y-36177315D01*
X49462315Y-36177315D01*
X49462315Y-36177315D01*
X49462315Y-36177315D01*
X49462315Y-36177315D02*
X49462315Y-36177315D01*
X49462315Y-36177315D01*
X49462315Y-36177315D01*
X49462315Y-36177315D01*
X49462315Y-36177315D01*
X49462315Y-36177315D01*
X49462315Y-36177315D01*
X49462315Y-36177315D01*
X49462315Y-36177315D01*
X49462315Y-36177315D01*
X49462315Y-36177315D01*
X49462315Y-36177315D01*
X49462315Y-36177315D01*
X49462315Y-36177315D01*
X49462315Y-36177315D01*
X49462315Y-36177315D01*
X49462315Y-36177315D01*
X49462315Y-36177315D01*
X49462315Y-36177315D01*
X49462315Y-36177315D01*
D14*
G04 #@! TO.C,C21*
D12*
X40927315Y-20447685D02*
X40927315Y-20447685D01*
X40927315Y-20447685D01*
X40927315Y-20447685D01*
X40927315Y-20447685D01*
X40927315Y-20447685D01*
X40927315Y-20447685D01*
X40927315Y-20447685D01*
X40927315Y-20447685D01*
X40927315Y-20447685D01*
X40927315Y-20447685D01*
X40927315Y-20447685D01*
X40927315Y-20447685D01*
X40927315Y-20447685D01*
X40927315Y-20447685D01*
X40927315Y-20447685D01*
X40927315Y-20447685D02*
X40927315Y-20447685D01*
X40927315Y-20447685D01*
X40927315Y-20447685D01*
X40927315Y-20447685D01*
X40927315Y-20447685D01*
X40927315Y-20447685D01*
X40927315Y-20447685D01*
X40927315Y-20447685D01*
X40927315Y-20447685D01*
X40927315Y-20447685D01*
X40927315Y-20447685D02*
X40927315Y-20447685D01*
X40927315Y-20447685D02*
X40927315Y-20447685D01*
X40927315Y-20447685D01*
X40927315Y-20447685D01*
X40927315Y-20447685D01*
D14*
G04 #@! TO.C,C22*
D12*
X25879738Y-36759368D02*
X25879738Y-36759368D01*
X25879738Y-36759368D01*
X25879738Y-36759368D01*
X25879738Y-36759368D01*
X25879738Y-36759368D01*
X25879738Y-36759368D01*
X25879738Y-36759368D01*
X25879738Y-36759368D01*
X25879738Y-36759368D01*
X25879738Y-36759368D01*
X25879738Y-36759368D01*
X25879738Y-36759368D01*
X25879738Y-36759368D01*
X25879738Y-36759368D01*
X25879738Y-36759368D01*
X25879738Y-36759368D02*
X25879738Y-36759368D01*
X25879738Y-36759368D01*
X25879738Y-36759368D01*
X25879738Y-36759368D01*
X25879738Y-36759368D01*
X25879738Y-36759368D01*
X25879738Y-36759368D01*
X25879738Y-36759368D01*
X25879738Y-36759368D01*
X25879738Y-36759368D01*
X25879738Y-36759368D02*
X25879738Y-36759368D01*
X25879738Y-36759368D01*
X25879738Y-36759368D01*
X25879738Y-36759368D01*
X25879738Y-36759368D01*
X25879738Y-36759368D01*
X25879738Y-36759368D01*
X25879738Y-36759368D01*
X25879738Y-36759368D01*
X25879738Y-36759368D01*
D14*
G04 #@! TO.C,IC2*
D12*
X52925000Y-21650000D02*
X52925000Y-21650000D01*
X52925000Y-21650000D02*
X52925000Y-21650000D01*
X52925000Y-21650000D01*
X52925000Y-21650000D01*
X52925000Y-21650000D01*
X52925000Y-21650000D01*
X52925000Y-21650000D01*
X52925000Y-21650000D01*
X52925000Y-21650000D01*
X52925000Y-21650000D01*
X52925000Y-21650000D01*
X52925000Y-21650000D01*
X52925000Y-21650000D01*
X52925000Y-21650000D01*
X52925000Y-21650000D01*
X52925000Y-21650000D01*
X52925000Y-21650000D02*
X52925000Y-21650000D01*
X52925000Y-21650000D01*
X52925000Y-21650000D01*
X52925000Y-21650000D01*
X52925000Y-21650000D01*
X52925000Y-21650000D01*
X52925000Y-21650000D01*
X52925000Y-21650000D01*
X52925000Y-21650000D01*
X52925000Y-21650000D01*
D14*
G04 #@! TO.C,J1*
D12*
X46200000Y-65200000D02*
X46200000Y-65200000D01*
X46200000Y-65200000D01*
X46200000Y-65200000D01*
X46200000Y-65200000D01*
X46200000Y-65200000D01*
X46200000Y-65200000D02*
X46200000Y-65200000D01*
X46200000Y-65200000D02*
X46200000Y-65200000D01*
X46200000Y-65200000D01*
X46200000Y-65200000D01*
X46200000Y-65200000D01*
D14*
G04 #@! TO.C,J2*
D12*
X8600000Y800000D02*
X8600000Y800000D01*
X8600000Y800000D01*
X8600000Y800000D01*
X8600000Y800000D01*
X8600000Y800000D01*
X8600000Y800000D02*
X8600000Y800000D01*
X8600000Y800000D01*
X8600000Y800000D01*
X8600000Y800000D01*
X8600000Y800000D01*
X8600000Y800000D01*
X8600000Y800000D01*
X8600000Y800000D01*
X8600000Y800000D01*
X8600000Y800000D01*
D14*
G04 #@! TO.C,J3*
D12*
X26400000Y800000D02*
X26400000Y800000D01*
X26400000Y800000D01*
X26400000Y800000D01*
X26400000Y800000D01*
X26400000Y800000D01*
X26400000Y800000D02*
X26400000Y800000D01*
X26400000Y800000D01*
X26400000Y800000D01*
X26400000Y800000D01*
X26400000Y800000D01*
X26400000Y800000D01*
X26400000Y800000D01*
X26400000Y800000D01*
X26400000Y800000D01*
X26400000Y800000D01*
X26400000Y800000D01*
X26400000Y800000D01*
X26400000Y800000D01*
D14*
G04 #@! TO.C,J4*
D12*
X8800000Y-65200000D02*
X8800000Y-65200000D01*
X8800000Y-65200000D01*
X8800000Y-65200000D01*
X8800000Y-65200000D01*
X8800000Y-65200000D01*
X8800000Y-65200000D02*
X8800000Y-65200000D01*
X8800000Y-65200000D02*
X8800000Y-65200000D01*
X8800000Y-65200000D01*
D14*
G04 #@! TO.C,J5*
D12*
X-600000Y-44700000D02*
X-600000Y-44700000D01*
X-600000Y-44700000D01*
X-600000Y-44700000D01*
X-600000Y-44700000D01*
X-600000Y-44700000D01*
X-600000Y-44700000D02*
X-600000Y-44700000D01*
X-600000Y-44700000D01*
X-600000Y-44700000D01*
X-600000Y-44700000D01*
X-600000Y-44700000D01*
X-600000Y-44700000D01*
X-600000Y-44700000D01*
X-600000Y-44700000D01*
X-600000Y-44700000D01*
X-600000Y-44700000D01*
X-600000Y-44700000D01*
X-600000Y-44700000D01*
X-600000Y-44700000D01*
X-600000Y-44700000D01*
X-600000Y-44700000D01*
D14*
G04 #@! TO.C,J6*
D12*
X27400000Y-65200000D02*
X27400000Y-65200000D01*
X27400000Y-65200000D01*
X27400000Y-65200000D01*
X27400000Y-65200000D01*
X27400000Y-65200000D01*
X27400000Y-65200000D02*
X27400000Y-65200000D01*
X27400000Y-65200000D01*
X27400000Y-65200000D01*
X27400000Y-65200000D01*
X27400000Y-65200000D01*
X27400000Y-65200000D01*
X27400000Y-65200000D01*
X27400000Y-65200000D01*
X27400000Y-65200000D01*
X27400000Y-65200000D01*
X27400000Y-65200000D01*
X27400000Y-65200000D01*
X27400000Y-65200000D01*
X27400000Y-65200000D01*
X27400000Y-65200000D01*
X27400000Y-65200000D01*
X27400000Y-65200000D01*
X27400000Y-65200000D01*
X27400000Y-65200000D01*
X27400000Y-65200000D01*
X27400000Y-65200000D01*
D14*
G04 #@! TO.C,J7*
D12*
X75800000Y-44900000D02*
X75800000Y-44900000D01*
X75800000Y-44900000D01*
X75800000Y-44900000D01*
X75800000Y-44900000D01*
X75800000Y-44900000D01*
X75800000Y-44900000D02*
X75800000Y-44900000D01*
X75800000Y-44900000D01*
D14*
G04 #@! TO.C,J10*
D12*
X62800000Y-65200000D02*
X62800000Y-65200000D01*
X62800000Y-65200000D01*
X62800000Y-65200000D01*
X62800000Y-65200000D01*
X62800000Y-65200000D01*
X62800000Y-65200000D02*
X62800000Y-65200000D01*
X62800000Y-65200000D02*
X62800000Y-65200000D01*
X62800000Y-65200000D01*
X62800000Y-65200000D01*
X62800000Y-65200000D01*
X62800000Y-65200000D02*
X62800000Y-65200000D01*
X62800000Y-65200000D01*
X62800000Y-65200000D01*
X62800000Y-65200000D01*
X62800000Y-65200000D01*
X62800000Y-65200000D01*
X62800000Y-65200000D01*
X62800000Y-65200000D01*
X62800000Y-65200000D01*
X62800000Y-65200000D01*
X62800000Y-65200000D01*
X62800000Y-65200000D01*
X62800000Y-65200000D01*
X62800000Y-65200000D01*
X62800000Y-65200000D01*
X62800000Y-65200000D01*
X62800000Y-65200000D01*
X62800000Y-65200000D01*
X62800000Y-65200000D01*
X62800000Y-65200000D01*
D14*
G04 #@! TO.C,J14*
D12*
X75700000Y-12900000D02*
X75700000Y-12900000D01*
X75700000Y-12900000D01*
X75700000Y-12900000D01*
X75700000Y-12900000D01*
X75700000Y-12900000D01*
X75700000Y-12900000D02*
X75700000Y-12900000D01*
X75700000Y-12900000D02*
X75700000Y-12900000D01*
X75700000Y-12900000D01*
X75700000Y-12900000D01*
X75700000Y-12900000D01*
X75700000Y-12900000D02*
X75700000Y-12900000D01*
X75700000Y-12900000D02*
X75700000Y-12900000D01*
X75700000Y-12900000D01*
D14*
G04 #@! TO.C,J15*
D12*
X59900000Y800000D02*
X59900000Y800000D01*
X59900000Y800000D01*
X59900000Y800000D01*
X59900000Y800000D01*
X59900000Y800000D01*
X59900000Y800000D02*
X59900000Y800000D01*
X59900000Y800000D02*
X59900000Y800000D01*
X59900000Y800000D01*
X59900000Y800000D01*
X59900000Y800000D01*
X59900000Y800000D02*
X59900000Y800000D01*
X59900000Y800000D01*
X59900000Y800000D01*
X59900000Y800000D01*
X59900000Y800000D01*
X59900000Y800000D01*
X59900000Y800000D01*
X59900000Y800000D01*
X59900000Y800000D01*
X59900000Y800000D01*
X59900000Y800000D01*
X59900000Y800000D01*
X59900000Y800000D01*
X59900000Y800000D01*
X59900000Y800000D01*
D14*
G04 #@! TO.C,J16*
D12*
X44200000Y800000D02*
X44200000Y800000D01*
X44200000Y800000D01*
X44200000Y800000D01*
X44200000Y800000D01*
X44200000Y800000D01*
X44200000Y800000D02*
X44200000Y800000D01*
X44200000Y800000D02*
X44200000Y800000D01*
X44200000Y800000D01*
X44200000Y800000D01*
X44200000Y800000D01*
X44200000Y800000D02*
X44200000Y800000D01*
X44200000Y800000D01*
X44200000Y800000D01*
X44200000Y800000D01*
X44200000Y800000D01*
X44200000Y800000D01*
X44200000Y800000D01*
X44200000Y800000D01*
X44200000Y800000D01*
X44200000Y800000D01*
X44200000Y800000D01*
X44200000Y800000D01*
X44200000Y800000D01*
X44200000Y800000D01*
X44200000Y800000D01*
X44200000Y800000D01*
X44200000Y800000D01*
X44200000Y800000D01*
X44200000Y800000D01*
X44200000Y800000D01*
X44200000Y800000D01*
D14*
G04 #@! TO.C,R1*
D12*
X26972685Y-28562315D02*
X26972685Y-28562315D01*
X26972685Y-28562315D02*
X26972685Y-28562315D01*
X26972685Y-28562315D01*
X26972685Y-28562315D01*
X26972685Y-28562315D01*
X26972685Y-28562315D01*
X26972685Y-28562315D01*
X26972685Y-28562315D01*
X26972685Y-28562315D01*
X26972685Y-28562315D01*
X26972685Y-28562315D01*
X26972685Y-28562315D02*
X26972685Y-28562315D01*
X26972685Y-28562315D02*
X26972685Y-28562315D01*
X26972685Y-28562315D01*
X26972685Y-28562315D01*
X26972685Y-28562315D01*
D14*
G04 #@! TO.C,R5*
D12*
X52680000Y-18525000D02*
X52680000Y-18525000D01*
X52680000Y-18525000D02*
X52680000Y-18525000D01*
X52680000Y-18525000D01*
X52680000Y-18525000D01*
X52680000Y-18525000D01*
X52680000Y-18525000D01*
X52680000Y-18525000D01*
X52680000Y-18525000D01*
X52680000Y-18525000D01*
X52680000Y-18525000D01*
X52680000Y-18525000D01*
X52680000Y-18525000D02*
X52680000Y-18525000D01*
X52680000Y-18525000D01*
X52680000Y-18525000D01*
X52680000Y-18525000D01*
X52680000Y-18525000D01*
X52680000Y-18525000D01*
X52680000Y-18525000D01*
X52680000Y-18525000D01*
X52680000Y-18525000D01*
X52680000Y-18525000D01*
X52680000Y-18525000D01*
X52680000Y-18525000D01*
X52680000Y-18525000D01*
X52680000Y-18525000D01*
X52680000Y-18525000D01*
D14*
G04 #@! TO.C,R6*
D12*
X53995000Y-18500000D02*
X53995000Y-18500000D01*
X53995000Y-18500000D02*
X53995000Y-18500000D01*
X53995000Y-18500000D01*
X53995000Y-18500000D01*
X53995000Y-18500000D01*
X53995000Y-18500000D01*
X53995000Y-18500000D01*
X53995000Y-18500000D01*
X53995000Y-18500000D01*
X53995000Y-18500000D01*
X53995000Y-18500000D01*
X53995000Y-18500000D02*
X53995000Y-18500000D01*
X53995000Y-18500000D01*
X53995000Y-18500000D01*
X53995000Y-18500000D01*
X53995000Y-18500000D01*
X53995000Y-18500000D01*
X53995000Y-18500000D01*
X53995000Y-18500000D01*
X53995000Y-18500000D01*
X53995000Y-18500000D01*
X53995000Y-18500000D01*
X53995000Y-18500000D01*
X53995000Y-18500000D01*
X53995000Y-18500000D01*
X53995000Y-18500000D01*
X53995000Y-18500000D01*
X53995000Y-18500000D01*
X53995000Y-18500000D01*
X53995000Y-18500000D01*
X53995000Y-18500000D01*
X53995000Y-18500000D01*
D14*
G04 #@! TO.C,R7*
D12*
X55325000Y-20170000D02*
X55325000Y-20170000D01*
X55325000Y-20170000D02*
X55325000Y-20170000D01*
X55325000Y-20170000D01*
X55325000Y-20170000D01*
X55325000Y-20170000D01*
X55325000Y-20170000D01*
X55325000Y-20170000D01*
X55325000Y-20170000D01*
X55325000Y-20170000D01*
X55325000Y-20170000D01*
X55325000Y-20170000D01*
X55325000Y-20170000D02*
X55325000Y-20170000D01*
X55325000Y-20170000D01*
D14*
G04 #@! TO.C,R8*
D12*
X62070000Y-10190000D02*
X62070000Y-10190000D01*
X62070000Y-10190000D02*
X62070000Y-10190000D01*
X62070000Y-10190000D01*
X62070000Y-10190000D01*
X62070000Y-10190000D01*
X62070000Y-10190000D01*
X62070000Y-10190000D01*
X62070000Y-10190000D01*
X62070000Y-10190000D01*
X62070000Y-10190000D01*
X62070000Y-10190000D01*
X62070000Y-10190000D02*
X62070000Y-10190000D01*
X62070000Y-10190000D01*
X62070000Y-10190000D01*
X62070000Y-10190000D01*
X62070000Y-10190000D01*
X62070000Y-10190000D01*
X62070000Y-10190000D01*
X62070000Y-10190000D01*
X62070000Y-10190000D01*
X62070000Y-10190000D01*
X62070000Y-10190000D01*
X62070000Y-10190000D01*
X62070000Y-10190000D01*
X62070000Y-10190000D01*
X62070000Y-10190000D01*
X62070000Y-10190000D01*
X62070000Y-10190000D01*
X62070000Y-10190000D01*
X62070000Y-10190000D01*
X62070000Y-10190000D01*
X62070000Y-10190000D01*
X62070000Y-10190000D01*
X62070000Y-10190000D01*
X62070000Y-10190000D01*
X62070000Y-10190000D01*
X62070000Y-10190000D01*
X62070000Y-10190000D01*
X62070000Y-10190000D01*
X62070000Y-10190000D01*
X62070000Y-10190000D01*
X62070000Y-10190000D01*
D14*
G04 #@! TO.C,R9*
D12*
X60095000Y-10200000D02*
X60095000Y-10200000D01*
X60095000Y-10200000D02*
X60095000Y-10200000D01*
X60095000Y-10200000D01*
X60095000Y-10200000D01*
X60095000Y-10200000D01*
X60095000Y-10200000D01*
X60095000Y-10200000D01*
X60095000Y-10200000D01*
X60095000Y-10200000D01*
X60095000Y-10200000D01*
X60095000Y-10200000D01*
X60095000Y-10200000D02*
X60095000Y-10200000D01*
X60095000Y-10200000D01*
X60095000Y-10200000D01*
X60095000Y-10200000D01*
X60095000Y-10200000D01*
X60095000Y-10200000D01*
X60095000Y-10200000D01*
X60095000Y-10200000D01*
X60095000Y-10200000D01*
X60095000Y-10200000D01*
X60095000Y-10200000D01*
X60095000Y-10200000D01*
X60095000Y-10200000D01*
X60095000Y-10200000D01*
X60095000Y-10200000D01*
X60095000Y-10200000D01*
X60095000Y-10200000D01*
X60095000Y-10200000D01*
X60095000Y-10200000D01*
X60095000Y-10200000D01*
X60095000Y-10200000D01*
D14*
G04 #@! TO.C,R10*
D12*
X27697685Y-27827315D02*
X27697685Y-27827315D01*
X27697685Y-27827315D02*
X27697685Y-27827315D01*
X27697685Y-27827315D01*
X27697685Y-27827315D01*
X27697685Y-27827315D01*
X27697685Y-27827315D01*
X27697685Y-27827315D01*
X27697685Y-27827315D01*
X27697685Y-27827315D01*
X27697685Y-27827315D01*
X27697685Y-27827315D01*
X27697685Y-27827315D02*
X27697685Y-27827315D01*
X27697685Y-27827315D02*
X27697685Y-27827315D01*
X27697685Y-27827315D01*
X27697685Y-27827315D01*
X27697685Y-27827315D01*
X27697685Y-27827315D02*
X27697685Y-27827315D01*
X27697685Y-27827315D01*
X27697685Y-27827315D01*
X27697685Y-27827315D01*
X27697685Y-27827315D01*
X27697685Y-27827315D01*
X27697685Y-27827315D01*
X27697685Y-27827315D01*
X27697685Y-27827315D01*
X27697685Y-27827315D01*
X27697685Y-27827315D01*
X27697685Y-27827315D01*
X27697685Y-27827315D01*
X27697685Y-27827315D01*
X27697685Y-27827315D01*
X27697685Y-27827315D01*
X27697685Y-27827315D01*
X27697685Y-27827315D01*
X27697685Y-27827315D01*
X27697685Y-27827315D01*
D14*
G04 #@! TO.C,R11*
D12*
X60655000Y-54050000D02*
X60655000Y-54050000D01*
X60655000Y-54050000D02*
X60655000Y-54050000D01*
X60655000Y-54050000D01*
X60655000Y-54050000D01*
X60655000Y-54050000D01*
X60655000Y-54050000D01*
X60655000Y-54050000D01*
X60655000Y-54050000D01*
X60655000Y-54050000D01*
X60655000Y-54050000D01*
X60655000Y-54050000D01*
X60655000Y-54050000D02*
X60655000Y-54050000D01*
X60655000Y-54050000D02*
X60655000Y-54050000D01*
X60655000Y-54050000D01*
X60655000Y-54050000D01*
X60655000Y-54050000D01*
X60655000Y-54050000D02*
X60655000Y-54050000D01*
X60655000Y-54050000D02*
X60655000Y-54050000D01*
X60655000Y-54050000D01*
X60655000Y-54050000D01*
X60655000Y-54050000D01*
D14*
G04 #@! TO.C,R12*
D12*
X62655000Y-54115000D02*
X62655000Y-54115000D01*
X62655000Y-54115000D02*
X62655000Y-54115000D01*
X62655000Y-54115000D01*
X62655000Y-54115000D01*
X62655000Y-54115000D01*
X62655000Y-54115000D01*
X62655000Y-54115000D01*
X62655000Y-54115000D01*
X62655000Y-54115000D01*
X62655000Y-54115000D01*
X62655000Y-54115000D01*
X62655000Y-54115000D02*
X62655000Y-54115000D01*
X62655000Y-54115000D02*
X62655000Y-54115000D01*
X62655000Y-54115000D01*
X62655000Y-54115000D01*
X62655000Y-54115000D01*
X62655000Y-54115000D02*
X62655000Y-54115000D01*
X62655000Y-54115000D01*
X62655000Y-54115000D01*
X62655000Y-54115000D01*
X62655000Y-54115000D01*
X62655000Y-54115000D01*
X62655000Y-54115000D01*
X62655000Y-54115000D01*
X62655000Y-54115000D01*
X62655000Y-54115000D01*
D14*
G04 #@! TO.C,U1*
D12*
X30676420Y-25676420D02*
X30676420Y-25676420D01*
X30676420Y-25676420D01*
X30676420Y-25676420D01*
X30676420Y-25676420D01*
X30676420Y-25676420D01*
X30676420Y-25676420D01*
X30676420Y-25676420D01*
X30676420Y-25676420D01*
X30676420Y-25676420D01*
X30676420Y-25676420D02*
X30676420Y-25676420D01*
X30676420Y-25676420D02*
X30676420Y-25676420D01*
X30676420Y-25676420D01*
X30676420Y-25676420D01*
X30676420Y-25676420D01*
D14*
G04 #@! TO.C,Y1*
D12*
X29352817Y-36857233D02*
X29352817Y-36857233D01*
X29352817Y-36857233D02*
X29352817Y-36857233D01*
X29352817Y-36857233D01*
X29352817Y-36857233D02*
X29352817Y-36857233D01*
X29352817Y-36857233D02*
X29352817Y-36857233D01*
X29352817Y-36857233D01*
X29352817Y-36857233D01*
X29352817Y-36857233D01*
D14*
G04 #@! TO.C,Y2*
D12*
X31945280Y-42955331D02*
X31945280Y-42955331D01*
X31945280Y-42955331D02*
X31945280Y-42955331D01*
X31945280Y-42955331D01*
X31945280Y-42955331D02*
X31945280Y-42955331D01*
X31945280Y-42955331D01*
X31945280Y-42955331D01*
X31945280Y-42955331D01*
X31945280Y-42955331D01*
X31945280Y-42955331D01*
X31945280Y-42955331D01*
X31945280Y-42955331D01*
X31945280Y-42955331D01*
X31945280Y-42955331D01*
D14*
G04 #@! TO.C,C1*
D12*
X41142315Y-44777315D02*
X41142315Y-44777315D01*
X41142315Y-44777315D01*
X41142315Y-44777315D01*
X41142315Y-44777315D01*
X41142315Y-44777315D01*
X41142315Y-44777315D01*
X41142315Y-44777315D01*
X41142315Y-44777315D01*
X41142315Y-44777315D01*
X41142315Y-44777315D01*
X41142315Y-44777315D01*
X41142315Y-44777315D01*
X41142315Y-44777315D01*
X41142315Y-44777315D01*
X41142315Y-44777315D01*
X41142315Y-44777315D02*
X41142315Y-44777315D01*
X41142315Y-44777315D02*
X41142315Y-44777315D01*
X41142315Y-44777315D01*
X41142315Y-44777315D01*
X41142315Y-44777315D01*
D14*
G04 #@! TD*
M02*
