M48
;DRILL file {KiCad 5.0.1-33cea8e~68~ubuntu16.04.1} date Thu 01 Nov 2018 01:01:18 AM EDT
;FORMAT={-:-/ absolute / inch / decimal}
FMAT,2
INCH,TZ
T1C0.0118
%
G90
G05
M72
T1
X0.1575Y-2.0669
X0.1772Y-0.374
X0.2185Y-1.1161
X0.2185Y-1.1339
X0.2195Y-1.0984
X0.2205Y-1.0305
X0.2205Y-1.0472
X0.2205Y-1.0807
X0.2215Y-1.064
X0.2362Y-1.0984
X0.2362Y-1.1161
X0.2362Y-1.1339
X0.2362Y-2.0669
X0.2372Y-1.0305
X0.2372Y-1.0472
X0.2372Y-1.0817
X0.2382Y-1.065
X0.2421Y-1.6752
X0.2421Y-1.6929
X0.2421Y-1.7106
X0.2539Y-1.0305
X0.2539Y-1.0482
X0.2539Y-1.0482
X0.2539Y-1.0482
X0.2539Y-1.0817
X0.2539Y-1.0984
X0.2539Y-1.1161
X0.2539Y-1.1339
X0.2549Y-1.065
X0.2598Y-0.3346
X0.2598Y-1.6752
X0.2598Y-1.6929
X0.2598Y-1.7106
X0.2776Y-1.6752
X0.2776Y-1.6929
X0.2776Y-1.7106
X0.2795Y-1.9587
X0.2847Y-2.5865
X0.2913Y-0.4823
X0.2953Y-1.378
X0.2953Y-1.4567
X0.2953Y-1.5354
X0.2953Y-1.6142
X0.2953Y-1.6752
X0.2953Y-1.6929
X0.2953Y-1.7106
X0.3081Y-0.4783
X0.3081Y-0.498
X0.313Y-1.6752
X0.313Y-1.6929
X0.313Y-1.7106
X0.315Y-0.4606
X0.315Y-1.0827
X0.315Y-2.0669
X0.3238Y-0.5148
X0.3258Y-0.4951
X0.3278Y-0.4774
X0.3307Y-1.6752
X0.3307Y-1.6929
X0.3307Y-1.7106
X0.3404Y-2.6422
X0.3406Y-0.5305
X0.3415Y-0.5118
X0.3445Y-0.4921
X0.3484Y-1.6752
X0.3484Y-1.6929
X0.3484Y-1.7106
X0.3573Y-0.5472
X0.3583Y-0.5295
X0.3593Y-0.5089
X0.377Y-0.5266
X0.377Y-0.5502
X0.3937Y-1.0827
X0.3937Y-2.0669
X0.3961Y-0.4518
X0.3961Y-2.6978
X0.4331Y-1.9685
X0.4518Y-0.3961
X0.4518Y-2.7535
X0.4547Y-2.0138
X0.4547Y-2.0315
X0.4547Y-2.0492
X0.4547Y-2.0669
X0.4547Y-2.0846
X0.4547Y-2.1024
X0.4547Y-2.1201
X0.4626Y-2.8425
X0.4685Y-2.8248
X0.4724Y-1.0827
X0.4724Y-2.0138
X0.4724Y-2.0315
X0.4724Y-2.0492
X0.4724Y-2.0669
X0.4724Y-2.0846
X0.4724Y-2.1024
X0.4724Y-2.1201
X0.4803Y-2.8583
X0.4862Y-2.8209
X0.4862Y-2.8406
X0.4902Y-2.0138
X0.4902Y-2.0315
X0.4902Y-2.0492
X0.4902Y-2.0669
X0.4902Y-2.0846
X0.4902Y-2.1024
X0.4902Y-2.1201
X0.4902Y-2.8031
X0.5039Y-1.2146
X0.5039Y-2.8366
X0.5074Y-0.3404
X0.5079Y-2.8012
X0.5079Y-2.8189
X0.5098Y-2.7835
X0.5256Y-2.815
X0.5276Y-2.7795
X0.5276Y-2.7972
X0.5315Y-2.7618
X0.5453Y-2.7992
X0.5472Y-2.7795
X0.5512Y-1.0827
X0.5512Y-1.2559
X0.5631Y-0.2847
X0.6024Y-1.2737
X0.6555Y-1.3366
X0.6969Y-1.3484
X0.7309Y-1.3557
X0.7579Y-1.3268
X0.7717Y-1.3602
X0.775Y-1.454
X0.7835Y-1.435
X0.815Y-1.437
X0.8169Y-1.5138
X0.8425Y-1.5157
X0.8504Y-1.4409
X0.8839Y-1.4744
X0.8858Y-1.4409
X0.9157Y-1.3213
X0.9213Y-1.6969
X0.9278Y-1.6476
X0.939Y-1.2598
X0.9764Y-1.7402
X0.9843Y-2.7756
X0.9921Y-2.2735
X1.0059Y-0.3228
X1.0059Y-0.3406
X1.0059Y-0.3583
X1.0059Y-0.3583
X1.0059Y-0.3583
X1.0059Y-0.376
X1.0059Y-0.3937
X1.0059Y-0.4114
X1.0059Y-0.4291
X1.0079Y-2.2557
X1.0118Y-2.2913
X1.0236Y-0.3228
X1.0236Y-0.3406
X1.0236Y-0.3583
X1.0236Y-0.376
X1.0236Y-0.3937
X1.0236Y-0.4114
X1.0236Y-0.4291
X1.0335Y-1.2677
X1.0374Y-2.3091
X1.0413Y-0.3228
X1.0413Y-0.3406
X1.0413Y-0.3583
X1.0413Y-0.376
X1.0413Y-0.3937
X1.0413Y-0.4114
X1.0413Y-0.4311
X1.0413Y-2.4606
X1.0549Y-1.6643
X1.063Y-2.7756
X1.0768Y-1.1516
X1.078Y-1.624
X1.078Y-1.998
X1.0841Y-1.6446
X1.1122Y-2.3957
X1.1142Y-2.2559
X1.12Y-1.74
X1.1201Y-1.4075
X1.1201Y-1.565
X1.122Y-1.8602
X1.1299Y-2.626
X1.1417Y-2.7756
X1.1499Y-2.0721
X1.1516Y-1.0787
X1.1591Y-1.9882
X1.1654Y-2.626
X1.1791Y-2.2441
X1.1854Y-1.9951
X1.2106Y-2.0276
X1.2205Y-2.7756
X1.2303Y-0.9862
X1.2697Y-2.0728
X1.2759Y-2.1997
X1.2815Y-2.7205
X1.2815Y-2.7382
X1.2815Y-2.7559
X1.2815Y-2.7756
X1.2815Y-2.7933
X1.2815Y-2.811
X1.2815Y-2.8287
X1.2894Y-2.0728
X1.2894Y-2.1299
X1.2992Y-2.7205
X1.2992Y-2.7382
X1.2992Y-2.7559
X1.2992Y-2.7756
X1.2992Y-2.7933
X1.2992Y-2.811
X1.2992Y-2.8287
X1.3051Y-2.2028
X1.3091Y-2.0728
X1.3091Y-2.1312
X1.3169Y-2.7205
X1.3169Y-2.7382
X1.3169Y-2.7559
X1.3169Y-2.7756
X1.3169Y-2.7933
X1.3169Y-2.811
X1.3169Y-2.8287
X1.3268Y-2.6201
X1.3268Y-2.6594
X1.3475Y-2.0748
X1.3484Y-2.1437
X1.3488Y-0.987
X1.3799Y-2.4921
X1.4134Y-2.4409
X1.4409Y-2.622
X1.4449Y-1.0787
X1.4665Y-2.0177
X1.5059Y-1.1181
X1.5256Y-1.0787
X1.5354Y-2.6457
X1.5453Y-1.0787
X1.565Y-1.0787
X1.5717Y-2.5669
X1.5906Y-0.6909
X1.6106Y-2.4917
X1.6122Y-0.8524
X1.6358Y-0.3189
X1.6358Y-0.3366
X1.6358Y-0.3543
X1.6358Y-0.372
X1.6358Y-0.3898
X1.6358Y-0.4075
X1.6358Y-0.4252
X1.6496Y-0.8524
X1.6535Y-0.3189
X1.6535Y-0.3366
X1.6535Y-0.3543
X1.6535Y-0.372
X1.6535Y-0.3898
X1.6535Y-0.4075
X1.6535Y-0.4252
X1.6592Y-0.673
X1.6654Y-2.0217
X1.6713Y-0.3189
X1.6713Y-0.3366
X1.6713Y-0.3543
X1.6713Y-0.372
X1.6713Y-0.3898
X1.6732Y-0.4075
X1.6732Y-0.4252
X1.689Y-0.8504
X1.7047Y-1.122
X1.7047Y-2.2917
X1.7106Y-0.5118
X1.7224Y-2.0709
X1.7244Y-2.2067
X1.7323Y-0.374
X1.7421Y-2.0709
X1.7441Y-0.876
X1.75Y-2.2102
X1.7618Y-2.0709
X1.7618Y-2.3248
X1.767Y-2.1974
X1.7677Y-2.7756
X1.7717Y-0.5866
X1.7799Y-0.6858
X1.7815Y-2.0709
X1.7925Y-0.515
X1.7933Y-2.1988
X1.811Y-0.374
X1.8213Y-2.1185
X1.8248Y-2.2913
X1.84Y-1.79
X1.8406Y-1.078
X1.8465Y-2.7756
X1.8591Y-1.1025
X1.8643Y-2.3465
X1.8791Y-2.3701
X1.8799Y-1.078
X1.8898Y-0.374
X1.8898Y-0.374
X1.8917Y-0.7244
X1.8923Y-0.8346
X1.9016Y-0.8996
X1.9016Y-0.935
X1.9035Y-0.8602
X1.9193Y-1.078
X1.9252Y-2.7756
X1.9587Y-1.1201
X1.9665Y-0.374
X1.9665Y-0.4469
X1.9783Y-2.0728
X2.Y-1.0768
X2.Y-2.0728
X2.0039Y-2.7756
X2.01Y-1.79
X2.0197Y-1.9803
X2.0236Y-1.2697
X2.0295Y-1.5256
X2.0315Y-1.7421
X2.0614Y-0.9031
X2.065Y-2.7244
X2.065Y-2.7421
X2.065Y-2.7598
X2.065Y-2.7776
X2.065Y-2.7953
X2.065Y-2.813
X2.0669Y-2.8307
X2.0717Y-1.3091
X2.0748Y-1.2283
X2.0827Y-2.7244
X2.0827Y-2.7421
X2.0827Y-2.7598
X2.0827Y-2.7776
X2.0827Y-2.7953
X2.0827Y-2.813
X2.0846Y-2.8307
X2.1004Y-2.7244
X2.1004Y-2.7421
X2.1004Y-2.7598
X2.1004Y-2.7776
X2.1004Y-2.7953
X2.1024Y-2.813
X2.1024Y-2.8307
X2.1106Y-1.8807
X2.111Y-1.3878
X2.1167Y-1.3611
X2.122Y-1.0374
X2.1283Y-1.8976
X2.1318Y-1.3955
X2.1342Y-1.8606
X2.1679Y-1.0936
X2.189Y-1.0945
X2.1909Y-1.0295
X2.2094Y-1.1697
X2.2165Y-1.1089
X2.2207Y-2.4407
X2.2532Y-2.4496
X2.2756Y-2.4055
X2.2813Y-2.4274
X2.2815Y-0.8504
X2.2815Y-0.9547
X2.2992Y-0.8996
X2.313Y-0.8504
X2.315Y-0.9547
X2.3465Y-2.4449
X2.3602Y-2.5669
X2.372Y-1.6791
X2.372Y-1.7067
X2.4213Y-1.4567
X2.4213Y-1.5354
X2.4213Y-1.6142
X2.4232Y-1.6929
X2.4685Y-1.6791
X2.4685Y-1.7067
X2.52Y-1.56
X2.5865Y-2.8649
X2.5984Y-2.0669
X2.6063Y-0.3681
X2.6083Y-0.3504
X2.624Y-0.3681
X2.626Y-0.3327
X2.626Y-0.3504
X2.626Y-0.3858
X2.6339Y-1.9181
X2.6422Y-2.8092
X2.6437Y-0.3287
X2.6437Y-0.3465
X2.6437Y-0.3642
X2.6476Y-0.3091
X2.6575Y-1.0472
X2.6575Y-1.065
X2.6575Y-1.0827
X2.6575Y-1.1004
X2.6575Y-1.1181
X2.6575Y-1.1358
X2.6594Y-1.0295
X2.6604Y-1.9359
X2.6614Y-0.3465
X2.6634Y-0.3287
X2.6654Y-0.3071
X2.6673Y-0.2894
X2.6772Y-1.0295
X2.6772Y-1.0472
X2.6772Y-1.065
X2.6772Y-1.0827
X2.6772Y-1.1004
X2.6772Y-1.1181
X2.6772Y-1.1358
X2.6772Y-2.0669
X2.6811Y-0.3248
X2.685Y-0.3071
X2.6949Y-1.0295
X2.6949Y-1.0472
X2.6949Y-1.065
X2.6949Y-1.0827
X2.6949Y-1.1004
X2.6949Y-1.1181
X2.6949Y-1.1358
X2.6978Y-0.3961
X2.6978Y-2.7535
X2.7299Y-1.7185
X2.7299Y-1.7461
X2.7535Y-0.4518
X2.7535Y-2.6978
X2.7559Y-1.0827
X2.7559Y-1.9724
X2.7559Y-2.0669
X2.7579Y-2.6161
X2.7709Y-1.7287
X2.7756Y-1.4173
X2.7756Y-1.4961
X2.7756Y-1.5748
X2.7756Y-1.6535
X2.7756Y-2.6004
X2.7756Y-2.6181
X2.7756Y-2.6358
X2.7795Y-2.8248
X2.7854Y-1.9626
X2.7933Y-2.6024
X2.7933Y-2.6201
X2.7933Y-2.6378
X2.7953Y-2.6555
X2.8092Y-0.5074
X2.811Y-2.6201
X2.813Y-2.6398
X2.813Y-2.6575
X2.815Y-2.6752
X2.8201Y-1.7469
X2.8213Y-1.7185
X2.8307Y-2.6398
X2.8327Y-2.6594
X2.8346Y-1.0827
X2.8346Y-2.0669
X2.8346Y-2.6772
X2.8346Y-2.6949
X2.8504Y-2.6594
X2.8524Y-2.6772
X2.8649Y-0.5631
X2.8728Y-2.7567
X2.876Y-1.2693
X2.8956Y-1.2638
X2.8957Y-2.0157
X2.8957Y-2.0335
X2.8957Y-2.0512
X2.8957Y-2.0689
X2.8957Y-2.0866
X2.8957Y-2.1043
X2.8957Y-2.122
X2.9134Y-1.0827
X2.9134Y-2.0157
X2.9134Y-2.0335
X2.9134Y-2.0512
X2.9134Y-2.0689
X2.9134Y-2.0866
X2.9134Y-2.1043
X2.9134Y-2.122
X2.9311Y-2.0157
X2.9311Y-2.0335
X2.9311Y-2.0512
X2.9311Y-2.0689
X2.9311Y-2.0866
X2.9311Y-2.1043
X2.9311Y-2.122
X2.9312Y-1.2689
X2.946Y-1.3858
X2.9921Y-1.0827
T0
M30
