M48
;DRILL file {KiCad 5.0.1-33cea8e~68~ubuntu16.04.1} date Fri 08 Feb 2019 12:52:35 AM EST
;FORMAT={-:-/ absolute / inch / decimal}
FMAT,2
INCH,TZ
T1C0.0118
T2C0.1772
T3C0.1260
%
G90
G05
M72
T1
X0.1416Y-0.161
X0.1416Y-0.177
X0.1416Y-0.1932
X0.1416Y-0.2092
X0.1417Y-0.2264
X0.1547Y-1.8799
X0.161Y-1.9588
X0.1712Y-1.8799
X0.177Y-1.9588
X0.1878Y-1.8799
X0.1932Y-1.9588
X0.2042Y-1.8798
X0.2092Y-1.9588
X0.2205Y-0.1547
X0.2205Y-0.1712
X0.2205Y-0.1878
X0.2206Y-0.2042
X0.2206Y-0.221
X0.2264Y-1.9587
X0.4024Y-0.435
X0.4046Y-0.3792
X0.411Y-1.6374
X0.465Y-2.3394
X0.4651Y-2.3558
X0.4651Y-2.3724
X0.4651Y-2.3889
X0.5016Y-1.5454
X0.5439Y-2.3172
X0.544Y-2.3344
X0.544Y-2.3504
X0.544Y-2.3666
X0.544Y-2.3826
X0.8426Y-0.159
X0.8426Y-0.175
X0.8426Y-0.1912
X0.8426Y-0.2072
X0.8427Y-0.2244
X0.8536Y-1.4014
X0.8906Y-1.398
X0.9215Y-0.1527
X0.9215Y-0.1692
X0.9215Y-0.1858
X0.9216Y-0.2022
X0.9792Y-0.633
X0.997Y-1.772
X1.0174Y-1.7462
X1.0215Y-1.3842
X1.0372Y-1.5715
X1.0456Y-1.4504
X1.0608Y-1.1052
X1.0674Y-1.7294
X1.0732Y-0.7378
X1.0748Y-0.8116
X1.0942Y-0.9078
X1.0956Y-0.7888
X1.0968Y-0.7338
X1.0998Y-0.8878
X1.1056Y-1.7429
X1.1058Y-0.9404
X1.1166Y-1.6202
X1.1202Y-1.2612
X1.1374Y-1.0306
X1.1398Y-1.247
X1.1674Y-1.3352
X1.1804Y-1.3522
X1.1972Y-2.3362
X1.1973Y-2.3526
X1.1973Y-2.3692
X1.1973Y-2.3857
X1.209Y-0.919
X1.2456Y-0.6614
X1.25Y-1.4213
X1.2744Y-1.4294
X1.2761Y-2.314
X1.2762Y-2.3312
X1.2762Y-2.3472
X1.2762Y-2.3634
X1.2762Y-2.3794
X1.2771Y-1.6949
X1.284Y-0.808
X1.284Y-1.7608
X1.2846Y-0.7676
X1.305Y-0.9172
X1.3101Y-1.7093
X1.3313Y-1.5073
X1.3374Y-0.7806
X1.3416Y-1.7572
X1.3494Y-1.5175
X1.3644Y-1.6792
X1.3668Y-1.5288
X1.3772Y-1.5467
X1.436Y-1.458
X1.4492Y-1.7326
X1.4536Y-1.7572
X1.4568Y-1.6966
X1.4886Y-0.9286
X1.4921Y-1.6319
X1.5098Y-0.9409
X1.521Y-1.5978
X1.5372Y-0.9818
X1.544Y-0.1502
X1.544Y-0.1662
X1.544Y-0.1824
X1.544Y-0.1984
X1.5441Y-0.2156
X1.5906Y-1.534
X1.5966Y-1.6814
X1.6078Y-1.5204
X1.618Y-1.0734
X1.6206Y-1.698
X1.6208Y-1.7656
X1.6229Y-0.1439
X1.6229Y-0.1604
X1.6229Y-0.177
X1.623Y-0.1934
X1.6347Y-1.6645
X1.6464Y-1.64
X1.6638Y-0.956
X1.6715Y-0.9041
X1.6728Y-0.8796
X1.6758Y-1.6078
X1.6876Y-0.9172
X1.689Y-0.636
X1.6952Y-1.5868
X1.7178Y-0.848
X1.7302Y-0.8294
X1.7578Y-0.636
X1.758Y-0.8236
X1.762Y-1.3486
X1.7626Y-2.1364
X1.7636Y-2.0636
X1.7708Y-0.902
X1.7788Y-1.5688
X1.7958Y-0.9104
X1.813Y-1.31
X1.8154Y-0.9224
X1.825Y-1.6384
X1.837Y-0.6358
X1.9072Y-1.117
X1.909Y-1.1444
X1.9374Y-2.3344
X1.9375Y-2.3508
X1.9375Y-2.3674
X1.9375Y-2.3839
X1.9484Y-1.3616
X1.958Y-1.5774
X1.96Y-0.851
X1.9618Y-1.187
X1.973Y-1.5946
X1.9772Y-1.3208
X1.982Y-1.206
X1.9922Y-1.1358
X1.9952Y-1.3028
X2.016Y-0.964
X2.016Y-0.98
X2.016Y-0.996
X2.0163Y-2.3122
X2.0164Y-2.3294
X2.0164Y-2.3454
X2.0164Y-2.3616
X2.0164Y-2.3776
X2.0318Y-1.1752
X2.0418Y-1.5738
X2.0446Y-1.5444
X2.0815Y-0.6825
X2.0995Y-0.8515
X2.159Y-0.8585
X2.1592Y-0.7102
X2.1595Y-1.093
X2.1595Y-1.109
X2.1595Y-1.125
X2.1718Y-1.5456
X2.174Y-1.572
X2.1936Y-0.565
X2.2072Y-0.5486
X2.2236Y-1.6012
X2.2345Y-0.985
X2.2345Y-1.001
X2.2345Y-1.017
X2.2352Y-0.7902
X2.2352Y-0.8078
X2.2352Y-0.825
X2.2352Y-0.8554
X2.2354Y-0.7672
X2.2402Y-0.1662
X2.2402Y-0.182
X2.2402Y-0.1985
X2.2402Y-0.2145
X2.2898Y-1.5532
X2.2916Y-0.5662
X2.2976Y-1.58
X2.3066Y-0.549
X2.3146Y-1.157
X2.3366Y-1.6308
X2.3543Y-2.312
X2.3543Y-2.3294
X2.3543Y-2.3477
X2.3786Y-1.1402
X2.4118Y-1.1892
X2.4118Y-1.2136
X2.4118Y-1.234
X2.4118Y-1.5866
X2.4118Y-1.6068
X2.4118Y-1.6332
X2.4462Y-1.8242
X2.4764Y-0.1751
X2.4764Y-0.192
X2.4764Y-0.208
X2.4764Y-0.2235
X2.5414Y-1.8792
X2.5906Y-2.3214
X2.5906Y-2.3372
X2.5906Y-2.353
X2.5906Y-2.353
X2.7266Y-0.5472
X2.728Y-0.626
X2.7298Y-1.2127
X2.7386Y-1.5713
X2.7432Y-0.5472
X2.744Y-0.626
X2.746Y-1.2127
X2.7558Y-1.5712
X2.7598Y-0.5472
X2.7604Y-0.626
X2.7608Y-1.6502
X2.761Y-1.134
X2.7642Y-1.2127
X2.7718Y-1.5712
X2.776Y-0.5472
X2.7772Y-1.6501
X2.7776Y-0.626
X2.7794Y-1.134
X2.782Y-1.2127
X2.788Y-1.5712
X2.7922Y-0.5472
X2.7938Y-1.6501
X2.7946Y-0.626
X2.7984Y-1.134
X2.7994Y-1.2127
X2.804Y-1.5712
X2.8103Y-1.6501
X2.815Y-1.134
X2.8179Y-1.2127
X2.834Y-1.134
T2
X0.1929Y-0.8701
X0.1929Y-1.1654
T3
X2.7992Y-0.1319
X2.8465Y-2.4016
X0.2106Y-0.5246
T0
M30
