G04 #@! TF.GenerationSoftware,KiCad,Pcbnew,5.0.0-fee4fd1~66~ubuntu16.04.1*
G04 #@! TF.CreationDate,2018-08-28T19:09:17-04:00*
G04 #@! TF.ProjectId,SmallKat Jumbo Motherboard,536D616C6C4B6174204A756D626F204D,rev?*
G04 #@! TF.SameCoordinates,Original*
G04 #@! TF.FileFunction,Copper,L4,Bot,Signal*
G04 #@! TF.FilePolarity,Positive*
%FSLAX46Y46*%
G04 Gerber Fmt 4.6, Leading zero omitted, Abs format (unit mm)*
G04 Created by KiCad (PCBNEW 5.0.0-fee4fd1~66~ubuntu16.04.1) date Tue Aug 28 19:09:17 2018*
%MOMM*%
%LPD*%
G01*
G04 APERTURE LIST*
G04 #@! TA.AperFunction,ViaPad*
%ADD10C,0.400000*%
G04 #@! TD*
G04 #@! TA.AperFunction,Conductor*
%ADD11C,0.250000*%
G04 #@! TD*
G04 #@! TA.AperFunction,Conductor*
%ADD12C,0.200000*%
G04 #@! TD*
G04 APERTURE END LIST*
D10*
G04 #@! TO.N,GND*
X13900000Y-70600000D03*
X13500000Y-70150000D03*
X13400000Y-70600000D03*
X13400000Y-71050000D03*
X12950000Y-70700000D03*
X12900000Y-71150000D03*
X13350000Y-71500000D03*
X12900000Y-71600000D03*
X12450000Y-71200000D03*
X12350000Y-71650000D03*
X12800000Y-72050000D03*
X12350000Y-72150000D03*
X11900000Y-71750000D03*
X11750000Y-72200000D03*
X12200000Y-72600000D03*
X66200000Y-9350000D03*
X66650000Y-9350000D03*
X66250000Y-8900000D03*
X66700000Y-8900000D03*
X67150000Y-9250000D03*
X67150000Y-8800000D03*
X66700000Y-8450000D03*
X67150000Y-8350000D03*
X67600000Y-8800000D03*
X67650000Y-8350000D03*
X67250000Y-7850000D03*
X67700000Y-7800000D03*
X68100000Y-8250000D03*
X68200000Y-7800000D03*
X67750000Y-7350000D03*
X72450000Y-68000000D03*
X72000000Y-68450000D03*
X72000000Y-68000000D03*
X72400000Y-67550000D03*
X71950000Y-67550000D03*
X71500000Y-67950000D03*
X71450000Y-67500000D03*
X71900000Y-67050000D03*
X71450000Y-67050000D03*
X71000000Y-67450000D03*
X70950000Y-67000000D03*
X71400000Y-66550000D03*
X70950000Y-66550000D03*
X70500000Y-66950000D03*
X70500000Y-66500000D03*
X70950000Y-66100000D03*
X70500000Y-66050000D03*
X70050000Y-66450000D03*
X42500000Y-10800000D03*
X42000000Y-10800000D03*
X41550000Y-10800000D03*
X41550000Y-10350000D03*
X42000000Y-10350000D03*
X42500000Y-10350000D03*
X42450000Y-9900000D03*
X42000000Y-9900000D03*
X41550000Y-9900000D03*
X41550000Y-9450000D03*
X42000000Y-9450000D03*
X42450000Y-9450000D03*
X42450000Y-9000000D03*
X42000000Y-9000000D03*
X41550000Y-9000000D03*
X41550000Y-8550000D03*
X42000000Y-8550000D03*
X42450000Y-8550000D03*
X42450000Y-8100000D03*
X42000000Y-8100000D03*
X41550000Y-8100000D03*
X58750000Y-21600000D03*
X57950000Y-21600000D03*
X58400000Y-22850000D03*
X57950000Y-24250000D03*
X58800000Y-24250000D03*
X67550000Y-26150000D03*
X68000000Y-26150000D03*
X68450000Y-26150000D03*
X68450000Y-26600000D03*
X68000000Y-26600000D03*
X67500000Y-26600000D03*
X67500000Y-27050000D03*
X68000000Y-27050000D03*
X68450000Y-27050000D03*
X68450000Y-27500000D03*
X68000000Y-27500000D03*
X67500000Y-27500000D03*
X67500000Y-27950000D03*
X68000000Y-27950000D03*
X68450000Y-27950000D03*
X68450000Y-28400000D03*
X68000000Y-28400000D03*
X67500000Y-28400000D03*
X67500000Y-28850000D03*
X68000000Y-28850000D03*
X68450000Y-28850000D03*
X73550000Y-51200000D03*
X74000000Y-51200000D03*
X74450000Y-51200000D03*
X74450000Y-51650000D03*
X74000000Y-51650000D03*
X73550000Y-51650000D03*
X73550000Y-52100000D03*
X74000000Y-52100000D03*
X74450000Y-52100000D03*
X74450000Y-52550000D03*
X74000000Y-52550000D03*
X73550000Y-52550000D03*
X73550000Y-53000000D03*
X74000000Y-53000000D03*
X74450000Y-53000000D03*
X74450000Y-53450000D03*
X74000000Y-53450000D03*
X73550000Y-53450000D03*
X73550000Y-53900000D03*
X74000000Y-53900000D03*
X74450000Y-53900000D03*
X32550000Y-69100000D03*
X33000000Y-69100000D03*
X33450000Y-69100000D03*
X33450000Y-69550000D03*
X33000000Y-69550000D03*
X32550000Y-69550000D03*
X33450000Y-70000000D03*
X33000000Y-70000000D03*
X32550000Y-70000000D03*
X32550000Y-70500000D03*
X33000000Y-70500000D03*
X33450000Y-70500000D03*
X33450000Y-70950000D03*
X33000000Y-70950000D03*
X32550000Y-70950000D03*
X32550000Y-71400000D03*
X33000000Y-71400000D03*
X33450000Y-71400000D03*
X33450000Y-71850000D03*
X33000000Y-71850000D03*
X32550000Y-71850000D03*
X53350000Y-69200000D03*
X52900000Y-69200000D03*
X52900000Y-69650000D03*
X53350000Y-69650000D03*
X53350000Y-70100000D03*
X52900000Y-70100000D03*
X52900000Y-70550000D03*
X53350000Y-70550000D03*
X53350000Y-71000000D03*
X52900000Y-71000000D03*
X52900000Y-71450000D03*
X53400000Y-71450000D03*
X53400000Y-71900000D03*
X52950000Y-71900000D03*
X52500000Y-71900000D03*
X28700000Y-66700000D03*
X29600000Y-66700000D03*
X33700000Y-67550000D03*
X33700000Y-66550000D03*
X39000000Y-67200000D03*
X36600000Y-66600000D03*
X35050000Y-63300000D03*
X35900000Y-62000000D03*
X70500000Y-43000000D03*
X71850000Y-42650000D03*
X71850000Y-43400000D03*
X69200000Y-43400000D03*
X69200000Y-42650000D03*
X61550000Y-43000000D03*
X62700000Y-42650000D03*
X62700000Y-43350000D03*
X60250000Y-43350000D03*
X60250000Y-42650000D03*
X48050000Y-18400000D03*
X48300000Y-23750000D03*
X48300000Y-22850000D03*
X48350000Y-21850000D03*
X40950000Y-21650000D03*
X41900000Y-21650000D03*
X42900000Y-21600000D03*
X44300000Y-22250000D03*
X12450000Y-51150000D03*
X12000000Y-51150000D03*
X11550000Y-51150000D03*
X11550000Y-51600000D03*
X12000000Y-51600000D03*
X12450000Y-51600000D03*
X12450000Y-52050000D03*
X12000000Y-52050000D03*
X11550000Y-52050000D03*
X11550000Y-52500000D03*
X12000000Y-52500000D03*
X12450000Y-52500000D03*
X12450000Y-52950000D03*
X12000000Y-52950000D03*
X11550000Y-52950000D03*
X11550000Y-53400000D03*
X12000000Y-53400000D03*
X12450000Y-53400000D03*
X12450000Y-53850000D03*
X12000000Y-53850000D03*
X11550000Y-53850000D03*
X8850000Y-42550000D03*
X8850000Y-43000000D03*
X8850000Y-43450000D03*
X8400000Y-43450000D03*
X8400000Y-43000000D03*
X8400000Y-42550000D03*
X7950000Y-42550000D03*
X7950000Y-43000000D03*
X7950000Y-43450000D03*
X7500000Y-43450000D03*
X7500000Y-43000000D03*
X7500000Y-42550000D03*
X7050000Y-42550000D03*
X7050000Y-43000000D03*
X7050000Y-43450000D03*
X6600000Y-43450000D03*
X6600000Y-43000000D03*
X6600000Y-42550000D03*
X6150000Y-42550000D03*
X6150000Y-43000000D03*
X6150000Y-43450000D03*
X6450000Y-28800000D03*
X6000000Y-28800000D03*
X5550000Y-28800000D03*
X5550000Y-28350000D03*
X6000000Y-28350000D03*
X6450000Y-28350000D03*
X6450000Y-27900000D03*
X6000000Y-27900000D03*
X5575000Y-27900000D03*
X6450000Y-27475000D03*
X6025000Y-27475000D03*
X5600000Y-27450000D03*
X6475000Y-27050000D03*
X6050000Y-27050000D03*
X5625000Y-27025000D03*
X6450000Y-26625000D03*
X6025000Y-26600000D03*
X5600000Y-26600000D03*
X6450000Y-26175000D03*
X6025000Y-26175000D03*
X5600000Y-26175000D03*
X9575000Y-13375000D03*
X9125000Y-12925000D03*
X8750000Y-12500000D03*
X8325000Y-12125000D03*
X8000000Y-11700000D03*
X7825000Y-12150000D03*
X8275000Y-12575000D03*
X8675000Y-13000000D03*
X9100000Y-13450000D03*
X9575000Y-13975000D03*
X9075000Y-13900000D03*
X8650000Y-13475000D03*
X8225000Y-13075000D03*
X7825000Y-12650000D03*
X7400000Y-12250000D03*
X26450000Y-10950000D03*
X26000000Y-10900000D03*
X25550000Y-10900000D03*
X25550000Y-10450000D03*
X26000000Y-10450000D03*
X26450000Y-10450000D03*
X26450000Y-10000000D03*
X26000000Y-10000000D03*
X25550000Y-10000000D03*
X25550000Y-9550000D03*
X26000000Y-9550000D03*
X26450000Y-9550000D03*
X26450000Y-9100000D03*
X26000000Y-9100000D03*
X25550000Y-9100000D03*
X25550000Y-8650000D03*
X26000000Y-8650000D03*
X26450000Y-8650000D03*
X26450000Y-8200000D03*
X26000000Y-8200000D03*
X25550000Y-8200000D03*
X25550000Y-9100000D03*
X25550000Y-9100000D03*
X6450000Y-26625000D03*
X6450000Y-26625000D03*
X28450000Y-35750000D03*
X28450000Y-39750000D03*
X24800000Y-44200000D03*
X23400000Y-43100000D03*
X28500000Y-47250000D03*
X30750000Y-51500000D03*
X37250000Y-51250000D03*
X42300000Y-51350000D03*
X51300000Y-50300000D03*
X51600000Y-44250000D03*
X51550000Y-38750000D03*
X51400000Y-32250000D03*
X49750000Y-28450000D03*
X43300000Y-28500000D03*
X38250000Y-28400000D03*
X34260000Y-25070000D03*
X52450000Y-71450000D03*
X52450000Y-71000000D03*
X52450000Y-70550000D03*
X52450000Y-70100000D03*
X52450000Y-69650000D03*
X52450000Y-69200000D03*
X23565000Y-41850000D03*
X23850000Y-32000000D03*
X23260000Y-33560000D03*
X31250000Y-25050000D03*
X66700000Y-9800000D03*
X13850000Y-71100000D03*
G04 #@! TO.N,+3V3*
X61500000Y-41000000D03*
X70500000Y-41000000D03*
G04 #@! TO.N,SWCLK*
X70500000Y-37000000D03*
X48750000Y-27380000D03*
G04 #@! TO.N,SWDIO*
X70500000Y-39000000D03*
X52620000Y-33250000D03*
G04 #@! TO.N,SCK5*
X27380000Y-41250000D03*
X21600000Y-36600000D03*
X19600000Y-34548000D03*
X8000000Y-27500000D03*
X10000000Y-52500000D03*
X21400000Y-38500000D03*
X22450000Y-37450000D03*
X72000000Y-52500000D03*
X74880852Y-33306296D03*
X73548000Y-33050000D03*
X70000000Y-27500000D03*
X70750000Y-49850000D03*
X66900000Y-48720990D03*
G04 #@! TO.N,MISO5*
X10000000Y-27500000D03*
X12800000Y-30850000D03*
X14000000Y-31900000D03*
X18564966Y-34435034D03*
X20700000Y-36500000D03*
X27537247Y-41772998D03*
X8000000Y-52500000D03*
X20750000Y-38450000D03*
X70000000Y-52500000D03*
X74452000Y-33000000D03*
X73548000Y-32100000D03*
X72000000Y-27500000D03*
X67572990Y-49172990D03*
X70000000Y-50100000D03*
G04 #@! TO.N,MOSI5*
X26793924Y-42274039D03*
X19900000Y-36450000D03*
X17700000Y-34250000D03*
X15300000Y-32352000D03*
X12000000Y-27500000D03*
X6000000Y-52500000D03*
X68000000Y-52500000D03*
X74000000Y-27500000D03*
G04 #@! TO.N,SCK1*
X32250000Y-52650000D03*
X56405387Y-61994613D03*
X57800000Y-61100000D03*
X69939340Y-68525126D03*
X11474874Y-69939340D03*
X68525126Y-10060660D03*
X26350000Y-58650000D03*
X29950000Y-57000000D03*
X10060660Y-11474874D03*
X4500000Y-9500000D03*
X72969613Y-70019613D03*
G04 #@! TO.N,MISO1*
X32750000Y-52650000D03*
X57230387Y-62219613D03*
X57944613Y-61655387D03*
X68525126Y-69939340D03*
X32750000Y-54100000D03*
X10060660Y-68525126D03*
X69939340Y-11474874D03*
X25700000Y-58198000D03*
X6600000Y-8500000D03*
X11474874Y-10060660D03*
X70600000Y-71750000D03*
G04 #@! TO.N,MOSI1*
X33250000Y-52650000D03*
X67110913Y-71353553D03*
X33250000Y-54133656D03*
X8646447Y-67110913D03*
X71353553Y-12889087D03*
X25200000Y-57746000D03*
X28300000Y-57300000D03*
X32408708Y-55873221D03*
X12889087Y-8646447D03*
G04 #@! TO.N,SCK4*
X44250000Y-52600000D03*
X50900000Y-70500000D03*
X44450000Y-56139828D03*
X47729010Y-60200000D03*
G04 #@! TO.N,MISO4*
X44750000Y-52600000D03*
X48900000Y-70500000D03*
X47352000Y-59600000D03*
X44882192Y-55812720D03*
G04 #@! TO.N,MOSI4*
X45250000Y-52600000D03*
X45550000Y-55850000D03*
X46900000Y-70500000D03*
X46350000Y-58200000D03*
G04 #@! TO.N,SCK2*
X50750000Y-49250000D03*
X31000000Y-70500000D03*
G04 #@! TO.N,MISO2*
X50500000Y-48800000D03*
X29000000Y-70500000D03*
G04 #@! TO.N,MOSI2*
X50150000Y-48300000D03*
X50150000Y-48300000D03*
X27000000Y-70500000D03*
G04 #@! TO.N,TX*
X53620000Y-35250000D03*
X61500000Y-37000000D03*
G04 #@! TO.N,RX*
X53900000Y-34800000D03*
X61500000Y-39000000D03*
X54500000Y-35901999D03*
G04 #@! TO.N,USBDM*
X52620000Y-34250000D03*
X54500000Y-34000000D03*
X54500000Y-32550000D03*
X54500000Y-29450000D03*
X54500000Y-28450000D03*
X54360000Y-22940000D03*
G04 #@! TO.N,USBDP*
X52650000Y-33750000D03*
X54048000Y-31150000D03*
X55027001Y-28450001D03*
X56360000Y-22940000D03*
G04 #@! TO.N,SCK3*
X7500000Y-41000000D03*
X19685964Y-36931581D03*
X22500000Y-36600000D03*
X47750000Y-27380000D03*
G04 #@! TO.N,MISO3*
X47220652Y-28004130D03*
X7500000Y-39000000D03*
G04 #@! TO.N,MOSI3*
X7500000Y-37000000D03*
X46750000Y-27380000D03*
G04 #@! TO.N,MISO6*
X39750000Y-27400000D03*
X46000000Y-9500000D03*
X45000000Y-14900000D03*
X45530387Y-13080387D03*
G04 #@! TO.N,SCK6*
X39250000Y-27400000D03*
X44000000Y-9500000D03*
G04 #@! TO.N,MOSI6*
X38750000Y-27400000D03*
X48000000Y-9500000D03*
X40400000Y-17550000D03*
X42144613Y-17094613D03*
X48000000Y-9500000D03*
G04 #@! TO.N,CS1_1*
X29250000Y-27400000D03*
X14303301Y-7232233D03*
G04 #@! TO.N,CS1_2*
X50800000Y-27350000D03*
X53900000Y-26350000D03*
X55650000Y-26150000D03*
X72767767Y-14303301D03*
G04 #@! TO.N,CS2*
X25000000Y-70500000D03*
X26450000Y-62500000D03*
X28250000Y-60850000D03*
X33150000Y-55950000D03*
X34250000Y-54450000D03*
X34227002Y-52700000D03*
G04 #@! TO.N,CS1_3*
X29250000Y-52620000D03*
X25600000Y-57294000D03*
X7232233Y-65696699D03*
G04 #@! TO.N,CS1_4*
X50250000Y-52650000D03*
X59600000Y-62100000D03*
X59950000Y-65200000D03*
X65696699Y-72767767D03*
G04 #@! TO.N,CS5_1*
X27350000Y-29250000D03*
X14000000Y-27500000D03*
G04 #@! TO.N,CS5_2*
X52700000Y-31200000D03*
X56300000Y-28450000D03*
X76000000Y-27500000D03*
G04 #@! TO.N,CS3*
X26250000Y-32200000D03*
X19250000Y-33700000D03*
X16650000Y-33950000D03*
X7500000Y-35000000D03*
G04 #@! TO.N,CS4*
X43750000Y-52600000D03*
X43800000Y-56050000D03*
X44750000Y-59050000D03*
X44900000Y-70500000D03*
G04 #@! TO.N,CS5_3*
X4000000Y-52500000D03*
X7100000Y-49750000D03*
X11000000Y-50000000D03*
X27380000Y-50750000D03*
G04 #@! TO.N,CS5_4*
X50800000Y-52650000D03*
X66000000Y-52500000D03*
G04 #@! TO.N,CS6*
X36700000Y-27400000D03*
X43450000Y-13000000D03*
X49950000Y-11350000D03*
X49950000Y-9500000D03*
G04 #@! TD*
D11*
G04 #@! TO.N,GND*
X23400000Y-44200000D02*
X23500000Y-44200000D01*
G04 #@! TD*
D12*
G04 #@! TO.N,GND*
G36*
X79600000Y-79600000D02*
X400000Y-79600000D01*
X400000Y-76122067D01*
X1600000Y-76122067D01*
X1600000Y-76877933D01*
X1889258Y-77576263D01*
X2423737Y-78110742D01*
X3122067Y-78400000D01*
X3877933Y-78400000D01*
X4576263Y-78110742D01*
X5110742Y-77576263D01*
X5400000Y-76877933D01*
X5400000Y-76122067D01*
X74600000Y-76122067D01*
X74600000Y-76877933D01*
X74889258Y-77576263D01*
X75423737Y-78110742D01*
X76122067Y-78400000D01*
X76877933Y-78400000D01*
X77576263Y-78110742D01*
X78110742Y-77576263D01*
X78400000Y-76877933D01*
X78400000Y-76122067D01*
X78110742Y-75423737D01*
X77576263Y-74889258D01*
X76877933Y-74600000D01*
X76122067Y-74600000D01*
X75423737Y-74889258D01*
X74889258Y-75423737D01*
X74600000Y-76122067D01*
X5400000Y-76122067D01*
X5110742Y-75423737D01*
X4576263Y-74889258D01*
X3877933Y-74600000D01*
X3122067Y-74600000D01*
X2423737Y-74889258D01*
X1889258Y-75423737D01*
X1600000Y-76122067D01*
X400000Y-76122067D01*
X400000Y-72668311D01*
X65196699Y-72668311D01*
X65196699Y-72867223D01*
X65272819Y-73050994D01*
X65413472Y-73191647D01*
X65597243Y-73267767D01*
X65796155Y-73267767D01*
X65979926Y-73191647D01*
X66120579Y-73050994D01*
X66196699Y-72867223D01*
X66196699Y-72668311D01*
X66120579Y-72484540D01*
X65979926Y-72343887D01*
X65796155Y-72267767D01*
X65597243Y-72267767D01*
X65413472Y-72343887D01*
X65272819Y-72484540D01*
X65196699Y-72668311D01*
X400000Y-72668311D01*
X400000Y-71254097D01*
X66610913Y-71254097D01*
X66610913Y-71453009D01*
X66687033Y-71636780D01*
X66827686Y-71777433D01*
X67011457Y-71853553D01*
X67210369Y-71853553D01*
X67394140Y-71777433D01*
X67521029Y-71650544D01*
X70100000Y-71650544D01*
X70100000Y-71849456D01*
X70176120Y-72033227D01*
X70316773Y-72173880D01*
X70500544Y-72250000D01*
X70699456Y-72250000D01*
X70883227Y-72173880D01*
X71023880Y-72033227D01*
X71100000Y-71849456D01*
X71100000Y-71650544D01*
X71023880Y-71466773D01*
X70883227Y-71326120D01*
X70699456Y-71250000D01*
X70500544Y-71250000D01*
X70316773Y-71326120D01*
X70176120Y-71466773D01*
X70100000Y-71650544D01*
X67521029Y-71650544D01*
X67534793Y-71636780D01*
X67610913Y-71453009D01*
X67610913Y-71254097D01*
X67534793Y-71070326D01*
X67394140Y-70929673D01*
X67210369Y-70853553D01*
X67011457Y-70853553D01*
X66827686Y-70929673D01*
X66687033Y-71070326D01*
X66610913Y-71254097D01*
X400000Y-71254097D01*
X400000Y-69839884D01*
X10974874Y-69839884D01*
X10974874Y-70038796D01*
X11050994Y-70222567D01*
X11191647Y-70363220D01*
X11375418Y-70439340D01*
X11574330Y-70439340D01*
X11667992Y-70400544D01*
X24500000Y-70400544D01*
X24500000Y-70599456D01*
X24576120Y-70783227D01*
X24716773Y-70923880D01*
X24900544Y-71000000D01*
X25099456Y-71000000D01*
X25283227Y-70923880D01*
X25423880Y-70783227D01*
X25500000Y-70599456D01*
X25500000Y-70400544D01*
X26500000Y-70400544D01*
X26500000Y-70599456D01*
X26576120Y-70783227D01*
X26716773Y-70923880D01*
X26900544Y-71000000D01*
X27099456Y-71000000D01*
X27283227Y-70923880D01*
X27423880Y-70783227D01*
X27500000Y-70599456D01*
X27500000Y-70400544D01*
X28500000Y-70400544D01*
X28500000Y-70599456D01*
X28576120Y-70783227D01*
X28716773Y-70923880D01*
X28900544Y-71000000D01*
X29099456Y-71000000D01*
X29283227Y-70923880D01*
X29423880Y-70783227D01*
X29500000Y-70599456D01*
X29500000Y-70400544D01*
X30500000Y-70400544D01*
X30500000Y-70599456D01*
X30576120Y-70783227D01*
X30716773Y-70923880D01*
X30900544Y-71000000D01*
X31099456Y-71000000D01*
X31283227Y-70923880D01*
X31423880Y-70783227D01*
X31500000Y-70599456D01*
X31500000Y-70400544D01*
X44400000Y-70400544D01*
X44400000Y-70599456D01*
X44476120Y-70783227D01*
X44616773Y-70923880D01*
X44800544Y-71000000D01*
X44999456Y-71000000D01*
X45183227Y-70923880D01*
X45323880Y-70783227D01*
X45400000Y-70599456D01*
X45400000Y-70400544D01*
X46400000Y-70400544D01*
X46400000Y-70599456D01*
X46476120Y-70783227D01*
X46616773Y-70923880D01*
X46800544Y-71000000D01*
X46999456Y-71000000D01*
X47183227Y-70923880D01*
X47323880Y-70783227D01*
X47400000Y-70599456D01*
X47400000Y-70400544D01*
X48400000Y-70400544D01*
X48400000Y-70599456D01*
X48476120Y-70783227D01*
X48616773Y-70923880D01*
X48800544Y-71000000D01*
X48999456Y-71000000D01*
X49183227Y-70923880D01*
X49323880Y-70783227D01*
X49400000Y-70599456D01*
X49400000Y-70400544D01*
X50400000Y-70400544D01*
X50400000Y-70599456D01*
X50476120Y-70783227D01*
X50616773Y-70923880D01*
X50800544Y-71000000D01*
X50999456Y-71000000D01*
X51183227Y-70923880D01*
X51323880Y-70783227D01*
X51400000Y-70599456D01*
X51400000Y-70400544D01*
X51323880Y-70216773D01*
X51183227Y-70076120D01*
X50999456Y-70000000D01*
X50800544Y-70000000D01*
X50616773Y-70076120D01*
X50476120Y-70216773D01*
X50400000Y-70400544D01*
X49400000Y-70400544D01*
X49323880Y-70216773D01*
X49183227Y-70076120D01*
X48999456Y-70000000D01*
X48800544Y-70000000D01*
X48616773Y-70076120D01*
X48476120Y-70216773D01*
X48400000Y-70400544D01*
X47400000Y-70400544D01*
X47323880Y-70216773D01*
X47183227Y-70076120D01*
X46999456Y-70000000D01*
X46800544Y-70000000D01*
X46616773Y-70076120D01*
X46476120Y-70216773D01*
X46400000Y-70400544D01*
X45400000Y-70400544D01*
X45323880Y-70216773D01*
X45183227Y-70076120D01*
X44999456Y-70000000D01*
X44800544Y-70000000D01*
X44616773Y-70076120D01*
X44476120Y-70216773D01*
X44400000Y-70400544D01*
X31500000Y-70400544D01*
X31423880Y-70216773D01*
X31283227Y-70076120D01*
X31099456Y-70000000D01*
X30900544Y-70000000D01*
X30716773Y-70076120D01*
X30576120Y-70216773D01*
X30500000Y-70400544D01*
X29500000Y-70400544D01*
X29423880Y-70216773D01*
X29283227Y-70076120D01*
X29099456Y-70000000D01*
X28900544Y-70000000D01*
X28716773Y-70076120D01*
X28576120Y-70216773D01*
X28500000Y-70400544D01*
X27500000Y-70400544D01*
X27423880Y-70216773D01*
X27283227Y-70076120D01*
X27099456Y-70000000D01*
X26900544Y-70000000D01*
X26716773Y-70076120D01*
X26576120Y-70216773D01*
X26500000Y-70400544D01*
X25500000Y-70400544D01*
X25423880Y-70216773D01*
X25283227Y-70076120D01*
X25099456Y-70000000D01*
X24900544Y-70000000D01*
X24716773Y-70076120D01*
X24576120Y-70216773D01*
X24500000Y-70400544D01*
X11667992Y-70400544D01*
X11758101Y-70363220D01*
X11898754Y-70222567D01*
X11974874Y-70038796D01*
X11974874Y-69839884D01*
X68025126Y-69839884D01*
X68025126Y-70038796D01*
X68101246Y-70222567D01*
X68241899Y-70363220D01*
X68425670Y-70439340D01*
X68624582Y-70439340D01*
X68808353Y-70363220D01*
X68949006Y-70222567D01*
X69025126Y-70038796D01*
X69025126Y-69920157D01*
X72469613Y-69920157D01*
X72469613Y-70119069D01*
X72545733Y-70302840D01*
X72686386Y-70443493D01*
X72870157Y-70519613D01*
X73069069Y-70519613D01*
X73252840Y-70443493D01*
X73393493Y-70302840D01*
X73469613Y-70119069D01*
X73469613Y-69920157D01*
X73393493Y-69736386D01*
X73252840Y-69595733D01*
X73069069Y-69519613D01*
X72870157Y-69519613D01*
X72686386Y-69595733D01*
X72545733Y-69736386D01*
X72469613Y-69920157D01*
X69025126Y-69920157D01*
X69025126Y-69839884D01*
X68949006Y-69656113D01*
X68808353Y-69515460D01*
X68624582Y-69439340D01*
X68425670Y-69439340D01*
X68241899Y-69515460D01*
X68101246Y-69656113D01*
X68025126Y-69839884D01*
X11974874Y-69839884D01*
X11898754Y-69656113D01*
X11758101Y-69515460D01*
X11574330Y-69439340D01*
X11375418Y-69439340D01*
X11191647Y-69515460D01*
X11050994Y-69656113D01*
X10974874Y-69839884D01*
X400000Y-69839884D01*
X400000Y-68425670D01*
X9560660Y-68425670D01*
X9560660Y-68624582D01*
X9636780Y-68808353D01*
X9777433Y-68949006D01*
X9961204Y-69025126D01*
X10160116Y-69025126D01*
X10343887Y-68949006D01*
X10484540Y-68808353D01*
X10560660Y-68624582D01*
X10560660Y-68425670D01*
X69439340Y-68425670D01*
X69439340Y-68624582D01*
X69515460Y-68808353D01*
X69656113Y-68949006D01*
X69839884Y-69025126D01*
X70038796Y-69025126D01*
X70222567Y-68949006D01*
X70363220Y-68808353D01*
X70439340Y-68624582D01*
X70439340Y-68425670D01*
X70363220Y-68241899D01*
X70222567Y-68101246D01*
X70038796Y-68025126D01*
X69839884Y-68025126D01*
X69656113Y-68101246D01*
X69515460Y-68241899D01*
X69439340Y-68425670D01*
X10560660Y-68425670D01*
X10484540Y-68241899D01*
X10343887Y-68101246D01*
X10160116Y-68025126D01*
X9961204Y-68025126D01*
X9777433Y-68101246D01*
X9636780Y-68241899D01*
X9560660Y-68425670D01*
X400000Y-68425670D01*
X400000Y-67011457D01*
X8146447Y-67011457D01*
X8146447Y-67210369D01*
X8222567Y-67394140D01*
X8363220Y-67534793D01*
X8546991Y-67610913D01*
X8745903Y-67610913D01*
X8929674Y-67534793D01*
X9070327Y-67394140D01*
X9146447Y-67210369D01*
X9146447Y-67011457D01*
X9070327Y-66827686D01*
X8929674Y-66687033D01*
X8745903Y-66610913D01*
X8546991Y-66610913D01*
X8363220Y-66687033D01*
X8222567Y-66827686D01*
X8146447Y-67011457D01*
X400000Y-67011457D01*
X400000Y-65597243D01*
X6732233Y-65597243D01*
X6732233Y-65796155D01*
X6808353Y-65979926D01*
X6949006Y-66120579D01*
X7132777Y-66196699D01*
X7331689Y-66196699D01*
X7515460Y-66120579D01*
X7656113Y-65979926D01*
X7732233Y-65796155D01*
X7732233Y-65597243D01*
X7656113Y-65413472D01*
X7515460Y-65272819D01*
X7331689Y-65196699D01*
X7132777Y-65196699D01*
X6949006Y-65272819D01*
X6808353Y-65413472D01*
X6732233Y-65597243D01*
X400000Y-65597243D01*
X400000Y-65100544D01*
X59450000Y-65100544D01*
X59450000Y-65299456D01*
X59526120Y-65483227D01*
X59666773Y-65623880D01*
X59850544Y-65700000D01*
X60049456Y-65700000D01*
X60233227Y-65623880D01*
X60373880Y-65483227D01*
X60450000Y-65299456D01*
X60450000Y-65100544D01*
X60373880Y-64916773D01*
X60233227Y-64776120D01*
X60049456Y-64700000D01*
X59850544Y-64700000D01*
X59666773Y-64776120D01*
X59526120Y-64916773D01*
X59450000Y-65100544D01*
X400000Y-65100544D01*
X400000Y-62400544D01*
X25950000Y-62400544D01*
X25950000Y-62599456D01*
X26026120Y-62783227D01*
X26166773Y-62923880D01*
X26350544Y-63000000D01*
X26549456Y-63000000D01*
X26733227Y-62923880D01*
X26873880Y-62783227D01*
X26950000Y-62599456D01*
X26950000Y-62400544D01*
X26873880Y-62216773D01*
X26733227Y-62076120D01*
X26549456Y-62000000D01*
X26350544Y-62000000D01*
X26166773Y-62076120D01*
X26026120Y-62216773D01*
X25950000Y-62400544D01*
X400000Y-62400544D01*
X400000Y-61895157D01*
X55905387Y-61895157D01*
X55905387Y-62094069D01*
X55981507Y-62277840D01*
X56122160Y-62418493D01*
X56305931Y-62494613D01*
X56504843Y-62494613D01*
X56688614Y-62418493D01*
X56747273Y-62359834D01*
X56806507Y-62502840D01*
X56947160Y-62643493D01*
X57130931Y-62719613D01*
X57329843Y-62719613D01*
X57513614Y-62643493D01*
X57654267Y-62502840D01*
X57730387Y-62319069D01*
X57730387Y-62120157D01*
X57724233Y-62105299D01*
X57845157Y-62155387D01*
X58044069Y-62155387D01*
X58227840Y-62079267D01*
X58306563Y-62000544D01*
X59100000Y-62000544D01*
X59100000Y-62199456D01*
X59176120Y-62383227D01*
X59316773Y-62523880D01*
X59500544Y-62600000D01*
X59699456Y-62600000D01*
X59883227Y-62523880D01*
X60023880Y-62383227D01*
X60100000Y-62199456D01*
X60100000Y-62000544D01*
X60023880Y-61816773D01*
X59883227Y-61676120D01*
X59699456Y-61600000D01*
X59500544Y-61600000D01*
X59316773Y-61676120D01*
X59176120Y-61816773D01*
X59100000Y-62000544D01*
X58306563Y-62000544D01*
X58368493Y-61938614D01*
X58444613Y-61754843D01*
X58444613Y-61555931D01*
X58368493Y-61372160D01*
X58269477Y-61273144D01*
X58300000Y-61199456D01*
X58300000Y-61000544D01*
X58223880Y-60816773D01*
X58083227Y-60676120D01*
X57899456Y-60600000D01*
X57700544Y-60600000D01*
X57516773Y-60676120D01*
X57376120Y-60816773D01*
X57300000Y-61000544D01*
X57300000Y-61199456D01*
X57376120Y-61383227D01*
X57475136Y-61482243D01*
X57444613Y-61555931D01*
X57444613Y-61754843D01*
X57450767Y-61769701D01*
X57329843Y-61719613D01*
X57130931Y-61719613D01*
X56947160Y-61795733D01*
X56888501Y-61854392D01*
X56829267Y-61711386D01*
X56688614Y-61570733D01*
X56504843Y-61494613D01*
X56305931Y-61494613D01*
X56122160Y-61570733D01*
X55981507Y-61711386D01*
X55905387Y-61895157D01*
X400000Y-61895157D01*
X400000Y-60750544D01*
X27750000Y-60750544D01*
X27750000Y-60949456D01*
X27826120Y-61133227D01*
X27966773Y-61273880D01*
X28150544Y-61350000D01*
X28349456Y-61350000D01*
X28533227Y-61273880D01*
X28673880Y-61133227D01*
X28750000Y-60949456D01*
X28750000Y-60750544D01*
X28673880Y-60566773D01*
X28533227Y-60426120D01*
X28349456Y-60350000D01*
X28150544Y-60350000D01*
X27966773Y-60426120D01*
X27826120Y-60566773D01*
X27750000Y-60750544D01*
X400000Y-60750544D01*
X400000Y-57646544D01*
X24700000Y-57646544D01*
X24700000Y-57845456D01*
X24776120Y-58029227D01*
X24916773Y-58169880D01*
X25100544Y-58246000D01*
X25200000Y-58246000D01*
X25200000Y-58297456D01*
X25276120Y-58481227D01*
X25416773Y-58621880D01*
X25600544Y-58698000D01*
X25799456Y-58698000D01*
X25850000Y-58677064D01*
X25850000Y-58749456D01*
X25926120Y-58933227D01*
X26066773Y-59073880D01*
X26250544Y-59150000D01*
X26449456Y-59150000D01*
X26633227Y-59073880D01*
X26756563Y-58950544D01*
X44250000Y-58950544D01*
X44250000Y-59149456D01*
X44326120Y-59333227D01*
X44466773Y-59473880D01*
X44650544Y-59550000D01*
X44849456Y-59550000D01*
X44968854Y-59500544D01*
X46852000Y-59500544D01*
X46852000Y-59699456D01*
X46928120Y-59883227D01*
X47068773Y-60023880D01*
X47232649Y-60091759D01*
X47229010Y-60100544D01*
X47229010Y-60299456D01*
X47305130Y-60483227D01*
X47445783Y-60623880D01*
X47629554Y-60700000D01*
X47828466Y-60700000D01*
X48012237Y-60623880D01*
X48152890Y-60483227D01*
X48229010Y-60299456D01*
X48229010Y-60100544D01*
X48152890Y-59916773D01*
X48012237Y-59776120D01*
X47848361Y-59708241D01*
X47852000Y-59699456D01*
X47852000Y-59500544D01*
X47775880Y-59316773D01*
X47635227Y-59176120D01*
X47451456Y-59100000D01*
X47252544Y-59100000D01*
X47068773Y-59176120D01*
X46928120Y-59316773D01*
X46852000Y-59500544D01*
X44968854Y-59500544D01*
X45033227Y-59473880D01*
X45173880Y-59333227D01*
X45250000Y-59149456D01*
X45250000Y-58950544D01*
X45173880Y-58766773D01*
X45033227Y-58626120D01*
X44849456Y-58550000D01*
X44650544Y-58550000D01*
X44466773Y-58626120D01*
X44326120Y-58766773D01*
X44250000Y-58950544D01*
X26756563Y-58950544D01*
X26773880Y-58933227D01*
X26850000Y-58749456D01*
X26850000Y-58550544D01*
X26773880Y-58366773D01*
X26633227Y-58226120D01*
X26449456Y-58150000D01*
X26250544Y-58150000D01*
X26200000Y-58170936D01*
X26200000Y-58100544D01*
X45850000Y-58100544D01*
X45850000Y-58299456D01*
X45926120Y-58483227D01*
X46066773Y-58623880D01*
X46250544Y-58700000D01*
X46449456Y-58700000D01*
X46633227Y-58623880D01*
X46773880Y-58483227D01*
X46850000Y-58299456D01*
X46850000Y-58100544D01*
X46773880Y-57916773D01*
X46633227Y-57776120D01*
X46449456Y-57700000D01*
X46250544Y-57700000D01*
X46066773Y-57776120D01*
X45926120Y-57916773D01*
X45850000Y-58100544D01*
X26200000Y-58100544D01*
X26200000Y-58098544D01*
X26123880Y-57914773D01*
X25983227Y-57774120D01*
X25865339Y-57725289D01*
X25883227Y-57717880D01*
X26023880Y-57577227D01*
X26100000Y-57393456D01*
X26100000Y-57200544D01*
X27800000Y-57200544D01*
X27800000Y-57399456D01*
X27876120Y-57583227D01*
X28016773Y-57723880D01*
X28200544Y-57800000D01*
X28399456Y-57800000D01*
X28583227Y-57723880D01*
X28723880Y-57583227D01*
X28800000Y-57399456D01*
X28800000Y-57200544D01*
X28723880Y-57016773D01*
X28607651Y-56900544D01*
X29450000Y-56900544D01*
X29450000Y-57099456D01*
X29526120Y-57283227D01*
X29666773Y-57423880D01*
X29850544Y-57500000D01*
X30049456Y-57500000D01*
X30233227Y-57423880D01*
X30373880Y-57283227D01*
X30450000Y-57099456D01*
X30450000Y-56900544D01*
X30373880Y-56716773D01*
X30233227Y-56576120D01*
X30049456Y-56500000D01*
X29850544Y-56500000D01*
X29666773Y-56576120D01*
X29526120Y-56716773D01*
X29450000Y-56900544D01*
X28607651Y-56900544D01*
X28583227Y-56876120D01*
X28399456Y-56800000D01*
X28200544Y-56800000D01*
X28016773Y-56876120D01*
X27876120Y-57016773D01*
X27800000Y-57200544D01*
X26100000Y-57200544D01*
X26100000Y-57194544D01*
X26023880Y-57010773D01*
X25883227Y-56870120D01*
X25699456Y-56794000D01*
X25500544Y-56794000D01*
X25316773Y-56870120D01*
X25176120Y-57010773D01*
X25100000Y-57194544D01*
X25100000Y-57246225D01*
X24916773Y-57322120D01*
X24776120Y-57462773D01*
X24700000Y-57646544D01*
X400000Y-57646544D01*
X400000Y-55773765D01*
X31908708Y-55773765D01*
X31908708Y-55972677D01*
X31984828Y-56156448D01*
X32125481Y-56297101D01*
X32309252Y-56373221D01*
X32508164Y-56373221D01*
X32691935Y-56297101D01*
X32740965Y-56248072D01*
X32866773Y-56373880D01*
X33050544Y-56450000D01*
X33249456Y-56450000D01*
X33433227Y-56373880D01*
X33573880Y-56233227D01*
X33650000Y-56049456D01*
X33650000Y-55950544D01*
X43300000Y-55950544D01*
X43300000Y-56149456D01*
X43376120Y-56333227D01*
X43516773Y-56473880D01*
X43700544Y-56550000D01*
X43899456Y-56550000D01*
X44078785Y-56475720D01*
X44166773Y-56563708D01*
X44350544Y-56639828D01*
X44549456Y-56639828D01*
X44733227Y-56563708D01*
X44873880Y-56423055D01*
X44919582Y-56312720D01*
X44981648Y-56312720D01*
X45165419Y-56236600D01*
X45197456Y-56204563D01*
X45266773Y-56273880D01*
X45450544Y-56350000D01*
X45649456Y-56350000D01*
X45833227Y-56273880D01*
X45973880Y-56133227D01*
X46050000Y-55949456D01*
X46050000Y-55750544D01*
X45973880Y-55566773D01*
X45833227Y-55426120D01*
X45649456Y-55350000D01*
X45450544Y-55350000D01*
X45266773Y-55426120D01*
X45234736Y-55458157D01*
X45165419Y-55388840D01*
X44981648Y-55312720D01*
X44782736Y-55312720D01*
X44598965Y-55388840D01*
X44458312Y-55529493D01*
X44412610Y-55639828D01*
X44350544Y-55639828D01*
X44171215Y-55714108D01*
X44083227Y-55626120D01*
X43899456Y-55550000D01*
X43700544Y-55550000D01*
X43516773Y-55626120D01*
X43376120Y-55766773D01*
X43300000Y-55950544D01*
X33650000Y-55950544D01*
X33650000Y-55850544D01*
X33573880Y-55666773D01*
X33433227Y-55526120D01*
X33249456Y-55450000D01*
X33050544Y-55450000D01*
X32866773Y-55526120D01*
X32817744Y-55575150D01*
X32691935Y-55449341D01*
X32508164Y-55373221D01*
X32309252Y-55373221D01*
X32125481Y-55449341D01*
X31984828Y-55589994D01*
X31908708Y-55773765D01*
X400000Y-55773765D01*
X400000Y-54000544D01*
X32250000Y-54000544D01*
X32250000Y-54199456D01*
X32326120Y-54383227D01*
X32466773Y-54523880D01*
X32650544Y-54600000D01*
X32849456Y-54600000D01*
X32962438Y-54553201D01*
X32966773Y-54557536D01*
X33150544Y-54633656D01*
X33349456Y-54633656D01*
X33533227Y-54557536D01*
X33673880Y-54416883D01*
X33701358Y-54350544D01*
X33750000Y-54350544D01*
X33750000Y-54549456D01*
X33826120Y-54733227D01*
X33966773Y-54873880D01*
X34150544Y-54950000D01*
X34349456Y-54950000D01*
X34533227Y-54873880D01*
X34673880Y-54733227D01*
X34750000Y-54549456D01*
X34750000Y-54350544D01*
X34673880Y-54166773D01*
X34533227Y-54026120D01*
X34349456Y-53950000D01*
X34150544Y-53950000D01*
X33966773Y-54026120D01*
X33826120Y-54166773D01*
X33750000Y-54350544D01*
X33701358Y-54350544D01*
X33750000Y-54233112D01*
X33750000Y-54034200D01*
X33673880Y-53850429D01*
X33533227Y-53709776D01*
X33349456Y-53633656D01*
X33150544Y-53633656D01*
X33037562Y-53680455D01*
X33033227Y-53676120D01*
X32849456Y-53600000D01*
X32650544Y-53600000D01*
X32466773Y-53676120D01*
X32326120Y-53816773D01*
X32250000Y-54000544D01*
X400000Y-54000544D01*
X400000Y-52400544D01*
X3500000Y-52400544D01*
X3500000Y-52599456D01*
X3576120Y-52783227D01*
X3716773Y-52923880D01*
X3900544Y-53000000D01*
X4099456Y-53000000D01*
X4283227Y-52923880D01*
X4423880Y-52783227D01*
X4500000Y-52599456D01*
X4500000Y-52400544D01*
X5500000Y-52400544D01*
X5500000Y-52599456D01*
X5576120Y-52783227D01*
X5716773Y-52923880D01*
X5900544Y-53000000D01*
X6099456Y-53000000D01*
X6283227Y-52923880D01*
X6423880Y-52783227D01*
X6500000Y-52599456D01*
X6500000Y-52400544D01*
X7500000Y-52400544D01*
X7500000Y-52599456D01*
X7576120Y-52783227D01*
X7716773Y-52923880D01*
X7900544Y-53000000D01*
X8099456Y-53000000D01*
X8283227Y-52923880D01*
X8423880Y-52783227D01*
X8500000Y-52599456D01*
X8500000Y-52400544D01*
X9500000Y-52400544D01*
X9500000Y-52599456D01*
X9576120Y-52783227D01*
X9716773Y-52923880D01*
X9900544Y-53000000D01*
X10099456Y-53000000D01*
X10283227Y-52923880D01*
X10423880Y-52783227D01*
X10500000Y-52599456D01*
X10500000Y-52520544D01*
X28750000Y-52520544D01*
X28750000Y-52719456D01*
X28826120Y-52903227D01*
X28966773Y-53043880D01*
X29150544Y-53120000D01*
X29349456Y-53120000D01*
X29533227Y-53043880D01*
X29673880Y-52903227D01*
X29750000Y-52719456D01*
X29750000Y-52550544D01*
X31750000Y-52550544D01*
X31750000Y-52749456D01*
X31826120Y-52933227D01*
X31966773Y-53073880D01*
X32150544Y-53150000D01*
X32349456Y-53150000D01*
X32500000Y-53087643D01*
X32650544Y-53150000D01*
X32849456Y-53150000D01*
X33000000Y-53087643D01*
X33150544Y-53150000D01*
X33349456Y-53150000D01*
X33533227Y-53073880D01*
X33673880Y-52933227D01*
X33728146Y-52802217D01*
X33803122Y-52983227D01*
X33943775Y-53123880D01*
X34127546Y-53200000D01*
X34326458Y-53200000D01*
X34510229Y-53123880D01*
X34650882Y-52983227D01*
X34727002Y-52799456D01*
X34727002Y-52600544D01*
X34685581Y-52500544D01*
X43250000Y-52500544D01*
X43250000Y-52699456D01*
X43326120Y-52883227D01*
X43466773Y-53023880D01*
X43650544Y-53100000D01*
X43849456Y-53100000D01*
X44000000Y-53037643D01*
X44150544Y-53100000D01*
X44349456Y-53100000D01*
X44500000Y-53037643D01*
X44650544Y-53100000D01*
X44849456Y-53100000D01*
X45000000Y-53037643D01*
X45150544Y-53100000D01*
X45349456Y-53100000D01*
X45533227Y-53023880D01*
X45673880Y-52883227D01*
X45750000Y-52699456D01*
X45750000Y-52550544D01*
X49750000Y-52550544D01*
X49750000Y-52749456D01*
X49826120Y-52933227D01*
X49966773Y-53073880D01*
X50150544Y-53150000D01*
X50349456Y-53150000D01*
X50525000Y-53077288D01*
X50700544Y-53150000D01*
X50899456Y-53150000D01*
X51083227Y-53073880D01*
X51223880Y-52933227D01*
X51300000Y-52749456D01*
X51300000Y-52550544D01*
X51237869Y-52400544D01*
X65500000Y-52400544D01*
X65500000Y-52599456D01*
X65576120Y-52783227D01*
X65716773Y-52923880D01*
X65900544Y-53000000D01*
X66099456Y-53000000D01*
X66283227Y-52923880D01*
X66423880Y-52783227D01*
X66500000Y-52599456D01*
X66500000Y-52400544D01*
X67500000Y-52400544D01*
X67500000Y-52599456D01*
X67576120Y-52783227D01*
X67716773Y-52923880D01*
X67900544Y-53000000D01*
X68099456Y-53000000D01*
X68283227Y-52923880D01*
X68423880Y-52783227D01*
X68500000Y-52599456D01*
X68500000Y-52400544D01*
X69500000Y-52400544D01*
X69500000Y-52599456D01*
X69576120Y-52783227D01*
X69716773Y-52923880D01*
X69900544Y-53000000D01*
X70099456Y-53000000D01*
X70283227Y-52923880D01*
X70423880Y-52783227D01*
X70500000Y-52599456D01*
X70500000Y-52400544D01*
X71500000Y-52400544D01*
X71500000Y-52599456D01*
X71576120Y-52783227D01*
X71716773Y-52923880D01*
X71900544Y-53000000D01*
X72099456Y-53000000D01*
X72283227Y-52923880D01*
X72423880Y-52783227D01*
X72500000Y-52599456D01*
X72500000Y-52400544D01*
X72423880Y-52216773D01*
X72283227Y-52076120D01*
X72099456Y-52000000D01*
X71900544Y-52000000D01*
X71716773Y-52076120D01*
X71576120Y-52216773D01*
X71500000Y-52400544D01*
X70500000Y-52400544D01*
X70423880Y-52216773D01*
X70283227Y-52076120D01*
X70099456Y-52000000D01*
X69900544Y-52000000D01*
X69716773Y-52076120D01*
X69576120Y-52216773D01*
X69500000Y-52400544D01*
X68500000Y-52400544D01*
X68423880Y-52216773D01*
X68283227Y-52076120D01*
X68099456Y-52000000D01*
X67900544Y-52000000D01*
X67716773Y-52076120D01*
X67576120Y-52216773D01*
X67500000Y-52400544D01*
X66500000Y-52400544D01*
X66423880Y-52216773D01*
X66283227Y-52076120D01*
X66099456Y-52000000D01*
X65900544Y-52000000D01*
X65716773Y-52076120D01*
X65576120Y-52216773D01*
X65500000Y-52400544D01*
X51237869Y-52400544D01*
X51223880Y-52366773D01*
X51083227Y-52226120D01*
X50899456Y-52150000D01*
X50700544Y-52150000D01*
X50525000Y-52222712D01*
X50349456Y-52150000D01*
X50150544Y-52150000D01*
X49966773Y-52226120D01*
X49826120Y-52366773D01*
X49750000Y-52550544D01*
X45750000Y-52550544D01*
X45750000Y-52500544D01*
X45673880Y-52316773D01*
X45533227Y-52176120D01*
X45349456Y-52100000D01*
X45150544Y-52100000D01*
X45000000Y-52162357D01*
X44849456Y-52100000D01*
X44650544Y-52100000D01*
X44500000Y-52162357D01*
X44349456Y-52100000D01*
X44150544Y-52100000D01*
X44000000Y-52162357D01*
X43849456Y-52100000D01*
X43650544Y-52100000D01*
X43466773Y-52176120D01*
X43326120Y-52316773D01*
X43250000Y-52500544D01*
X34685581Y-52500544D01*
X34650882Y-52416773D01*
X34510229Y-52276120D01*
X34326458Y-52200000D01*
X34127546Y-52200000D01*
X33943775Y-52276120D01*
X33803122Y-52416773D01*
X33748856Y-52547783D01*
X33673880Y-52366773D01*
X33533227Y-52226120D01*
X33349456Y-52150000D01*
X33150544Y-52150000D01*
X33000000Y-52212357D01*
X32849456Y-52150000D01*
X32650544Y-52150000D01*
X32500000Y-52212357D01*
X32349456Y-52150000D01*
X32150544Y-52150000D01*
X31966773Y-52226120D01*
X31826120Y-52366773D01*
X31750000Y-52550544D01*
X29750000Y-52550544D01*
X29750000Y-52520544D01*
X29673880Y-52336773D01*
X29533227Y-52196120D01*
X29349456Y-52120000D01*
X29150544Y-52120000D01*
X28966773Y-52196120D01*
X28826120Y-52336773D01*
X28750000Y-52520544D01*
X10500000Y-52520544D01*
X10500000Y-52400544D01*
X10423880Y-52216773D01*
X10283227Y-52076120D01*
X10099456Y-52000000D01*
X9900544Y-52000000D01*
X9716773Y-52076120D01*
X9576120Y-52216773D01*
X9500000Y-52400544D01*
X8500000Y-52400544D01*
X8423880Y-52216773D01*
X8283227Y-52076120D01*
X8099456Y-52000000D01*
X7900544Y-52000000D01*
X7716773Y-52076120D01*
X7576120Y-52216773D01*
X7500000Y-52400544D01*
X6500000Y-52400544D01*
X6423880Y-52216773D01*
X6283227Y-52076120D01*
X6099456Y-52000000D01*
X5900544Y-52000000D01*
X5716773Y-52076120D01*
X5576120Y-52216773D01*
X5500000Y-52400544D01*
X4500000Y-52400544D01*
X4423880Y-52216773D01*
X4283227Y-52076120D01*
X4099456Y-52000000D01*
X3900544Y-52000000D01*
X3716773Y-52076120D01*
X3576120Y-52216773D01*
X3500000Y-52400544D01*
X400000Y-52400544D01*
X400000Y-50650544D01*
X26880000Y-50650544D01*
X26880000Y-50849456D01*
X26956120Y-51033227D01*
X27096773Y-51173880D01*
X27280544Y-51250000D01*
X27479456Y-51250000D01*
X27663227Y-51173880D01*
X27803880Y-51033227D01*
X27880000Y-50849456D01*
X27880000Y-50650544D01*
X27803880Y-50466773D01*
X27663227Y-50326120D01*
X27479456Y-50250000D01*
X27280544Y-50250000D01*
X27096773Y-50326120D01*
X26956120Y-50466773D01*
X26880000Y-50650544D01*
X400000Y-50650544D01*
X400000Y-49650544D01*
X6600000Y-49650544D01*
X6600000Y-49849456D01*
X6676120Y-50033227D01*
X6816773Y-50173880D01*
X7000544Y-50250000D01*
X7199456Y-50250000D01*
X7383227Y-50173880D01*
X7523880Y-50033227D01*
X7578838Y-49900544D01*
X10500000Y-49900544D01*
X10500000Y-50099456D01*
X10576120Y-50283227D01*
X10716773Y-50423880D01*
X10900544Y-50500000D01*
X11099456Y-50500000D01*
X11283227Y-50423880D01*
X11423880Y-50283227D01*
X11500000Y-50099456D01*
X11500000Y-50000544D01*
X69500000Y-50000544D01*
X69500000Y-50199456D01*
X69576120Y-50383227D01*
X69716773Y-50523880D01*
X69900544Y-50600000D01*
X70099456Y-50600000D01*
X70283227Y-50523880D01*
X70423880Y-50383227D01*
X70468821Y-50274728D01*
X70650544Y-50350000D01*
X70849456Y-50350000D01*
X71033227Y-50273880D01*
X71173880Y-50133227D01*
X71250000Y-49949456D01*
X71250000Y-49750544D01*
X71173880Y-49566773D01*
X71033227Y-49426120D01*
X70849456Y-49350000D01*
X70650544Y-49350000D01*
X70466773Y-49426120D01*
X70326120Y-49566773D01*
X70281179Y-49675272D01*
X70099456Y-49600000D01*
X69900544Y-49600000D01*
X69716773Y-49676120D01*
X69576120Y-49816773D01*
X69500000Y-50000544D01*
X11500000Y-50000544D01*
X11500000Y-49900544D01*
X11423880Y-49716773D01*
X11283227Y-49576120D01*
X11099456Y-49500000D01*
X10900544Y-49500000D01*
X10716773Y-49576120D01*
X10576120Y-49716773D01*
X10500000Y-49900544D01*
X7578838Y-49900544D01*
X7600000Y-49849456D01*
X7600000Y-49650544D01*
X7523880Y-49466773D01*
X7383227Y-49326120D01*
X7199456Y-49250000D01*
X7000544Y-49250000D01*
X6816773Y-49326120D01*
X6676120Y-49466773D01*
X6600000Y-49650544D01*
X400000Y-49650544D01*
X400000Y-48200544D01*
X49650000Y-48200544D01*
X49650000Y-48399456D01*
X49726120Y-48583227D01*
X49866773Y-48723880D01*
X50000000Y-48779064D01*
X50000000Y-48899456D01*
X50076120Y-49083227D01*
X50216773Y-49223880D01*
X50250000Y-49237643D01*
X50250000Y-49349456D01*
X50326120Y-49533227D01*
X50466773Y-49673880D01*
X50650544Y-49750000D01*
X50849456Y-49750000D01*
X51033227Y-49673880D01*
X51173880Y-49533227D01*
X51250000Y-49349456D01*
X51250000Y-49150544D01*
X51173880Y-48966773D01*
X51033227Y-48826120D01*
X51000000Y-48812357D01*
X51000000Y-48700544D01*
X50967274Y-48621534D01*
X66400000Y-48621534D01*
X66400000Y-48820446D01*
X66476120Y-49004217D01*
X66616773Y-49144870D01*
X66800544Y-49220990D01*
X66999456Y-49220990D01*
X67072990Y-49190531D01*
X67072990Y-49272446D01*
X67149110Y-49456217D01*
X67289763Y-49596870D01*
X67473534Y-49672990D01*
X67672446Y-49672990D01*
X67856217Y-49596870D01*
X67996870Y-49456217D01*
X68072990Y-49272446D01*
X68072990Y-49073534D01*
X67996870Y-48889763D01*
X67856217Y-48749110D01*
X67672446Y-48672990D01*
X67473534Y-48672990D01*
X67400000Y-48703449D01*
X67400000Y-48621534D01*
X67323880Y-48437763D01*
X67183227Y-48297110D01*
X66999456Y-48220990D01*
X66800544Y-48220990D01*
X66616773Y-48297110D01*
X66476120Y-48437763D01*
X66400000Y-48621534D01*
X50967274Y-48621534D01*
X50923880Y-48516773D01*
X50783227Y-48376120D01*
X50650000Y-48320936D01*
X50650000Y-48200544D01*
X50573880Y-48016773D01*
X50433227Y-47876120D01*
X50249456Y-47800000D01*
X50050544Y-47800000D01*
X49866773Y-47876120D01*
X49726120Y-48016773D01*
X49650000Y-48200544D01*
X400000Y-48200544D01*
X400000Y-42174583D01*
X26293924Y-42174583D01*
X26293924Y-42373495D01*
X26370044Y-42557266D01*
X26510697Y-42697919D01*
X26694468Y-42774039D01*
X26893380Y-42774039D01*
X27077151Y-42697919D01*
X27217804Y-42557266D01*
X27293924Y-42373495D01*
X27293924Y-42213407D01*
X27437791Y-42272998D01*
X27636703Y-42272998D01*
X27820474Y-42196878D01*
X27961127Y-42056225D01*
X28037247Y-41872454D01*
X28037247Y-41673542D01*
X27961127Y-41489771D01*
X27862664Y-41391308D01*
X27880000Y-41349456D01*
X27880000Y-41150544D01*
X27803880Y-40966773D01*
X27737651Y-40900544D01*
X61000000Y-40900544D01*
X61000000Y-41099456D01*
X61076120Y-41283227D01*
X61216773Y-41423880D01*
X61400544Y-41500000D01*
X61599456Y-41500000D01*
X61783227Y-41423880D01*
X61923880Y-41283227D01*
X62000000Y-41099456D01*
X62000000Y-40900544D01*
X70000000Y-40900544D01*
X70000000Y-41099456D01*
X70076120Y-41283227D01*
X70216773Y-41423880D01*
X70400544Y-41500000D01*
X70599456Y-41500000D01*
X70783227Y-41423880D01*
X70923880Y-41283227D01*
X71000000Y-41099456D01*
X71000000Y-40900544D01*
X70923880Y-40716773D01*
X70783227Y-40576120D01*
X70599456Y-40500000D01*
X70400544Y-40500000D01*
X70216773Y-40576120D01*
X70076120Y-40716773D01*
X70000000Y-40900544D01*
X62000000Y-40900544D01*
X61923880Y-40716773D01*
X61783227Y-40576120D01*
X61599456Y-40500000D01*
X61400544Y-40500000D01*
X61216773Y-40576120D01*
X61076120Y-40716773D01*
X61000000Y-40900544D01*
X27737651Y-40900544D01*
X27663227Y-40826120D01*
X27479456Y-40750000D01*
X27280544Y-40750000D01*
X27096773Y-40826120D01*
X26956120Y-40966773D01*
X26880000Y-41150544D01*
X26880000Y-41349456D01*
X26956120Y-41533227D01*
X27054583Y-41631690D01*
X27037247Y-41673542D01*
X27037247Y-41833630D01*
X26893380Y-41774039D01*
X26694468Y-41774039D01*
X26510697Y-41850159D01*
X26370044Y-41990812D01*
X26293924Y-42174583D01*
X400000Y-42174583D01*
X400000Y-40900544D01*
X7000000Y-40900544D01*
X7000000Y-41099456D01*
X7076120Y-41283227D01*
X7216773Y-41423880D01*
X7400544Y-41500000D01*
X7599456Y-41500000D01*
X7783227Y-41423880D01*
X7923880Y-41283227D01*
X8000000Y-41099456D01*
X8000000Y-40900544D01*
X7923880Y-40716773D01*
X7783227Y-40576120D01*
X7599456Y-40500000D01*
X7400544Y-40500000D01*
X7216773Y-40576120D01*
X7076120Y-40716773D01*
X7000000Y-40900544D01*
X400000Y-40900544D01*
X400000Y-38900544D01*
X7000000Y-38900544D01*
X7000000Y-39099456D01*
X7076120Y-39283227D01*
X7216773Y-39423880D01*
X7400544Y-39500000D01*
X7599456Y-39500000D01*
X7783227Y-39423880D01*
X7923880Y-39283227D01*
X8000000Y-39099456D01*
X8000000Y-38900544D01*
X7923880Y-38716773D01*
X7783227Y-38576120D01*
X7599456Y-38500000D01*
X7400544Y-38500000D01*
X7216773Y-38576120D01*
X7076120Y-38716773D01*
X7000000Y-38900544D01*
X400000Y-38900544D01*
X400000Y-38350544D01*
X20250000Y-38350544D01*
X20250000Y-38549456D01*
X20326120Y-38733227D01*
X20466773Y-38873880D01*
X20650544Y-38950000D01*
X20849456Y-38950000D01*
X21033227Y-38873880D01*
X21050000Y-38857107D01*
X21116773Y-38923880D01*
X21300544Y-39000000D01*
X21499456Y-39000000D01*
X21683227Y-38923880D01*
X21706563Y-38900544D01*
X61000000Y-38900544D01*
X61000000Y-39099456D01*
X61076120Y-39283227D01*
X61216773Y-39423880D01*
X61400544Y-39500000D01*
X61599456Y-39500000D01*
X61783227Y-39423880D01*
X61923880Y-39283227D01*
X62000000Y-39099456D01*
X62000000Y-38900544D01*
X70000000Y-38900544D01*
X70000000Y-39099456D01*
X70076120Y-39283227D01*
X70216773Y-39423880D01*
X70400544Y-39500000D01*
X70599456Y-39500000D01*
X70783227Y-39423880D01*
X70923880Y-39283227D01*
X71000000Y-39099456D01*
X71000000Y-38900544D01*
X70923880Y-38716773D01*
X70783227Y-38576120D01*
X70599456Y-38500000D01*
X70400544Y-38500000D01*
X70216773Y-38576120D01*
X70076120Y-38716773D01*
X70000000Y-38900544D01*
X62000000Y-38900544D01*
X61923880Y-38716773D01*
X61783227Y-38576120D01*
X61599456Y-38500000D01*
X61400544Y-38500000D01*
X61216773Y-38576120D01*
X61076120Y-38716773D01*
X61000000Y-38900544D01*
X21706563Y-38900544D01*
X21823880Y-38783227D01*
X21900000Y-38599456D01*
X21900000Y-38400544D01*
X21823880Y-38216773D01*
X21683227Y-38076120D01*
X21499456Y-38000000D01*
X21300544Y-38000000D01*
X21116773Y-38076120D01*
X21100000Y-38092893D01*
X21033227Y-38026120D01*
X20849456Y-37950000D01*
X20650544Y-37950000D01*
X20466773Y-38026120D01*
X20326120Y-38166773D01*
X20250000Y-38350544D01*
X400000Y-38350544D01*
X400000Y-36900544D01*
X7000000Y-36900544D01*
X7000000Y-37099456D01*
X7076120Y-37283227D01*
X7216773Y-37423880D01*
X7400544Y-37500000D01*
X7599456Y-37500000D01*
X7783227Y-37423880D01*
X7923880Y-37283227D01*
X8000000Y-37099456D01*
X8000000Y-36900544D01*
X7971661Y-36832125D01*
X19185964Y-36832125D01*
X19185964Y-37031037D01*
X19262084Y-37214808D01*
X19402737Y-37355461D01*
X19586508Y-37431581D01*
X19785420Y-37431581D01*
X19969191Y-37355461D01*
X20109844Y-37214808D01*
X20185964Y-37031037D01*
X20185964Y-36871143D01*
X20275464Y-36781643D01*
X20276120Y-36783227D01*
X20416773Y-36923880D01*
X20600544Y-37000000D01*
X20799456Y-37000000D01*
X20983227Y-36923880D01*
X21123880Y-36783227D01*
X21129289Y-36770167D01*
X21176120Y-36883227D01*
X21316773Y-37023880D01*
X21500544Y-37100000D01*
X21699456Y-37100000D01*
X21883227Y-37023880D01*
X22023880Y-36883227D01*
X22050000Y-36820167D01*
X22076120Y-36883227D01*
X22203712Y-37010819D01*
X22166773Y-37026120D01*
X22026120Y-37166773D01*
X21950000Y-37350544D01*
X21950000Y-37549456D01*
X22026120Y-37733227D01*
X22166773Y-37873880D01*
X22350544Y-37950000D01*
X22549456Y-37950000D01*
X22733227Y-37873880D01*
X22873880Y-37733227D01*
X22950000Y-37549456D01*
X22950000Y-37350544D01*
X22873880Y-37166773D01*
X22746288Y-37039181D01*
X22783227Y-37023880D01*
X22906563Y-36900544D01*
X61000000Y-36900544D01*
X61000000Y-37099456D01*
X61076120Y-37283227D01*
X61216773Y-37423880D01*
X61400544Y-37500000D01*
X61599456Y-37500000D01*
X61783227Y-37423880D01*
X61923880Y-37283227D01*
X62000000Y-37099456D01*
X62000000Y-36900544D01*
X70000000Y-36900544D01*
X70000000Y-37099456D01*
X70076120Y-37283227D01*
X70216773Y-37423880D01*
X70400544Y-37500000D01*
X70599456Y-37500000D01*
X70783227Y-37423880D01*
X70923880Y-37283227D01*
X71000000Y-37099456D01*
X71000000Y-36900544D01*
X70923880Y-36716773D01*
X70783227Y-36576120D01*
X70599456Y-36500000D01*
X70400544Y-36500000D01*
X70216773Y-36576120D01*
X70076120Y-36716773D01*
X70000000Y-36900544D01*
X62000000Y-36900544D01*
X61923880Y-36716773D01*
X61783227Y-36576120D01*
X61599456Y-36500000D01*
X61400544Y-36500000D01*
X61216773Y-36576120D01*
X61076120Y-36716773D01*
X61000000Y-36900544D01*
X22906563Y-36900544D01*
X22923880Y-36883227D01*
X23000000Y-36699456D01*
X23000000Y-36500544D01*
X22923880Y-36316773D01*
X22783227Y-36176120D01*
X22599456Y-36100000D01*
X22400544Y-36100000D01*
X22216773Y-36176120D01*
X22076120Y-36316773D01*
X22050000Y-36379833D01*
X22023880Y-36316773D01*
X21883227Y-36176120D01*
X21699456Y-36100000D01*
X21500544Y-36100000D01*
X21316773Y-36176120D01*
X21176120Y-36316773D01*
X21170711Y-36329833D01*
X21123880Y-36216773D01*
X20983227Y-36076120D01*
X20799456Y-36000000D01*
X20600544Y-36000000D01*
X20416773Y-36076120D01*
X20324536Y-36168357D01*
X20323880Y-36166773D01*
X20183227Y-36026120D01*
X19999456Y-35950000D01*
X19800544Y-35950000D01*
X19616773Y-36026120D01*
X19476120Y-36166773D01*
X19400000Y-36350544D01*
X19400000Y-36510438D01*
X19262084Y-36648354D01*
X19185964Y-36832125D01*
X7971661Y-36832125D01*
X7923880Y-36716773D01*
X7783227Y-36576120D01*
X7599456Y-36500000D01*
X7400544Y-36500000D01*
X7216773Y-36576120D01*
X7076120Y-36716773D01*
X7000000Y-36900544D01*
X400000Y-36900544D01*
X400000Y-35802543D01*
X54000000Y-35802543D01*
X54000000Y-36001455D01*
X54076120Y-36185226D01*
X54216773Y-36325879D01*
X54400544Y-36401999D01*
X54599456Y-36401999D01*
X54783227Y-36325879D01*
X54923880Y-36185226D01*
X55000000Y-36001455D01*
X55000000Y-35802543D01*
X54923880Y-35618772D01*
X54783227Y-35478119D01*
X54599456Y-35401999D01*
X54400544Y-35401999D01*
X54216773Y-35478119D01*
X54076120Y-35618772D01*
X54000000Y-35802543D01*
X400000Y-35802543D01*
X400000Y-34900544D01*
X7000000Y-34900544D01*
X7000000Y-35099456D01*
X7076120Y-35283227D01*
X7216773Y-35423880D01*
X7400544Y-35500000D01*
X7599456Y-35500000D01*
X7783227Y-35423880D01*
X7923880Y-35283227D01*
X7978838Y-35150544D01*
X53120000Y-35150544D01*
X53120000Y-35349456D01*
X53196120Y-35533227D01*
X53336773Y-35673880D01*
X53520544Y-35750000D01*
X53719456Y-35750000D01*
X53903227Y-35673880D01*
X54043880Y-35533227D01*
X54120000Y-35349456D01*
X54120000Y-35250069D01*
X54183227Y-35223880D01*
X54323880Y-35083227D01*
X54400000Y-34899456D01*
X54400000Y-34700544D01*
X54323880Y-34516773D01*
X54241038Y-34433931D01*
X54400544Y-34500000D01*
X54599456Y-34500000D01*
X54783227Y-34423880D01*
X54923880Y-34283227D01*
X55000000Y-34099456D01*
X55000000Y-33900544D01*
X54923880Y-33716773D01*
X54783227Y-33576120D01*
X54599456Y-33500000D01*
X54400544Y-33500000D01*
X54216773Y-33576120D01*
X54076120Y-33716773D01*
X54000000Y-33900544D01*
X54000000Y-34099456D01*
X54076120Y-34283227D01*
X54158962Y-34366069D01*
X53999456Y-34300000D01*
X53800544Y-34300000D01*
X53616773Y-34376120D01*
X53476120Y-34516773D01*
X53400000Y-34700544D01*
X53400000Y-34799931D01*
X53336773Y-34826120D01*
X53196120Y-34966773D01*
X53120000Y-35150544D01*
X7978838Y-35150544D01*
X8000000Y-35099456D01*
X8000000Y-34900544D01*
X7923880Y-34716773D01*
X7783227Y-34576120D01*
X7599456Y-34500000D01*
X7400544Y-34500000D01*
X7216773Y-34576120D01*
X7076120Y-34716773D01*
X7000000Y-34900544D01*
X400000Y-34900544D01*
X400000Y-33850544D01*
X16150000Y-33850544D01*
X16150000Y-34049456D01*
X16226120Y-34233227D01*
X16366773Y-34373880D01*
X16550544Y-34450000D01*
X16749456Y-34450000D01*
X16933227Y-34373880D01*
X17073880Y-34233227D01*
X17108128Y-34150544D01*
X17200000Y-34150544D01*
X17200000Y-34349456D01*
X17276120Y-34533227D01*
X17416773Y-34673880D01*
X17600544Y-34750000D01*
X17799456Y-34750000D01*
X17983227Y-34673880D01*
X18081852Y-34575255D01*
X18141086Y-34718261D01*
X18281739Y-34858914D01*
X18465510Y-34935034D01*
X18664422Y-34935034D01*
X18848193Y-34858914D01*
X18988846Y-34718261D01*
X19064966Y-34534490D01*
X19064966Y-34335578D01*
X18988846Y-34151807D01*
X18848193Y-34011154D01*
X18664422Y-33935034D01*
X18465510Y-33935034D01*
X18281739Y-34011154D01*
X18183114Y-34109779D01*
X18123880Y-33966773D01*
X17983227Y-33826120D01*
X17799456Y-33750000D01*
X17600544Y-33750000D01*
X17416773Y-33826120D01*
X17276120Y-33966773D01*
X17200000Y-34150544D01*
X17108128Y-34150544D01*
X17150000Y-34049456D01*
X17150000Y-33850544D01*
X17073880Y-33666773D01*
X17007651Y-33600544D01*
X18750000Y-33600544D01*
X18750000Y-33799456D01*
X18826120Y-33983227D01*
X18966773Y-34123880D01*
X19150544Y-34200000D01*
X19240893Y-34200000D01*
X19176120Y-34264773D01*
X19100000Y-34448544D01*
X19100000Y-34647456D01*
X19176120Y-34831227D01*
X19316773Y-34971880D01*
X19500544Y-35048000D01*
X19699456Y-35048000D01*
X19883227Y-34971880D01*
X20023880Y-34831227D01*
X20100000Y-34647456D01*
X20100000Y-34448544D01*
X20023880Y-34264773D01*
X19883227Y-34124120D01*
X19699456Y-34048000D01*
X19609107Y-34048000D01*
X19673880Y-33983227D01*
X19750000Y-33799456D01*
X19750000Y-33600544D01*
X19673880Y-33416773D01*
X19533227Y-33276120D01*
X19349456Y-33200000D01*
X19150544Y-33200000D01*
X18966773Y-33276120D01*
X18826120Y-33416773D01*
X18750000Y-33600544D01*
X17007651Y-33600544D01*
X16933227Y-33526120D01*
X16749456Y-33450000D01*
X16550544Y-33450000D01*
X16366773Y-33526120D01*
X16226120Y-33666773D01*
X16150000Y-33850544D01*
X400000Y-33850544D01*
X400000Y-33150544D01*
X52120000Y-33150544D01*
X52120000Y-33349456D01*
X52196120Y-33533227D01*
X52197869Y-33534976D01*
X52150000Y-33650544D01*
X52150000Y-33849456D01*
X52197869Y-33965024D01*
X52196120Y-33966773D01*
X52120000Y-34150544D01*
X52120000Y-34349456D01*
X52196120Y-34533227D01*
X52336773Y-34673880D01*
X52520544Y-34750000D01*
X52719456Y-34750000D01*
X52903227Y-34673880D01*
X53043880Y-34533227D01*
X53120000Y-34349456D01*
X53120000Y-34150544D01*
X53072131Y-34034976D01*
X53073880Y-34033227D01*
X53150000Y-33849456D01*
X53150000Y-33650544D01*
X53073880Y-33466773D01*
X53072131Y-33465024D01*
X53120000Y-33349456D01*
X53120000Y-33150544D01*
X53043880Y-32966773D01*
X52903227Y-32826120D01*
X52719456Y-32750000D01*
X52520544Y-32750000D01*
X52336773Y-32826120D01*
X52196120Y-32966773D01*
X52120000Y-33150544D01*
X400000Y-33150544D01*
X400000Y-31800544D01*
X13500000Y-31800544D01*
X13500000Y-31999456D01*
X13576120Y-32183227D01*
X13716773Y-32323880D01*
X13900544Y-32400000D01*
X14099456Y-32400000D01*
X14283227Y-32323880D01*
X14354563Y-32252544D01*
X14800000Y-32252544D01*
X14800000Y-32451456D01*
X14876120Y-32635227D01*
X15016773Y-32775880D01*
X15200544Y-32852000D01*
X15399456Y-32852000D01*
X15583227Y-32775880D01*
X15723880Y-32635227D01*
X15800000Y-32451456D01*
X15800000Y-32252544D01*
X15737040Y-32100544D01*
X25750000Y-32100544D01*
X25750000Y-32299456D01*
X25826120Y-32483227D01*
X25966773Y-32623880D01*
X26150544Y-32700000D01*
X26349456Y-32700000D01*
X26533227Y-32623880D01*
X26673880Y-32483227D01*
X26687417Y-32450544D01*
X54000000Y-32450544D01*
X54000000Y-32649456D01*
X54076120Y-32833227D01*
X54216773Y-32973880D01*
X54400544Y-33050000D01*
X54599456Y-33050000D01*
X54783227Y-32973880D01*
X54923880Y-32833227D01*
X55000000Y-32649456D01*
X55000000Y-32450544D01*
X54923880Y-32266773D01*
X54783227Y-32126120D01*
X54599456Y-32050000D01*
X54400544Y-32050000D01*
X54216773Y-32126120D01*
X54076120Y-32266773D01*
X54000000Y-32450544D01*
X26687417Y-32450544D01*
X26750000Y-32299456D01*
X26750000Y-32100544D01*
X26708579Y-32000544D01*
X73048000Y-32000544D01*
X73048000Y-32199456D01*
X73124120Y-32383227D01*
X73264773Y-32523880D01*
X73388188Y-32575000D01*
X73264773Y-32626120D01*
X73124120Y-32766773D01*
X73048000Y-32950544D01*
X73048000Y-33149456D01*
X73124120Y-33333227D01*
X73264773Y-33473880D01*
X73448544Y-33550000D01*
X73647456Y-33550000D01*
X73831227Y-33473880D01*
X73971880Y-33333227D01*
X74010355Y-33240339D01*
X74028120Y-33283227D01*
X74168773Y-33423880D01*
X74352544Y-33500000D01*
X74419891Y-33500000D01*
X74456972Y-33589523D01*
X74597625Y-33730176D01*
X74781396Y-33806296D01*
X74980308Y-33806296D01*
X75164079Y-33730176D01*
X75304732Y-33589523D01*
X75380852Y-33405752D01*
X75380852Y-33206840D01*
X75304732Y-33023069D01*
X75164079Y-32882416D01*
X74980308Y-32806296D01*
X74912961Y-32806296D01*
X74875880Y-32716773D01*
X74735227Y-32576120D01*
X74551456Y-32500000D01*
X74352544Y-32500000D01*
X74168773Y-32576120D01*
X74028120Y-32716773D01*
X73989645Y-32809661D01*
X73971880Y-32766773D01*
X73831227Y-32626120D01*
X73707812Y-32575000D01*
X73831227Y-32523880D01*
X73971880Y-32383227D01*
X74048000Y-32199456D01*
X74048000Y-32000544D01*
X73971880Y-31816773D01*
X73831227Y-31676120D01*
X73647456Y-31600000D01*
X73448544Y-31600000D01*
X73264773Y-31676120D01*
X73124120Y-31816773D01*
X73048000Y-32000544D01*
X26708579Y-32000544D01*
X26673880Y-31916773D01*
X26533227Y-31776120D01*
X26349456Y-31700000D01*
X26150544Y-31700000D01*
X25966773Y-31776120D01*
X25826120Y-31916773D01*
X25750000Y-32100544D01*
X15737040Y-32100544D01*
X15723880Y-32068773D01*
X15583227Y-31928120D01*
X15399456Y-31852000D01*
X15200544Y-31852000D01*
X15016773Y-31928120D01*
X14876120Y-32068773D01*
X14800000Y-32252544D01*
X14354563Y-32252544D01*
X14423880Y-32183227D01*
X14500000Y-31999456D01*
X14500000Y-31800544D01*
X14423880Y-31616773D01*
X14283227Y-31476120D01*
X14099456Y-31400000D01*
X13900544Y-31400000D01*
X13716773Y-31476120D01*
X13576120Y-31616773D01*
X13500000Y-31800544D01*
X400000Y-31800544D01*
X400000Y-30750544D01*
X12300000Y-30750544D01*
X12300000Y-30949456D01*
X12376120Y-31133227D01*
X12516773Y-31273880D01*
X12700544Y-31350000D01*
X12899456Y-31350000D01*
X13083227Y-31273880D01*
X13223880Y-31133227D01*
X13237417Y-31100544D01*
X52200000Y-31100544D01*
X52200000Y-31299456D01*
X52276120Y-31483227D01*
X52416773Y-31623880D01*
X52600544Y-31700000D01*
X52799456Y-31700000D01*
X52983227Y-31623880D01*
X53123880Y-31483227D01*
X53200000Y-31299456D01*
X53200000Y-31100544D01*
X53179290Y-31050544D01*
X53548000Y-31050544D01*
X53548000Y-31249456D01*
X53624120Y-31433227D01*
X53764773Y-31573880D01*
X53948544Y-31650000D01*
X54147456Y-31650000D01*
X54331227Y-31573880D01*
X54471880Y-31433227D01*
X54548000Y-31249456D01*
X54548000Y-31050544D01*
X54471880Y-30866773D01*
X54331227Y-30726120D01*
X54147456Y-30650000D01*
X53948544Y-30650000D01*
X53764773Y-30726120D01*
X53624120Y-30866773D01*
X53548000Y-31050544D01*
X53179290Y-31050544D01*
X53123880Y-30916773D01*
X52983227Y-30776120D01*
X52799456Y-30700000D01*
X52600544Y-30700000D01*
X52416773Y-30776120D01*
X52276120Y-30916773D01*
X52200000Y-31100544D01*
X13237417Y-31100544D01*
X13300000Y-30949456D01*
X13300000Y-30750544D01*
X13223880Y-30566773D01*
X13083227Y-30426120D01*
X12899456Y-30350000D01*
X12700544Y-30350000D01*
X12516773Y-30426120D01*
X12376120Y-30566773D01*
X12300000Y-30750544D01*
X400000Y-30750544D01*
X400000Y-29150544D01*
X26850000Y-29150544D01*
X26850000Y-29349456D01*
X26926120Y-29533227D01*
X27066773Y-29673880D01*
X27250544Y-29750000D01*
X27449456Y-29750000D01*
X27633227Y-29673880D01*
X27773880Y-29533227D01*
X27850000Y-29349456D01*
X27850000Y-29150544D01*
X27773880Y-28966773D01*
X27633227Y-28826120D01*
X27449456Y-28750000D01*
X27250544Y-28750000D01*
X27066773Y-28826120D01*
X26926120Y-28966773D01*
X26850000Y-29150544D01*
X400000Y-29150544D01*
X400000Y-27400544D01*
X7500000Y-27400544D01*
X7500000Y-27599456D01*
X7576120Y-27783227D01*
X7716773Y-27923880D01*
X7900544Y-28000000D01*
X8099456Y-28000000D01*
X8283227Y-27923880D01*
X8423880Y-27783227D01*
X8500000Y-27599456D01*
X8500000Y-27400544D01*
X9500000Y-27400544D01*
X9500000Y-27599456D01*
X9576120Y-27783227D01*
X9716773Y-27923880D01*
X9900544Y-28000000D01*
X10099456Y-28000000D01*
X10283227Y-27923880D01*
X10423880Y-27783227D01*
X10500000Y-27599456D01*
X10500000Y-27400544D01*
X11500000Y-27400544D01*
X11500000Y-27599456D01*
X11576120Y-27783227D01*
X11716773Y-27923880D01*
X11900544Y-28000000D01*
X12099456Y-28000000D01*
X12283227Y-27923880D01*
X12423880Y-27783227D01*
X12500000Y-27599456D01*
X12500000Y-27400544D01*
X13500000Y-27400544D01*
X13500000Y-27599456D01*
X13576120Y-27783227D01*
X13716773Y-27923880D01*
X13900544Y-28000000D01*
X14099456Y-28000000D01*
X14283227Y-27923880D01*
X14423880Y-27783227D01*
X14500000Y-27599456D01*
X14500000Y-27400544D01*
X14458579Y-27300544D01*
X28750000Y-27300544D01*
X28750000Y-27499456D01*
X28826120Y-27683227D01*
X28966773Y-27823880D01*
X29150544Y-27900000D01*
X29349456Y-27900000D01*
X29533227Y-27823880D01*
X29673880Y-27683227D01*
X29750000Y-27499456D01*
X29750000Y-27300544D01*
X36200000Y-27300544D01*
X36200000Y-27499456D01*
X36276120Y-27683227D01*
X36416773Y-27823880D01*
X36600544Y-27900000D01*
X36799456Y-27900000D01*
X36983227Y-27823880D01*
X37123880Y-27683227D01*
X37200000Y-27499456D01*
X37200000Y-27300544D01*
X38250000Y-27300544D01*
X38250000Y-27499456D01*
X38326120Y-27683227D01*
X38466773Y-27823880D01*
X38650544Y-27900000D01*
X38849456Y-27900000D01*
X39000000Y-27837643D01*
X39150544Y-27900000D01*
X39349456Y-27900000D01*
X39500000Y-27837643D01*
X39650544Y-27900000D01*
X39849456Y-27900000D01*
X40033227Y-27823880D01*
X40173880Y-27683227D01*
X40250000Y-27499456D01*
X40250000Y-27300544D01*
X40241716Y-27280544D01*
X46250000Y-27280544D01*
X46250000Y-27479456D01*
X46326120Y-27663227D01*
X46466773Y-27803880D01*
X46650544Y-27880000D01*
X46730872Y-27880000D01*
X46720652Y-27904674D01*
X46720652Y-28103586D01*
X46796772Y-28287357D01*
X46937425Y-28428010D01*
X47121196Y-28504130D01*
X47320108Y-28504130D01*
X47503879Y-28428010D01*
X47581345Y-28350544D01*
X54000000Y-28350544D01*
X54000000Y-28549456D01*
X54076120Y-28733227D01*
X54216773Y-28873880D01*
X54400544Y-28950000D01*
X54216773Y-29026120D01*
X54076120Y-29166773D01*
X54000000Y-29350544D01*
X54000000Y-29549456D01*
X54076120Y-29733227D01*
X54216773Y-29873880D01*
X54400544Y-29950000D01*
X54599456Y-29950000D01*
X54783227Y-29873880D01*
X54923880Y-29733227D01*
X55000000Y-29549456D01*
X55000000Y-29350544D01*
X54923880Y-29166773D01*
X54783227Y-29026120D01*
X54599456Y-28950000D01*
X54763499Y-28882051D01*
X54927545Y-28950001D01*
X55126457Y-28950001D01*
X55310228Y-28873881D01*
X55450881Y-28733228D01*
X55527001Y-28549457D01*
X55527001Y-28350545D01*
X55527001Y-28350544D01*
X55800000Y-28350544D01*
X55800000Y-28549456D01*
X55876120Y-28733227D01*
X56016773Y-28873880D01*
X56200544Y-28950000D01*
X56399456Y-28950000D01*
X56583227Y-28873880D01*
X56723880Y-28733227D01*
X56800000Y-28549456D01*
X56800000Y-28350544D01*
X56723880Y-28166773D01*
X56583227Y-28026120D01*
X56399456Y-27950000D01*
X56200544Y-27950000D01*
X56016773Y-28026120D01*
X55876120Y-28166773D01*
X55800000Y-28350544D01*
X55527001Y-28350544D01*
X55450881Y-28166774D01*
X55310228Y-28026121D01*
X55126457Y-27950001D01*
X54927545Y-27950001D01*
X54763502Y-28017950D01*
X54599456Y-27950000D01*
X54400544Y-27950000D01*
X54216773Y-28026120D01*
X54076120Y-28166773D01*
X54000000Y-28350544D01*
X47581345Y-28350544D01*
X47644532Y-28287357D01*
X47720652Y-28103586D01*
X47720652Y-27904674D01*
X47710432Y-27880000D01*
X47849456Y-27880000D01*
X48033227Y-27803880D01*
X48173880Y-27663227D01*
X48250000Y-27479456D01*
X48326120Y-27663227D01*
X48466773Y-27803880D01*
X48650544Y-27880000D01*
X48849456Y-27880000D01*
X49033227Y-27803880D01*
X49173880Y-27663227D01*
X49250000Y-27479456D01*
X49250000Y-27280544D01*
X49237574Y-27250544D01*
X50300000Y-27250544D01*
X50300000Y-27449456D01*
X50376120Y-27633227D01*
X50516773Y-27773880D01*
X50700544Y-27850000D01*
X50899456Y-27850000D01*
X51083227Y-27773880D01*
X51223880Y-27633227D01*
X51300000Y-27449456D01*
X51300000Y-27400544D01*
X69500000Y-27400544D01*
X69500000Y-27599456D01*
X69576120Y-27783227D01*
X69716773Y-27923880D01*
X69900544Y-28000000D01*
X70099456Y-28000000D01*
X70283227Y-27923880D01*
X70423880Y-27783227D01*
X70500000Y-27599456D01*
X70500000Y-27400544D01*
X71500000Y-27400544D01*
X71500000Y-27599456D01*
X71576120Y-27783227D01*
X71716773Y-27923880D01*
X71900544Y-28000000D01*
X72099456Y-28000000D01*
X72283227Y-27923880D01*
X72423880Y-27783227D01*
X72500000Y-27599456D01*
X72500000Y-27400544D01*
X73500000Y-27400544D01*
X73500000Y-27599456D01*
X73576120Y-27783227D01*
X73716773Y-27923880D01*
X73900544Y-28000000D01*
X74099456Y-28000000D01*
X74283227Y-27923880D01*
X74423880Y-27783227D01*
X74500000Y-27599456D01*
X74500000Y-27400544D01*
X75500000Y-27400544D01*
X75500000Y-27599456D01*
X75576120Y-27783227D01*
X75716773Y-27923880D01*
X75900544Y-28000000D01*
X76099456Y-28000000D01*
X76283227Y-27923880D01*
X76423880Y-27783227D01*
X76500000Y-27599456D01*
X76500000Y-27400544D01*
X76423880Y-27216773D01*
X76283227Y-27076120D01*
X76099456Y-27000000D01*
X75900544Y-27000000D01*
X75716773Y-27076120D01*
X75576120Y-27216773D01*
X75500000Y-27400544D01*
X74500000Y-27400544D01*
X74423880Y-27216773D01*
X74283227Y-27076120D01*
X74099456Y-27000000D01*
X73900544Y-27000000D01*
X73716773Y-27076120D01*
X73576120Y-27216773D01*
X73500000Y-27400544D01*
X72500000Y-27400544D01*
X72423880Y-27216773D01*
X72283227Y-27076120D01*
X72099456Y-27000000D01*
X71900544Y-27000000D01*
X71716773Y-27076120D01*
X71576120Y-27216773D01*
X71500000Y-27400544D01*
X70500000Y-27400544D01*
X70423880Y-27216773D01*
X70283227Y-27076120D01*
X70099456Y-27000000D01*
X69900544Y-27000000D01*
X69716773Y-27076120D01*
X69576120Y-27216773D01*
X69500000Y-27400544D01*
X51300000Y-27400544D01*
X51300000Y-27250544D01*
X51223880Y-27066773D01*
X51083227Y-26926120D01*
X50899456Y-26850000D01*
X50700544Y-26850000D01*
X50516773Y-26926120D01*
X50376120Y-27066773D01*
X50300000Y-27250544D01*
X49237574Y-27250544D01*
X49173880Y-27096773D01*
X49033227Y-26956120D01*
X48849456Y-26880000D01*
X48650544Y-26880000D01*
X48466773Y-26956120D01*
X48326120Y-27096773D01*
X48250000Y-27280544D01*
X48173880Y-27096773D01*
X48033227Y-26956120D01*
X47849456Y-26880000D01*
X47650544Y-26880000D01*
X47466773Y-26956120D01*
X47326120Y-27096773D01*
X47250000Y-27280544D01*
X47173880Y-27096773D01*
X47033227Y-26956120D01*
X46849456Y-26880000D01*
X46650544Y-26880000D01*
X46466773Y-26956120D01*
X46326120Y-27096773D01*
X46250000Y-27280544D01*
X40241716Y-27280544D01*
X40173880Y-27116773D01*
X40033227Y-26976120D01*
X39849456Y-26900000D01*
X39650544Y-26900000D01*
X39500000Y-26962357D01*
X39349456Y-26900000D01*
X39150544Y-26900000D01*
X39000000Y-26962357D01*
X38849456Y-26900000D01*
X38650544Y-26900000D01*
X38466773Y-26976120D01*
X38326120Y-27116773D01*
X38250000Y-27300544D01*
X37200000Y-27300544D01*
X37123880Y-27116773D01*
X36983227Y-26976120D01*
X36799456Y-26900000D01*
X36600544Y-26900000D01*
X36416773Y-26976120D01*
X36276120Y-27116773D01*
X36200000Y-27300544D01*
X29750000Y-27300544D01*
X29673880Y-27116773D01*
X29533227Y-26976120D01*
X29349456Y-26900000D01*
X29150544Y-26900000D01*
X28966773Y-26976120D01*
X28826120Y-27116773D01*
X28750000Y-27300544D01*
X14458579Y-27300544D01*
X14423880Y-27216773D01*
X14283227Y-27076120D01*
X14099456Y-27000000D01*
X13900544Y-27000000D01*
X13716773Y-27076120D01*
X13576120Y-27216773D01*
X13500000Y-27400544D01*
X12500000Y-27400544D01*
X12423880Y-27216773D01*
X12283227Y-27076120D01*
X12099456Y-27000000D01*
X11900544Y-27000000D01*
X11716773Y-27076120D01*
X11576120Y-27216773D01*
X11500000Y-27400544D01*
X10500000Y-27400544D01*
X10423880Y-27216773D01*
X10283227Y-27076120D01*
X10099456Y-27000000D01*
X9900544Y-27000000D01*
X9716773Y-27076120D01*
X9576120Y-27216773D01*
X9500000Y-27400544D01*
X8500000Y-27400544D01*
X8423880Y-27216773D01*
X8283227Y-27076120D01*
X8099456Y-27000000D01*
X7900544Y-27000000D01*
X7716773Y-27076120D01*
X7576120Y-27216773D01*
X7500000Y-27400544D01*
X400000Y-27400544D01*
X400000Y-26250544D01*
X53400000Y-26250544D01*
X53400000Y-26449456D01*
X53476120Y-26633227D01*
X53616773Y-26773880D01*
X53800544Y-26850000D01*
X53999456Y-26850000D01*
X54183227Y-26773880D01*
X54323880Y-26633227D01*
X54400000Y-26449456D01*
X54400000Y-26250544D01*
X54323880Y-26066773D01*
X54307651Y-26050544D01*
X55150000Y-26050544D01*
X55150000Y-26249456D01*
X55226120Y-26433227D01*
X55366773Y-26573880D01*
X55550544Y-26650000D01*
X55749456Y-26650000D01*
X55933227Y-26573880D01*
X56073880Y-26433227D01*
X56150000Y-26249456D01*
X56150000Y-26050544D01*
X56073880Y-25866773D01*
X55933227Y-25726120D01*
X55749456Y-25650000D01*
X55550544Y-25650000D01*
X55366773Y-25726120D01*
X55226120Y-25866773D01*
X55150000Y-26050544D01*
X54307651Y-26050544D01*
X54183227Y-25926120D01*
X53999456Y-25850000D01*
X53800544Y-25850000D01*
X53616773Y-25926120D01*
X53476120Y-26066773D01*
X53400000Y-26250544D01*
X400000Y-26250544D01*
X400000Y-22840544D01*
X53860000Y-22840544D01*
X53860000Y-23039456D01*
X53936120Y-23223227D01*
X54076773Y-23363880D01*
X54260544Y-23440000D01*
X54459456Y-23440000D01*
X54643227Y-23363880D01*
X54783880Y-23223227D01*
X54860000Y-23039456D01*
X54860000Y-22840544D01*
X55860000Y-22840544D01*
X55860000Y-23039456D01*
X55936120Y-23223227D01*
X56076773Y-23363880D01*
X56260544Y-23440000D01*
X56459456Y-23440000D01*
X56643227Y-23363880D01*
X56783880Y-23223227D01*
X56860000Y-23039456D01*
X56860000Y-22840544D01*
X56783880Y-22656773D01*
X56643227Y-22516120D01*
X56459456Y-22440000D01*
X56260544Y-22440000D01*
X56076773Y-22516120D01*
X55936120Y-22656773D01*
X55860000Y-22840544D01*
X54860000Y-22840544D01*
X54783880Y-22656773D01*
X54643227Y-22516120D01*
X54459456Y-22440000D01*
X54260544Y-22440000D01*
X54076773Y-22516120D01*
X53936120Y-22656773D01*
X53860000Y-22840544D01*
X400000Y-22840544D01*
X400000Y-17450544D01*
X39900000Y-17450544D01*
X39900000Y-17649456D01*
X39976120Y-17833227D01*
X40116773Y-17973880D01*
X40300544Y-18050000D01*
X40499456Y-18050000D01*
X40683227Y-17973880D01*
X40823880Y-17833227D01*
X40900000Y-17649456D01*
X40900000Y-17450544D01*
X40823880Y-17266773D01*
X40683227Y-17126120D01*
X40499456Y-17050000D01*
X40300544Y-17050000D01*
X40116773Y-17126120D01*
X39976120Y-17266773D01*
X39900000Y-17450544D01*
X400000Y-17450544D01*
X400000Y-16995157D01*
X41644613Y-16995157D01*
X41644613Y-17194069D01*
X41720733Y-17377840D01*
X41861386Y-17518493D01*
X42045157Y-17594613D01*
X42244069Y-17594613D01*
X42427840Y-17518493D01*
X42568493Y-17377840D01*
X42644613Y-17194069D01*
X42644613Y-16995157D01*
X42568493Y-16811386D01*
X42427840Y-16670733D01*
X42244069Y-16594613D01*
X42045157Y-16594613D01*
X41861386Y-16670733D01*
X41720733Y-16811386D01*
X41644613Y-16995157D01*
X400000Y-16995157D01*
X400000Y-14800544D01*
X44500000Y-14800544D01*
X44500000Y-14999456D01*
X44576120Y-15183227D01*
X44716773Y-15323880D01*
X44900544Y-15400000D01*
X45099456Y-15400000D01*
X45283227Y-15323880D01*
X45423880Y-15183227D01*
X45500000Y-14999456D01*
X45500000Y-14800544D01*
X45423880Y-14616773D01*
X45283227Y-14476120D01*
X45099456Y-14400000D01*
X44900544Y-14400000D01*
X44716773Y-14476120D01*
X44576120Y-14616773D01*
X44500000Y-14800544D01*
X400000Y-14800544D01*
X400000Y-14203845D01*
X72267767Y-14203845D01*
X72267767Y-14402757D01*
X72343887Y-14586528D01*
X72484540Y-14727181D01*
X72668311Y-14803301D01*
X72867223Y-14803301D01*
X73050994Y-14727181D01*
X73191647Y-14586528D01*
X73267767Y-14402757D01*
X73267767Y-14203845D01*
X73191647Y-14020074D01*
X73050994Y-13879421D01*
X72867223Y-13803301D01*
X72668311Y-13803301D01*
X72484540Y-13879421D01*
X72343887Y-14020074D01*
X72267767Y-14203845D01*
X400000Y-14203845D01*
X400000Y-12900544D01*
X42950000Y-12900544D01*
X42950000Y-13099456D01*
X43026120Y-13283227D01*
X43166773Y-13423880D01*
X43350544Y-13500000D01*
X43549456Y-13500000D01*
X43733227Y-13423880D01*
X43873880Y-13283227D01*
X43950000Y-13099456D01*
X43950000Y-12980931D01*
X45030387Y-12980931D01*
X45030387Y-13179843D01*
X45106507Y-13363614D01*
X45247160Y-13504267D01*
X45430931Y-13580387D01*
X45629843Y-13580387D01*
X45813614Y-13504267D01*
X45954267Y-13363614D01*
X46030387Y-13179843D01*
X46030387Y-12980931D01*
X45954267Y-12797160D01*
X45946738Y-12789631D01*
X70853553Y-12789631D01*
X70853553Y-12988543D01*
X70929673Y-13172314D01*
X71070326Y-13312967D01*
X71254097Y-13389087D01*
X71453009Y-13389087D01*
X71636780Y-13312967D01*
X71777433Y-13172314D01*
X71853553Y-12988543D01*
X71853553Y-12789631D01*
X71777433Y-12605860D01*
X71636780Y-12465207D01*
X71453009Y-12389087D01*
X71254097Y-12389087D01*
X71070326Y-12465207D01*
X70929673Y-12605860D01*
X70853553Y-12789631D01*
X45946738Y-12789631D01*
X45813614Y-12656507D01*
X45629843Y-12580387D01*
X45430931Y-12580387D01*
X45247160Y-12656507D01*
X45106507Y-12797160D01*
X45030387Y-12980931D01*
X43950000Y-12980931D01*
X43950000Y-12900544D01*
X43873880Y-12716773D01*
X43733227Y-12576120D01*
X43549456Y-12500000D01*
X43350544Y-12500000D01*
X43166773Y-12576120D01*
X43026120Y-12716773D01*
X42950000Y-12900544D01*
X400000Y-12900544D01*
X400000Y-11375418D01*
X9560660Y-11375418D01*
X9560660Y-11574330D01*
X9636780Y-11758101D01*
X9777433Y-11898754D01*
X9961204Y-11974874D01*
X10160116Y-11974874D01*
X10343887Y-11898754D01*
X10484540Y-11758101D01*
X10560660Y-11574330D01*
X10560660Y-11375418D01*
X10508936Y-11250544D01*
X49450000Y-11250544D01*
X49450000Y-11449456D01*
X49526120Y-11633227D01*
X49666773Y-11773880D01*
X49850544Y-11850000D01*
X50049456Y-11850000D01*
X50233227Y-11773880D01*
X50373880Y-11633227D01*
X50450000Y-11449456D01*
X50450000Y-11375418D01*
X69439340Y-11375418D01*
X69439340Y-11574330D01*
X69515460Y-11758101D01*
X69656113Y-11898754D01*
X69839884Y-11974874D01*
X70038796Y-11974874D01*
X70222567Y-11898754D01*
X70363220Y-11758101D01*
X70439340Y-11574330D01*
X70439340Y-11375418D01*
X70363220Y-11191647D01*
X70222567Y-11050994D01*
X70038796Y-10974874D01*
X69839884Y-10974874D01*
X69656113Y-11050994D01*
X69515460Y-11191647D01*
X69439340Y-11375418D01*
X50450000Y-11375418D01*
X50450000Y-11250544D01*
X50373880Y-11066773D01*
X50233227Y-10926120D01*
X50049456Y-10850000D01*
X49850544Y-10850000D01*
X49666773Y-10926120D01*
X49526120Y-11066773D01*
X49450000Y-11250544D01*
X10508936Y-11250544D01*
X10484540Y-11191647D01*
X10343887Y-11050994D01*
X10160116Y-10974874D01*
X9961204Y-10974874D01*
X9777433Y-11050994D01*
X9636780Y-11191647D01*
X9560660Y-11375418D01*
X400000Y-11375418D01*
X400000Y-9400544D01*
X4000000Y-9400544D01*
X4000000Y-9599456D01*
X4076120Y-9783227D01*
X4216773Y-9923880D01*
X4400544Y-10000000D01*
X4599456Y-10000000D01*
X4693118Y-9961204D01*
X10974874Y-9961204D01*
X10974874Y-10160116D01*
X11050994Y-10343887D01*
X11191647Y-10484540D01*
X11375418Y-10560660D01*
X11574330Y-10560660D01*
X11758101Y-10484540D01*
X11898754Y-10343887D01*
X11974874Y-10160116D01*
X11974874Y-9961204D01*
X11898754Y-9777433D01*
X11758101Y-9636780D01*
X11574330Y-9560660D01*
X11375418Y-9560660D01*
X11191647Y-9636780D01*
X11050994Y-9777433D01*
X10974874Y-9961204D01*
X4693118Y-9961204D01*
X4783227Y-9923880D01*
X4923880Y-9783227D01*
X5000000Y-9599456D01*
X5000000Y-9400544D01*
X43500000Y-9400544D01*
X43500000Y-9599456D01*
X43576120Y-9783227D01*
X43716773Y-9923880D01*
X43900544Y-10000000D01*
X44099456Y-10000000D01*
X44283227Y-9923880D01*
X44423880Y-9783227D01*
X44500000Y-9599456D01*
X44500000Y-9400544D01*
X45500000Y-9400544D01*
X45500000Y-9599456D01*
X45576120Y-9783227D01*
X45716773Y-9923880D01*
X45900544Y-10000000D01*
X46099456Y-10000000D01*
X46283227Y-9923880D01*
X46423880Y-9783227D01*
X46500000Y-9599456D01*
X46500000Y-9400544D01*
X47500000Y-9400544D01*
X47500000Y-9599456D01*
X47576120Y-9783227D01*
X47716773Y-9923880D01*
X47900544Y-10000000D01*
X48099456Y-10000000D01*
X48283227Y-9923880D01*
X48423880Y-9783227D01*
X48500000Y-9599456D01*
X48500000Y-9400544D01*
X49450000Y-9400544D01*
X49450000Y-9599456D01*
X49526120Y-9783227D01*
X49666773Y-9923880D01*
X49850544Y-10000000D01*
X50049456Y-10000000D01*
X50143118Y-9961204D01*
X68025126Y-9961204D01*
X68025126Y-10160116D01*
X68101246Y-10343887D01*
X68241899Y-10484540D01*
X68425670Y-10560660D01*
X68624582Y-10560660D01*
X68808353Y-10484540D01*
X68949006Y-10343887D01*
X69025126Y-10160116D01*
X69025126Y-9961204D01*
X68949006Y-9777433D01*
X68808353Y-9636780D01*
X68624582Y-9560660D01*
X68425670Y-9560660D01*
X68241899Y-9636780D01*
X68101246Y-9777433D01*
X68025126Y-9961204D01*
X50143118Y-9961204D01*
X50233227Y-9923880D01*
X50373880Y-9783227D01*
X50450000Y-9599456D01*
X50450000Y-9400544D01*
X50373880Y-9216773D01*
X50233227Y-9076120D01*
X50049456Y-9000000D01*
X49850544Y-9000000D01*
X49666773Y-9076120D01*
X49526120Y-9216773D01*
X49450000Y-9400544D01*
X48500000Y-9400544D01*
X48423880Y-9216773D01*
X48283227Y-9076120D01*
X48099456Y-9000000D01*
X47900544Y-9000000D01*
X47716773Y-9076120D01*
X47576120Y-9216773D01*
X47500000Y-9400544D01*
X46500000Y-9400544D01*
X46423880Y-9216773D01*
X46283227Y-9076120D01*
X46099456Y-9000000D01*
X45900544Y-9000000D01*
X45716773Y-9076120D01*
X45576120Y-9216773D01*
X45500000Y-9400544D01*
X44500000Y-9400544D01*
X44423880Y-9216773D01*
X44283227Y-9076120D01*
X44099456Y-9000000D01*
X43900544Y-9000000D01*
X43716773Y-9076120D01*
X43576120Y-9216773D01*
X43500000Y-9400544D01*
X5000000Y-9400544D01*
X4923880Y-9216773D01*
X4783227Y-9076120D01*
X4599456Y-9000000D01*
X4400544Y-9000000D01*
X4216773Y-9076120D01*
X4076120Y-9216773D01*
X4000000Y-9400544D01*
X400000Y-9400544D01*
X400000Y-8400544D01*
X6100000Y-8400544D01*
X6100000Y-8599456D01*
X6176120Y-8783227D01*
X6316773Y-8923880D01*
X6500544Y-9000000D01*
X6699456Y-9000000D01*
X6883227Y-8923880D01*
X7023880Y-8783227D01*
X7100000Y-8599456D01*
X7100000Y-8546991D01*
X12389087Y-8546991D01*
X12389087Y-8745903D01*
X12465207Y-8929674D01*
X12605860Y-9070327D01*
X12789631Y-9146447D01*
X12988543Y-9146447D01*
X13172314Y-9070327D01*
X13312967Y-8929674D01*
X13389087Y-8745903D01*
X13389087Y-8546991D01*
X13312967Y-8363220D01*
X13172314Y-8222567D01*
X12988543Y-8146447D01*
X12789631Y-8146447D01*
X12605860Y-8222567D01*
X12465207Y-8363220D01*
X12389087Y-8546991D01*
X7100000Y-8546991D01*
X7100000Y-8400544D01*
X7023880Y-8216773D01*
X6883227Y-8076120D01*
X6699456Y-8000000D01*
X6500544Y-8000000D01*
X6316773Y-8076120D01*
X6176120Y-8216773D01*
X6100000Y-8400544D01*
X400000Y-8400544D01*
X400000Y-7132777D01*
X13803301Y-7132777D01*
X13803301Y-7331689D01*
X13879421Y-7515460D01*
X14020074Y-7656113D01*
X14203845Y-7732233D01*
X14402757Y-7732233D01*
X14586528Y-7656113D01*
X14727181Y-7515460D01*
X14803301Y-7331689D01*
X14803301Y-7132777D01*
X14727181Y-6949006D01*
X14586528Y-6808353D01*
X14402757Y-6732233D01*
X14203845Y-6732233D01*
X14020074Y-6808353D01*
X13879421Y-6949006D01*
X13803301Y-7132777D01*
X400000Y-7132777D01*
X400000Y-3122067D01*
X1600000Y-3122067D01*
X1600000Y-3877933D01*
X1889258Y-4576263D01*
X2423737Y-5110742D01*
X3122067Y-5400000D01*
X3877933Y-5400000D01*
X4576263Y-5110742D01*
X5110742Y-4576263D01*
X5400000Y-3877933D01*
X5400000Y-3122067D01*
X74600000Y-3122067D01*
X74600000Y-3877933D01*
X74889258Y-4576263D01*
X75423737Y-5110742D01*
X76122067Y-5400000D01*
X76877933Y-5400000D01*
X77576263Y-5110742D01*
X78110742Y-4576263D01*
X78400000Y-3877933D01*
X78400000Y-3122067D01*
X78110742Y-2423737D01*
X77576263Y-1889258D01*
X76877933Y-1600000D01*
X76122067Y-1600000D01*
X75423737Y-1889258D01*
X74889258Y-2423737D01*
X74600000Y-3122067D01*
X5400000Y-3122067D01*
X5110742Y-2423737D01*
X4576263Y-1889258D01*
X3877933Y-1600000D01*
X3122067Y-1600000D01*
X2423737Y-1889258D01*
X1889258Y-2423737D01*
X1600000Y-3122067D01*
X400000Y-3122067D01*
X400000Y-400000D01*
X79600001Y-400000D01*
X79600000Y-79600000D01*
X79600000Y-79600000D01*
G37*
X79600000Y-79600000D02*
X400000Y-79600000D01*
X400000Y-76122067D01*
X1600000Y-76122067D01*
X1600000Y-76877933D01*
X1889258Y-77576263D01*
X2423737Y-78110742D01*
X3122067Y-78400000D01*
X3877933Y-78400000D01*
X4576263Y-78110742D01*
X5110742Y-77576263D01*
X5400000Y-76877933D01*
X5400000Y-76122067D01*
X74600000Y-76122067D01*
X74600000Y-76877933D01*
X74889258Y-77576263D01*
X75423737Y-78110742D01*
X76122067Y-78400000D01*
X76877933Y-78400000D01*
X77576263Y-78110742D01*
X78110742Y-77576263D01*
X78400000Y-76877933D01*
X78400000Y-76122067D01*
X78110742Y-75423737D01*
X77576263Y-74889258D01*
X76877933Y-74600000D01*
X76122067Y-74600000D01*
X75423737Y-74889258D01*
X74889258Y-75423737D01*
X74600000Y-76122067D01*
X5400000Y-76122067D01*
X5110742Y-75423737D01*
X4576263Y-74889258D01*
X3877933Y-74600000D01*
X3122067Y-74600000D01*
X2423737Y-74889258D01*
X1889258Y-75423737D01*
X1600000Y-76122067D01*
X400000Y-76122067D01*
X400000Y-72668311D01*
X65196699Y-72668311D01*
X65196699Y-72867223D01*
X65272819Y-73050994D01*
X65413472Y-73191647D01*
X65597243Y-73267767D01*
X65796155Y-73267767D01*
X65979926Y-73191647D01*
X66120579Y-73050994D01*
X66196699Y-72867223D01*
X66196699Y-72668311D01*
X66120579Y-72484540D01*
X65979926Y-72343887D01*
X65796155Y-72267767D01*
X65597243Y-72267767D01*
X65413472Y-72343887D01*
X65272819Y-72484540D01*
X65196699Y-72668311D01*
X400000Y-72668311D01*
X400000Y-71254097D01*
X66610913Y-71254097D01*
X66610913Y-71453009D01*
X66687033Y-71636780D01*
X66827686Y-71777433D01*
X67011457Y-71853553D01*
X67210369Y-71853553D01*
X67394140Y-71777433D01*
X67521029Y-71650544D01*
X70100000Y-71650544D01*
X70100000Y-71849456D01*
X70176120Y-72033227D01*
X70316773Y-72173880D01*
X70500544Y-72250000D01*
X70699456Y-72250000D01*
X70883227Y-72173880D01*
X71023880Y-72033227D01*
X71100000Y-71849456D01*
X71100000Y-71650544D01*
X71023880Y-71466773D01*
X70883227Y-71326120D01*
X70699456Y-71250000D01*
X70500544Y-71250000D01*
X70316773Y-71326120D01*
X70176120Y-71466773D01*
X70100000Y-71650544D01*
X67521029Y-71650544D01*
X67534793Y-71636780D01*
X67610913Y-71453009D01*
X67610913Y-71254097D01*
X67534793Y-71070326D01*
X67394140Y-70929673D01*
X67210369Y-70853553D01*
X67011457Y-70853553D01*
X66827686Y-70929673D01*
X66687033Y-71070326D01*
X66610913Y-71254097D01*
X400000Y-71254097D01*
X400000Y-69839884D01*
X10974874Y-69839884D01*
X10974874Y-70038796D01*
X11050994Y-70222567D01*
X11191647Y-70363220D01*
X11375418Y-70439340D01*
X11574330Y-70439340D01*
X11667992Y-70400544D01*
X24500000Y-70400544D01*
X24500000Y-70599456D01*
X24576120Y-70783227D01*
X24716773Y-70923880D01*
X24900544Y-71000000D01*
X25099456Y-71000000D01*
X25283227Y-70923880D01*
X25423880Y-70783227D01*
X25500000Y-70599456D01*
X25500000Y-70400544D01*
X26500000Y-70400544D01*
X26500000Y-70599456D01*
X26576120Y-70783227D01*
X26716773Y-70923880D01*
X26900544Y-71000000D01*
X27099456Y-71000000D01*
X27283227Y-70923880D01*
X27423880Y-70783227D01*
X27500000Y-70599456D01*
X27500000Y-70400544D01*
X28500000Y-70400544D01*
X28500000Y-70599456D01*
X28576120Y-70783227D01*
X28716773Y-70923880D01*
X28900544Y-71000000D01*
X29099456Y-71000000D01*
X29283227Y-70923880D01*
X29423880Y-70783227D01*
X29500000Y-70599456D01*
X29500000Y-70400544D01*
X30500000Y-70400544D01*
X30500000Y-70599456D01*
X30576120Y-70783227D01*
X30716773Y-70923880D01*
X30900544Y-71000000D01*
X31099456Y-71000000D01*
X31283227Y-70923880D01*
X31423880Y-70783227D01*
X31500000Y-70599456D01*
X31500000Y-70400544D01*
X44400000Y-70400544D01*
X44400000Y-70599456D01*
X44476120Y-70783227D01*
X44616773Y-70923880D01*
X44800544Y-71000000D01*
X44999456Y-71000000D01*
X45183227Y-70923880D01*
X45323880Y-70783227D01*
X45400000Y-70599456D01*
X45400000Y-70400544D01*
X46400000Y-70400544D01*
X46400000Y-70599456D01*
X46476120Y-70783227D01*
X46616773Y-70923880D01*
X46800544Y-71000000D01*
X46999456Y-71000000D01*
X47183227Y-70923880D01*
X47323880Y-70783227D01*
X47400000Y-70599456D01*
X47400000Y-70400544D01*
X48400000Y-70400544D01*
X48400000Y-70599456D01*
X48476120Y-70783227D01*
X48616773Y-70923880D01*
X48800544Y-71000000D01*
X48999456Y-71000000D01*
X49183227Y-70923880D01*
X49323880Y-70783227D01*
X49400000Y-70599456D01*
X49400000Y-70400544D01*
X50400000Y-70400544D01*
X50400000Y-70599456D01*
X50476120Y-70783227D01*
X50616773Y-70923880D01*
X50800544Y-71000000D01*
X50999456Y-71000000D01*
X51183227Y-70923880D01*
X51323880Y-70783227D01*
X51400000Y-70599456D01*
X51400000Y-70400544D01*
X51323880Y-70216773D01*
X51183227Y-70076120D01*
X50999456Y-70000000D01*
X50800544Y-70000000D01*
X50616773Y-70076120D01*
X50476120Y-70216773D01*
X50400000Y-70400544D01*
X49400000Y-70400544D01*
X49323880Y-70216773D01*
X49183227Y-70076120D01*
X48999456Y-70000000D01*
X48800544Y-70000000D01*
X48616773Y-70076120D01*
X48476120Y-70216773D01*
X48400000Y-70400544D01*
X47400000Y-70400544D01*
X47323880Y-70216773D01*
X47183227Y-70076120D01*
X46999456Y-70000000D01*
X46800544Y-70000000D01*
X46616773Y-70076120D01*
X46476120Y-70216773D01*
X46400000Y-70400544D01*
X45400000Y-70400544D01*
X45323880Y-70216773D01*
X45183227Y-70076120D01*
X44999456Y-70000000D01*
X44800544Y-70000000D01*
X44616773Y-70076120D01*
X44476120Y-70216773D01*
X44400000Y-70400544D01*
X31500000Y-70400544D01*
X31423880Y-70216773D01*
X31283227Y-70076120D01*
X31099456Y-70000000D01*
X30900544Y-70000000D01*
X30716773Y-70076120D01*
X30576120Y-70216773D01*
X30500000Y-70400544D01*
X29500000Y-70400544D01*
X29423880Y-70216773D01*
X29283227Y-70076120D01*
X29099456Y-70000000D01*
X28900544Y-70000000D01*
X28716773Y-70076120D01*
X28576120Y-70216773D01*
X28500000Y-70400544D01*
X27500000Y-70400544D01*
X27423880Y-70216773D01*
X27283227Y-70076120D01*
X27099456Y-70000000D01*
X26900544Y-70000000D01*
X26716773Y-70076120D01*
X26576120Y-70216773D01*
X26500000Y-70400544D01*
X25500000Y-70400544D01*
X25423880Y-70216773D01*
X25283227Y-70076120D01*
X25099456Y-70000000D01*
X24900544Y-70000000D01*
X24716773Y-70076120D01*
X24576120Y-70216773D01*
X24500000Y-70400544D01*
X11667992Y-70400544D01*
X11758101Y-70363220D01*
X11898754Y-70222567D01*
X11974874Y-70038796D01*
X11974874Y-69839884D01*
X68025126Y-69839884D01*
X68025126Y-70038796D01*
X68101246Y-70222567D01*
X68241899Y-70363220D01*
X68425670Y-70439340D01*
X68624582Y-70439340D01*
X68808353Y-70363220D01*
X68949006Y-70222567D01*
X69025126Y-70038796D01*
X69025126Y-69920157D01*
X72469613Y-69920157D01*
X72469613Y-70119069D01*
X72545733Y-70302840D01*
X72686386Y-70443493D01*
X72870157Y-70519613D01*
X73069069Y-70519613D01*
X73252840Y-70443493D01*
X73393493Y-70302840D01*
X73469613Y-70119069D01*
X73469613Y-69920157D01*
X73393493Y-69736386D01*
X73252840Y-69595733D01*
X73069069Y-69519613D01*
X72870157Y-69519613D01*
X72686386Y-69595733D01*
X72545733Y-69736386D01*
X72469613Y-69920157D01*
X69025126Y-69920157D01*
X69025126Y-69839884D01*
X68949006Y-69656113D01*
X68808353Y-69515460D01*
X68624582Y-69439340D01*
X68425670Y-69439340D01*
X68241899Y-69515460D01*
X68101246Y-69656113D01*
X68025126Y-69839884D01*
X11974874Y-69839884D01*
X11898754Y-69656113D01*
X11758101Y-69515460D01*
X11574330Y-69439340D01*
X11375418Y-69439340D01*
X11191647Y-69515460D01*
X11050994Y-69656113D01*
X10974874Y-69839884D01*
X400000Y-69839884D01*
X400000Y-68425670D01*
X9560660Y-68425670D01*
X9560660Y-68624582D01*
X9636780Y-68808353D01*
X9777433Y-68949006D01*
X9961204Y-69025126D01*
X10160116Y-69025126D01*
X10343887Y-68949006D01*
X10484540Y-68808353D01*
X10560660Y-68624582D01*
X10560660Y-68425670D01*
X69439340Y-68425670D01*
X69439340Y-68624582D01*
X69515460Y-68808353D01*
X69656113Y-68949006D01*
X69839884Y-69025126D01*
X70038796Y-69025126D01*
X70222567Y-68949006D01*
X70363220Y-68808353D01*
X70439340Y-68624582D01*
X70439340Y-68425670D01*
X70363220Y-68241899D01*
X70222567Y-68101246D01*
X70038796Y-68025126D01*
X69839884Y-68025126D01*
X69656113Y-68101246D01*
X69515460Y-68241899D01*
X69439340Y-68425670D01*
X10560660Y-68425670D01*
X10484540Y-68241899D01*
X10343887Y-68101246D01*
X10160116Y-68025126D01*
X9961204Y-68025126D01*
X9777433Y-68101246D01*
X9636780Y-68241899D01*
X9560660Y-68425670D01*
X400000Y-68425670D01*
X400000Y-67011457D01*
X8146447Y-67011457D01*
X8146447Y-67210369D01*
X8222567Y-67394140D01*
X8363220Y-67534793D01*
X8546991Y-67610913D01*
X8745903Y-67610913D01*
X8929674Y-67534793D01*
X9070327Y-67394140D01*
X9146447Y-67210369D01*
X9146447Y-67011457D01*
X9070327Y-66827686D01*
X8929674Y-66687033D01*
X8745903Y-66610913D01*
X8546991Y-66610913D01*
X8363220Y-66687033D01*
X8222567Y-66827686D01*
X8146447Y-67011457D01*
X400000Y-67011457D01*
X400000Y-65597243D01*
X6732233Y-65597243D01*
X6732233Y-65796155D01*
X6808353Y-65979926D01*
X6949006Y-66120579D01*
X7132777Y-66196699D01*
X7331689Y-66196699D01*
X7515460Y-66120579D01*
X7656113Y-65979926D01*
X7732233Y-65796155D01*
X7732233Y-65597243D01*
X7656113Y-65413472D01*
X7515460Y-65272819D01*
X7331689Y-65196699D01*
X7132777Y-65196699D01*
X6949006Y-65272819D01*
X6808353Y-65413472D01*
X6732233Y-65597243D01*
X400000Y-65597243D01*
X400000Y-65100544D01*
X59450000Y-65100544D01*
X59450000Y-65299456D01*
X59526120Y-65483227D01*
X59666773Y-65623880D01*
X59850544Y-65700000D01*
X60049456Y-65700000D01*
X60233227Y-65623880D01*
X60373880Y-65483227D01*
X60450000Y-65299456D01*
X60450000Y-65100544D01*
X60373880Y-64916773D01*
X60233227Y-64776120D01*
X60049456Y-64700000D01*
X59850544Y-64700000D01*
X59666773Y-64776120D01*
X59526120Y-64916773D01*
X59450000Y-65100544D01*
X400000Y-65100544D01*
X400000Y-62400544D01*
X25950000Y-62400544D01*
X25950000Y-62599456D01*
X26026120Y-62783227D01*
X26166773Y-62923880D01*
X26350544Y-63000000D01*
X26549456Y-63000000D01*
X26733227Y-62923880D01*
X26873880Y-62783227D01*
X26950000Y-62599456D01*
X26950000Y-62400544D01*
X26873880Y-62216773D01*
X26733227Y-62076120D01*
X26549456Y-62000000D01*
X26350544Y-62000000D01*
X26166773Y-62076120D01*
X26026120Y-62216773D01*
X25950000Y-62400544D01*
X400000Y-62400544D01*
X400000Y-61895157D01*
X55905387Y-61895157D01*
X55905387Y-62094069D01*
X55981507Y-62277840D01*
X56122160Y-62418493D01*
X56305931Y-62494613D01*
X56504843Y-62494613D01*
X56688614Y-62418493D01*
X56747273Y-62359834D01*
X56806507Y-62502840D01*
X56947160Y-62643493D01*
X57130931Y-62719613D01*
X57329843Y-62719613D01*
X57513614Y-62643493D01*
X57654267Y-62502840D01*
X57730387Y-62319069D01*
X57730387Y-62120157D01*
X57724233Y-62105299D01*
X57845157Y-62155387D01*
X58044069Y-62155387D01*
X58227840Y-62079267D01*
X58306563Y-62000544D01*
X59100000Y-62000544D01*
X59100000Y-62199456D01*
X59176120Y-62383227D01*
X59316773Y-62523880D01*
X59500544Y-62600000D01*
X59699456Y-62600000D01*
X59883227Y-62523880D01*
X60023880Y-62383227D01*
X60100000Y-62199456D01*
X60100000Y-62000544D01*
X60023880Y-61816773D01*
X59883227Y-61676120D01*
X59699456Y-61600000D01*
X59500544Y-61600000D01*
X59316773Y-61676120D01*
X59176120Y-61816773D01*
X59100000Y-62000544D01*
X58306563Y-62000544D01*
X58368493Y-61938614D01*
X58444613Y-61754843D01*
X58444613Y-61555931D01*
X58368493Y-61372160D01*
X58269477Y-61273144D01*
X58300000Y-61199456D01*
X58300000Y-61000544D01*
X58223880Y-60816773D01*
X58083227Y-60676120D01*
X57899456Y-60600000D01*
X57700544Y-60600000D01*
X57516773Y-60676120D01*
X57376120Y-60816773D01*
X57300000Y-61000544D01*
X57300000Y-61199456D01*
X57376120Y-61383227D01*
X57475136Y-61482243D01*
X57444613Y-61555931D01*
X57444613Y-61754843D01*
X57450767Y-61769701D01*
X57329843Y-61719613D01*
X57130931Y-61719613D01*
X56947160Y-61795733D01*
X56888501Y-61854392D01*
X56829267Y-61711386D01*
X56688614Y-61570733D01*
X56504843Y-61494613D01*
X56305931Y-61494613D01*
X56122160Y-61570733D01*
X55981507Y-61711386D01*
X55905387Y-61895157D01*
X400000Y-61895157D01*
X400000Y-60750544D01*
X27750000Y-60750544D01*
X27750000Y-60949456D01*
X27826120Y-61133227D01*
X27966773Y-61273880D01*
X28150544Y-61350000D01*
X28349456Y-61350000D01*
X28533227Y-61273880D01*
X28673880Y-61133227D01*
X28750000Y-60949456D01*
X28750000Y-60750544D01*
X28673880Y-60566773D01*
X28533227Y-60426120D01*
X28349456Y-60350000D01*
X28150544Y-60350000D01*
X27966773Y-60426120D01*
X27826120Y-60566773D01*
X27750000Y-60750544D01*
X400000Y-60750544D01*
X400000Y-57646544D01*
X24700000Y-57646544D01*
X24700000Y-57845456D01*
X24776120Y-58029227D01*
X24916773Y-58169880D01*
X25100544Y-58246000D01*
X25200000Y-58246000D01*
X25200000Y-58297456D01*
X25276120Y-58481227D01*
X25416773Y-58621880D01*
X25600544Y-58698000D01*
X25799456Y-58698000D01*
X25850000Y-58677064D01*
X25850000Y-58749456D01*
X25926120Y-58933227D01*
X26066773Y-59073880D01*
X26250544Y-59150000D01*
X26449456Y-59150000D01*
X26633227Y-59073880D01*
X26756563Y-58950544D01*
X44250000Y-58950544D01*
X44250000Y-59149456D01*
X44326120Y-59333227D01*
X44466773Y-59473880D01*
X44650544Y-59550000D01*
X44849456Y-59550000D01*
X44968854Y-59500544D01*
X46852000Y-59500544D01*
X46852000Y-59699456D01*
X46928120Y-59883227D01*
X47068773Y-60023880D01*
X47232649Y-60091759D01*
X47229010Y-60100544D01*
X47229010Y-60299456D01*
X47305130Y-60483227D01*
X47445783Y-60623880D01*
X47629554Y-60700000D01*
X47828466Y-60700000D01*
X48012237Y-60623880D01*
X48152890Y-60483227D01*
X48229010Y-60299456D01*
X48229010Y-60100544D01*
X48152890Y-59916773D01*
X48012237Y-59776120D01*
X47848361Y-59708241D01*
X47852000Y-59699456D01*
X47852000Y-59500544D01*
X47775880Y-59316773D01*
X47635227Y-59176120D01*
X47451456Y-59100000D01*
X47252544Y-59100000D01*
X47068773Y-59176120D01*
X46928120Y-59316773D01*
X46852000Y-59500544D01*
X44968854Y-59500544D01*
X45033227Y-59473880D01*
X45173880Y-59333227D01*
X45250000Y-59149456D01*
X45250000Y-58950544D01*
X45173880Y-58766773D01*
X45033227Y-58626120D01*
X44849456Y-58550000D01*
X44650544Y-58550000D01*
X44466773Y-58626120D01*
X44326120Y-58766773D01*
X44250000Y-58950544D01*
X26756563Y-58950544D01*
X26773880Y-58933227D01*
X26850000Y-58749456D01*
X26850000Y-58550544D01*
X26773880Y-58366773D01*
X26633227Y-58226120D01*
X26449456Y-58150000D01*
X26250544Y-58150000D01*
X26200000Y-58170936D01*
X26200000Y-58100544D01*
X45850000Y-58100544D01*
X45850000Y-58299456D01*
X45926120Y-58483227D01*
X46066773Y-58623880D01*
X46250544Y-58700000D01*
X46449456Y-58700000D01*
X46633227Y-58623880D01*
X46773880Y-58483227D01*
X46850000Y-58299456D01*
X46850000Y-58100544D01*
X46773880Y-57916773D01*
X46633227Y-57776120D01*
X46449456Y-57700000D01*
X46250544Y-57700000D01*
X46066773Y-57776120D01*
X45926120Y-57916773D01*
X45850000Y-58100544D01*
X26200000Y-58100544D01*
X26200000Y-58098544D01*
X26123880Y-57914773D01*
X25983227Y-57774120D01*
X25865339Y-57725289D01*
X25883227Y-57717880D01*
X26023880Y-57577227D01*
X26100000Y-57393456D01*
X26100000Y-57200544D01*
X27800000Y-57200544D01*
X27800000Y-57399456D01*
X27876120Y-57583227D01*
X28016773Y-57723880D01*
X28200544Y-57800000D01*
X28399456Y-57800000D01*
X28583227Y-57723880D01*
X28723880Y-57583227D01*
X28800000Y-57399456D01*
X28800000Y-57200544D01*
X28723880Y-57016773D01*
X28607651Y-56900544D01*
X29450000Y-56900544D01*
X29450000Y-57099456D01*
X29526120Y-57283227D01*
X29666773Y-57423880D01*
X29850544Y-57500000D01*
X30049456Y-57500000D01*
X30233227Y-57423880D01*
X30373880Y-57283227D01*
X30450000Y-57099456D01*
X30450000Y-56900544D01*
X30373880Y-56716773D01*
X30233227Y-56576120D01*
X30049456Y-56500000D01*
X29850544Y-56500000D01*
X29666773Y-56576120D01*
X29526120Y-56716773D01*
X29450000Y-56900544D01*
X28607651Y-56900544D01*
X28583227Y-56876120D01*
X28399456Y-56800000D01*
X28200544Y-56800000D01*
X28016773Y-56876120D01*
X27876120Y-57016773D01*
X27800000Y-57200544D01*
X26100000Y-57200544D01*
X26100000Y-57194544D01*
X26023880Y-57010773D01*
X25883227Y-56870120D01*
X25699456Y-56794000D01*
X25500544Y-56794000D01*
X25316773Y-56870120D01*
X25176120Y-57010773D01*
X25100000Y-57194544D01*
X25100000Y-57246225D01*
X24916773Y-57322120D01*
X24776120Y-57462773D01*
X24700000Y-57646544D01*
X400000Y-57646544D01*
X400000Y-55773765D01*
X31908708Y-55773765D01*
X31908708Y-55972677D01*
X31984828Y-56156448D01*
X32125481Y-56297101D01*
X32309252Y-56373221D01*
X32508164Y-56373221D01*
X32691935Y-56297101D01*
X32740965Y-56248072D01*
X32866773Y-56373880D01*
X33050544Y-56450000D01*
X33249456Y-56450000D01*
X33433227Y-56373880D01*
X33573880Y-56233227D01*
X33650000Y-56049456D01*
X33650000Y-55950544D01*
X43300000Y-55950544D01*
X43300000Y-56149456D01*
X43376120Y-56333227D01*
X43516773Y-56473880D01*
X43700544Y-56550000D01*
X43899456Y-56550000D01*
X44078785Y-56475720D01*
X44166773Y-56563708D01*
X44350544Y-56639828D01*
X44549456Y-56639828D01*
X44733227Y-56563708D01*
X44873880Y-56423055D01*
X44919582Y-56312720D01*
X44981648Y-56312720D01*
X45165419Y-56236600D01*
X45197456Y-56204563D01*
X45266773Y-56273880D01*
X45450544Y-56350000D01*
X45649456Y-56350000D01*
X45833227Y-56273880D01*
X45973880Y-56133227D01*
X46050000Y-55949456D01*
X46050000Y-55750544D01*
X45973880Y-55566773D01*
X45833227Y-55426120D01*
X45649456Y-55350000D01*
X45450544Y-55350000D01*
X45266773Y-55426120D01*
X45234736Y-55458157D01*
X45165419Y-55388840D01*
X44981648Y-55312720D01*
X44782736Y-55312720D01*
X44598965Y-55388840D01*
X44458312Y-55529493D01*
X44412610Y-55639828D01*
X44350544Y-55639828D01*
X44171215Y-55714108D01*
X44083227Y-55626120D01*
X43899456Y-55550000D01*
X43700544Y-55550000D01*
X43516773Y-55626120D01*
X43376120Y-55766773D01*
X43300000Y-55950544D01*
X33650000Y-55950544D01*
X33650000Y-55850544D01*
X33573880Y-55666773D01*
X33433227Y-55526120D01*
X33249456Y-55450000D01*
X33050544Y-55450000D01*
X32866773Y-55526120D01*
X32817744Y-55575150D01*
X32691935Y-55449341D01*
X32508164Y-55373221D01*
X32309252Y-55373221D01*
X32125481Y-55449341D01*
X31984828Y-55589994D01*
X31908708Y-55773765D01*
X400000Y-55773765D01*
X400000Y-54000544D01*
X32250000Y-54000544D01*
X32250000Y-54199456D01*
X32326120Y-54383227D01*
X32466773Y-54523880D01*
X32650544Y-54600000D01*
X32849456Y-54600000D01*
X32962438Y-54553201D01*
X32966773Y-54557536D01*
X33150544Y-54633656D01*
X33349456Y-54633656D01*
X33533227Y-54557536D01*
X33673880Y-54416883D01*
X33701358Y-54350544D01*
X33750000Y-54350544D01*
X33750000Y-54549456D01*
X33826120Y-54733227D01*
X33966773Y-54873880D01*
X34150544Y-54950000D01*
X34349456Y-54950000D01*
X34533227Y-54873880D01*
X34673880Y-54733227D01*
X34750000Y-54549456D01*
X34750000Y-54350544D01*
X34673880Y-54166773D01*
X34533227Y-54026120D01*
X34349456Y-53950000D01*
X34150544Y-53950000D01*
X33966773Y-54026120D01*
X33826120Y-54166773D01*
X33750000Y-54350544D01*
X33701358Y-54350544D01*
X33750000Y-54233112D01*
X33750000Y-54034200D01*
X33673880Y-53850429D01*
X33533227Y-53709776D01*
X33349456Y-53633656D01*
X33150544Y-53633656D01*
X33037562Y-53680455D01*
X33033227Y-53676120D01*
X32849456Y-53600000D01*
X32650544Y-53600000D01*
X32466773Y-53676120D01*
X32326120Y-53816773D01*
X32250000Y-54000544D01*
X400000Y-54000544D01*
X400000Y-52400544D01*
X3500000Y-52400544D01*
X3500000Y-52599456D01*
X3576120Y-52783227D01*
X3716773Y-52923880D01*
X3900544Y-53000000D01*
X4099456Y-53000000D01*
X4283227Y-52923880D01*
X4423880Y-52783227D01*
X4500000Y-52599456D01*
X4500000Y-52400544D01*
X5500000Y-52400544D01*
X5500000Y-52599456D01*
X5576120Y-52783227D01*
X5716773Y-52923880D01*
X5900544Y-53000000D01*
X6099456Y-53000000D01*
X6283227Y-52923880D01*
X6423880Y-52783227D01*
X6500000Y-52599456D01*
X6500000Y-52400544D01*
X7500000Y-52400544D01*
X7500000Y-52599456D01*
X7576120Y-52783227D01*
X7716773Y-52923880D01*
X7900544Y-53000000D01*
X8099456Y-53000000D01*
X8283227Y-52923880D01*
X8423880Y-52783227D01*
X8500000Y-52599456D01*
X8500000Y-52400544D01*
X9500000Y-52400544D01*
X9500000Y-52599456D01*
X9576120Y-52783227D01*
X9716773Y-52923880D01*
X9900544Y-53000000D01*
X10099456Y-53000000D01*
X10283227Y-52923880D01*
X10423880Y-52783227D01*
X10500000Y-52599456D01*
X10500000Y-52520544D01*
X28750000Y-52520544D01*
X28750000Y-52719456D01*
X28826120Y-52903227D01*
X28966773Y-53043880D01*
X29150544Y-53120000D01*
X29349456Y-53120000D01*
X29533227Y-53043880D01*
X29673880Y-52903227D01*
X29750000Y-52719456D01*
X29750000Y-52550544D01*
X31750000Y-52550544D01*
X31750000Y-52749456D01*
X31826120Y-52933227D01*
X31966773Y-53073880D01*
X32150544Y-53150000D01*
X32349456Y-53150000D01*
X32500000Y-53087643D01*
X32650544Y-53150000D01*
X32849456Y-53150000D01*
X33000000Y-53087643D01*
X33150544Y-53150000D01*
X33349456Y-53150000D01*
X33533227Y-53073880D01*
X33673880Y-52933227D01*
X33728146Y-52802217D01*
X33803122Y-52983227D01*
X33943775Y-53123880D01*
X34127546Y-53200000D01*
X34326458Y-53200000D01*
X34510229Y-53123880D01*
X34650882Y-52983227D01*
X34727002Y-52799456D01*
X34727002Y-52600544D01*
X34685581Y-52500544D01*
X43250000Y-52500544D01*
X43250000Y-52699456D01*
X43326120Y-52883227D01*
X43466773Y-53023880D01*
X43650544Y-53100000D01*
X43849456Y-53100000D01*
X44000000Y-53037643D01*
X44150544Y-53100000D01*
X44349456Y-53100000D01*
X44500000Y-53037643D01*
X44650544Y-53100000D01*
X44849456Y-53100000D01*
X45000000Y-53037643D01*
X45150544Y-53100000D01*
X45349456Y-53100000D01*
X45533227Y-53023880D01*
X45673880Y-52883227D01*
X45750000Y-52699456D01*
X45750000Y-52550544D01*
X49750000Y-52550544D01*
X49750000Y-52749456D01*
X49826120Y-52933227D01*
X49966773Y-53073880D01*
X50150544Y-53150000D01*
X50349456Y-53150000D01*
X50525000Y-53077288D01*
X50700544Y-53150000D01*
X50899456Y-53150000D01*
X51083227Y-53073880D01*
X51223880Y-52933227D01*
X51300000Y-52749456D01*
X51300000Y-52550544D01*
X51237869Y-52400544D01*
X65500000Y-52400544D01*
X65500000Y-52599456D01*
X65576120Y-52783227D01*
X65716773Y-52923880D01*
X65900544Y-53000000D01*
X66099456Y-53000000D01*
X66283227Y-52923880D01*
X66423880Y-52783227D01*
X66500000Y-52599456D01*
X66500000Y-52400544D01*
X67500000Y-52400544D01*
X67500000Y-52599456D01*
X67576120Y-52783227D01*
X67716773Y-52923880D01*
X67900544Y-53000000D01*
X68099456Y-53000000D01*
X68283227Y-52923880D01*
X68423880Y-52783227D01*
X68500000Y-52599456D01*
X68500000Y-52400544D01*
X69500000Y-52400544D01*
X69500000Y-52599456D01*
X69576120Y-52783227D01*
X69716773Y-52923880D01*
X69900544Y-53000000D01*
X70099456Y-53000000D01*
X70283227Y-52923880D01*
X70423880Y-52783227D01*
X70500000Y-52599456D01*
X70500000Y-52400544D01*
X71500000Y-52400544D01*
X71500000Y-52599456D01*
X71576120Y-52783227D01*
X71716773Y-52923880D01*
X71900544Y-53000000D01*
X72099456Y-53000000D01*
X72283227Y-52923880D01*
X72423880Y-52783227D01*
X72500000Y-52599456D01*
X72500000Y-52400544D01*
X72423880Y-52216773D01*
X72283227Y-52076120D01*
X72099456Y-52000000D01*
X71900544Y-52000000D01*
X71716773Y-52076120D01*
X71576120Y-52216773D01*
X71500000Y-52400544D01*
X70500000Y-52400544D01*
X70423880Y-52216773D01*
X70283227Y-52076120D01*
X70099456Y-52000000D01*
X69900544Y-52000000D01*
X69716773Y-52076120D01*
X69576120Y-52216773D01*
X69500000Y-52400544D01*
X68500000Y-52400544D01*
X68423880Y-52216773D01*
X68283227Y-52076120D01*
X68099456Y-52000000D01*
X67900544Y-52000000D01*
X67716773Y-52076120D01*
X67576120Y-52216773D01*
X67500000Y-52400544D01*
X66500000Y-52400544D01*
X66423880Y-52216773D01*
X66283227Y-52076120D01*
X66099456Y-52000000D01*
X65900544Y-52000000D01*
X65716773Y-52076120D01*
X65576120Y-52216773D01*
X65500000Y-52400544D01*
X51237869Y-52400544D01*
X51223880Y-52366773D01*
X51083227Y-52226120D01*
X50899456Y-52150000D01*
X50700544Y-52150000D01*
X50525000Y-52222712D01*
X50349456Y-52150000D01*
X50150544Y-52150000D01*
X49966773Y-52226120D01*
X49826120Y-52366773D01*
X49750000Y-52550544D01*
X45750000Y-52550544D01*
X45750000Y-52500544D01*
X45673880Y-52316773D01*
X45533227Y-52176120D01*
X45349456Y-52100000D01*
X45150544Y-52100000D01*
X45000000Y-52162357D01*
X44849456Y-52100000D01*
X44650544Y-52100000D01*
X44500000Y-52162357D01*
X44349456Y-52100000D01*
X44150544Y-52100000D01*
X44000000Y-52162357D01*
X43849456Y-52100000D01*
X43650544Y-52100000D01*
X43466773Y-52176120D01*
X43326120Y-52316773D01*
X43250000Y-52500544D01*
X34685581Y-52500544D01*
X34650882Y-52416773D01*
X34510229Y-52276120D01*
X34326458Y-52200000D01*
X34127546Y-52200000D01*
X33943775Y-52276120D01*
X33803122Y-52416773D01*
X33748856Y-52547783D01*
X33673880Y-52366773D01*
X33533227Y-52226120D01*
X33349456Y-52150000D01*
X33150544Y-52150000D01*
X33000000Y-52212357D01*
X32849456Y-52150000D01*
X32650544Y-52150000D01*
X32500000Y-52212357D01*
X32349456Y-52150000D01*
X32150544Y-52150000D01*
X31966773Y-52226120D01*
X31826120Y-52366773D01*
X31750000Y-52550544D01*
X29750000Y-52550544D01*
X29750000Y-52520544D01*
X29673880Y-52336773D01*
X29533227Y-52196120D01*
X29349456Y-52120000D01*
X29150544Y-52120000D01*
X28966773Y-52196120D01*
X28826120Y-52336773D01*
X28750000Y-52520544D01*
X10500000Y-52520544D01*
X10500000Y-52400544D01*
X10423880Y-52216773D01*
X10283227Y-52076120D01*
X10099456Y-52000000D01*
X9900544Y-52000000D01*
X9716773Y-52076120D01*
X9576120Y-52216773D01*
X9500000Y-52400544D01*
X8500000Y-52400544D01*
X8423880Y-52216773D01*
X8283227Y-52076120D01*
X8099456Y-52000000D01*
X7900544Y-52000000D01*
X7716773Y-52076120D01*
X7576120Y-52216773D01*
X7500000Y-52400544D01*
X6500000Y-52400544D01*
X6423880Y-52216773D01*
X6283227Y-52076120D01*
X6099456Y-52000000D01*
X5900544Y-52000000D01*
X5716773Y-52076120D01*
X5576120Y-52216773D01*
X5500000Y-52400544D01*
X4500000Y-52400544D01*
X4423880Y-52216773D01*
X4283227Y-52076120D01*
X4099456Y-52000000D01*
X3900544Y-52000000D01*
X3716773Y-52076120D01*
X3576120Y-52216773D01*
X3500000Y-52400544D01*
X400000Y-52400544D01*
X400000Y-50650544D01*
X26880000Y-50650544D01*
X26880000Y-50849456D01*
X26956120Y-51033227D01*
X27096773Y-51173880D01*
X27280544Y-51250000D01*
X27479456Y-51250000D01*
X27663227Y-51173880D01*
X27803880Y-51033227D01*
X27880000Y-50849456D01*
X27880000Y-50650544D01*
X27803880Y-50466773D01*
X27663227Y-50326120D01*
X27479456Y-50250000D01*
X27280544Y-50250000D01*
X27096773Y-50326120D01*
X26956120Y-50466773D01*
X26880000Y-50650544D01*
X400000Y-50650544D01*
X400000Y-49650544D01*
X6600000Y-49650544D01*
X6600000Y-49849456D01*
X6676120Y-50033227D01*
X6816773Y-50173880D01*
X7000544Y-50250000D01*
X7199456Y-50250000D01*
X7383227Y-50173880D01*
X7523880Y-50033227D01*
X7578838Y-49900544D01*
X10500000Y-49900544D01*
X10500000Y-50099456D01*
X10576120Y-50283227D01*
X10716773Y-50423880D01*
X10900544Y-50500000D01*
X11099456Y-50500000D01*
X11283227Y-50423880D01*
X11423880Y-50283227D01*
X11500000Y-50099456D01*
X11500000Y-50000544D01*
X69500000Y-50000544D01*
X69500000Y-50199456D01*
X69576120Y-50383227D01*
X69716773Y-50523880D01*
X69900544Y-50600000D01*
X70099456Y-50600000D01*
X70283227Y-50523880D01*
X70423880Y-50383227D01*
X70468821Y-50274728D01*
X70650544Y-50350000D01*
X70849456Y-50350000D01*
X71033227Y-50273880D01*
X71173880Y-50133227D01*
X71250000Y-49949456D01*
X71250000Y-49750544D01*
X71173880Y-49566773D01*
X71033227Y-49426120D01*
X70849456Y-49350000D01*
X70650544Y-49350000D01*
X70466773Y-49426120D01*
X70326120Y-49566773D01*
X70281179Y-49675272D01*
X70099456Y-49600000D01*
X69900544Y-49600000D01*
X69716773Y-49676120D01*
X69576120Y-49816773D01*
X69500000Y-50000544D01*
X11500000Y-50000544D01*
X11500000Y-49900544D01*
X11423880Y-49716773D01*
X11283227Y-49576120D01*
X11099456Y-49500000D01*
X10900544Y-49500000D01*
X10716773Y-49576120D01*
X10576120Y-49716773D01*
X10500000Y-49900544D01*
X7578838Y-49900544D01*
X7600000Y-49849456D01*
X7600000Y-49650544D01*
X7523880Y-49466773D01*
X7383227Y-49326120D01*
X7199456Y-49250000D01*
X7000544Y-49250000D01*
X6816773Y-49326120D01*
X6676120Y-49466773D01*
X6600000Y-49650544D01*
X400000Y-49650544D01*
X400000Y-48200544D01*
X49650000Y-48200544D01*
X49650000Y-48399456D01*
X49726120Y-48583227D01*
X49866773Y-48723880D01*
X50000000Y-48779064D01*
X50000000Y-48899456D01*
X50076120Y-49083227D01*
X50216773Y-49223880D01*
X50250000Y-49237643D01*
X50250000Y-49349456D01*
X50326120Y-49533227D01*
X50466773Y-49673880D01*
X50650544Y-49750000D01*
X50849456Y-49750000D01*
X51033227Y-49673880D01*
X51173880Y-49533227D01*
X51250000Y-49349456D01*
X51250000Y-49150544D01*
X51173880Y-48966773D01*
X51033227Y-48826120D01*
X51000000Y-48812357D01*
X51000000Y-48700544D01*
X50967274Y-48621534D01*
X66400000Y-48621534D01*
X66400000Y-48820446D01*
X66476120Y-49004217D01*
X66616773Y-49144870D01*
X66800544Y-49220990D01*
X66999456Y-49220990D01*
X67072990Y-49190531D01*
X67072990Y-49272446D01*
X67149110Y-49456217D01*
X67289763Y-49596870D01*
X67473534Y-49672990D01*
X67672446Y-49672990D01*
X67856217Y-49596870D01*
X67996870Y-49456217D01*
X68072990Y-49272446D01*
X68072990Y-49073534D01*
X67996870Y-48889763D01*
X67856217Y-48749110D01*
X67672446Y-48672990D01*
X67473534Y-48672990D01*
X67400000Y-48703449D01*
X67400000Y-48621534D01*
X67323880Y-48437763D01*
X67183227Y-48297110D01*
X66999456Y-48220990D01*
X66800544Y-48220990D01*
X66616773Y-48297110D01*
X66476120Y-48437763D01*
X66400000Y-48621534D01*
X50967274Y-48621534D01*
X50923880Y-48516773D01*
X50783227Y-48376120D01*
X50650000Y-48320936D01*
X50650000Y-48200544D01*
X50573880Y-48016773D01*
X50433227Y-47876120D01*
X50249456Y-47800000D01*
X50050544Y-47800000D01*
X49866773Y-47876120D01*
X49726120Y-48016773D01*
X49650000Y-48200544D01*
X400000Y-48200544D01*
X400000Y-42174583D01*
X26293924Y-42174583D01*
X26293924Y-42373495D01*
X26370044Y-42557266D01*
X26510697Y-42697919D01*
X26694468Y-42774039D01*
X26893380Y-42774039D01*
X27077151Y-42697919D01*
X27217804Y-42557266D01*
X27293924Y-42373495D01*
X27293924Y-42213407D01*
X27437791Y-42272998D01*
X27636703Y-42272998D01*
X27820474Y-42196878D01*
X27961127Y-42056225D01*
X28037247Y-41872454D01*
X28037247Y-41673542D01*
X27961127Y-41489771D01*
X27862664Y-41391308D01*
X27880000Y-41349456D01*
X27880000Y-41150544D01*
X27803880Y-40966773D01*
X27737651Y-40900544D01*
X61000000Y-40900544D01*
X61000000Y-41099456D01*
X61076120Y-41283227D01*
X61216773Y-41423880D01*
X61400544Y-41500000D01*
X61599456Y-41500000D01*
X61783227Y-41423880D01*
X61923880Y-41283227D01*
X62000000Y-41099456D01*
X62000000Y-40900544D01*
X70000000Y-40900544D01*
X70000000Y-41099456D01*
X70076120Y-41283227D01*
X70216773Y-41423880D01*
X70400544Y-41500000D01*
X70599456Y-41500000D01*
X70783227Y-41423880D01*
X70923880Y-41283227D01*
X71000000Y-41099456D01*
X71000000Y-40900544D01*
X70923880Y-40716773D01*
X70783227Y-40576120D01*
X70599456Y-40500000D01*
X70400544Y-40500000D01*
X70216773Y-40576120D01*
X70076120Y-40716773D01*
X70000000Y-40900544D01*
X62000000Y-40900544D01*
X61923880Y-40716773D01*
X61783227Y-40576120D01*
X61599456Y-40500000D01*
X61400544Y-40500000D01*
X61216773Y-40576120D01*
X61076120Y-40716773D01*
X61000000Y-40900544D01*
X27737651Y-40900544D01*
X27663227Y-40826120D01*
X27479456Y-40750000D01*
X27280544Y-40750000D01*
X27096773Y-40826120D01*
X26956120Y-40966773D01*
X26880000Y-41150544D01*
X26880000Y-41349456D01*
X26956120Y-41533227D01*
X27054583Y-41631690D01*
X27037247Y-41673542D01*
X27037247Y-41833630D01*
X26893380Y-41774039D01*
X26694468Y-41774039D01*
X26510697Y-41850159D01*
X26370044Y-41990812D01*
X26293924Y-42174583D01*
X400000Y-42174583D01*
X400000Y-40900544D01*
X7000000Y-40900544D01*
X7000000Y-41099456D01*
X7076120Y-41283227D01*
X7216773Y-41423880D01*
X7400544Y-41500000D01*
X7599456Y-41500000D01*
X7783227Y-41423880D01*
X7923880Y-41283227D01*
X8000000Y-41099456D01*
X8000000Y-40900544D01*
X7923880Y-40716773D01*
X7783227Y-40576120D01*
X7599456Y-40500000D01*
X7400544Y-40500000D01*
X7216773Y-40576120D01*
X7076120Y-40716773D01*
X7000000Y-40900544D01*
X400000Y-40900544D01*
X400000Y-38900544D01*
X7000000Y-38900544D01*
X7000000Y-39099456D01*
X7076120Y-39283227D01*
X7216773Y-39423880D01*
X7400544Y-39500000D01*
X7599456Y-39500000D01*
X7783227Y-39423880D01*
X7923880Y-39283227D01*
X8000000Y-39099456D01*
X8000000Y-38900544D01*
X7923880Y-38716773D01*
X7783227Y-38576120D01*
X7599456Y-38500000D01*
X7400544Y-38500000D01*
X7216773Y-38576120D01*
X7076120Y-38716773D01*
X7000000Y-38900544D01*
X400000Y-38900544D01*
X400000Y-38350544D01*
X20250000Y-38350544D01*
X20250000Y-38549456D01*
X20326120Y-38733227D01*
X20466773Y-38873880D01*
X20650544Y-38950000D01*
X20849456Y-38950000D01*
X21033227Y-38873880D01*
X21050000Y-38857107D01*
X21116773Y-38923880D01*
X21300544Y-39000000D01*
X21499456Y-39000000D01*
X21683227Y-38923880D01*
X21706563Y-38900544D01*
X61000000Y-38900544D01*
X61000000Y-39099456D01*
X61076120Y-39283227D01*
X61216773Y-39423880D01*
X61400544Y-39500000D01*
X61599456Y-39500000D01*
X61783227Y-39423880D01*
X61923880Y-39283227D01*
X62000000Y-39099456D01*
X62000000Y-38900544D01*
X70000000Y-38900544D01*
X70000000Y-39099456D01*
X70076120Y-39283227D01*
X70216773Y-39423880D01*
X70400544Y-39500000D01*
X70599456Y-39500000D01*
X70783227Y-39423880D01*
X70923880Y-39283227D01*
X71000000Y-39099456D01*
X71000000Y-38900544D01*
X70923880Y-38716773D01*
X70783227Y-38576120D01*
X70599456Y-38500000D01*
X70400544Y-38500000D01*
X70216773Y-38576120D01*
X70076120Y-38716773D01*
X70000000Y-38900544D01*
X62000000Y-38900544D01*
X61923880Y-38716773D01*
X61783227Y-38576120D01*
X61599456Y-38500000D01*
X61400544Y-38500000D01*
X61216773Y-38576120D01*
X61076120Y-38716773D01*
X61000000Y-38900544D01*
X21706563Y-38900544D01*
X21823880Y-38783227D01*
X21900000Y-38599456D01*
X21900000Y-38400544D01*
X21823880Y-38216773D01*
X21683227Y-38076120D01*
X21499456Y-38000000D01*
X21300544Y-38000000D01*
X21116773Y-38076120D01*
X21100000Y-38092893D01*
X21033227Y-38026120D01*
X20849456Y-37950000D01*
X20650544Y-37950000D01*
X20466773Y-38026120D01*
X20326120Y-38166773D01*
X20250000Y-38350544D01*
X400000Y-38350544D01*
X400000Y-36900544D01*
X7000000Y-36900544D01*
X7000000Y-37099456D01*
X7076120Y-37283227D01*
X7216773Y-37423880D01*
X7400544Y-37500000D01*
X7599456Y-37500000D01*
X7783227Y-37423880D01*
X7923880Y-37283227D01*
X8000000Y-37099456D01*
X8000000Y-36900544D01*
X7971661Y-36832125D01*
X19185964Y-36832125D01*
X19185964Y-37031037D01*
X19262084Y-37214808D01*
X19402737Y-37355461D01*
X19586508Y-37431581D01*
X19785420Y-37431581D01*
X19969191Y-37355461D01*
X20109844Y-37214808D01*
X20185964Y-37031037D01*
X20185964Y-36871143D01*
X20275464Y-36781643D01*
X20276120Y-36783227D01*
X20416773Y-36923880D01*
X20600544Y-37000000D01*
X20799456Y-37000000D01*
X20983227Y-36923880D01*
X21123880Y-36783227D01*
X21129289Y-36770167D01*
X21176120Y-36883227D01*
X21316773Y-37023880D01*
X21500544Y-37100000D01*
X21699456Y-37100000D01*
X21883227Y-37023880D01*
X22023880Y-36883227D01*
X22050000Y-36820167D01*
X22076120Y-36883227D01*
X22203712Y-37010819D01*
X22166773Y-37026120D01*
X22026120Y-37166773D01*
X21950000Y-37350544D01*
X21950000Y-37549456D01*
X22026120Y-37733227D01*
X22166773Y-37873880D01*
X22350544Y-37950000D01*
X22549456Y-37950000D01*
X22733227Y-37873880D01*
X22873880Y-37733227D01*
X22950000Y-37549456D01*
X22950000Y-37350544D01*
X22873880Y-37166773D01*
X22746288Y-37039181D01*
X22783227Y-37023880D01*
X22906563Y-36900544D01*
X61000000Y-36900544D01*
X61000000Y-37099456D01*
X61076120Y-37283227D01*
X61216773Y-37423880D01*
X61400544Y-37500000D01*
X61599456Y-37500000D01*
X61783227Y-37423880D01*
X61923880Y-37283227D01*
X62000000Y-37099456D01*
X62000000Y-36900544D01*
X70000000Y-36900544D01*
X70000000Y-37099456D01*
X70076120Y-37283227D01*
X70216773Y-37423880D01*
X70400544Y-37500000D01*
X70599456Y-37500000D01*
X70783227Y-37423880D01*
X70923880Y-37283227D01*
X71000000Y-37099456D01*
X71000000Y-36900544D01*
X70923880Y-36716773D01*
X70783227Y-36576120D01*
X70599456Y-36500000D01*
X70400544Y-36500000D01*
X70216773Y-36576120D01*
X70076120Y-36716773D01*
X70000000Y-36900544D01*
X62000000Y-36900544D01*
X61923880Y-36716773D01*
X61783227Y-36576120D01*
X61599456Y-36500000D01*
X61400544Y-36500000D01*
X61216773Y-36576120D01*
X61076120Y-36716773D01*
X61000000Y-36900544D01*
X22906563Y-36900544D01*
X22923880Y-36883227D01*
X23000000Y-36699456D01*
X23000000Y-36500544D01*
X22923880Y-36316773D01*
X22783227Y-36176120D01*
X22599456Y-36100000D01*
X22400544Y-36100000D01*
X22216773Y-36176120D01*
X22076120Y-36316773D01*
X22050000Y-36379833D01*
X22023880Y-36316773D01*
X21883227Y-36176120D01*
X21699456Y-36100000D01*
X21500544Y-36100000D01*
X21316773Y-36176120D01*
X21176120Y-36316773D01*
X21170711Y-36329833D01*
X21123880Y-36216773D01*
X20983227Y-36076120D01*
X20799456Y-36000000D01*
X20600544Y-36000000D01*
X20416773Y-36076120D01*
X20324536Y-36168357D01*
X20323880Y-36166773D01*
X20183227Y-36026120D01*
X19999456Y-35950000D01*
X19800544Y-35950000D01*
X19616773Y-36026120D01*
X19476120Y-36166773D01*
X19400000Y-36350544D01*
X19400000Y-36510438D01*
X19262084Y-36648354D01*
X19185964Y-36832125D01*
X7971661Y-36832125D01*
X7923880Y-36716773D01*
X7783227Y-36576120D01*
X7599456Y-36500000D01*
X7400544Y-36500000D01*
X7216773Y-36576120D01*
X7076120Y-36716773D01*
X7000000Y-36900544D01*
X400000Y-36900544D01*
X400000Y-35802543D01*
X54000000Y-35802543D01*
X54000000Y-36001455D01*
X54076120Y-36185226D01*
X54216773Y-36325879D01*
X54400544Y-36401999D01*
X54599456Y-36401999D01*
X54783227Y-36325879D01*
X54923880Y-36185226D01*
X55000000Y-36001455D01*
X55000000Y-35802543D01*
X54923880Y-35618772D01*
X54783227Y-35478119D01*
X54599456Y-35401999D01*
X54400544Y-35401999D01*
X54216773Y-35478119D01*
X54076120Y-35618772D01*
X54000000Y-35802543D01*
X400000Y-35802543D01*
X400000Y-34900544D01*
X7000000Y-34900544D01*
X7000000Y-35099456D01*
X7076120Y-35283227D01*
X7216773Y-35423880D01*
X7400544Y-35500000D01*
X7599456Y-35500000D01*
X7783227Y-35423880D01*
X7923880Y-35283227D01*
X7978838Y-35150544D01*
X53120000Y-35150544D01*
X53120000Y-35349456D01*
X53196120Y-35533227D01*
X53336773Y-35673880D01*
X53520544Y-35750000D01*
X53719456Y-35750000D01*
X53903227Y-35673880D01*
X54043880Y-35533227D01*
X54120000Y-35349456D01*
X54120000Y-35250069D01*
X54183227Y-35223880D01*
X54323880Y-35083227D01*
X54400000Y-34899456D01*
X54400000Y-34700544D01*
X54323880Y-34516773D01*
X54241038Y-34433931D01*
X54400544Y-34500000D01*
X54599456Y-34500000D01*
X54783227Y-34423880D01*
X54923880Y-34283227D01*
X55000000Y-34099456D01*
X55000000Y-33900544D01*
X54923880Y-33716773D01*
X54783227Y-33576120D01*
X54599456Y-33500000D01*
X54400544Y-33500000D01*
X54216773Y-33576120D01*
X54076120Y-33716773D01*
X54000000Y-33900544D01*
X54000000Y-34099456D01*
X54076120Y-34283227D01*
X54158962Y-34366069D01*
X53999456Y-34300000D01*
X53800544Y-34300000D01*
X53616773Y-34376120D01*
X53476120Y-34516773D01*
X53400000Y-34700544D01*
X53400000Y-34799931D01*
X53336773Y-34826120D01*
X53196120Y-34966773D01*
X53120000Y-35150544D01*
X7978838Y-35150544D01*
X8000000Y-35099456D01*
X8000000Y-34900544D01*
X7923880Y-34716773D01*
X7783227Y-34576120D01*
X7599456Y-34500000D01*
X7400544Y-34500000D01*
X7216773Y-34576120D01*
X7076120Y-34716773D01*
X7000000Y-34900544D01*
X400000Y-34900544D01*
X400000Y-33850544D01*
X16150000Y-33850544D01*
X16150000Y-34049456D01*
X16226120Y-34233227D01*
X16366773Y-34373880D01*
X16550544Y-34450000D01*
X16749456Y-34450000D01*
X16933227Y-34373880D01*
X17073880Y-34233227D01*
X17108128Y-34150544D01*
X17200000Y-34150544D01*
X17200000Y-34349456D01*
X17276120Y-34533227D01*
X17416773Y-34673880D01*
X17600544Y-34750000D01*
X17799456Y-34750000D01*
X17983227Y-34673880D01*
X18081852Y-34575255D01*
X18141086Y-34718261D01*
X18281739Y-34858914D01*
X18465510Y-34935034D01*
X18664422Y-34935034D01*
X18848193Y-34858914D01*
X18988846Y-34718261D01*
X19064966Y-34534490D01*
X19064966Y-34335578D01*
X18988846Y-34151807D01*
X18848193Y-34011154D01*
X18664422Y-33935034D01*
X18465510Y-33935034D01*
X18281739Y-34011154D01*
X18183114Y-34109779D01*
X18123880Y-33966773D01*
X17983227Y-33826120D01*
X17799456Y-33750000D01*
X17600544Y-33750000D01*
X17416773Y-33826120D01*
X17276120Y-33966773D01*
X17200000Y-34150544D01*
X17108128Y-34150544D01*
X17150000Y-34049456D01*
X17150000Y-33850544D01*
X17073880Y-33666773D01*
X17007651Y-33600544D01*
X18750000Y-33600544D01*
X18750000Y-33799456D01*
X18826120Y-33983227D01*
X18966773Y-34123880D01*
X19150544Y-34200000D01*
X19240893Y-34200000D01*
X19176120Y-34264773D01*
X19100000Y-34448544D01*
X19100000Y-34647456D01*
X19176120Y-34831227D01*
X19316773Y-34971880D01*
X19500544Y-35048000D01*
X19699456Y-35048000D01*
X19883227Y-34971880D01*
X20023880Y-34831227D01*
X20100000Y-34647456D01*
X20100000Y-34448544D01*
X20023880Y-34264773D01*
X19883227Y-34124120D01*
X19699456Y-34048000D01*
X19609107Y-34048000D01*
X19673880Y-33983227D01*
X19750000Y-33799456D01*
X19750000Y-33600544D01*
X19673880Y-33416773D01*
X19533227Y-33276120D01*
X19349456Y-33200000D01*
X19150544Y-33200000D01*
X18966773Y-33276120D01*
X18826120Y-33416773D01*
X18750000Y-33600544D01*
X17007651Y-33600544D01*
X16933227Y-33526120D01*
X16749456Y-33450000D01*
X16550544Y-33450000D01*
X16366773Y-33526120D01*
X16226120Y-33666773D01*
X16150000Y-33850544D01*
X400000Y-33850544D01*
X400000Y-33150544D01*
X52120000Y-33150544D01*
X52120000Y-33349456D01*
X52196120Y-33533227D01*
X52197869Y-33534976D01*
X52150000Y-33650544D01*
X52150000Y-33849456D01*
X52197869Y-33965024D01*
X52196120Y-33966773D01*
X52120000Y-34150544D01*
X52120000Y-34349456D01*
X52196120Y-34533227D01*
X52336773Y-34673880D01*
X52520544Y-34750000D01*
X52719456Y-34750000D01*
X52903227Y-34673880D01*
X53043880Y-34533227D01*
X53120000Y-34349456D01*
X53120000Y-34150544D01*
X53072131Y-34034976D01*
X53073880Y-34033227D01*
X53150000Y-33849456D01*
X53150000Y-33650544D01*
X53073880Y-33466773D01*
X53072131Y-33465024D01*
X53120000Y-33349456D01*
X53120000Y-33150544D01*
X53043880Y-32966773D01*
X52903227Y-32826120D01*
X52719456Y-32750000D01*
X52520544Y-32750000D01*
X52336773Y-32826120D01*
X52196120Y-32966773D01*
X52120000Y-33150544D01*
X400000Y-33150544D01*
X400000Y-31800544D01*
X13500000Y-31800544D01*
X13500000Y-31999456D01*
X13576120Y-32183227D01*
X13716773Y-32323880D01*
X13900544Y-32400000D01*
X14099456Y-32400000D01*
X14283227Y-32323880D01*
X14354563Y-32252544D01*
X14800000Y-32252544D01*
X14800000Y-32451456D01*
X14876120Y-32635227D01*
X15016773Y-32775880D01*
X15200544Y-32852000D01*
X15399456Y-32852000D01*
X15583227Y-32775880D01*
X15723880Y-32635227D01*
X15800000Y-32451456D01*
X15800000Y-32252544D01*
X15737040Y-32100544D01*
X25750000Y-32100544D01*
X25750000Y-32299456D01*
X25826120Y-32483227D01*
X25966773Y-32623880D01*
X26150544Y-32700000D01*
X26349456Y-32700000D01*
X26533227Y-32623880D01*
X26673880Y-32483227D01*
X26687417Y-32450544D01*
X54000000Y-32450544D01*
X54000000Y-32649456D01*
X54076120Y-32833227D01*
X54216773Y-32973880D01*
X54400544Y-33050000D01*
X54599456Y-33050000D01*
X54783227Y-32973880D01*
X54923880Y-32833227D01*
X55000000Y-32649456D01*
X55000000Y-32450544D01*
X54923880Y-32266773D01*
X54783227Y-32126120D01*
X54599456Y-32050000D01*
X54400544Y-32050000D01*
X54216773Y-32126120D01*
X54076120Y-32266773D01*
X54000000Y-32450544D01*
X26687417Y-32450544D01*
X26750000Y-32299456D01*
X26750000Y-32100544D01*
X26708579Y-32000544D01*
X73048000Y-32000544D01*
X73048000Y-32199456D01*
X73124120Y-32383227D01*
X73264773Y-32523880D01*
X73388188Y-32575000D01*
X73264773Y-32626120D01*
X73124120Y-32766773D01*
X73048000Y-32950544D01*
X73048000Y-33149456D01*
X73124120Y-33333227D01*
X73264773Y-33473880D01*
X73448544Y-33550000D01*
X73647456Y-33550000D01*
X73831227Y-33473880D01*
X73971880Y-33333227D01*
X74010355Y-33240339D01*
X74028120Y-33283227D01*
X74168773Y-33423880D01*
X74352544Y-33500000D01*
X74419891Y-33500000D01*
X74456972Y-33589523D01*
X74597625Y-33730176D01*
X74781396Y-33806296D01*
X74980308Y-33806296D01*
X75164079Y-33730176D01*
X75304732Y-33589523D01*
X75380852Y-33405752D01*
X75380852Y-33206840D01*
X75304732Y-33023069D01*
X75164079Y-32882416D01*
X74980308Y-32806296D01*
X74912961Y-32806296D01*
X74875880Y-32716773D01*
X74735227Y-32576120D01*
X74551456Y-32500000D01*
X74352544Y-32500000D01*
X74168773Y-32576120D01*
X74028120Y-32716773D01*
X73989645Y-32809661D01*
X73971880Y-32766773D01*
X73831227Y-32626120D01*
X73707812Y-32575000D01*
X73831227Y-32523880D01*
X73971880Y-32383227D01*
X74048000Y-32199456D01*
X74048000Y-32000544D01*
X73971880Y-31816773D01*
X73831227Y-31676120D01*
X73647456Y-31600000D01*
X73448544Y-31600000D01*
X73264773Y-31676120D01*
X73124120Y-31816773D01*
X73048000Y-32000544D01*
X26708579Y-32000544D01*
X26673880Y-31916773D01*
X26533227Y-31776120D01*
X26349456Y-31700000D01*
X26150544Y-31700000D01*
X25966773Y-31776120D01*
X25826120Y-31916773D01*
X25750000Y-32100544D01*
X15737040Y-32100544D01*
X15723880Y-32068773D01*
X15583227Y-31928120D01*
X15399456Y-31852000D01*
X15200544Y-31852000D01*
X15016773Y-31928120D01*
X14876120Y-32068773D01*
X14800000Y-32252544D01*
X14354563Y-32252544D01*
X14423880Y-32183227D01*
X14500000Y-31999456D01*
X14500000Y-31800544D01*
X14423880Y-31616773D01*
X14283227Y-31476120D01*
X14099456Y-31400000D01*
X13900544Y-31400000D01*
X13716773Y-31476120D01*
X13576120Y-31616773D01*
X13500000Y-31800544D01*
X400000Y-31800544D01*
X400000Y-30750544D01*
X12300000Y-30750544D01*
X12300000Y-30949456D01*
X12376120Y-31133227D01*
X12516773Y-31273880D01*
X12700544Y-31350000D01*
X12899456Y-31350000D01*
X13083227Y-31273880D01*
X13223880Y-31133227D01*
X13237417Y-31100544D01*
X52200000Y-31100544D01*
X52200000Y-31299456D01*
X52276120Y-31483227D01*
X52416773Y-31623880D01*
X52600544Y-31700000D01*
X52799456Y-31700000D01*
X52983227Y-31623880D01*
X53123880Y-31483227D01*
X53200000Y-31299456D01*
X53200000Y-31100544D01*
X53179290Y-31050544D01*
X53548000Y-31050544D01*
X53548000Y-31249456D01*
X53624120Y-31433227D01*
X53764773Y-31573880D01*
X53948544Y-31650000D01*
X54147456Y-31650000D01*
X54331227Y-31573880D01*
X54471880Y-31433227D01*
X54548000Y-31249456D01*
X54548000Y-31050544D01*
X54471880Y-30866773D01*
X54331227Y-30726120D01*
X54147456Y-30650000D01*
X53948544Y-30650000D01*
X53764773Y-30726120D01*
X53624120Y-30866773D01*
X53548000Y-31050544D01*
X53179290Y-31050544D01*
X53123880Y-30916773D01*
X52983227Y-30776120D01*
X52799456Y-30700000D01*
X52600544Y-30700000D01*
X52416773Y-30776120D01*
X52276120Y-30916773D01*
X52200000Y-31100544D01*
X13237417Y-31100544D01*
X13300000Y-30949456D01*
X13300000Y-30750544D01*
X13223880Y-30566773D01*
X13083227Y-30426120D01*
X12899456Y-30350000D01*
X12700544Y-30350000D01*
X12516773Y-30426120D01*
X12376120Y-30566773D01*
X12300000Y-30750544D01*
X400000Y-30750544D01*
X400000Y-29150544D01*
X26850000Y-29150544D01*
X26850000Y-29349456D01*
X26926120Y-29533227D01*
X27066773Y-29673880D01*
X27250544Y-29750000D01*
X27449456Y-29750000D01*
X27633227Y-29673880D01*
X27773880Y-29533227D01*
X27850000Y-29349456D01*
X27850000Y-29150544D01*
X27773880Y-28966773D01*
X27633227Y-28826120D01*
X27449456Y-28750000D01*
X27250544Y-28750000D01*
X27066773Y-28826120D01*
X26926120Y-28966773D01*
X26850000Y-29150544D01*
X400000Y-29150544D01*
X400000Y-27400544D01*
X7500000Y-27400544D01*
X7500000Y-27599456D01*
X7576120Y-27783227D01*
X7716773Y-27923880D01*
X7900544Y-28000000D01*
X8099456Y-28000000D01*
X8283227Y-27923880D01*
X8423880Y-27783227D01*
X8500000Y-27599456D01*
X8500000Y-27400544D01*
X9500000Y-27400544D01*
X9500000Y-27599456D01*
X9576120Y-27783227D01*
X9716773Y-27923880D01*
X9900544Y-28000000D01*
X10099456Y-28000000D01*
X10283227Y-27923880D01*
X10423880Y-27783227D01*
X10500000Y-27599456D01*
X10500000Y-27400544D01*
X11500000Y-27400544D01*
X11500000Y-27599456D01*
X11576120Y-27783227D01*
X11716773Y-27923880D01*
X11900544Y-28000000D01*
X12099456Y-28000000D01*
X12283227Y-27923880D01*
X12423880Y-27783227D01*
X12500000Y-27599456D01*
X12500000Y-27400544D01*
X13500000Y-27400544D01*
X13500000Y-27599456D01*
X13576120Y-27783227D01*
X13716773Y-27923880D01*
X13900544Y-28000000D01*
X14099456Y-28000000D01*
X14283227Y-27923880D01*
X14423880Y-27783227D01*
X14500000Y-27599456D01*
X14500000Y-27400544D01*
X14458579Y-27300544D01*
X28750000Y-27300544D01*
X28750000Y-27499456D01*
X28826120Y-27683227D01*
X28966773Y-27823880D01*
X29150544Y-27900000D01*
X29349456Y-27900000D01*
X29533227Y-27823880D01*
X29673880Y-27683227D01*
X29750000Y-27499456D01*
X29750000Y-27300544D01*
X36200000Y-27300544D01*
X36200000Y-27499456D01*
X36276120Y-27683227D01*
X36416773Y-27823880D01*
X36600544Y-27900000D01*
X36799456Y-27900000D01*
X36983227Y-27823880D01*
X37123880Y-27683227D01*
X37200000Y-27499456D01*
X37200000Y-27300544D01*
X38250000Y-27300544D01*
X38250000Y-27499456D01*
X38326120Y-27683227D01*
X38466773Y-27823880D01*
X38650544Y-27900000D01*
X38849456Y-27900000D01*
X39000000Y-27837643D01*
X39150544Y-27900000D01*
X39349456Y-27900000D01*
X39500000Y-27837643D01*
X39650544Y-27900000D01*
X39849456Y-27900000D01*
X40033227Y-27823880D01*
X40173880Y-27683227D01*
X40250000Y-27499456D01*
X40250000Y-27300544D01*
X40241716Y-27280544D01*
X46250000Y-27280544D01*
X46250000Y-27479456D01*
X46326120Y-27663227D01*
X46466773Y-27803880D01*
X46650544Y-27880000D01*
X46730872Y-27880000D01*
X46720652Y-27904674D01*
X46720652Y-28103586D01*
X46796772Y-28287357D01*
X46937425Y-28428010D01*
X47121196Y-28504130D01*
X47320108Y-28504130D01*
X47503879Y-28428010D01*
X47581345Y-28350544D01*
X54000000Y-28350544D01*
X54000000Y-28549456D01*
X54076120Y-28733227D01*
X54216773Y-28873880D01*
X54400544Y-28950000D01*
X54216773Y-29026120D01*
X54076120Y-29166773D01*
X54000000Y-29350544D01*
X54000000Y-29549456D01*
X54076120Y-29733227D01*
X54216773Y-29873880D01*
X54400544Y-29950000D01*
X54599456Y-29950000D01*
X54783227Y-29873880D01*
X54923880Y-29733227D01*
X55000000Y-29549456D01*
X55000000Y-29350544D01*
X54923880Y-29166773D01*
X54783227Y-29026120D01*
X54599456Y-28950000D01*
X54763499Y-28882051D01*
X54927545Y-28950001D01*
X55126457Y-28950001D01*
X55310228Y-28873881D01*
X55450881Y-28733228D01*
X55527001Y-28549457D01*
X55527001Y-28350545D01*
X55527001Y-28350544D01*
X55800000Y-28350544D01*
X55800000Y-28549456D01*
X55876120Y-28733227D01*
X56016773Y-28873880D01*
X56200544Y-28950000D01*
X56399456Y-28950000D01*
X56583227Y-28873880D01*
X56723880Y-28733227D01*
X56800000Y-28549456D01*
X56800000Y-28350544D01*
X56723880Y-28166773D01*
X56583227Y-28026120D01*
X56399456Y-27950000D01*
X56200544Y-27950000D01*
X56016773Y-28026120D01*
X55876120Y-28166773D01*
X55800000Y-28350544D01*
X55527001Y-28350544D01*
X55450881Y-28166774D01*
X55310228Y-28026121D01*
X55126457Y-27950001D01*
X54927545Y-27950001D01*
X54763502Y-28017950D01*
X54599456Y-27950000D01*
X54400544Y-27950000D01*
X54216773Y-28026120D01*
X54076120Y-28166773D01*
X54000000Y-28350544D01*
X47581345Y-28350544D01*
X47644532Y-28287357D01*
X47720652Y-28103586D01*
X47720652Y-27904674D01*
X47710432Y-27880000D01*
X47849456Y-27880000D01*
X48033227Y-27803880D01*
X48173880Y-27663227D01*
X48250000Y-27479456D01*
X48326120Y-27663227D01*
X48466773Y-27803880D01*
X48650544Y-27880000D01*
X48849456Y-27880000D01*
X49033227Y-27803880D01*
X49173880Y-27663227D01*
X49250000Y-27479456D01*
X49250000Y-27280544D01*
X49237574Y-27250544D01*
X50300000Y-27250544D01*
X50300000Y-27449456D01*
X50376120Y-27633227D01*
X50516773Y-27773880D01*
X50700544Y-27850000D01*
X50899456Y-27850000D01*
X51083227Y-27773880D01*
X51223880Y-27633227D01*
X51300000Y-27449456D01*
X51300000Y-27400544D01*
X69500000Y-27400544D01*
X69500000Y-27599456D01*
X69576120Y-27783227D01*
X69716773Y-27923880D01*
X69900544Y-28000000D01*
X70099456Y-28000000D01*
X70283227Y-27923880D01*
X70423880Y-27783227D01*
X70500000Y-27599456D01*
X70500000Y-27400544D01*
X71500000Y-27400544D01*
X71500000Y-27599456D01*
X71576120Y-27783227D01*
X71716773Y-27923880D01*
X71900544Y-28000000D01*
X72099456Y-28000000D01*
X72283227Y-27923880D01*
X72423880Y-27783227D01*
X72500000Y-27599456D01*
X72500000Y-27400544D01*
X73500000Y-27400544D01*
X73500000Y-27599456D01*
X73576120Y-27783227D01*
X73716773Y-27923880D01*
X73900544Y-28000000D01*
X74099456Y-28000000D01*
X74283227Y-27923880D01*
X74423880Y-27783227D01*
X74500000Y-27599456D01*
X74500000Y-27400544D01*
X75500000Y-27400544D01*
X75500000Y-27599456D01*
X75576120Y-27783227D01*
X75716773Y-27923880D01*
X75900544Y-28000000D01*
X76099456Y-28000000D01*
X76283227Y-27923880D01*
X76423880Y-27783227D01*
X76500000Y-27599456D01*
X76500000Y-27400544D01*
X76423880Y-27216773D01*
X76283227Y-27076120D01*
X76099456Y-27000000D01*
X75900544Y-27000000D01*
X75716773Y-27076120D01*
X75576120Y-27216773D01*
X75500000Y-27400544D01*
X74500000Y-27400544D01*
X74423880Y-27216773D01*
X74283227Y-27076120D01*
X74099456Y-27000000D01*
X73900544Y-27000000D01*
X73716773Y-27076120D01*
X73576120Y-27216773D01*
X73500000Y-27400544D01*
X72500000Y-27400544D01*
X72423880Y-27216773D01*
X72283227Y-27076120D01*
X72099456Y-27000000D01*
X71900544Y-27000000D01*
X71716773Y-27076120D01*
X71576120Y-27216773D01*
X71500000Y-27400544D01*
X70500000Y-27400544D01*
X70423880Y-27216773D01*
X70283227Y-27076120D01*
X70099456Y-27000000D01*
X69900544Y-27000000D01*
X69716773Y-27076120D01*
X69576120Y-27216773D01*
X69500000Y-27400544D01*
X51300000Y-27400544D01*
X51300000Y-27250544D01*
X51223880Y-27066773D01*
X51083227Y-26926120D01*
X50899456Y-26850000D01*
X50700544Y-26850000D01*
X50516773Y-26926120D01*
X50376120Y-27066773D01*
X50300000Y-27250544D01*
X49237574Y-27250544D01*
X49173880Y-27096773D01*
X49033227Y-26956120D01*
X48849456Y-26880000D01*
X48650544Y-26880000D01*
X48466773Y-26956120D01*
X48326120Y-27096773D01*
X48250000Y-27280544D01*
X48173880Y-27096773D01*
X48033227Y-26956120D01*
X47849456Y-26880000D01*
X47650544Y-26880000D01*
X47466773Y-26956120D01*
X47326120Y-27096773D01*
X47250000Y-27280544D01*
X47173880Y-27096773D01*
X47033227Y-26956120D01*
X46849456Y-26880000D01*
X46650544Y-26880000D01*
X46466773Y-26956120D01*
X46326120Y-27096773D01*
X46250000Y-27280544D01*
X40241716Y-27280544D01*
X40173880Y-27116773D01*
X40033227Y-26976120D01*
X39849456Y-26900000D01*
X39650544Y-26900000D01*
X39500000Y-26962357D01*
X39349456Y-26900000D01*
X39150544Y-26900000D01*
X39000000Y-26962357D01*
X38849456Y-26900000D01*
X38650544Y-26900000D01*
X38466773Y-26976120D01*
X38326120Y-27116773D01*
X38250000Y-27300544D01*
X37200000Y-27300544D01*
X37123880Y-27116773D01*
X36983227Y-26976120D01*
X36799456Y-26900000D01*
X36600544Y-26900000D01*
X36416773Y-26976120D01*
X36276120Y-27116773D01*
X36200000Y-27300544D01*
X29750000Y-27300544D01*
X29673880Y-27116773D01*
X29533227Y-26976120D01*
X29349456Y-26900000D01*
X29150544Y-26900000D01*
X28966773Y-26976120D01*
X28826120Y-27116773D01*
X28750000Y-27300544D01*
X14458579Y-27300544D01*
X14423880Y-27216773D01*
X14283227Y-27076120D01*
X14099456Y-27000000D01*
X13900544Y-27000000D01*
X13716773Y-27076120D01*
X13576120Y-27216773D01*
X13500000Y-27400544D01*
X12500000Y-27400544D01*
X12423880Y-27216773D01*
X12283227Y-27076120D01*
X12099456Y-27000000D01*
X11900544Y-27000000D01*
X11716773Y-27076120D01*
X11576120Y-27216773D01*
X11500000Y-27400544D01*
X10500000Y-27400544D01*
X10423880Y-27216773D01*
X10283227Y-27076120D01*
X10099456Y-27000000D01*
X9900544Y-27000000D01*
X9716773Y-27076120D01*
X9576120Y-27216773D01*
X9500000Y-27400544D01*
X8500000Y-27400544D01*
X8423880Y-27216773D01*
X8283227Y-27076120D01*
X8099456Y-27000000D01*
X7900544Y-27000000D01*
X7716773Y-27076120D01*
X7576120Y-27216773D01*
X7500000Y-27400544D01*
X400000Y-27400544D01*
X400000Y-26250544D01*
X53400000Y-26250544D01*
X53400000Y-26449456D01*
X53476120Y-26633227D01*
X53616773Y-26773880D01*
X53800544Y-26850000D01*
X53999456Y-26850000D01*
X54183227Y-26773880D01*
X54323880Y-26633227D01*
X54400000Y-26449456D01*
X54400000Y-26250544D01*
X54323880Y-26066773D01*
X54307651Y-26050544D01*
X55150000Y-26050544D01*
X55150000Y-26249456D01*
X55226120Y-26433227D01*
X55366773Y-26573880D01*
X55550544Y-26650000D01*
X55749456Y-26650000D01*
X55933227Y-26573880D01*
X56073880Y-26433227D01*
X56150000Y-26249456D01*
X56150000Y-26050544D01*
X56073880Y-25866773D01*
X55933227Y-25726120D01*
X55749456Y-25650000D01*
X55550544Y-25650000D01*
X55366773Y-25726120D01*
X55226120Y-25866773D01*
X55150000Y-26050544D01*
X54307651Y-26050544D01*
X54183227Y-25926120D01*
X53999456Y-25850000D01*
X53800544Y-25850000D01*
X53616773Y-25926120D01*
X53476120Y-26066773D01*
X53400000Y-26250544D01*
X400000Y-26250544D01*
X400000Y-22840544D01*
X53860000Y-22840544D01*
X53860000Y-23039456D01*
X53936120Y-23223227D01*
X54076773Y-23363880D01*
X54260544Y-23440000D01*
X54459456Y-23440000D01*
X54643227Y-23363880D01*
X54783880Y-23223227D01*
X54860000Y-23039456D01*
X54860000Y-22840544D01*
X55860000Y-22840544D01*
X55860000Y-23039456D01*
X55936120Y-23223227D01*
X56076773Y-23363880D01*
X56260544Y-23440000D01*
X56459456Y-23440000D01*
X56643227Y-23363880D01*
X56783880Y-23223227D01*
X56860000Y-23039456D01*
X56860000Y-22840544D01*
X56783880Y-22656773D01*
X56643227Y-22516120D01*
X56459456Y-22440000D01*
X56260544Y-22440000D01*
X56076773Y-22516120D01*
X55936120Y-22656773D01*
X55860000Y-22840544D01*
X54860000Y-22840544D01*
X54783880Y-22656773D01*
X54643227Y-22516120D01*
X54459456Y-22440000D01*
X54260544Y-22440000D01*
X54076773Y-22516120D01*
X53936120Y-22656773D01*
X53860000Y-22840544D01*
X400000Y-22840544D01*
X400000Y-17450544D01*
X39900000Y-17450544D01*
X39900000Y-17649456D01*
X39976120Y-17833227D01*
X40116773Y-17973880D01*
X40300544Y-18050000D01*
X40499456Y-18050000D01*
X40683227Y-17973880D01*
X40823880Y-17833227D01*
X40900000Y-17649456D01*
X40900000Y-17450544D01*
X40823880Y-17266773D01*
X40683227Y-17126120D01*
X40499456Y-17050000D01*
X40300544Y-17050000D01*
X40116773Y-17126120D01*
X39976120Y-17266773D01*
X39900000Y-17450544D01*
X400000Y-17450544D01*
X400000Y-16995157D01*
X41644613Y-16995157D01*
X41644613Y-17194069D01*
X41720733Y-17377840D01*
X41861386Y-17518493D01*
X42045157Y-17594613D01*
X42244069Y-17594613D01*
X42427840Y-17518493D01*
X42568493Y-17377840D01*
X42644613Y-17194069D01*
X42644613Y-16995157D01*
X42568493Y-16811386D01*
X42427840Y-16670733D01*
X42244069Y-16594613D01*
X42045157Y-16594613D01*
X41861386Y-16670733D01*
X41720733Y-16811386D01*
X41644613Y-16995157D01*
X400000Y-16995157D01*
X400000Y-14800544D01*
X44500000Y-14800544D01*
X44500000Y-14999456D01*
X44576120Y-15183227D01*
X44716773Y-15323880D01*
X44900544Y-15400000D01*
X45099456Y-15400000D01*
X45283227Y-15323880D01*
X45423880Y-15183227D01*
X45500000Y-14999456D01*
X45500000Y-14800544D01*
X45423880Y-14616773D01*
X45283227Y-14476120D01*
X45099456Y-14400000D01*
X44900544Y-14400000D01*
X44716773Y-14476120D01*
X44576120Y-14616773D01*
X44500000Y-14800544D01*
X400000Y-14800544D01*
X400000Y-14203845D01*
X72267767Y-14203845D01*
X72267767Y-14402757D01*
X72343887Y-14586528D01*
X72484540Y-14727181D01*
X72668311Y-14803301D01*
X72867223Y-14803301D01*
X73050994Y-14727181D01*
X73191647Y-14586528D01*
X73267767Y-14402757D01*
X73267767Y-14203845D01*
X73191647Y-14020074D01*
X73050994Y-13879421D01*
X72867223Y-13803301D01*
X72668311Y-13803301D01*
X72484540Y-13879421D01*
X72343887Y-14020074D01*
X72267767Y-14203845D01*
X400000Y-14203845D01*
X400000Y-12900544D01*
X42950000Y-12900544D01*
X42950000Y-13099456D01*
X43026120Y-13283227D01*
X43166773Y-13423880D01*
X43350544Y-13500000D01*
X43549456Y-13500000D01*
X43733227Y-13423880D01*
X43873880Y-13283227D01*
X43950000Y-13099456D01*
X43950000Y-12980931D01*
X45030387Y-12980931D01*
X45030387Y-13179843D01*
X45106507Y-13363614D01*
X45247160Y-13504267D01*
X45430931Y-13580387D01*
X45629843Y-13580387D01*
X45813614Y-13504267D01*
X45954267Y-13363614D01*
X46030387Y-13179843D01*
X46030387Y-12980931D01*
X45954267Y-12797160D01*
X45946738Y-12789631D01*
X70853553Y-12789631D01*
X70853553Y-12988543D01*
X70929673Y-13172314D01*
X71070326Y-13312967D01*
X71254097Y-13389087D01*
X71453009Y-13389087D01*
X71636780Y-13312967D01*
X71777433Y-13172314D01*
X71853553Y-12988543D01*
X71853553Y-12789631D01*
X71777433Y-12605860D01*
X71636780Y-12465207D01*
X71453009Y-12389087D01*
X71254097Y-12389087D01*
X71070326Y-12465207D01*
X70929673Y-12605860D01*
X70853553Y-12789631D01*
X45946738Y-12789631D01*
X45813614Y-12656507D01*
X45629843Y-12580387D01*
X45430931Y-12580387D01*
X45247160Y-12656507D01*
X45106507Y-12797160D01*
X45030387Y-12980931D01*
X43950000Y-12980931D01*
X43950000Y-12900544D01*
X43873880Y-12716773D01*
X43733227Y-12576120D01*
X43549456Y-12500000D01*
X43350544Y-12500000D01*
X43166773Y-12576120D01*
X43026120Y-12716773D01*
X42950000Y-12900544D01*
X400000Y-12900544D01*
X400000Y-11375418D01*
X9560660Y-11375418D01*
X9560660Y-11574330D01*
X9636780Y-11758101D01*
X9777433Y-11898754D01*
X9961204Y-11974874D01*
X10160116Y-11974874D01*
X10343887Y-11898754D01*
X10484540Y-11758101D01*
X10560660Y-11574330D01*
X10560660Y-11375418D01*
X10508936Y-11250544D01*
X49450000Y-11250544D01*
X49450000Y-11449456D01*
X49526120Y-11633227D01*
X49666773Y-11773880D01*
X49850544Y-11850000D01*
X50049456Y-11850000D01*
X50233227Y-11773880D01*
X50373880Y-11633227D01*
X50450000Y-11449456D01*
X50450000Y-11375418D01*
X69439340Y-11375418D01*
X69439340Y-11574330D01*
X69515460Y-11758101D01*
X69656113Y-11898754D01*
X69839884Y-11974874D01*
X70038796Y-11974874D01*
X70222567Y-11898754D01*
X70363220Y-11758101D01*
X70439340Y-11574330D01*
X70439340Y-11375418D01*
X70363220Y-11191647D01*
X70222567Y-11050994D01*
X70038796Y-10974874D01*
X69839884Y-10974874D01*
X69656113Y-11050994D01*
X69515460Y-11191647D01*
X69439340Y-11375418D01*
X50450000Y-11375418D01*
X50450000Y-11250544D01*
X50373880Y-11066773D01*
X50233227Y-10926120D01*
X50049456Y-10850000D01*
X49850544Y-10850000D01*
X49666773Y-10926120D01*
X49526120Y-11066773D01*
X49450000Y-11250544D01*
X10508936Y-11250544D01*
X10484540Y-11191647D01*
X10343887Y-11050994D01*
X10160116Y-10974874D01*
X9961204Y-10974874D01*
X9777433Y-11050994D01*
X9636780Y-11191647D01*
X9560660Y-11375418D01*
X400000Y-11375418D01*
X400000Y-9400544D01*
X4000000Y-9400544D01*
X4000000Y-9599456D01*
X4076120Y-9783227D01*
X4216773Y-9923880D01*
X4400544Y-10000000D01*
X4599456Y-10000000D01*
X4693118Y-9961204D01*
X10974874Y-9961204D01*
X10974874Y-10160116D01*
X11050994Y-10343887D01*
X11191647Y-10484540D01*
X11375418Y-10560660D01*
X11574330Y-10560660D01*
X11758101Y-10484540D01*
X11898754Y-10343887D01*
X11974874Y-10160116D01*
X11974874Y-9961204D01*
X11898754Y-9777433D01*
X11758101Y-9636780D01*
X11574330Y-9560660D01*
X11375418Y-9560660D01*
X11191647Y-9636780D01*
X11050994Y-9777433D01*
X10974874Y-9961204D01*
X4693118Y-9961204D01*
X4783227Y-9923880D01*
X4923880Y-9783227D01*
X5000000Y-9599456D01*
X5000000Y-9400544D01*
X43500000Y-9400544D01*
X43500000Y-9599456D01*
X43576120Y-9783227D01*
X43716773Y-9923880D01*
X43900544Y-10000000D01*
X44099456Y-10000000D01*
X44283227Y-9923880D01*
X44423880Y-9783227D01*
X44500000Y-9599456D01*
X44500000Y-9400544D01*
X45500000Y-9400544D01*
X45500000Y-9599456D01*
X45576120Y-9783227D01*
X45716773Y-9923880D01*
X45900544Y-10000000D01*
X46099456Y-10000000D01*
X46283227Y-9923880D01*
X46423880Y-9783227D01*
X46500000Y-9599456D01*
X46500000Y-9400544D01*
X47500000Y-9400544D01*
X47500000Y-9599456D01*
X47576120Y-9783227D01*
X47716773Y-9923880D01*
X47900544Y-10000000D01*
X48099456Y-10000000D01*
X48283227Y-9923880D01*
X48423880Y-9783227D01*
X48500000Y-9599456D01*
X48500000Y-9400544D01*
X49450000Y-9400544D01*
X49450000Y-9599456D01*
X49526120Y-9783227D01*
X49666773Y-9923880D01*
X49850544Y-10000000D01*
X50049456Y-10000000D01*
X50143118Y-9961204D01*
X68025126Y-9961204D01*
X68025126Y-10160116D01*
X68101246Y-10343887D01*
X68241899Y-10484540D01*
X68425670Y-10560660D01*
X68624582Y-10560660D01*
X68808353Y-10484540D01*
X68949006Y-10343887D01*
X69025126Y-10160116D01*
X69025126Y-9961204D01*
X68949006Y-9777433D01*
X68808353Y-9636780D01*
X68624582Y-9560660D01*
X68425670Y-9560660D01*
X68241899Y-9636780D01*
X68101246Y-9777433D01*
X68025126Y-9961204D01*
X50143118Y-9961204D01*
X50233227Y-9923880D01*
X50373880Y-9783227D01*
X50450000Y-9599456D01*
X50450000Y-9400544D01*
X50373880Y-9216773D01*
X50233227Y-9076120D01*
X50049456Y-9000000D01*
X49850544Y-9000000D01*
X49666773Y-9076120D01*
X49526120Y-9216773D01*
X49450000Y-9400544D01*
X48500000Y-9400544D01*
X48423880Y-9216773D01*
X48283227Y-9076120D01*
X48099456Y-9000000D01*
X47900544Y-9000000D01*
X47716773Y-9076120D01*
X47576120Y-9216773D01*
X47500000Y-9400544D01*
X46500000Y-9400544D01*
X46423880Y-9216773D01*
X46283227Y-9076120D01*
X46099456Y-9000000D01*
X45900544Y-9000000D01*
X45716773Y-9076120D01*
X45576120Y-9216773D01*
X45500000Y-9400544D01*
X44500000Y-9400544D01*
X44423880Y-9216773D01*
X44283227Y-9076120D01*
X44099456Y-9000000D01*
X43900544Y-9000000D01*
X43716773Y-9076120D01*
X43576120Y-9216773D01*
X43500000Y-9400544D01*
X5000000Y-9400544D01*
X4923880Y-9216773D01*
X4783227Y-9076120D01*
X4599456Y-9000000D01*
X4400544Y-9000000D01*
X4216773Y-9076120D01*
X4076120Y-9216773D01*
X4000000Y-9400544D01*
X400000Y-9400544D01*
X400000Y-8400544D01*
X6100000Y-8400544D01*
X6100000Y-8599456D01*
X6176120Y-8783227D01*
X6316773Y-8923880D01*
X6500544Y-9000000D01*
X6699456Y-9000000D01*
X6883227Y-8923880D01*
X7023880Y-8783227D01*
X7100000Y-8599456D01*
X7100000Y-8546991D01*
X12389087Y-8546991D01*
X12389087Y-8745903D01*
X12465207Y-8929674D01*
X12605860Y-9070327D01*
X12789631Y-9146447D01*
X12988543Y-9146447D01*
X13172314Y-9070327D01*
X13312967Y-8929674D01*
X13389087Y-8745903D01*
X13389087Y-8546991D01*
X13312967Y-8363220D01*
X13172314Y-8222567D01*
X12988543Y-8146447D01*
X12789631Y-8146447D01*
X12605860Y-8222567D01*
X12465207Y-8363220D01*
X12389087Y-8546991D01*
X7100000Y-8546991D01*
X7100000Y-8400544D01*
X7023880Y-8216773D01*
X6883227Y-8076120D01*
X6699456Y-8000000D01*
X6500544Y-8000000D01*
X6316773Y-8076120D01*
X6176120Y-8216773D01*
X6100000Y-8400544D01*
X400000Y-8400544D01*
X400000Y-7132777D01*
X13803301Y-7132777D01*
X13803301Y-7331689D01*
X13879421Y-7515460D01*
X14020074Y-7656113D01*
X14203845Y-7732233D01*
X14402757Y-7732233D01*
X14586528Y-7656113D01*
X14727181Y-7515460D01*
X14803301Y-7331689D01*
X14803301Y-7132777D01*
X14727181Y-6949006D01*
X14586528Y-6808353D01*
X14402757Y-6732233D01*
X14203845Y-6732233D01*
X14020074Y-6808353D01*
X13879421Y-6949006D01*
X13803301Y-7132777D01*
X400000Y-7132777D01*
X400000Y-3122067D01*
X1600000Y-3122067D01*
X1600000Y-3877933D01*
X1889258Y-4576263D01*
X2423737Y-5110742D01*
X3122067Y-5400000D01*
X3877933Y-5400000D01*
X4576263Y-5110742D01*
X5110742Y-4576263D01*
X5400000Y-3877933D01*
X5400000Y-3122067D01*
X74600000Y-3122067D01*
X74600000Y-3877933D01*
X74889258Y-4576263D01*
X75423737Y-5110742D01*
X76122067Y-5400000D01*
X76877933Y-5400000D01*
X77576263Y-5110742D01*
X78110742Y-4576263D01*
X78400000Y-3877933D01*
X78400000Y-3122067D01*
X78110742Y-2423737D01*
X77576263Y-1889258D01*
X76877933Y-1600000D01*
X76122067Y-1600000D01*
X75423737Y-1889258D01*
X74889258Y-2423737D01*
X74600000Y-3122067D01*
X5400000Y-3122067D01*
X5110742Y-2423737D01*
X4576263Y-1889258D01*
X3877933Y-1600000D01*
X3122067Y-1600000D01*
X2423737Y-1889258D01*
X1889258Y-2423737D01*
X1600000Y-3122067D01*
X400000Y-3122067D01*
X400000Y-400000D01*
X79600001Y-400000D01*
X79600000Y-79600000D01*
G04 #@! TD*
M02*
