G04 #@! TF.GenerationSoftware,KiCad,Pcbnew,5.0.1-33cea8e~68~ubuntu16.04.1*
G04 #@! TF.CreationDate,2019-02-08T00:52:31-05:00*
G04 #@! TF.ProjectId,SmallKat Jumbo Motherboard,536D616C6C4B6174204A756D626F204D,rev?*
G04 #@! TF.SameCoordinates,Original*
G04 #@! TF.FileFunction,Soldermask,Bot*
G04 #@! TF.FilePolarity,Negative*
%FSLAX46Y46*%
G04 Gerber Fmt 4.6, Leading zero omitted, Abs format (unit mm)*
G04 Created by KiCad (PCBNEW 5.0.1-33cea8e~68~ubuntu16.04.1) date Fri 08 Feb 2019 12:52:31 AM EST*
%MOMM*%
%LPD*%
G01*
G04 APERTURE LIST*
%ADD10C,0.100000*%
G04 APERTURE END LIST*
D10*
G36*
X72479850Y-59223961D02*
X72813502Y-59290329D01*
X72822881Y-59293174D01*
X73137175Y-59423359D01*
X73145820Y-59427980D01*
X73428677Y-59616979D01*
X73436253Y-59623197D01*
X73676803Y-59863747D01*
X73683021Y-59871323D01*
X73872020Y-60154180D01*
X73876641Y-60162825D01*
X74006826Y-60477119D01*
X74009671Y-60486498D01*
X74076039Y-60820150D01*
X74077000Y-60829905D01*
X74077000Y-61170095D01*
X74076039Y-61179850D01*
X74009671Y-61513502D01*
X74006826Y-61522881D01*
X73876641Y-61837175D01*
X73872020Y-61845820D01*
X73683021Y-62128677D01*
X73676803Y-62136253D01*
X73436253Y-62376803D01*
X73428677Y-62383021D01*
X73145820Y-62572020D01*
X73137175Y-62576641D01*
X72822881Y-62706826D01*
X72813502Y-62709671D01*
X72479850Y-62776039D01*
X72470095Y-62777000D01*
X72129905Y-62777000D01*
X72120150Y-62776039D01*
X71786498Y-62709671D01*
X71777119Y-62706826D01*
X71462825Y-62576641D01*
X71454180Y-62572020D01*
X71171323Y-62383021D01*
X71163747Y-62376803D01*
X70923197Y-62136253D01*
X70916979Y-62128677D01*
X70727980Y-61845820D01*
X70723359Y-61837175D01*
X70593174Y-61522881D01*
X70590329Y-61513502D01*
X70523961Y-61179850D01*
X70523000Y-61170095D01*
X70523000Y-60829905D01*
X70523961Y-60820150D01*
X70590329Y-60486498D01*
X70593174Y-60477119D01*
X70723359Y-60162825D01*
X70727980Y-60154180D01*
X70916979Y-59871323D01*
X70923197Y-59863747D01*
X71163747Y-59623197D01*
X71171323Y-59616979D01*
X71454180Y-59427980D01*
X71462825Y-59423359D01*
X71777119Y-59293174D01*
X71786498Y-59290329D01*
X72120150Y-59223961D01*
X72129905Y-59223000D01*
X72470095Y-59223000D01*
X72479850Y-59223961D01*
X72479850Y-59223961D01*
G37*
G36*
X23562151Y-31548241D02*
X23622093Y-31554145D01*
X23631706Y-31556057D01*
X23689343Y-31573541D01*
X23698399Y-31577292D01*
X23751519Y-31605685D01*
X23759668Y-31611130D01*
X23806228Y-31649340D01*
X23813160Y-31656272D01*
X23851370Y-31702832D01*
X23856815Y-31710981D01*
X23885208Y-31764101D01*
X23888959Y-31773157D01*
X23906443Y-31830794D01*
X23908355Y-31840407D01*
X23914259Y-31900349D01*
X23914500Y-31905250D01*
X23914500Y-32944750D01*
X23914259Y-32949651D01*
X23908355Y-33009593D01*
X23906443Y-33019206D01*
X23888959Y-33076843D01*
X23885208Y-33085899D01*
X23856815Y-33139019D01*
X23851370Y-33147168D01*
X23813160Y-33193728D01*
X23806228Y-33200660D01*
X23759668Y-33238870D01*
X23751519Y-33244315D01*
X23698399Y-33272708D01*
X23689343Y-33276459D01*
X23631706Y-33293943D01*
X23622093Y-33295855D01*
X23562151Y-33301759D01*
X23557250Y-33302000D01*
X22942750Y-33302000D01*
X22937849Y-33301759D01*
X22877907Y-33295855D01*
X22868294Y-33293943D01*
X22810657Y-33276459D01*
X22801601Y-33272708D01*
X22748481Y-33244315D01*
X22740332Y-33238870D01*
X22693772Y-33200660D01*
X22686840Y-33193728D01*
X22648630Y-33147168D01*
X22643185Y-33139019D01*
X22614792Y-33085899D01*
X22611041Y-33076843D01*
X22593557Y-33019206D01*
X22591645Y-33009593D01*
X22585741Y-32949651D01*
X22585500Y-32944750D01*
X22585500Y-31905250D01*
X22585741Y-31900349D01*
X22591645Y-31840407D01*
X22593557Y-31830794D01*
X22611041Y-31773157D01*
X22614792Y-31764101D01*
X22643185Y-31710981D01*
X22648630Y-31702832D01*
X22686840Y-31656272D01*
X22693772Y-31649340D01*
X22740332Y-31611130D01*
X22748481Y-31605685D01*
X22801601Y-31577292D01*
X22810657Y-31573541D01*
X22868294Y-31556057D01*
X22877907Y-31554145D01*
X22937849Y-31548241D01*
X22942750Y-31548000D01*
X23557250Y-31548000D01*
X23562151Y-31548241D01*
X23562151Y-31548241D01*
G37*
G36*
X25437151Y-31548241D02*
X25497093Y-31554145D01*
X25506706Y-31556057D01*
X25564343Y-31573541D01*
X25573399Y-31577292D01*
X25626519Y-31605685D01*
X25634668Y-31611130D01*
X25681228Y-31649340D01*
X25688160Y-31656272D01*
X25726370Y-31702832D01*
X25731815Y-31710981D01*
X25760208Y-31764101D01*
X25763959Y-31773157D01*
X25781443Y-31830794D01*
X25783355Y-31840407D01*
X25789259Y-31900349D01*
X25789500Y-31905250D01*
X25789500Y-32944750D01*
X25789259Y-32949651D01*
X25783355Y-33009593D01*
X25781443Y-33019206D01*
X25763959Y-33076843D01*
X25760208Y-33085899D01*
X25731815Y-33139019D01*
X25726370Y-33147168D01*
X25688160Y-33193728D01*
X25681228Y-33200660D01*
X25634668Y-33238870D01*
X25626519Y-33244315D01*
X25573399Y-33272708D01*
X25564343Y-33276459D01*
X25506706Y-33293943D01*
X25497093Y-33295855D01*
X25437151Y-33301759D01*
X25432250Y-33302000D01*
X24817750Y-33302000D01*
X24812849Y-33301759D01*
X24752907Y-33295855D01*
X24743294Y-33293943D01*
X24685657Y-33276459D01*
X24676601Y-33272708D01*
X24623481Y-33244315D01*
X24615332Y-33238870D01*
X24568772Y-33200660D01*
X24561840Y-33193728D01*
X24523630Y-33147168D01*
X24518185Y-33139019D01*
X24489792Y-33085899D01*
X24486041Y-33076843D01*
X24468557Y-33019206D01*
X24466645Y-33009593D01*
X24460741Y-32949651D01*
X24460500Y-32944750D01*
X24460500Y-31905250D01*
X24460741Y-31900349D01*
X24466645Y-31840407D01*
X24468557Y-31830794D01*
X24486041Y-31773157D01*
X24489792Y-31764101D01*
X24518185Y-31710981D01*
X24523630Y-31702832D01*
X24561840Y-31656272D01*
X24568772Y-31649340D01*
X24615332Y-31611130D01*
X24623481Y-31605685D01*
X24676601Y-31577292D01*
X24685657Y-31573541D01*
X24743294Y-31556057D01*
X24752907Y-31554145D01*
X24812849Y-31548241D01*
X24817750Y-31548000D01*
X25432250Y-31548000D01*
X25437151Y-31548241D01*
X25437151Y-31548241D01*
G37*
G36*
X5217738Y-26423961D02*
X5821867Y-26544130D01*
X5831246Y-26546975D01*
X6400324Y-26782695D01*
X6408969Y-26787316D01*
X6921125Y-27129528D01*
X6928701Y-27135746D01*
X7364254Y-27571299D01*
X7370472Y-27578875D01*
X7712684Y-28091031D01*
X7717305Y-28099676D01*
X7953025Y-28668754D01*
X7955870Y-28678133D01*
X8076039Y-29282262D01*
X8077000Y-29292017D01*
X8077000Y-29907983D01*
X8076039Y-29917738D01*
X7955870Y-30521867D01*
X7953025Y-30531246D01*
X7717305Y-31100324D01*
X7712684Y-31108969D01*
X7370472Y-31621125D01*
X7364254Y-31628701D01*
X6928701Y-32064254D01*
X6921125Y-32070472D01*
X6408969Y-32412684D01*
X6400324Y-32417305D01*
X5831246Y-32653025D01*
X5821867Y-32655870D01*
X5217738Y-32776039D01*
X5207983Y-32777000D01*
X4592017Y-32777000D01*
X4582262Y-32776039D01*
X3978133Y-32655870D01*
X3968754Y-32653025D01*
X3399676Y-32417305D01*
X3391031Y-32412684D01*
X2878875Y-32070472D01*
X2871299Y-32064254D01*
X2435746Y-31628701D01*
X2429528Y-31621125D01*
X2087316Y-31108969D01*
X2082695Y-31100324D01*
X1846975Y-30531246D01*
X1844130Y-30521867D01*
X1723961Y-29917738D01*
X1723000Y-29907983D01*
X1723000Y-29292017D01*
X1723961Y-29282262D01*
X1844130Y-28678133D01*
X1846975Y-28668754D01*
X2082695Y-28099676D01*
X2087316Y-28091031D01*
X2429528Y-27578875D01*
X2435746Y-27571299D01*
X2871299Y-27135746D01*
X2878875Y-27129528D01*
X3391031Y-26787316D01*
X3399676Y-26782695D01*
X3968754Y-26546975D01*
X3978133Y-26544130D01*
X4582262Y-26423961D01*
X4592017Y-26423000D01*
X5207983Y-26423000D01*
X5217738Y-26423961D01*
X5217738Y-26423961D01*
G37*
G36*
X5217738Y-18923961D02*
X5821867Y-19044130D01*
X5831246Y-19046975D01*
X6400324Y-19282695D01*
X6408969Y-19287316D01*
X6921125Y-19629528D01*
X6928701Y-19635746D01*
X7364254Y-20071299D01*
X7370472Y-20078875D01*
X7712684Y-20591031D01*
X7717305Y-20599676D01*
X7953025Y-21168754D01*
X7955870Y-21178133D01*
X8076039Y-21782262D01*
X8077000Y-21792017D01*
X8077000Y-22407983D01*
X8076039Y-22417738D01*
X7955870Y-23021867D01*
X7953025Y-23031246D01*
X7717305Y-23600324D01*
X7712684Y-23608969D01*
X7370472Y-24121125D01*
X7364254Y-24128701D01*
X6928701Y-24564254D01*
X6921125Y-24570472D01*
X6408969Y-24912684D01*
X6400324Y-24917305D01*
X5831246Y-25153025D01*
X5821867Y-25155870D01*
X5217738Y-25276039D01*
X5207983Y-25277000D01*
X4592017Y-25277000D01*
X4582262Y-25276039D01*
X3978133Y-25155870D01*
X3968754Y-25153025D01*
X3399676Y-24917305D01*
X3391031Y-24912684D01*
X2878875Y-24570472D01*
X2871299Y-24564254D01*
X2435746Y-24128701D01*
X2429528Y-24121125D01*
X2087316Y-23608969D01*
X2082695Y-23600324D01*
X1846975Y-23031246D01*
X1844130Y-23021867D01*
X1723961Y-22417738D01*
X1723000Y-22407983D01*
X1723000Y-21792017D01*
X1723961Y-21782262D01*
X1844130Y-21178133D01*
X1846975Y-21168754D01*
X2082695Y-20599676D01*
X2087316Y-20591031D01*
X2429528Y-20078875D01*
X2435746Y-20071299D01*
X2871299Y-19635746D01*
X2878875Y-19629528D01*
X3391031Y-19287316D01*
X3399676Y-19282695D01*
X3968754Y-19046975D01*
X3978133Y-19044130D01*
X4582262Y-18923961D01*
X4592017Y-18923000D01*
X5207983Y-18923000D01*
X5217738Y-18923961D01*
X5217738Y-18923961D01*
G37*
G36*
X5529850Y-11548961D02*
X5863502Y-11615329D01*
X5872881Y-11618174D01*
X6187175Y-11748359D01*
X6195820Y-11752980D01*
X6478677Y-11941979D01*
X6486253Y-11948197D01*
X6726803Y-12188747D01*
X6733021Y-12196323D01*
X6922020Y-12479180D01*
X6926641Y-12487825D01*
X7056826Y-12802119D01*
X7059671Y-12811498D01*
X7126039Y-13145150D01*
X7127000Y-13154905D01*
X7127000Y-13495095D01*
X7126039Y-13504850D01*
X7059671Y-13838502D01*
X7056826Y-13847881D01*
X6926641Y-14162175D01*
X6922020Y-14170820D01*
X6733021Y-14453677D01*
X6726803Y-14461253D01*
X6486253Y-14701803D01*
X6478677Y-14708021D01*
X6195820Y-14897020D01*
X6187175Y-14901641D01*
X5872881Y-15031826D01*
X5863502Y-15034671D01*
X5529850Y-15101039D01*
X5520095Y-15102000D01*
X5179905Y-15102000D01*
X5170150Y-15101039D01*
X4836498Y-15034671D01*
X4827119Y-15031826D01*
X4512825Y-14901641D01*
X4504180Y-14897020D01*
X4221323Y-14708021D01*
X4213747Y-14701803D01*
X3973197Y-14461253D01*
X3966979Y-14453677D01*
X3777980Y-14170820D01*
X3773359Y-14162175D01*
X3643174Y-13847881D01*
X3640329Y-13838502D01*
X3573961Y-13504850D01*
X3573000Y-13495095D01*
X3573000Y-13154905D01*
X3573961Y-13145150D01*
X3640329Y-12811498D01*
X3643174Y-12802119D01*
X3773359Y-12487825D01*
X3777980Y-12479180D01*
X3966979Y-12196323D01*
X3973197Y-12188747D01*
X4213747Y-11948197D01*
X4221323Y-11941979D01*
X4504180Y-11752980D01*
X4512825Y-11748359D01*
X4827119Y-11618174D01*
X4836498Y-11615329D01*
X5170150Y-11548961D01*
X5179905Y-11548000D01*
X5520095Y-11548000D01*
X5529850Y-11548961D01*
X5529850Y-11548961D01*
G37*
G36*
X71279850Y-1573961D02*
X71613502Y-1640329D01*
X71622881Y-1643174D01*
X71937175Y-1773359D01*
X71945820Y-1777980D01*
X72228677Y-1966979D01*
X72236253Y-1973197D01*
X72476803Y-2213747D01*
X72483021Y-2221323D01*
X72672020Y-2504180D01*
X72676641Y-2512825D01*
X72806826Y-2827119D01*
X72809671Y-2836498D01*
X72876039Y-3170150D01*
X72877000Y-3179905D01*
X72877000Y-3520095D01*
X72876039Y-3529850D01*
X72809671Y-3863502D01*
X72806826Y-3872881D01*
X72676641Y-4187175D01*
X72672020Y-4195820D01*
X72483021Y-4478677D01*
X72476803Y-4486253D01*
X72236253Y-4726803D01*
X72228677Y-4733021D01*
X71945820Y-4922020D01*
X71937175Y-4926641D01*
X71622881Y-5056826D01*
X71613502Y-5059671D01*
X71279850Y-5126039D01*
X71270095Y-5127000D01*
X70929905Y-5127000D01*
X70920150Y-5126039D01*
X70586498Y-5059671D01*
X70577119Y-5056826D01*
X70262825Y-4926641D01*
X70254180Y-4922020D01*
X69971323Y-4733021D01*
X69963747Y-4726803D01*
X69723197Y-4486253D01*
X69716979Y-4478677D01*
X69527980Y-4195820D01*
X69523359Y-4187175D01*
X69393174Y-3872881D01*
X69390329Y-3863502D01*
X69323961Y-3529850D01*
X69323000Y-3520095D01*
X69323000Y-3179905D01*
X69323961Y-3170150D01*
X69390329Y-2836498D01*
X69393174Y-2827119D01*
X69523359Y-2512825D01*
X69527980Y-2504180D01*
X69716979Y-2221323D01*
X69723197Y-2213747D01*
X69963747Y-1973197D01*
X69971323Y-1966979D01*
X70254180Y-1777980D01*
X70262825Y-1773359D01*
X70577119Y-1643174D01*
X70586498Y-1640329D01*
X70920150Y-1573961D01*
X70929905Y-1573000D01*
X71270095Y-1573000D01*
X71279850Y-1573961D01*
X71279850Y-1573961D01*
G37*
M02*
