G04 #@! TF.GenerationSoftware,KiCad,Pcbnew,5.0.1-33cea8e~68~ubuntu16.04.1*
G04 #@! TF.CreationDate,2018-11-01T01:01:16-04:00*
G04 #@! TF.ProjectId,SmallKat Jumbo Motherboard,536D616C6C4B6174204A756D626F204D,rev?*
G04 #@! TF.SameCoordinates,Original*
G04 #@! TF.FileFunction,Copper,L2,Inr,Signal*
G04 #@! TF.FilePolarity,Positive*
%FSLAX46Y46*%
G04 Gerber Fmt 4.6, Leading zero omitted, Abs format (unit mm)*
G04 Created by KiCad (PCBNEW 5.0.1-33cea8e~68~ubuntu16.04.1) date Thu 01 Nov 2018 01:01:16 AM EDT*
%MOMM*%
%LPD*%
G01*
G04 APERTURE LIST*
G04 #@! TA.AperFunction,ViaPad*
%ADD10C,0.400000*%
G04 #@! TD*
G04 #@! TA.AperFunction,Conductor*
%ADD11C,0.250000*%
G04 #@! TD*
G04 APERTURE END LIST*
D10*
G04 #@! TO.N,GND*
X71660000Y-43650000D03*
X71630000Y-44370000D03*
X70380000Y-43910000D03*
X69340000Y-43650000D03*
X69340000Y-44350000D03*
X13900000Y-70600000D03*
X13500000Y-70150000D03*
X13400000Y-70600000D03*
X13400000Y-71050000D03*
X12950000Y-70700000D03*
X12900000Y-71150000D03*
X13350000Y-71500000D03*
X12900000Y-71600000D03*
X12450000Y-71200000D03*
X12350000Y-71650000D03*
X12800000Y-72050000D03*
X12350000Y-72150000D03*
X11900000Y-71750000D03*
X11750000Y-72200000D03*
X12200000Y-72600000D03*
X66200000Y-9350000D03*
X66650000Y-9350000D03*
X66250000Y-8900000D03*
X66700000Y-8900000D03*
X67150000Y-9250000D03*
X67150000Y-8800000D03*
X66700000Y-8450000D03*
X67150000Y-8350000D03*
X67600000Y-8800000D03*
X67650000Y-8350000D03*
X67250000Y-7850000D03*
X67700000Y-7800000D03*
X68100000Y-8250000D03*
X68200000Y-7800000D03*
X67750000Y-7350000D03*
X72450000Y-68000000D03*
X72000000Y-68450000D03*
X72000000Y-68000000D03*
X72400000Y-67550000D03*
X71950000Y-67550000D03*
X71500000Y-67950000D03*
X71450000Y-67500000D03*
X71900000Y-67050000D03*
X71450000Y-67050000D03*
X71000000Y-67450000D03*
X70950000Y-67000000D03*
X71400000Y-66550000D03*
X70950000Y-66550000D03*
X70500000Y-66950000D03*
X70500000Y-66500000D03*
X70950000Y-66100000D03*
X70500000Y-66050000D03*
X70050000Y-66450000D03*
X42500000Y-10800000D03*
X42000000Y-10800000D03*
X41550000Y-10800000D03*
X41550000Y-10350000D03*
X42000000Y-10350000D03*
X42500000Y-10350000D03*
X42450000Y-9900000D03*
X42000000Y-9900000D03*
X41550000Y-9900000D03*
X41550000Y-9450000D03*
X42000000Y-9450000D03*
X42450000Y-9450000D03*
X42450000Y-9000000D03*
X42000000Y-9000000D03*
X41550000Y-9000000D03*
X41550000Y-8550000D03*
X42000000Y-8550000D03*
X42450000Y-8550000D03*
X42450000Y-8100000D03*
X42000000Y-8100000D03*
X41550000Y-8100000D03*
X58750000Y-21600000D03*
X57950000Y-21600000D03*
X58400000Y-22850000D03*
X57950000Y-24250000D03*
X58800000Y-24250000D03*
X67550000Y-26150000D03*
X68000000Y-26150000D03*
X68450000Y-26150000D03*
X68450000Y-26600000D03*
X68000000Y-26600000D03*
X67500000Y-26600000D03*
X67500000Y-27050000D03*
X68000000Y-27050000D03*
X68450000Y-27050000D03*
X68450000Y-27500000D03*
X68000000Y-27500000D03*
X67500000Y-27500000D03*
X67500000Y-27950000D03*
X68000000Y-27950000D03*
X68450000Y-27950000D03*
X68450000Y-28400000D03*
X68000000Y-28400000D03*
X67500000Y-28400000D03*
X67500000Y-28850000D03*
X68000000Y-28850000D03*
X68450000Y-28850000D03*
X73550000Y-51200000D03*
X74000000Y-51200000D03*
X74450000Y-51200000D03*
X74450000Y-51650000D03*
X74000000Y-51650000D03*
X73550000Y-51650000D03*
X73550000Y-52100000D03*
X74000000Y-52100000D03*
X74450000Y-52100000D03*
X74450000Y-52550000D03*
X74000000Y-52550000D03*
X73550000Y-52550000D03*
X73550000Y-53000000D03*
X74000000Y-53000000D03*
X74450000Y-53000000D03*
X74450000Y-53450000D03*
X74000000Y-53450000D03*
X73550000Y-53450000D03*
X73550000Y-53900000D03*
X74000000Y-53900000D03*
X74450000Y-53900000D03*
X32550000Y-69100000D03*
X33000000Y-69100000D03*
X33450000Y-69100000D03*
X33450000Y-69550000D03*
X33000000Y-69550000D03*
X32550000Y-69550000D03*
X33450000Y-70000000D03*
X33000000Y-70000000D03*
X32550000Y-70000000D03*
X32550000Y-70500000D03*
X33000000Y-70500000D03*
X33450000Y-70500000D03*
X33450000Y-70950000D03*
X33000000Y-70950000D03*
X32550000Y-70950000D03*
X32550000Y-71400000D03*
X33000000Y-71400000D03*
X33450000Y-71400000D03*
X33450000Y-71850000D03*
X33000000Y-71850000D03*
X32550000Y-71850000D03*
X53350000Y-69200000D03*
X52900000Y-69200000D03*
X52900000Y-69650000D03*
X53350000Y-69650000D03*
X53350000Y-70100000D03*
X52900000Y-70100000D03*
X52900000Y-70550000D03*
X53350000Y-70550000D03*
X53350000Y-71000000D03*
X52900000Y-71000000D03*
X52900000Y-71450000D03*
X53400000Y-71450000D03*
X53400000Y-71900000D03*
X52950000Y-71900000D03*
X52500000Y-71900000D03*
X28700000Y-66700000D03*
X29600000Y-66700000D03*
X33700000Y-67550000D03*
X33700000Y-66550000D03*
X39000000Y-67200000D03*
X36600000Y-66600000D03*
X35050000Y-63300000D03*
X35900000Y-62000000D03*
X61550000Y-43000000D03*
X62700000Y-42650000D03*
X62700000Y-43350000D03*
X60250000Y-43350000D03*
X60250000Y-42650000D03*
X48050000Y-18400000D03*
X48300000Y-23750000D03*
X48300000Y-22850000D03*
X48350000Y-21850000D03*
X40950000Y-21650000D03*
X41900000Y-21650000D03*
X42900000Y-21600000D03*
X44300000Y-22250000D03*
X12450000Y-51150000D03*
X12000000Y-51150000D03*
X11550000Y-51150000D03*
X11550000Y-51600000D03*
X12000000Y-51600000D03*
X12450000Y-51600000D03*
X12450000Y-52050000D03*
X12000000Y-52050000D03*
X11550000Y-52050000D03*
X11550000Y-52500000D03*
X12000000Y-52500000D03*
X12450000Y-52500000D03*
X12450000Y-52950000D03*
X12000000Y-52950000D03*
X11550000Y-52950000D03*
X11550000Y-53400000D03*
X12000000Y-53400000D03*
X12450000Y-53400000D03*
X12450000Y-53850000D03*
X12000000Y-53850000D03*
X11550000Y-53850000D03*
X8850000Y-42550000D03*
X8850000Y-43000000D03*
X8850000Y-43450000D03*
X8400000Y-43450000D03*
X8400000Y-43000000D03*
X8400000Y-42550000D03*
X7950000Y-42550000D03*
X7950000Y-43000000D03*
X7950000Y-43450000D03*
X7500000Y-43450000D03*
X7500000Y-43000000D03*
X7500000Y-42550000D03*
X7050000Y-42550000D03*
X7050000Y-43000000D03*
X7050000Y-43450000D03*
X6600000Y-43450000D03*
X6600000Y-43000000D03*
X6600000Y-42550000D03*
X6150000Y-42550000D03*
X6150000Y-43000000D03*
X6150000Y-43450000D03*
X6450000Y-28800000D03*
X6000000Y-28800000D03*
X5550000Y-28800000D03*
X5550000Y-28350000D03*
X6000000Y-28350000D03*
X6450000Y-28350000D03*
X6450000Y-27900000D03*
X6000000Y-27900000D03*
X5575000Y-27900000D03*
X6450000Y-27475000D03*
X6025000Y-27475000D03*
X5600000Y-27450000D03*
X6475000Y-27050000D03*
X6050000Y-27050000D03*
X5625000Y-27025000D03*
X6450000Y-26625000D03*
X6025000Y-26600000D03*
X5600000Y-26600000D03*
X6450000Y-26175000D03*
X6025000Y-26175000D03*
X5600000Y-26175000D03*
X9575000Y-13375000D03*
X9125000Y-12925000D03*
X8750000Y-12500000D03*
X8325000Y-12125000D03*
X8000000Y-11700000D03*
X7825000Y-12150000D03*
X8275000Y-12575000D03*
X8675000Y-13000000D03*
X9100000Y-13450000D03*
X9575000Y-13975000D03*
X9075000Y-13900000D03*
X8650000Y-13475000D03*
X8225000Y-13075000D03*
X7825000Y-12650000D03*
X7400000Y-12250000D03*
X26450000Y-10950000D03*
X26000000Y-10900000D03*
X25550000Y-10900000D03*
X25550000Y-10450000D03*
X26000000Y-10450000D03*
X26450000Y-10450000D03*
X26450000Y-10000000D03*
X26000000Y-10000000D03*
X25550000Y-10000000D03*
X25550000Y-9550000D03*
X26000000Y-9550000D03*
X26450000Y-9550000D03*
X26450000Y-9100000D03*
X26000000Y-9100000D03*
X25550000Y-9100000D03*
X25550000Y-8650000D03*
X26000000Y-8650000D03*
X26450000Y-8650000D03*
X26450000Y-8200000D03*
X26000000Y-8200000D03*
X25550000Y-8200000D03*
X25550000Y-9100000D03*
X25550000Y-9100000D03*
X6450000Y-26625000D03*
X6450000Y-26625000D03*
X28450000Y-35750000D03*
X28450000Y-39750000D03*
X24800000Y-44200000D03*
X23400000Y-43100000D03*
X28500000Y-47250000D03*
X30750000Y-51500000D03*
X37250000Y-51250000D03*
X42300000Y-51350000D03*
X51300000Y-50300000D03*
X51600000Y-44250000D03*
X51550000Y-38750000D03*
X51400000Y-32250000D03*
X49750000Y-28450000D03*
X43300000Y-28500000D03*
X38250000Y-28400000D03*
X34260000Y-25070000D03*
X52450000Y-71450000D03*
X52450000Y-71000000D03*
X52450000Y-70550000D03*
X52450000Y-70100000D03*
X52450000Y-69650000D03*
X52450000Y-69200000D03*
X23565000Y-41850000D03*
X23850000Y-32000000D03*
X23260000Y-33560000D03*
X31250000Y-25050000D03*
X66700000Y-9800000D03*
X13850000Y-71100000D03*
G04 #@! TO.N,+3V3*
X61500000Y-41000000D03*
X39920000Y-65200000D03*
X40910000Y-63290000D03*
X70500000Y-42000000D03*
G04 #@! TO.N,SWCLK*
X48750000Y-27380000D03*
X70500000Y-38000000D03*
G04 #@! TO.N,SWDIO*
X52620000Y-33250000D03*
X70500000Y-40000000D03*
G04 #@! TO.N,SCK5*
X27380000Y-41250000D03*
X21600000Y-36600000D03*
X19600000Y-34548000D03*
X8000000Y-27500000D03*
X10000000Y-52500000D03*
X21400000Y-38500000D03*
X22450000Y-37450000D03*
X72000000Y-52500000D03*
X70000000Y-27500000D03*
X70750000Y-49850000D03*
X66900000Y-48720990D03*
X73050000Y-32240000D03*
X74829010Y-35200000D03*
G04 #@! TO.N,MISO5*
X10000000Y-27500000D03*
X12800000Y-30850000D03*
X14000000Y-31900000D03*
X18564966Y-34435034D03*
X20700000Y-36500000D03*
X27537247Y-41772998D03*
X8000000Y-52500000D03*
X20750000Y-38450000D03*
X70000000Y-52500000D03*
X73548000Y-32100000D03*
X72000000Y-27500000D03*
X67572990Y-49172990D03*
X70000000Y-50100000D03*
X74452000Y-32230000D03*
G04 #@! TO.N,MOSI5*
X26793924Y-42274039D03*
X19900000Y-36450000D03*
X17700000Y-34250000D03*
X15300000Y-32352000D03*
X12000000Y-27500000D03*
X6000000Y-52500000D03*
X68000000Y-52500000D03*
X74000000Y-27500000D03*
G04 #@! TO.N,SCK1*
X32250000Y-52650000D03*
X56405387Y-61994613D03*
X57800000Y-61100000D03*
X69939340Y-68525126D03*
X11474874Y-69939340D03*
X68525126Y-10060660D03*
X26350000Y-58650000D03*
X29950000Y-57000000D03*
X10060660Y-11474874D03*
X4500000Y-9500000D03*
X72969613Y-70019613D03*
G04 #@! TO.N,MISO1*
X32750000Y-52650000D03*
X57230387Y-62219613D03*
X57944613Y-61655387D03*
X68525126Y-69939340D03*
X32750000Y-54100000D03*
X10060660Y-68525126D03*
X69939340Y-11474874D03*
X25700000Y-58198000D03*
X6600000Y-8500000D03*
X11474874Y-10060660D03*
X70600000Y-71750000D03*
G04 #@! TO.N,MOSI1*
X33250000Y-52650000D03*
X67110913Y-71353553D03*
X33250000Y-54133656D03*
X8646447Y-67110913D03*
X71353553Y-12889087D03*
X25200000Y-57746000D03*
X28300000Y-57300000D03*
X32408708Y-55873221D03*
X12889087Y-8646447D03*
G04 #@! TO.N,SCK4*
X44250000Y-52600000D03*
X50900000Y-70500000D03*
X44450000Y-56139828D03*
X47729010Y-60200000D03*
G04 #@! TO.N,MISO4*
X44750000Y-52600000D03*
X48900000Y-70500000D03*
X47352000Y-59600000D03*
X44882192Y-55812720D03*
G04 #@! TO.N,MOSI4*
X45250000Y-52600000D03*
X45550000Y-55850000D03*
X46900000Y-70500000D03*
X46350000Y-58200000D03*
G04 #@! TO.N,SCK2*
X31000000Y-70500000D03*
X43300000Y-58210000D03*
X46260000Y-53810000D03*
G04 #@! TO.N,MISO2*
X30109934Y-50676725D03*
X29000000Y-70500000D03*
G04 #@! TO.N,MOSI2*
X29440000Y-50500000D03*
X27000000Y-70500000D03*
G04 #@! TO.N,TX*
X53620000Y-35250000D03*
X61500000Y-37000000D03*
G04 #@! TO.N,RX*
X61500000Y-39000000D03*
X54147990Y-35445041D03*
X53765272Y-34572529D03*
G04 #@! TO.N,USBDM*
X55065049Y-27776989D03*
X54060000Y-48200000D03*
X54207990Y-47260000D03*
G04 #@! TO.N,USBDP*
X55600000Y-27800000D03*
X53610000Y-47770000D03*
G04 #@! TO.N,SCK3*
X7500000Y-41000000D03*
X19685964Y-36931581D03*
X22500000Y-36600000D03*
X47750000Y-27380000D03*
G04 #@! TO.N,MISO3*
X47220652Y-28004130D03*
X7500000Y-39000000D03*
G04 #@! TO.N,MOSI3*
X7500000Y-37000000D03*
X46750000Y-27380000D03*
G04 #@! TO.N,MISO6*
X39750000Y-27400000D03*
X46000000Y-9500000D03*
X45000000Y-14900000D03*
X45530387Y-13080387D03*
G04 #@! TO.N,SCK6*
X39250000Y-27400000D03*
X44000000Y-9500000D03*
G04 #@! TO.N,MOSI6*
X38750000Y-27400000D03*
X48000000Y-9500000D03*
X40400000Y-17550000D03*
X42144613Y-17094613D03*
X48000000Y-9500000D03*
G04 #@! TO.N,+5V*
X45210000Y-17420000D03*
X48065000Y-21200000D03*
X52360000Y-22940000D03*
G04 #@! TO.N,CS1_1*
X29250000Y-27400000D03*
X14303301Y-7232233D03*
G04 #@! TO.N,CS1_2*
X50800000Y-27350000D03*
X53900000Y-26350000D03*
X55650000Y-26150000D03*
X72767767Y-14303301D03*
G04 #@! TO.N,CS2*
X25000000Y-70500000D03*
X26450000Y-62500000D03*
X28250000Y-60850000D03*
X33150000Y-55950000D03*
X34250000Y-54450000D03*
X34227002Y-52700000D03*
G04 #@! TO.N,CS1_3*
X25600000Y-57294000D03*
X7232233Y-65696699D03*
X29207990Y-52631048D03*
G04 #@! TO.N,CS1_4*
X50250000Y-52650000D03*
X59600000Y-62100000D03*
X59950000Y-65200000D03*
X65696699Y-72767767D03*
G04 #@! TO.N,CS5_1*
X27350000Y-29250000D03*
X14000000Y-27500000D03*
G04 #@! TO.N,CS5_2*
X52700000Y-31200000D03*
X76000000Y-27500000D03*
X56300000Y-28167158D03*
X56120000Y-29710000D03*
G04 #@! TO.N,CS3*
X26250000Y-32200000D03*
X19250000Y-33700000D03*
X16650000Y-33950000D03*
X7500000Y-35000000D03*
G04 #@! TO.N,CS4*
X43750000Y-52600000D03*
X43800000Y-56050000D03*
X44750000Y-59050000D03*
X44900000Y-70500000D03*
G04 #@! TO.N,CS5_3*
X4000000Y-52500000D03*
X7100000Y-49750000D03*
X11000000Y-50000000D03*
X27380000Y-50750000D03*
G04 #@! TO.N,CS5_4*
X50800000Y-52650000D03*
X66000000Y-52500000D03*
G04 #@! TO.N,CS6*
X36700000Y-27400000D03*
X43450000Y-13000000D03*
X49950000Y-11350000D03*
X49950000Y-9500000D03*
G04 #@! TO.N,NRST*
X70500000Y-36000000D03*
X64008000Y-39624000D03*
X51054000Y-45466000D03*
X46736000Y-45466000D03*
X28448000Y-44196000D03*
G04 #@! TD*
D11*
G04 #@! TO.N,+3V3*
X39920000Y-64280000D02*
X40910000Y-63290000D01*
X39920000Y-65200000D02*
X39920000Y-64280000D01*
G04 #@! TO.N,SWCLK*
X66790000Y-38000000D02*
X70500000Y-38000000D01*
X48750000Y-27380000D02*
X48800000Y-27430000D01*
X49533039Y-28902001D02*
X57692001Y-28902001D01*
X48800000Y-27430000D02*
X48800000Y-28168962D01*
X57692001Y-28902001D02*
X66790000Y-38000000D01*
X48800000Y-28168962D02*
X49533039Y-28902001D01*
G04 #@! TO.N,SWDIO*
X67000000Y-38950000D02*
X61300000Y-33250000D01*
X61300000Y-33250000D02*
X52620000Y-33250000D01*
X67000000Y-38950000D02*
X67000000Y-38970000D01*
X68030000Y-40000000D02*
X70500000Y-40000000D01*
X67000000Y-38970000D02*
X68030000Y-40000000D01*
G04 #@! TO.N,SCK5*
X27380000Y-41250000D02*
X26250000Y-41250000D01*
X19317158Y-34548000D02*
X16119158Y-31350000D01*
X19600000Y-34548000D02*
X19317158Y-34548000D01*
X16119158Y-31350000D02*
X10300000Y-31350000D01*
X8000000Y-29050000D02*
X8000000Y-27500000D01*
X10300000Y-31350000D02*
X8000000Y-29050000D01*
X10000000Y-52500000D02*
X10000000Y-51550000D01*
X10000000Y-49900000D02*
X21400000Y-38500000D01*
X10000000Y-51550000D02*
X10000000Y-49900000D01*
X22450000Y-37450000D02*
X21600000Y-36600000D01*
X26250000Y-41250000D02*
X22450000Y-37450000D01*
X72000000Y-47950000D02*
X74350000Y-45600000D01*
X74350000Y-45600000D02*
X74650000Y-45300000D01*
X74754020Y-45195980D02*
X74754020Y-45112324D01*
X74650000Y-45300000D02*
X74754020Y-45195980D01*
X70000000Y-29150000D02*
X70000000Y-27500000D01*
X73095999Y-32245999D02*
X70000000Y-29150000D01*
X72000000Y-50250000D02*
X72000000Y-47950000D01*
X71150000Y-50250000D02*
X70750000Y-49850000D01*
X72000000Y-52500000D02*
X72000000Y-50250000D01*
X72000000Y-50250000D02*
X71150000Y-50250000D01*
X74754020Y-45112324D02*
X74829010Y-35200000D01*
X28190000Y-41250000D02*
X27380000Y-41250000D01*
X66900000Y-48720990D02*
X52920990Y-48720990D01*
X52920990Y-48720990D02*
X45450000Y-41250000D01*
X45450000Y-41250000D02*
X28190000Y-41250000D01*
G04 #@! TO.N,MISO5*
X12400000Y-30850000D02*
X12800000Y-30850000D01*
X10000000Y-28450000D02*
X12400000Y-30850000D01*
X10000000Y-27500000D02*
X10000000Y-28450000D01*
X14000000Y-31900000D02*
X15000000Y-31900000D01*
X15000000Y-31900000D02*
X16000000Y-31900000D01*
X16000000Y-31900000D02*
X16100000Y-31900000D01*
X18564966Y-34364966D02*
X18564966Y-34435034D01*
X16100000Y-31900000D02*
X18564966Y-34364966D01*
X25972998Y-41772998D02*
X27537247Y-41772998D01*
X20700000Y-36500000D02*
X25972998Y-41772998D01*
X8000000Y-50800000D02*
X9100000Y-49700000D01*
X8000000Y-52500000D02*
X8000000Y-50800000D01*
X9100000Y-49700000D02*
X9550000Y-49700000D01*
X20750000Y-38500000D02*
X20750000Y-38450000D01*
X9550000Y-49700000D02*
X20750000Y-38500000D01*
X70650000Y-48683172D02*
X74377010Y-44956162D01*
X70650000Y-48700000D02*
X70650000Y-48683172D01*
X70000000Y-49350000D02*
X70650000Y-48700000D01*
X74377010Y-44956162D02*
X74377010Y-33074990D01*
X72000000Y-30552000D02*
X72000000Y-27500000D01*
X73548000Y-32100000D02*
X72000000Y-30552000D01*
X27537247Y-41772998D02*
X45306170Y-41772998D01*
X52706162Y-49172990D02*
X67572990Y-49172990D01*
X45306170Y-41772998D02*
X52706162Y-49172990D01*
X70000000Y-52500000D02*
X70000000Y-50100000D01*
X70000000Y-50100000D02*
X70000000Y-49350000D01*
X74452000Y-33000000D02*
X74377010Y-33074990D01*
X74452000Y-32230000D02*
X74452000Y-33000000D01*
G04 #@! TO.N,MOSI5*
X25940867Y-42274039D02*
X21216828Y-37550000D01*
X26793924Y-42274039D02*
X25940867Y-42274039D01*
X21000000Y-37550000D02*
X19900000Y-36450000D01*
X21216828Y-37550000D02*
X21000000Y-37550000D01*
X17700000Y-34250000D02*
X15800000Y-32350000D01*
X15302000Y-32350000D02*
X15300000Y-32352000D01*
X15800000Y-32350000D02*
X15302000Y-32350000D01*
X6000000Y-51550000D02*
X8300000Y-49250000D01*
X6000000Y-52500000D02*
X6000000Y-51550000D01*
X8300000Y-49250000D02*
X9466828Y-49250000D01*
X9466828Y-49250000D02*
X9466828Y-49233172D01*
X9466828Y-49233172D02*
X20250000Y-38450000D01*
X20250000Y-36800000D02*
X19900000Y-36450000D01*
X20250000Y-38450000D02*
X20250000Y-36800000D01*
X74000000Y-44800000D02*
X74000000Y-27500000D01*
X68000000Y-50800000D02*
X74000000Y-44800000D01*
X68000000Y-52500000D02*
X68000000Y-50800000D01*
X26793924Y-42274039D02*
X45274039Y-42274039D01*
X45274039Y-42274039D02*
X52550000Y-49550000D01*
X66750000Y-49550000D02*
X68000000Y-50800000D01*
X52550000Y-49550000D02*
X66750000Y-49550000D01*
G04 #@! TO.N,SCK1*
X32250000Y-52650000D02*
X32250000Y-54150000D01*
X32250000Y-54200000D02*
X35250000Y-57200000D01*
X35250000Y-57200000D02*
X35400000Y-57350000D01*
X35400000Y-57350000D02*
X35450000Y-57400000D01*
X36900000Y-57400000D02*
X36922990Y-57377010D01*
X35450000Y-57400000D02*
X36900000Y-57400000D01*
X36922990Y-57377010D02*
X51893838Y-57377010D01*
X51893838Y-57377010D02*
X51893838Y-57393838D01*
X51893838Y-57393838D02*
X55400000Y-60900000D01*
X56405387Y-61905387D02*
X56405387Y-61994613D01*
X55400000Y-60900000D02*
X56405387Y-61905387D01*
X58396614Y-61413772D02*
X58396614Y-61680270D01*
X58082842Y-61100000D02*
X58396614Y-61413772D01*
X57800000Y-61100000D02*
X58082842Y-61100000D01*
X58396614Y-61680270D02*
X64889334Y-68172990D01*
X64889334Y-68172990D02*
X64912324Y-68150000D01*
X69564214Y-68150000D02*
X69939340Y-68525126D01*
X64912324Y-68150000D02*
X69564214Y-68150000D01*
X32250000Y-54150000D02*
X32250000Y-54200000D01*
X22764214Y-58650000D02*
X24337339Y-58650000D01*
X24337339Y-58650000D02*
X26350000Y-58650000D01*
X11474874Y-69939340D02*
X22764214Y-58650000D01*
X29950000Y-56500000D02*
X32250000Y-54200000D01*
X29950000Y-57000000D02*
X29950000Y-56500000D01*
X2100000Y-65483172D02*
X2100000Y-11900000D01*
X11474874Y-69939340D02*
X11474874Y-70025126D01*
X11474874Y-70025126D02*
X10750000Y-70750000D01*
X10750000Y-70750000D02*
X7366828Y-70750000D01*
X2100000Y-11900000D02*
X4500000Y-9500000D01*
X7366828Y-70750000D02*
X2100000Y-65483172D01*
X69332233Y-10060660D02*
X69921573Y-10650000D01*
X68525126Y-10060660D02*
X69332233Y-10060660D01*
X73416344Y-10650000D02*
X77604018Y-14837674D01*
X69921573Y-10650000D02*
X73416344Y-10650000D01*
X77604018Y-14837674D02*
X77604018Y-65395982D01*
X72980387Y-70019613D02*
X72969613Y-70019613D01*
X77604018Y-65395982D02*
X72980387Y-70019613D01*
G04 #@! TO.N,MISO1*
X32750000Y-52650000D02*
X32750000Y-52932842D01*
X32750000Y-52932842D02*
X32750000Y-54100000D01*
X32750000Y-54166828D02*
X35441586Y-56858414D01*
X35441586Y-56858414D02*
X35583172Y-57000000D01*
X35583172Y-57000000D02*
X52050000Y-57000000D01*
X57230387Y-62180387D02*
X57230387Y-62219613D01*
X52050000Y-57000000D02*
X57230387Y-62180387D01*
X58000000Y-61710774D02*
X58000000Y-61816828D01*
X57944613Y-61655387D02*
X58000000Y-61710774D01*
X58000000Y-61816828D02*
X64733172Y-68550000D01*
X67135786Y-68550000D02*
X68525126Y-69939340D01*
X64733172Y-68550000D02*
X67135786Y-68550000D01*
X32750000Y-54100000D02*
X32750000Y-54166828D01*
X22683042Y-58198000D02*
X13481042Y-67400000D01*
X25700000Y-58198000D02*
X22683042Y-58198000D01*
X11185786Y-67400000D02*
X10060660Y-68525126D01*
X13481042Y-67400000D02*
X11185786Y-67400000D01*
X9253553Y-68525126D02*
X8678679Y-69100000D01*
X10060660Y-68525126D02*
X9253553Y-68525126D01*
X8678679Y-69100000D02*
X6250000Y-69100000D01*
X6250000Y-69100000D02*
X2550000Y-65400000D01*
X2550000Y-65400000D02*
X2550000Y-12400000D01*
X6450000Y-8500000D02*
X6600000Y-8500000D01*
X2550000Y-12400000D02*
X6450000Y-8500000D01*
X77227010Y-65122990D02*
X77227009Y-14993837D01*
X70600000Y-71750000D02*
X77227010Y-65122990D01*
X77227009Y-14993837D02*
X73283172Y-11050000D01*
X73283172Y-11050000D02*
X70350000Y-11050000D01*
X69939340Y-11460660D02*
X69939340Y-11474874D01*
X70350000Y-11050000D02*
X69939340Y-11460660D01*
G04 #@! TO.N,MOSI1*
X33250000Y-52650000D02*
X33250000Y-54133656D01*
X33250000Y-54133656D02*
X35708172Y-56591828D01*
X35708172Y-56591828D02*
X52241828Y-56591828D01*
X67003553Y-71353553D02*
X67110913Y-71353553D01*
X52241828Y-56591828D02*
X67003553Y-71353553D01*
X9742461Y-66014899D02*
X14285101Y-66014899D01*
X8646447Y-67110913D02*
X9742461Y-66014899D01*
X14285101Y-66014899D02*
X16350000Y-63950000D01*
X16350000Y-63950000D02*
X16350000Y-63900000D01*
X16350000Y-63900000D02*
X22500000Y-57750000D01*
X25196000Y-57750000D02*
X25200000Y-57746000D01*
X22500000Y-57750000D02*
X25196000Y-57750000D01*
X28300000Y-57300000D02*
X29400000Y-57300000D01*
X30829928Y-57452001D02*
X30881929Y-57400000D01*
X29552001Y-57452001D02*
X30829928Y-57452001D01*
X29400000Y-57300000D02*
X29552001Y-57452001D01*
X30881929Y-57400000D02*
X32408708Y-55873221D01*
X8646447Y-67110913D02*
X7107360Y-68650000D01*
X7107360Y-68650000D02*
X6450000Y-68650000D01*
X6450000Y-68650000D02*
X2950000Y-65150000D01*
X2950000Y-65150000D02*
X2950000Y-13150000D01*
X2950000Y-13150000D02*
X8550000Y-7550000D01*
X11792640Y-7550000D02*
X12889087Y-8646447D01*
X8550000Y-7550000D02*
X11792640Y-7550000D01*
X67153553Y-71353553D02*
X67110913Y-71353553D01*
X68000000Y-72200000D02*
X67153553Y-71353553D01*
X71353553Y-12889087D02*
X71410913Y-12889087D01*
X76850000Y-15150000D02*
X76850000Y-64600000D01*
X72300000Y-12000000D02*
X73700000Y-12000000D01*
X71410913Y-12889087D02*
X72300000Y-12000000D01*
X69250000Y-72200000D02*
X68000000Y-72200000D01*
X76850000Y-64600000D02*
X69250000Y-72200000D01*
X73700000Y-12000000D02*
X76850000Y-15150000D01*
G04 #@! TO.N,SCK4*
X44250000Y-55900000D02*
X44500000Y-56150000D01*
X44250000Y-52600000D02*
X44250000Y-55900000D01*
X47729010Y-67579010D02*
X47729010Y-60200000D01*
X50000000Y-68500000D02*
X48650000Y-68500000D01*
X50900000Y-70500000D02*
X50900000Y-69400000D01*
X50900000Y-69400000D02*
X50000000Y-68500000D01*
X48650000Y-68500000D02*
X47729010Y-67579010D01*
G04 #@! TO.N,MISO4*
X48900000Y-69550000D02*
X47277010Y-67927010D01*
X48900000Y-70500000D02*
X48900000Y-69550000D01*
X47277010Y-59674990D02*
X47352000Y-59600000D01*
X47277010Y-67927010D02*
X47277010Y-59674990D01*
X44750000Y-55680528D02*
X44750000Y-52600000D01*
X44882192Y-55812720D02*
X44750000Y-55680528D01*
G04 #@! TO.N,MOSI4*
X45250000Y-55550000D02*
X45550000Y-55850000D01*
X45250000Y-52600000D02*
X45250000Y-55550000D01*
X46900000Y-70500000D02*
X46900000Y-58750000D01*
X46900000Y-58750000D02*
X46350000Y-58200000D01*
G04 #@! TO.N,SCK2*
X31000000Y-70500000D02*
X31000000Y-69160000D01*
X31000000Y-69160000D02*
X31680000Y-68480000D01*
X31680000Y-68480000D02*
X40560000Y-68480000D01*
X43300000Y-65740000D02*
X43300000Y-58210000D01*
X40560000Y-68480000D02*
X43300000Y-65740000D01*
G04 #@! TO.N,MISO2*
X27360000Y-53426659D02*
X30109934Y-50676725D01*
X29000000Y-69550000D02*
X27360000Y-67910000D01*
X27360000Y-67910000D02*
X27360000Y-53426659D01*
X29000000Y-70500000D02*
X29000000Y-69550000D01*
G04 #@! TO.N,MOSI2*
X27000000Y-68800000D02*
X27000000Y-70500000D01*
X29440000Y-50500000D02*
X26982989Y-52957011D01*
X26982989Y-52957011D02*
X26982989Y-68782989D01*
X26982989Y-68782989D02*
X27000000Y-68800000D01*
G04 #@! TO.N,TX*
X56770002Y-37000000D02*
X59800000Y-37000000D01*
X53874095Y-35050001D02*
X53931056Y-34993040D01*
X54763042Y-34993040D02*
X56770002Y-37000000D01*
X53620000Y-35250000D02*
X53819999Y-35050001D01*
X53819999Y-35050001D02*
X53874095Y-35050001D01*
X53931056Y-34993040D02*
X54763042Y-34993040D01*
X59800000Y-37000000D02*
X61500000Y-37000000D01*
G04 #@! TO.N,RX*
X54347989Y-35645040D02*
X54147990Y-35445041D01*
X57702949Y-39000000D02*
X54347989Y-35645040D01*
X61500000Y-39000000D02*
X57702949Y-39000000D01*
G04 #@! TO.N,USBDM*
X54060000Y-47917158D02*
X54207990Y-47769168D01*
X54207990Y-47769168D02*
X54207990Y-47260000D01*
X54060000Y-48200000D02*
X54060000Y-47917158D01*
G04 #@! TO.N,SCK3*
X9233172Y-41000000D02*
X12983172Y-37250000D01*
X7500000Y-41000000D02*
X9233172Y-41000000D01*
X12983172Y-37250000D02*
X13216586Y-37016586D01*
X13301591Y-36931581D02*
X19685964Y-36931581D01*
X13216586Y-37016586D02*
X13301591Y-36931581D01*
X47750000Y-29316344D02*
X47750000Y-27380000D01*
X28466344Y-32750000D02*
X44316344Y-32750000D01*
X22500000Y-36600000D02*
X22795980Y-36304020D01*
X44316344Y-32750000D02*
X47750000Y-29316344D01*
X22795980Y-36304020D02*
X24912324Y-36304020D01*
X24912324Y-36304020D02*
X28466344Y-32750000D01*
G04 #@! TO.N,MISO3*
X47220652Y-28286972D02*
X47127010Y-28380614D01*
X47220652Y-28004130D02*
X47220652Y-28286972D01*
X47127010Y-28380614D02*
X47127009Y-29406163D01*
X44433172Y-32100000D02*
X44179152Y-32354020D01*
X47127009Y-29406163D02*
X44433172Y-32100000D01*
X44179152Y-32354020D02*
X28329152Y-32354020D01*
X25033172Y-35650000D02*
X24783172Y-35650000D01*
X24783172Y-35650000D02*
X24506162Y-35927010D01*
X28329152Y-32354020D02*
X25033172Y-35650000D01*
X24506162Y-35927010D02*
X13772990Y-35927010D01*
X10700000Y-39000000D02*
X7500000Y-39000000D01*
X13772990Y-35927010D02*
X10700000Y-39000000D01*
G04 #@! TO.N,MOSI3*
X46750000Y-29250000D02*
X46750000Y-27380000D01*
X28172990Y-31977010D02*
X44022990Y-31977010D01*
X44022990Y-31977010D02*
X46750000Y-29250000D01*
X25047999Y-34852001D02*
X25297999Y-34852001D01*
X24350000Y-35550000D02*
X25047999Y-34852001D01*
X25297999Y-34852001D02*
X28172990Y-31977010D01*
X7500000Y-37000000D02*
X8450000Y-37000000D01*
X9900000Y-35550000D02*
X24350000Y-35550000D01*
X8450000Y-37000000D02*
X9900000Y-35550000D01*
G04 #@! TO.N,MISO6*
X39750000Y-27400000D02*
X39750000Y-19383172D01*
X39750000Y-19383172D02*
X41433172Y-17700000D01*
X42200000Y-17700000D02*
X45000000Y-14900000D01*
X41433172Y-17700000D02*
X42200000Y-17700000D01*
X46000000Y-12610774D02*
X46000000Y-9500000D01*
X45530387Y-13080387D02*
X46000000Y-12610774D01*
G04 #@! TO.N,SCK6*
X44000000Y-9500000D02*
X44000000Y-14600000D01*
X39250000Y-19350000D02*
X39250000Y-27400000D01*
X44000000Y-14600000D02*
X39250000Y-19350000D01*
G04 #@! TO.N,MOSI6*
X38750000Y-19200000D02*
X40400000Y-17550000D01*
X38750000Y-27400000D02*
X38750000Y-19200000D01*
X44377010Y-14862216D02*
X44387784Y-14862216D01*
X42144613Y-17094613D02*
X44377010Y-14862216D01*
X48000000Y-11250000D02*
X48000000Y-11200000D01*
X48000000Y-11200000D02*
X48000000Y-9500000D01*
X44387784Y-14862216D02*
X48000000Y-11250000D01*
G04 #@! TO.N,+5V*
X45210000Y-18345000D02*
X48065000Y-21200000D01*
X45210000Y-17420000D02*
X45210000Y-18345000D01*
G04 #@! TO.N,CS1_1*
X14303301Y-8039340D02*
X17950000Y-11686039D01*
X14303301Y-7232233D02*
X14303301Y-8039340D01*
X17950000Y-11686039D02*
X17950000Y-19250000D01*
X26100000Y-27400000D02*
X29250000Y-27400000D01*
X17950000Y-19250000D02*
X26100000Y-27400000D01*
G04 #@! TO.N,CS1_2*
X52900000Y-27350000D02*
X53900000Y-26350000D01*
X50800000Y-27350000D02*
X52900000Y-27350000D01*
X55849999Y-25950001D02*
X57983985Y-25950001D01*
X55650000Y-26150000D02*
X55849999Y-25950001D01*
X57983985Y-25950001D02*
X58433986Y-25500000D01*
X58433986Y-25500000D02*
X64500000Y-25500000D01*
X64500000Y-25500000D02*
X65650000Y-24350000D01*
X65650000Y-24350000D02*
X66600000Y-24350000D01*
X72767767Y-18182233D02*
X72767767Y-14303301D01*
X66600000Y-24350000D02*
X72767767Y-18182233D01*
G04 #@! TO.N,CS2*
X25000000Y-68800000D02*
X26450000Y-67350000D01*
X25000000Y-70500000D02*
X25000000Y-68800000D01*
X26450000Y-67350000D02*
X26450000Y-62500000D01*
X28250000Y-60850000D02*
X33150000Y-55950000D01*
X34250000Y-54450000D02*
X34250000Y-52750000D01*
X34250000Y-52722998D02*
X34227002Y-52700000D01*
X34250000Y-52750000D02*
X34250000Y-52722998D01*
G04 #@! TO.N,CS1_3*
X14550000Y-64900000D02*
X8028932Y-64900000D01*
X8028932Y-64900000D02*
X7232233Y-65696699D01*
X25600000Y-57294000D02*
X22156000Y-57294000D01*
X22156000Y-57294000D02*
X14550000Y-64900000D01*
G04 #@! TO.N,CS1_4*
X50250000Y-52932842D02*
X51300000Y-53982842D01*
X50250000Y-52650000D02*
X50250000Y-52932842D01*
X51300000Y-55116828D02*
X54183172Y-58000000D01*
X51300000Y-53982842D02*
X51300000Y-55116828D01*
X54183172Y-58000000D02*
X56000000Y-58000000D01*
X59600000Y-61600000D02*
X59600000Y-62100000D01*
X56000000Y-58000000D02*
X59600000Y-61600000D01*
X59950000Y-65200000D02*
X64300000Y-69550000D01*
X64300000Y-71371068D02*
X65696699Y-72767767D01*
X64300000Y-69550000D02*
X64300000Y-71371068D01*
G04 #@! TO.N,CS5_1*
X15750000Y-29250000D02*
X14000000Y-27500000D01*
X27350000Y-29250000D02*
X15750000Y-29250000D01*
G04 #@! TO.N,CS5_2*
X75200000Y-24950000D02*
X76000000Y-25750000D01*
X76000000Y-25750000D02*
X76000000Y-27500000D01*
X65750000Y-24950000D02*
X75200000Y-24950000D01*
X64800000Y-25900000D02*
X65750000Y-24950000D01*
X58567158Y-25900000D02*
X64800000Y-25900000D01*
X56300000Y-28167158D02*
X58567158Y-25900000D01*
X54630000Y-31200000D02*
X52700000Y-31200000D01*
X56120000Y-29710000D02*
X54630000Y-31200000D01*
G04 #@! TO.N,CS3*
X25967158Y-32200000D02*
X25517158Y-32650000D01*
X26250000Y-32200000D02*
X25967158Y-32200000D01*
X20300000Y-32650000D02*
X19250000Y-33700000D01*
X25517158Y-32650000D02*
X20300000Y-32650000D01*
X16650000Y-33950000D02*
X15600000Y-35000000D01*
X15600000Y-35000000D02*
X7500000Y-35000000D01*
G04 #@! TO.N,CS4*
X43750000Y-56000000D02*
X43800000Y-56050000D01*
X43750000Y-52600000D02*
X43750000Y-56000000D01*
X44750000Y-70350000D02*
X44900000Y-70500000D01*
X44750000Y-59050000D02*
X44750000Y-70350000D01*
G04 #@! TO.N,CS5_3*
X5800000Y-49750000D02*
X7100000Y-49750000D01*
X4000000Y-51550000D02*
X5800000Y-49750000D01*
X4000000Y-52500000D02*
X4000000Y-51550000D01*
X21400000Y-50000000D02*
X22200000Y-50800000D01*
X11000000Y-50000000D02*
X21400000Y-50000000D01*
X27330000Y-50800000D02*
X27380000Y-50750000D01*
X22200000Y-50800000D02*
X27330000Y-50800000D01*
G04 #@! TO.N,CS5_4*
X65850000Y-52650000D02*
X66000000Y-52500000D01*
X50800000Y-52650000D02*
X65850000Y-52650000D01*
G04 #@! TO.N,CS6*
X36700000Y-27400000D02*
X36700000Y-25350000D01*
X36700000Y-25350000D02*
X38200000Y-23850000D01*
X38200000Y-23850000D02*
X38200000Y-19000000D01*
X38200000Y-19000000D02*
X43450000Y-13750000D01*
X43450000Y-13750000D02*
X43450000Y-13000000D01*
X49950000Y-11350000D02*
X49950000Y-9500000D01*
G04 #@! TO.N,NRST*
X64008000Y-39624000D02*
X59944000Y-39624000D01*
X54102000Y-45466000D02*
X51054000Y-45466000D01*
X59944000Y-39624000D02*
X54102000Y-45466000D01*
X46736000Y-45466000D02*
X29972000Y-45466000D01*
X28702000Y-44196000D02*
X28448000Y-44196000D01*
X29972000Y-45466000D02*
X28702000Y-44196000D01*
G04 #@! TD*
M02*
